<svg width="29" height="28" viewBox="0 0 29 28" fill="none" xmlns="http://www.w3.org/2000/svg">
<path d="M14.4607 12.3767C14.4404 12.3509 14.4145 12.33 14.3849 12.3157C14.3553 12.3013 14.3228 12.2939 14.2899 12.2939C14.2569 12.2939 14.2244 12.3013 14.1948 12.3157C14.1652 12.33 14.1393 12.3509 14.119 12.3767L11.0813 16.1975C11.0563 16.2293 11.0407 16.2674 11.0365 16.3076C11.0322 16.3477 11.0394 16.3883 11.0572 16.4246C11.075 16.4609 11.1028 16.4914 11.1373 16.5128C11.1717 16.5341 11.2115 16.5454 11.2522 16.5453H13.2565V23.0814C13.2565 23.2001 13.3541 23.2971 13.4735 23.2971H15.1008C15.2202 23.2971 15.3178 23.2001 15.3178 23.0814V16.548H17.3276C17.5093 16.548 17.6096 16.3404 17.4984 16.2002L14.4607 12.3767Z" fill="#FFA800"/>
<path d="M22.4103 9.88777C21.1681 6.63049 18.0029 4.31427 14.2953 4.31427C10.5877 4.31427 7.42252 6.6278 6.18031 9.88507C3.85593 10.4918 2.13908 12.5977 2.13908 15.0999C2.13908 18.0795 4.56653 20.4928 7.56084 20.4928H8.64845C8.76779 20.4928 8.86543 20.3957 8.86543 20.2771V18.6592C8.86543 18.5406 8.76779 18.4435 8.64845 18.4435H7.56084C6.64682 18.4435 5.78704 18.0822 5.14695 17.427C4.50958 16.7744 4.17055 15.8954 4.20038 14.984C4.22479 14.2721 4.46889 13.6034 4.91099 13.0399C5.36393 12.4655 5.99859 12.0476 6.70377 11.8615L7.73171 11.5946L8.10871 10.6077C8.34196 9.99293 8.66743 9.41859 9.07698 8.89818C9.4813 8.38238 9.96023 7.92895 10.4982 7.55267C11.6129 6.7734 12.9256 6.36085 14.2953 6.36085C15.665 6.36085 16.9777 6.7734 18.0924 7.55267C18.6322 7.93017 19.1095 8.38317 19.5137 8.89818C19.9232 9.41859 20.2487 9.99563 20.4819 10.6077L20.8562 11.5919L21.8814 11.8615C23.3515 12.2552 24.3794 13.5846 24.3794 15.0999C24.3794 15.9925 24.0295 16.8337 23.3949 17.4647C23.0836 17.7759 22.7134 18.0227 22.3055 18.1907C21.8977 18.3587 21.4604 18.4447 21.0189 18.4435H19.9313C19.812 18.4435 19.7144 18.5406 19.7144 18.6592V20.2771C19.7144 20.3957 19.812 20.4928 19.9313 20.4928H21.0189C24.0133 20.4928 26.4407 18.0795 26.4407 15.0999C26.4407 12.6004 24.7293 10.4972 22.4103 9.88777Z" fill="#FFA800"/>
</svg>
