<svg fill="none" height="16" viewBox="0 0 21 16" width="21" xmlns="http://www.w3.org/2000/svg"><g fill="#fff"><path d="m19.2079.839966h-17.66478c-.818829 0-1.4825731.663844-1.4825731 1.482574 0 .81883.6638411 1.48257 1.4825731 1.48257h17.66478c.8188 0 1.4826-.66384 1.4826-1.48257s-.6638-1.482574-1.4826-1.482574z"/><path d="m19.2079 6.93753h-17.66478c-.818829 0-1.4825731.66384-1.4825731 1.48258 0 .81873.6638411 1.48257 1.4825731 1.48257h17.66478c.8188 0 1.4826-.66384 1.4826-1.48257 0-.81874-.6638-1.48258-1.4826-1.48258z"/><path d="m12.4083 13.0348h-10.86518c-.818831 0-1.4825731.6639-1.4825731 1.4826 0 .8188.6638401 1.4826 1.4825731 1.4826h10.86508c.8188 0 1.4826-.6639 1.4826-1.4826s-.6637-1.4826-1.4825-1.4826z"/></g></svg>