<svg width="24" height="27" viewBox="0 0 24 27" fill="none" xmlns="http://www.w3.org/2000/svg">
<path d="M23.042 20.0239C21.609 20.0239 21.442 18.3869 19.231 18.3869C17.02 18.3869 16.831 20.0239 15.407 20.0239C13.983 20.0239 13.798 18.3869 11.583 18.3869C9.392 18.3869 9.168 20.0239 7.772 20.0239C6.332 20.0239 6.172 18.3869 3.948 18.3869C1.724 18.3869 1.562 20.0239 0.125 20.0239V15.9309C0.126588 15.2807 0.385909 14.6577 0.84611 14.1984C1.30631 13.7392 1.92984 13.4811 2.58 13.4809H3.398V6.10986H6.673V13.4809H9.946V6.10986H13.225V13.4809H16.499V6.10986H19.773V13.4809H20.591C21.242 13.4811 21.8663 13.7399 22.3267 14.2002C22.787 14.6605 23.0457 15.2848 23.046 15.9359L23.042 20.0239ZM23.042 26.5719H0.125V21.6609C2.343 21.6609 2.517 20.0239 3.949 20.0239C5.381 20.0239 5.549 21.6609 7.773 21.6609C9.965 21.6609 10.188 20.0239 11.584 20.0239C13.024 20.0239 13.184 21.6609 15.408 21.6609C17.632 21.6609 17.8 20.0239 19.232 20.0239C20.638 20.0239 20.832 21.6609 23.043 21.6609L23.042 26.5719ZM5.036 5.29186C4.82084 5.29252 4.60767 5.25063 4.40877 5.16859C4.20986 5.08656 4.02914 4.96601 3.87699 4.81387C3.72485 4.66172 3.6043 4.481 3.52226 4.28209C3.44023 4.08318 3.39834 3.87002 3.399 3.65486C3.399 2.06886 5.036 2.48086 5.036 0.380859C5.65 0.380859 6.673 1.88986 6.673 3.24586C6.673 4.60186 5.944 5.29186 5.036 5.29186ZM11.584 5.29186C11.3688 5.29265 11.1555 5.25086 10.9565 5.16888C10.7574 5.08691 10.5766 4.96638 10.4243 4.81422C10.2721 4.66207 10.1515 4.4813 10.0694 4.28232C9.98726 4.08335 9.94534 3.8701 9.946 3.65486C9.946 2.06886 11.583 2.48086 11.583 0.380859C12.197 0.380859 13.225 1.88986 13.225 3.24586C13.225 4.60186 12.491 5.29186 11.583 5.29186H11.584ZM18.132 5.29186C17.9168 5.29252 17.7037 5.25063 17.5048 5.16859C17.3059 5.08656 17.1251 4.96601 16.973 4.81387C16.8209 4.66172 16.7003 4.481 16.6183 4.28209C16.5362 4.08318 16.4943 3.87002 16.495 3.65486C16.495 2.06886 18.132 2.47786 18.132 0.380859C18.746 0.380859 19.769 1.88986 19.769 3.24586C19.769 4.60186 19.039 5.29186 18.131 5.29186H18.132Z" fill="#A4ACAE"/>
</svg>
