<svg fill="none" height="15" viewBox="0 0 16 15" width="16" xmlns="http://www.w3.org/2000/svg"><path d="m10.775 2.83124 2.414 2.414c.0487.04908.076.11539.076.18451 0 .06911-.0273.13542-.076.18449l-5.845 5.84496-2.484.276c-.0776.0086-.15613-.0004-.22978-.0262-.07366-.0259-.14056-.068-.19577-.1232-.0552-.0552-.09729-.1221-.12316-.1958-.02587-.0736-.03485-.1522-.02629-.2298l.275-2.48396 5.845-5.845c.0491-.04897.1156-.07647.185-.07647s.1359.0275.185.07647zm4.336-.613-1.311-1.305995c-.1962-.195227-.4617-.304823-.7385-.304823s-.5423.109596-.7385.304823l-.947.946995c-.0487.04908-.076.11539-.076.1845 0 .06912.0273.13543.076.1845l2.414 2.414c.0491.04868.1154.07598.1845.07598s.1354-.0273.1845-.07598l.951-.942c.1952-.19619.3048-.46171.3048-.7385 0-.27678-.1096-.5423-.3048-.7385zm-4.834 7.652v2.72396h-8.564v-8.56396h6.15c.08497-.00084.16631-.03452.227-.094l1.07-1.07c.04525-.04483.07613-.10212.08871-.16457.01259-.06244.00632-.12722-.01802-.18608-.02434-.05887-.06565-.10916-.11866-.14448s-.11533-.05407-.17903-.05387h-7.648c-.340457 0-.666999.13511-.907926.37567-.240927.24055-.37654411.56688-.377074.90733v9.41996c0 .3408.135384.6677.376368.9087s.567829.3763.908632.3763h9.415c.3408 0 .6676-.1353.9086-.3763s.3764-.5679.3764-.9087v-4.21996c-.0003-.06348-.0193-.12547-.0547-.17817s-.0856-.09376-.1443-.11802c-.0586-.02426-.1232-.03063-.1854-.01832-.0623.01231-.1196.04276-.1646.08752l-1.07 1.06999c-.0576.06148-.0895.14273-.089.227z" fill="#b5b5b5"/></svg>