<svg fill="none" height="50" viewBox="0 0 50 50" width="50" xmlns="http://www.w3.org/2000/svg" xmlns:xlink="http://www.w3.org/1999/xlink"><linearGradient id="a" gradientUnits="userSpaceOnUse" x1="0" x2="6.96108" y1="0" y2="55.4072"><stop offset="0" stop-color="#8dc63f"/><stop offset="1" stop-color="#035315"/></linearGradient><rect fill="url(#a)" height="50" rx="5" width="50"/><g fill="#fff" fill-opacity=".8"><path d="m44.9999 12.7944h-2.1428v25c.0013.3725-.2843.6836-.6557.7143l-1.8293.15c-.5281.0436-1.0547.0976-1.5793.1622-.1702.0205-.3393.0478-.5085.0715-.3537.0471-.7066.0948-1.0585.1506-.2051.0328-.4088.0712-.6132.1071-.3149.0551-.6305.1099-.9448.172-.2145.0429-.4286.091-.6473.1374-.2993.0634-.5985.1283-.8957.1991-.2228.053-.445.1092-.6665.1657-.2891.0715-.5768.1486-.8642.2288-.2236.0614-.4471.1262-.67.1918-.2857.0844-.5671.1702-.8493.2602-.2207.0715-.4419.143-.6619.2141-.2825.0953-.5637.1936-.8437.2951-.2142.0778-.4287.1559-.6477.2379-.098.0373-.1953.077-.293.1151h16.3714z"/><path clip-rule="evenodd" d="m8.57153 8.57153 1.08992.09138c4.37225.36133 8.66035 1.40659 12.70785 3.09779l1.9165.7959v28.4522l-1.3173-.548c-4.1811-1.7519-8.6115-2.8365-13.12918-3.2143l-1.26779-.1077zm10.41697 19.76897c.138.3952.2852.7996.4416 1.2131h1.4628c-.368-1.0109-.713-1.9438-1.035-2.7985-.322-.8639-.6394-1.6819-.9522-2.4539-.3036-.772-.6072-1.5072-.9108-2.2057-.3036-.7077-.621-1.4061-.9522-2.0954h-1.2282c-.3312.6893-.6486 1.3877-.9522 2.0954-.3036.6985-.6118 1.4337-.9246 2.2057-.3035.772-.6163 1.59-.9383 2.4539-.322.8547-.667 1.7876-1.035 2.7985h1.3938l.8693-2.4401h4.3332c.1472.4136.2898.8226.4278 1.227zm-1.6974-4.6458c.2944.7444.5888 1.5164.8832 2.316h-3.5604c.2852-.7996.5704-1.5716.8556-2.316.2944-.7537.6026-1.4751.9246-2.1644.3128.6893.6118 1.4107.897 2.1644z" fill-rule="evenodd"/><path d="m5 12.7944v28.5715h16.3829c-.0879-.0346-.1758-.0715-.2644-.1043-.2044-.0778-.4105-.1521-.6163-.2271-.2901-.1053-.58-.2078-.8722-.3058-.2114-.0715-.4235-.1409-.6359-.2086-.2898-.0952-.5807-.1849-.8719-.2686-.2145-.0627-.4286-.1259-.6428-.1859-.2936-.0812-.588-.1583-.8831-.234-.2141-.0551-.4286-.1102-.6476-.1615-.2993-.0715-.6003-.137-.9009-.2016-.2142-.0463-.4287-.0934-.6428-.1363-.3115-.0614-.6243-.1165-.9372-.1713-.205-.0359-.4101-.0715-.6155-.1081-.3453-.0548-.6917-.1011-1.038-.1479-.1751-.0233-.3488-.0512-.5235-.0711-.5238-.0635-1.0477-.1176-1.57156-.1622l-1.92278-.1629c-.37075-.0317-.655-.3425-.6536-.7143v-25z"/><path clip-rule="evenodd" d="m41.4286 8.57153v28.56517l-1.1743.0955c-4.5204.3753-8.9547 1.4534-13.1428 3.1958l-1.3971.5808v-28.4522l1.9186-.7966c4.0471-1.6908 8.3346-2.73576 12.7057-3.09709zm-9.3344 20.96857c.2265.009.4348.0135.625.0135 1.5037 0 2.5997-.2345 3.2881-.7036.6974-.4782 1.0462-1.1863 1.0462-2.1245 0-.6406-.1631-1.1367-.4892-1.4886-.3261-.3518-.7654-.6089-1.3179-.7713.4076-.1624.7337-.4059.9783-.7307.2445-.3338.3668-.7578.3668-1.272 0-.4601-.0996-.848-.2989-1.1638-.1993-.3157-.4755-.5683-.8288-.7578-.3442-.1984-.7563-.3383-1.2364-.4195-.471-.0811-.9783-.1217-1.5218-.1217-.1902 0-.394.0045-.6114.0135s-.4393.0225-.6657.0406c-.2174.018-.4348.0406-.6522.0676-.2174.0271-.4167.0632-.5978.1083v9.0935c.1811.0451.3804.0812.5978.1082.2174.0271.4348.0497.6522.0677.2264.018.4483.0316.6657.0406zm-.6114-1.1367v-3.3018h1.6984c.3804 0 .7246.0271 1.0326.0812s.5706.1443.788.2706c.2265.1263.3986.2977.5163.5143.1178.2074.1767.4646.1767.7713 0 .3428-.0816.627-.2446.8525-.154.2255-.3623.4014-.625.5277s-.5706.2166-.9239.2707c-.3442.0451-.7111.0676-1.1006.0676h-.557c-.154-.009-.2899-.018-.4076-.027-.1359-.009-.2536-.0181-.3533-.0271zm1.3859-4.3573h-1.3859v-2.8958c.154-.0181.3261-.0316.5163-.0406s.4529-.0135.7881-.0135c.3351 0 .6521.027.951.0811.299.0542.5571.1399.7745.2572.2265.1082.4031.2571.5299.4465.1268.1804.1902.406.1902.6766 0 .2887-.0634.5278-.1902.7172-.1178.1894-.2853.3428-.5027.4601-.2084.1173-.4574.1985-.7473.2436s-.5978.0676-.9239.0676z" fill-rule="evenodd"/></g></svg>