<svg fill="none" height="16" viewBox="0 0 14 16" width="14" xmlns="http://www.w3.org/2000/svg"><path d="m9.90003 5.10801-1.01401-1.014-5.074 5.073c-.40352.40366-.63017.95109-.63007 1.52189.00009.5707.22691 1.1181.63057 1.5216s.95109.6302 1.52186.6301 1.11812-.2269 1.52164-.6306l6.08798-6.08699c.6609-.67514 1.0287-1.58374 1.0236-2.52849-.0051-.94474-.3827-1.84933-1.0508-2.51731-.6681-.667975-1.5727-1.0454005-2.5175-1.0503061-.94473-.0049056-1.85326.3631051-2.52827 1.0241061l-6.39201 6.391-.014.013c-.938066.93834-1.46496335 2.21089-1.46477581 3.53769s.52744481 2.5992 1.46577581 3.5373c.93834.9381 2.21089 1.465 3.53771 1.4648s2.59922-.5274 3.5373-1.4658l.01299-.014 4.36298-4.362-1.015-1.01399-4.36297 4.36299-.01301.013c-.674.6432-1.57286.9973-2.50446.9865-.93161-.0107-1.82206-.3854-2.48104-1.044s-1.03423-1.5488-1.04553-2.4804c-.01131-.9316.34223-1.8307.98503-2.50509l.014-.013 6.393-6.391c.40353-.40366.95088-.63048 1.52168-.63058.5707-.00009 1.1182.22656 1.5218.63008.4037.40353.6305.95088.6306 1.52165s-.2265 1.11819-.6301 1.52185l-6.08898 6.08499c-.13446.1346-.31689.2103-.50714.2104-.19026.0001-.37276-.0754-.50735-.2099-.1346-.1345-.21027-.3169-.21036-.5071-.0001-.1903.07539-.3728.20986-.5074l5.073-5.07299z" fill="#2da247"/></svg>