<svg fill="none" height="25" viewBox="0 0 22 25" width="22" xmlns="http://www.w3.org/2000/svg" xmlns:xlink="http://www.w3.org/1999/xlink"><filter id="a" color-interpolation-filters="sRGB" filterUnits="userSpaceOnUse" height="25.002" width="21.3301" x="0" y="0"><feFlood flood-opacity="0" result="BackgroundImageFix"/><feBlend in="SourceGraphic" in2="BackgroundImageFix" mode="normal" result="shape"/><feColorMatrix in="SourceAlpha" result="hardAlpha" type="matrix" values="0 0 0 0 0 0 0 0 0 0 0 0 0 0 0 0 0 0 127 0"/><feOffset dy="1"/><feGaussianBlur stdDeviation="1"/><feComposite in2="hardAlpha" k2="-1" k3="1" operator="arithmetic"/><feColorMatrix type="matrix" values="0 0 0 0 0 0 0 0 0 0 0 0 0 0 0 0 0 0 0.25 0"/><feBlend in2="shape" mode="normal" result="effect1_innerShadow_3913:1605"/></filter><g fill="#2bb673" filter="url(#a)"><path d="m11.8628 8.4621c1.2533.33451 2.6566 0 3.6759-.78529 1.3201-1.03579 1.9884-2.90711 1.4873-4.52792-.5512-2.03858-2.7068-3.458389-4.7784-3.0908743-1.9718.2670103-3.62563 2.0715843-3.62563 4.0771643-.15076 1.97107 1.3193 3.8919 3.24083 4.32692z"/><path d="m21.3208 15.029c-.0833-.4681-.5678-.7021-.9361-.9023-1.821-.9023-3.6594-1.7881-5.4804-2.6731-.4508-.267-.9691-.0668-1.3201.267-.936.9023-1.7213 1.9718-2.7233 2.7901-.3841-1.5541-.6353-3.1576-1.2196-4.64495-.45077-1.13629-2.00483-1.63731-3.00762-.93528-2.57335 1.68753-4.24366 4.41093-5.34695 7.20103-.951792 2.4901-1.553316 5.2135-1.169301 7.8701h13.300271c1.6208-.7853 3.3916-1.2031 5.0627-1.8879.6353-.2505 1.0193-.936 1.0028-1.6043-.0668-.735-.468-1.3703-.7853-2.0213.6848-.819 1.4206-1.6043 2.1383-2.3896.2506-.2843.5513-.6345.4846-1.0695zm-4.294 3.0916-1.9718-2.6064c-.117-.15-.3345-.1837-.4845-.0667s-.1838.3345-.0668.4845l1.9216 2.5396c-.0667.0165-.1335.0502-.2002.0667-1.5706.5183-3.1074 1.1198-4.6787 1.6374-.0833-1.1693-.267-2.3394-.384-3.5087-.0503-.2505.1335-.4177.2842-.5678 1.0193-1.0695 1.9884-2.172 3.0744-3.1748 1.236.5347 2.4226 1.203 3.6421 1.7708.4508.234.9526.384 1.3366.735-.8858.8521-1.6208 1.8211-2.4729 2.6904z"/></g></svg>