<svg fill="none" height="24" viewBox="0 0 19 24" width="19" xmlns="http://www.w3.org/2000/svg" xmlns:xlink="http://www.w3.org/1999/xlink"><filter id="a" color-interpolation-filters="sRGB" filterUnits="userSpaceOnUse" height="25" width="18.2393" x="0" y="0"><feFlood flood-opacity="0" result="BackgroundImageFix"/><feBlend in="SourceGraphic" in2="BackgroundImageFix" mode="normal" result="shape"/><feColorMatrix in="SourceAlpha" result="hardAlpha" type="matrix" values="0 0 0 0 0 0 0 0 0 0 0 0 0 0 0 0 0 0 127 0"/><feOffset dy="1"/><feGaussianBlur stdDeviation="1"/><feComposite in2="hardAlpha" k2="-1" k3="1" operator="arithmetic"/><feColorMatrix type="matrix" values="0 0 0 0 0 0 0 0 0 0 0 0 0 0 0 0 0 0 0.25 0"/><feBlend in2="shape" mode="normal" result="effect1_innerShadow"/></filter><g filter="url(#a)"><path d="m13.4945 18.5105h2.9617l-3.2027 3.4143v-3.1734c0-.1329.1081-.2409.241-.2409zm-3.57415-13.25709.91305-.11812-.57-.818zm8.31915-4.665175v16.745765h-4.745c-.7817 0-1.4174.6359-1.4174 1.4174v5.2486h-11.488865c-.324941 0-.588235-.2634-.588235-.5882v-22.823565c0-.324823.263294-.588235.588235-.588235h17.062965c.3249 0 .5883.263412.5883.588235zm-9.8555 7.148235c.06682.02447.13506.03612.20247.03612.23976 0 .46506-.14777.55224-.386l.32529-.88777 2.1275-.27529.5406.77576c.1145.16412.2972.252.4831.252.1161 0 .2334-.03435.3357-.10564.2666-.18577.332-.55236.1464-.81883l-2.5149-3.60906c-.001-.00129-.0023-.00235-.0032-.00364-.0163-.02306-.0357-.04377-.0553-.06436-.0072-.00752-.0133-.01658-.0208-.02364-.0156-.01459-.0337-.02659-.0509-.03953-.0137-.01035-.0264-.02224-.0409-.0313-.0111-.00694-.0238-.01153-.0354-.01776-.0227-.01212-.0452-.02459-.0692-.03353-.0016-.00059-.0029-.00165-.0046-.00224-.0137-.00505-.0279-.0067-.0416-.0107-.0216-.00612-.0429-.01294-.065-.01659-.0195-.00329-.0388-.00353-.0583-.00471-.0185-.00117-.0368-.00329-.0554-.00282-.0199.00059-.0392.004-.0589.00659-.0182.00235-.03643.00388-.05455.008-.01953.00447-.03812.01165-.05718.01812-.01705.00576-.03435.01047-.05105.018-.02259.01011-.04342.02317-.06459.036-.01059.00647-.02177.0107-.03212.01788-.00118.00082-.00212.002-.00329.00282-.02365.01671-.04494.03647-.066.05659-.00718.00682-.01553.01259-.02236.01965-.01423.01506-.02576.0327-.03835.04929-.01082.01424-.02318.02753-.03247.04259-.00612.00977-.01012.02118-.01576.03141-.01306.02412-.02612.04812-.03565.07365-.00059.00153-.00153.00271-.002.00423l-1.51341 4.13c-.11177.30506.04482.64295.34988.75471zm1.54741 10.18573c0-.3248-.26329-.5882-.58824-.5882h-5.9587c-.32494 0-.58824.2634-.58824.5882 0 .3249.2633.5883.58824.5883h5.95882c.32483 0 .58812-.2634.58812-.5883zm2.50099-3.5882c0-.3248-.2633-.5882-.5883-.5882h-8.45963c-.32494 0-.58824.2634-.58824.5882s.2633.5882.58824.5882h8.45963c.325 0 .5883-.2634.5883-.5882zm1.8344-3.5882c0-.3249-.2633-.5883-.5882-.5883h-10.29413c-.32494 0-.58824.2634-.58824.5883 0 .3248.2633.5882.58824.5882h10.29413c.3249 0 .5882-.2634.5882-.5882zm2.2408-6.97886c-.0416-.322-.3355-.54965-.6589-.50788l-.786.10176-.1018-.786c-.0416-.32211-.3354-.54976-.6589-.50788-.3221.04165-.5496.33671-.5079.65882l.1018.786-.786.10177c-.3221.04165-.5497.33659-.5079.65882.0384.29659.2914.51283.5827.51283.0251 0 .0506-.00165.0762-.00494l.786-.10177.1018.786c.0384.29659.2914.51282.5827.51282.0251 0 .0506-.00164.0761-.00494.3221-.04164.5497-.3367.5079-.65882l-.1018-.786.786-.10177c.3223-.04164.5497-.33658.508-.65882z" fill="#2bb673"/></g></svg>