<svg width="21" height="27" viewBox="0 0 21 27" fill="none" xmlns="http://www.w3.org/2000/svg">
<path fill-rule="evenodd" clip-rule="evenodd" d="M1.28475 0H19.7195C20.1515 0 20.5018 0.350266 20.5016 0.782309V23.6161C20.5016 23.8236 20.4192 24.0226 20.2725 24.1693L17.9681 26.4737C17.8154 26.6264 17.6151 26.7029 17.415 26.7029C17.2147 26.7029 17.0146 26.6264 16.8618 26.4737L15.1106 24.7225L13.3595 26.4737C13.2128 26.6205 13.0138 26.7029 12.8063 26.7029C12.5989 26.7029 12.3999 26.6204 12.2532 26.4737L10.502 24.7225L8.7509 26.4737C8.60419 26.6205 8.40517 26.7029 8.1977 26.7029C7.99023 26.7029 7.79126 26.6204 7.64455 26.4737L5.89349 24.7225L4.14232 26.4737C3.83675 26.7792 3.34144 26.7792 3.03592 26.4737L0.731554 24.1693C0.584897 24.0226 0.502441 23.8236 0.502441 23.6161V0.782309C0.502441 0.350266 0.852707 0 1.28475 0ZM6.31239 19.9993H14.6918C15.1238 19.9993 15.4741 19.649 15.4741 19.217C15.4741 18.785 15.1238 18.4347 14.6918 18.4347H6.31239C5.88034 18.4347 5.53008 18.785 5.53008 19.217C5.53008 19.649 5.88034 19.9993 6.31239 19.9993ZM9.26652 6.93424C8.98196 6.66722 8.56349 6.53371 8.01112 6.53371C7.67634 6.53371 7.37923 6.56203 7.11978 6.61867C6.86033 6.66722 6.56741 6.74814 6.241 6.86142L6.71806 8.02662C6.96913 7.92952 7.20766 7.88097 7.43363 7.88097C7.73493 7.88097 7.92742 7.95784 8.01112 8.11158C8.09481 8.26532 8.13666 8.49593 8.13666 8.80341V9.53166H7.08212V10.8668H8.13666V13.5977C8.13666 13.9376 8.15758 14.2086 8.19943 14.4109C8.24964 14.6132 8.31241 14.771 8.38774 14.8843C8.47143 14.9976 8.55931 15.0987 8.65137 15.1877C8.79365 15.3172 8.98196 15.4224 9.2163 15.5033C9.45901 15.5842 9.75612 15.6247 10.1076 15.6247C10.4926 15.6247 10.886 15.568 11.2877 15.4547C11.6978 15.3334 12.0744 15.1594 12.4176 14.9328C12.7607 14.7063 13.0369 14.4231 13.2461 14.0832C13.4554 13.7434 13.56 13.355 13.56 12.918C13.56 12.4568 13.4093 12.1169 13.108 11.8985C12.8067 11.68 12.4092 11.5708 11.9154 11.5708C11.4886 11.5708 11.1245 11.6072 10.8232 11.68L11.0241 12.918C11.1412 12.8937 11.2752 12.8816 11.4258 12.8816C11.6183 12.8816 11.748 12.914 11.815 12.9787C11.8819 13.0434 11.9154 13.1122 11.9154 13.185C11.9154 13.3792 11.8359 13.5613 11.6769 13.7312C11.5262 13.9011 11.3296 14.0387 11.0868 14.1439C10.8441 14.2491 10.5972 14.3017 10.3462 14.3017C10.1118 14.3017 9.96117 14.2491 9.89422 14.1439C9.82726 14.0306 9.79378 13.8607 9.79378 13.6341V10.8668H13.9115V9.53166H9.79378V8.74273C9.79378 8.24104 9.74775 7.85264 9.65569 7.57753C9.56363 7.30241 9.4339 7.08799 9.26652 6.93424Z" fill="#37BFD7"/>
</svg>
