<svg width="29" height="30" viewBox="0 0 29 30" fill="none" xmlns="http://www.w3.org/2000/svg">
<g clip-path="url(#clip0)">
<path d="M16.3125 1.875C9.93346 1.875 4.65401 6.77584 3.76982 13.125H0L5.43751 18.75L10.875 13.125H7.43321C8.27538 8.85129 11.9364 5.62497 16.3125 5.62497C21.3093 5.62497 25.375 9.83092 25.375 15C25.375 20.169 21.3093 24.375 16.3125 24.375C13.4053 24.375 10.6537 22.9157 8.95274 20.473L6.01098 22.663C8.39165 26.0834 12.2424 28.125 16.3125 28.125C23.3085 28.125 29 22.2364 29 15C29 7.76367 23.3085 1.875 16.3125 1.875Z" fill="#B5B5C3"/>
<path d="M14.5 9.375V16.9995L19.911 20.3577L21.7765 17.1424L18.125 14.8755V9.37506L14.5 9.375Z" fill="#B5B5C3"/>
</g>
<defs>
<clipPath id="clip0">
<rect width="29" height="30" fill="white"/>
</clipPath>
</defs>
</svg>
