<svg fill="none" height="17" viewBox="0 0 17 17" width="17" xmlns="http://www.w3.org/2000/svg"><path d="m16.3464 3.18331c-.1125-.10576-.2476-.18978-.3973-.24692-.1496-.05715-.3106-.08623-.4732-.08547h-1.2468v-.84028c.0028-.18429-.0363-.36715-.1149-.5373s-.195-.32399-.3421-.45202c-.1422-.132395-.3129-.237151-.5017-.307807-.1889-.070656-.3917-.105716-.5961-.103017h-.6213c-.2045-.002572-.4074.032641-.5962.103468-.1888.070826-.3596.175764-.5016.308336-.1472.128-.2637.28183-.3423.45199s-.1176.35303-.1147.53733v.84028h-3.73085v-.84126c.00286-.18429-.03622-.36715-.11481-.5373-.0786-.17015-.19505-.32399-.34216-.45202-.14204-.132274-.31261-.23696-.50123-.307612-.18861-.070652-.39127-.105776-.59551-.103212h-.62126c-.2045-.002572-.40741.032641-.59623.103468-.18881.070826-.35952.175764-.50159.308336-.14712.12803-.26356.28187-.34216.45202-.07859.17015-.11767.35301-.11481.5373v.84028h-1.24362c-.16253-.00076-.32352.02832-.47317.08547-.14965.05714-.28482.14116-.397254.24692-.11736.10132-.21059.22313-.274003.35799-.063414.13485-.095683.27994-.094839.4264v11.20802c.004195.2955.135941.5778.367294.7872.231352.2094.544122.3294.871972.3345h13.67763c.3284-.0041.6421-.1235.8744-.3328.2322-.2093.3647-.492.3692-.7879v-11.20608c.0014-.14712-.0305-.29295-.094-.42852-.0634-.13557-.1569-.25801-.2748-.35979zm-11.75076 11.99339h-2.80167v-2.5209h2.79732zm0-3.0817h-2.80167v-2.80127h2.79732zm0-3.36211h-2.80167v-2.52084h2.79732zm-.2176-4.00531c-.02944-.02527-.05283-.05571-.06874-.08943-.0159-.03372-.02398-.07002-.02374-.10667v-2.52084c.00112-.07406.03427-.1448.09238-.19717.05812-.05237.13661-.08224.21879-.08325h.61691c.08218.00101.16068.03088.21879.08325.05812.05237.09126.12311.09239.19717v2.52182c-.00113.07406-.03427.1448-.09239.19717-.05811.05237-.13661.08224-.21879.08326h-.62126c-.04109.0003-.08182-.00704-.11963-.02154-.03782-.01451-.07191-.03588-.10015-.06279zm3.94846 10.44812h-3.11286v-2.5199h3.1085zm0-3.0817h-3.11286v-2.80027h3.1085zm0-3.36209h-3.11286v-2.51986h3.1085zm3.7308 6.44279h-3.11389v-2.5189h3.10849zm0-3.0817h-3.11389v-2.79927h3.10849zm0-3.36207h-3.11389v-2.51888h3.10849zm-.2176-4.00531c-.0299-.02454-.0541-.05432-.0709-.08752-.0168-.03321-.026-.06914-.027-.10564v-2.52182c.0009-.07414.0339-.14502.0921-.19744.0582-.05243.1368-.08222.2191-.08298h.6213c.0822.00076.1609.03055.2191.08298.0581.05242.0912.1233.092.19744v2.52182c-.0008.07414-.0339.14502-.092.19745-.0582.05242-.1369.08221-.2191.08298h-.6213c-.0411.00035-.0819-.00695-.1197-.02146s-.0719-.03592-.1001-.06287zm3.6384 10.44808h-2.8038v-2.5179h2.7973zm0-3.0816h-2.8038v-2.79837h2.7973zm0-3.36215h-2.8038v-2.5179h2.7973z" fill="#2bb673"/></svg>