<svg width="97" height="105" viewBox="0 0 97 105" fill="none" xmlns="http://www.w3.org/2000/svg">
<g id="Group 1">
<g id="Group">
<path id="Vector" d="M59.4447 2.08023C64.1096 0.461356 69.2005 0.120542 74.0358 1.07908C80.1066 2.25063 85.73 5.53097 89.7772 10.1746C94.08 15.0738 96.5935 21.5067 96.7 28.0247C96.8278 33.5417 95.2941 39.0799 92.3333 43.7235C88.7334 49.4322 82.9822 53.7775 76.4854 55.652C71.1176 57.2283 65.2811 57.1431 59.9346 55.439C55.9726 58.8898 50.9669 61.1903 45.7269 61.7654C44.6619 61.8719 43.9376 60.5299 44.5553 59.6779C46.5789 56.4189 48.3043 52.9468 49.4759 49.2831C45.0027 45.1294 41.8927 39.5059 40.8916 33.4565C39.8691 27.5135 40.7851 21.2297 43.5542 15.8619C46.8132 9.45034 52.6284 4.38072 59.4447 2.05892V2.08023ZM55.9726 5.46707C50.264 8.5557 45.7695 13.817 43.6394 19.973C41.701 25.4899 41.6797 31.6459 43.5755 37.1841C45.0027 41.423 47.5588 45.2572 50.8604 48.2393C51.1799 48.4949 51.4142 48.9209 51.2225 49.3257C50.0723 53.0746 48.3895 56.6319 46.3659 59.9761C51.0521 59.2519 55.5253 57.1218 59.0613 53.9267C59.3595 53.6071 59.8068 53.5219 60.1902 53.7136C65.7285 55.5668 71.9057 55.5242 77.4014 53.5645C83.3869 51.4557 88.5417 47.1104 91.6304 41.5508C94.4421 36.5877 95.5284 30.6874 94.7403 25.0213C93.9522 19.1423 91.0765 13.604 86.7738 9.51425C82.7479 5.65878 77.4653 3.12397 71.927 2.44234C66.474 1.73941 60.7866 2.78316 55.9513 5.44577L55.9726 5.46707Z" fill="#728AAA"/>
<path id="Vector_2" d="M25.491 33.2222C26.0449 33.0731 26.5987 32.8814 27.1099 32.6257C34.1392 56.0993 41.1898 79.5517 48.2191 103.025C48.496 103.579 48.07 104.303 47.4523 104.282C46.9837 104.282 46.6428 103.899 46.5789 103.473C45.3435 99.3402 44.0867 95.2078 42.8726 91.0541C31.3914 93.8233 19.9528 96.7202 8.4929 99.5319C7.91777 99.6171 7.27874 100.022 6.72492 99.6171C6.1711 99.2337 6.38411 98.2752 7.02313 98.126C18.057 95.3782 29.1122 92.6517 40.1461 89.9039C29.7299 86.8579 19.3138 83.8331 8.89761 80.8084C6.57581 88.5193 4.29662 96.2303 1.93221 103.941C1.6127 104.9 0.0151322 104.389 0.334646 103.409C7.38525 79.8073 14.4785 56.2271 21.5504 32.647C22.0616 32.8813 22.6154 33.0731 23.1692 33.2009C22.8071 34.3724 22.4663 35.544 22.1042 36.7368C23.9361 37.9297 25.7892 39.1012 27.6211 40.2941C26.9182 37.9297 26.194 35.5653 25.491 33.2009V33.2222ZM21.593 38.4622C20.5705 41.849 19.5694 45.2359 18.5469 48.6227C22.9775 50.5611 27.4294 52.4782 31.86 54.4166C30.7737 50.8167 29.6873 47.1956 28.601 43.5744C26.6626 44.7247 24.7242 45.8536 22.7645 47.0039C22.3172 47.2382 21.9338 47.579 21.4226 47.6855C20.6344 47.7494 20.2084 46.6417 20.8474 46.1944C23.0201 44.8525 25.278 43.6383 27.4507 42.2538C25.491 40.997 23.5526 39.7402 21.593 38.4835V38.4622ZM18.057 50.2842C16.8642 54.2675 15.6713 58.2507 14.4785 62.2127C21.8273 64.7901 29.1761 67.3249 36.5036 69.9236C35.2042 65.6422 33.9262 61.3394 32.6268 57.0366C28.2388 58.5703 23.8296 60.0613 19.4416 61.5737C19.0582 61.7441 18.5895 61.7441 18.2913 61.4033C17.8653 60.9773 18.0996 60.1465 18.696 60.0187C22.7432 58.6342 26.7691 57.2283 30.8163 55.8437C26.5561 53.9693 22.2959 52.1374 18.0357 50.2842H18.057ZM9.36623 79.2321C20.2936 82.406 31.221 85.5798 42.1483 88.7749C40.5082 83.3006 38.868 77.8263 37.2065 72.3519C29.5382 74.5672 21.8699 76.7825 14.2228 78.9978C13.8181 79.1682 13.2643 79.0191 13.0726 78.5931C12.817 78.1245 13.1365 77.5068 13.6477 77.4003C20.7622 75.3341 27.8767 73.3105 34.9699 71.223C27.9619 68.7947 20.9752 66.3238 13.9672 63.8955C12.4336 69.0077 10.8999 74.1412 9.36623 79.2747V79.2321Z" fill="#728AAA"/>
</g>
<path id="Union" fill-rule="evenodd" clip-rule="evenodd" d="M79.6167 12.2195C78.8924 11.6443 77.6996 11.7934 77.1884 12.5816L77.2097 12.539C76.6984 13.3186 76.2102 14.1212 75.722 14.9238L75.7217 14.9244L75.7215 14.9247C75.3962 15.4595 75.0709 15.9943 74.7388 16.5223C70.8407 15.5211 66.687 15.4572 62.7889 16.4583C58.5927 17.5021 54.6733 19.7387 51.6486 22.8273C50.8391 23.6794 51.329 25.2769 52.458 25.5538C53.2248 25.8308 53.9917 25.3621 54.5029 24.8083C59.253 20.1647 66.3675 18.1837 72.8643 19.5896C72.4639 20.2283 72.072 20.8713 71.681 21.5129L71.6806 21.5135C71.1982 22.3052 70.7171 23.0946 70.223 23.8711C65.5155 23.3811 60.6162 25.1065 57.3359 28.536C56.6543 29.2815 56.8886 30.6022 57.7619 31.0921C58.4862 31.5394 59.4447 31.3264 59.9772 30.7087C62.1712 28.5573 65.1746 27.3218 68.2207 27.194C67.1556 28.9194 66.0906 30.6448 65.0468 32.3701C64.8002 32.8387 64.3895 33.1288 63.9798 33.4181C63.6818 33.6286 63.3843 33.8387 63.1511 34.1168C62.5972 34.6067 62.5333 35.4162 62.7676 36.0765C62.086 37.2054 61.3937 38.3291 60.7014 39.4527C60.0092 40.5763 59.3169 41.6999 58.6353 42.8289C58.0814 43.6383 58.4436 44.8525 59.3382 45.2572C60.1476 45.6619 61.1914 45.2998 61.5961 44.5117L61.6017 44.5025L61.6055 44.4963L61.6079 44.4925C67.7386 34.5087 73.8693 24.525 79.9788 14.52C80.4687 13.7957 80.3196 12.7307 79.6167 12.2195ZM81.5977 19.6322C81.1077 19.3127 80.4261 19.2701 79.8936 19.5683L79.9149 19.5257C79.2119 19.8878 78.8285 20.8037 79.1054 21.5706C79.2688 22.1334 79.7572 22.4641 80.2144 22.7737C80.2936 22.8273 80.3719 22.8804 80.4474 22.9338C81.2707 23.4944 82.0075 24.1701 82.7409 24.8427L82.7419 24.8436L82.7422 24.8439L82.7423 24.844L82.7424 24.8441C82.9003 24.9889 83.0581 25.1336 83.2165 25.2769C84.1112 26.0651 85.6874 25.5325 85.9217 24.361C86.0708 23.7646 85.8578 23.1042 85.3892 22.6782C84.2177 21.5493 82.9609 20.5055 81.5977 19.6322ZM18.7173 25.2769C19.6972 22.5078 22.9349 20.8037 25.7679 21.5919C28.5584 22.2522 30.582 25.1491 30.2198 28.0034C30.0281 29.9418 28.814 31.7311 27.1099 32.647C26.5987 32.9027 26.0449 33.0944 25.491 33.2435C24.7242 33.3713 23.9361 33.3926 23.1692 33.2435C22.6154 33.1157 22.0616 32.924 21.5504 32.6896C18.9304 31.369 17.6097 28.0247 18.7173 25.2982V25.2769ZM78.3604 27.2125C77.6867 26.6678 76.9242 26.0512 76.0168 26.3846L76.0381 26.3633C75.1435 26.6189 74.6109 27.7052 74.9731 28.5786C75.1558 29.0812 75.5783 29.3878 75.9989 29.6931L75.9989 29.6931L75.9989 29.6932C76.1665 29.8148 76.3337 29.9361 76.4854 30.0696C76.6522 30.1975 76.8117 30.3457 76.9723 30.4949C77.4271 30.9173 77.8905 31.3477 78.5516 31.3477C79.5102 31.3903 80.3835 30.4743 80.2557 29.4945C80.1861 28.7288 79.5904 28.2332 79.0262 27.7638L79.0262 27.7638C78.8998 27.6587 78.7751 27.5549 78.6581 27.4496C78.5608 27.3746 78.4617 27.2944 78.3606 27.2127L78.3604 27.2125L78.3604 27.2125ZM71.3732 33.1796C71.9483 32.8814 72.6726 32.9879 73.1838 33.3926C73.8654 33.9038 74.6535 34.5428 74.5683 35.4801C74.5257 36.609 73.2264 37.4184 72.2039 36.9285C71.6714 36.6303 71.2241 36.2043 70.7768 35.7783C70.0738 34.9901 70.3934 33.6056 71.3519 33.1796H71.3732ZM71.1389 40.997C71.0963 39.4633 69.4135 38.2705 67.9438 38.7178C67.0704 38.9521 66.3675 39.655 66.1332 40.5284C65.7072 41.9555 66.8148 43.5744 68.3059 43.7022C69.8395 43.9365 71.3093 42.5307 71.1389 40.997Z" fill="#FE2D2D"/>
</g>
</svg>
