<svg fill="none" height="111" viewBox="0 0 108 111" width="108" xmlns="http://www.w3.org/2000/svg"><g opacity=".15"><path d="m0 78.4588c17.9384 13.2015 59.7698 27.0952 80.1517 27.4042 20.3573.3 23.4263-7.7145 23.4263-7.7145l35.001-73.3216c-.184.2752-.442.6505-.859 1.0925-2.068 2.3268-7.789 6.3214-22.309 6.1129-4.303-.0667-9.457-.909-15.103-2.3434-21.132-5.404-48.9278-18.9976-62.7298-29.6889z" fill="#fbbc13"/><path d="m100.299 29.6793c5.646 1.4428 10.808 2.2767 15.103 2.3434 14.527.2085 20.24-3.7861 22.308-6.1129l1.068-1.5094.05-.0918s4.67-12.1507-26.704-21.94141z" fill="#fb9a13"/><path d="m25.9609 116.428s20.5488 13.36 50.9632 12.918c0 0 15.5033.276 27.9539-6.53l40.022-64.8815-.675.6755c-1.835 1.7179-7.364 5.8544-19.015 7.1303 0 0 0 0-.025.0251-12.693 1.3927-32.6742-.6088-63.047-12.8513z" fill="#37bfd7"/><path d="m62.1372 52.9141-24.7602 43.4659c15.8118 5.487 32.1824 9.324 42.7737 9.482 20.3573.3 23.4263-7.714 23.4263-7.714l15.278-32.0074c-12.702.1585-30.9652-2.8438-56.7178-13.2265z" fill="#17799c"/></g></svg>