<svg width="25" height="21" viewBox="0 0 25 21" fill="none" xmlns="http://www.w3.org/2000/svg">
<path d="M25 7.529C25.0052 7.13027 24.9054 6.73718 24.7108 6.38914C24.5161 6.04111 24.2334 5.75035 23.891 5.546L12.75 0L1.609 5.545C1.27503 5.75877 0.999042 6.05173 0.805569 6.39785C0.612096 6.74398 0.50713 7.13254 0.5 7.529V18.667C0.501847 19.2852 0.748237 19.8775 1.18536 20.3146C1.62248 20.7518 2.21482 20.9982 2.833 21H22.667C23.2852 20.9982 23.8775 20.7518 24.3146 20.3146C24.7518 19.8775 24.9982 19.2852 25 18.667V7.529ZM12.75 13.129L3.378 7L12.75 2.333L22.122 7L12.75 13.129Z" fill="#A4ACAE"/>
</svg>
