<svg width="9" height="16" viewBox="0 0 9 16" fill="none" xmlns="http://www.w3.org/2000/svg">
<path d="M1.49331 15.9999C1.68542 16.0005 1.87524 15.9628 2.04882 15.8897C2.22239 15.8165 2.37531 15.7097 2.49634 15.5771L8.70746 8.72061C8.8966 8.51613 9 8.25965 9 7.99496C9 7.73027 8.8966 7.47379 8.70746 7.26932L2.27773 0.412821C2.05946 0.179452 1.7458 0.0326955 1.40577 0.00483554C1.06573 -0.0230244 0.727162 0.0702947 0.464551 0.264263C0.201939 0.458232 0.0367928 0.736962 0.00544167 1.03913C-0.0259094 1.34131 0.0791025 1.64217 0.297378 1.87554L6.04556 8.00068L0.49027 14.1258C0.33302 14.2936 0.233132 14.4978 0.202424 14.7144C0.171717 14.931 0.211473 15.1509 0.316994 15.3481C0.422513 15.5452 0.589377 15.7114 0.797842 15.8269C1.00631 15.9424 1.24765 16.0025 1.49331 15.9999Z" fill="#17799C"/>
</svg>
