<svg fill="none" height="15" viewBox="0 0 15 15" width="15" xmlns="http://www.w3.org/2000/svg"><g fill="#ff4848"><path d="m4.96582 8.04511h6.47598l-1.48798 1.526 1.01998 1.01599 3.277-3.27699-3.277-3.273-1.05798 1.021 1.52598 1.529h-6.47598z"/><path d="m7.13987 12.9576c-.92786.0011-1.84166-.2267-2.66049-.6631s-1.51741-1.068-2.03388-1.8388c-.51648-.77085-.83491-1.65714-.9271-2.58041s.0447-1.85502.39856-2.71276c.35386-.85773.91377-1.61498 1.63014-2.20467.71636-.5897 1.56709-.99365 2.47684-1.17609.90974-.18244 1.85044-.13773 2.73879.13016.88834.26789 1.69697.7507 2.35417 1.40568l1.034-1.034c-.2932-.28938-.6096-.55427-.946-.792-1.1077-.776171-2.41387-1.220103-3.76509-1.279642-1.35123-.059539-2.69138.267789-3.86302.943532-1.17164.67573-2.1261 1.67181-2.751233 2.87122-.625138 1.1994-.8949923 2.5523-.77786 3.89975.117132 1.34746.616386 2.63353 1.439103 3.70703.82272 1.0736 1.93474 1.89 3.2054 2.3534 1.27067.4635 2.6472.5546 3.96789.2628 1.32068-.2918 2.53061-.9544 3.48781-1.9101l-1.031-1.031c-.521.5242-1.14069.9398-1.82335 1.2229-.68265.283-1.41467.4279-2.15368.4261z"/><path d="m13.6841 7.29492h.042v.042h-.041z"/></g></svg>