<svg fill="none" height="17" viewBox="0 0 17 17" width="17" xmlns="http://www.w3.org/2000/svg"><path d="m15.8227 3.40705-7.50004-2.500002c-.12831-.042731-.26701-.042731-.39532 0l-7.487965 2.496092-.000781.00024-.01125.00375c-.002188.00078-.004141.00195-.00625.00273-.027097.0093-.053515.02047-.079063.03344-.00289.00156-.005937.00273-.008828.00429-.025263.0135-.049565.02872-.072734.04555-.005083.00367-.01011.00743-.015078.01125-.022575.01706-.043977.03562-.064063.05555-.001797.00195-.003437.00398-.005234.00586-.0185.01927-.035749.0397-.051641.06117-.003281.00437-.00664.00859-.009765.01305-.0163992.02318-.0311992.04746-.0442974.07265-.0020313.00391-.00375.00782-.0057032.01172-.0122252.02472-.0227952.05021-.0316405.07633-.0007812.00242-.001875.00477-.0026563.00727-.0088269.02773-.0156928.05606-.02054689.08476-.00101563.00602-.00187499.01203-.00273437.01797-.00449488.02956-.0068707.0594-.00710934.0893v6.24998c0 .1658.065848.3247.183058.442.117211.1172.276182.183.441942.183s.324731-.0658.44194-.183c.11721-.1173.18306-.2762.18306-.442v-5.3828l2.62383.87461c-.69557 1.12317-.91814 2.47605-.61904 3.76286.29909 1.28683 1.09551 2.40283 2.21513 3.10413-1.4909.5637-2.76311 1.5883-3.63164 2.9248-.04595.0687-.0778.1459-.09372.2271-.01591.0811-.01557.1646.00101.2456s.04906.1579.09558.2262c.04651.0684.10612.1268.17538.172s.14679.0761.2281.0911.16479.0137.24559-.0038c.08081-.0175.15733-.0509.22515-.0982s.12558-.1076.16994-.1773c.56781-.8723 1.34443-1.5891 2.2594-2.0853.91497-.4961 1.93934-.756 2.98017-.756 1.04084 0 2.06522.2599 2.98022.756.9149.4962 1.6915 1.213 2.2594 2.0853.0446.0692.1024.1289.1702.1757s.1441.0797.2246.0969c.0806.0172.1637.0183.2447.0032.0809-.015.1581-.0459.2271-.0909.069-.0449.1284-.1031.1749-.1711.0464-.068.0789-.1445.0957-.2252.0168-.0806.0174-.1637.002-.2446-.0155-.0809-.0468-.1579-.0921-.2267-.8686-1.3364-2.1407-2.361-3.6316-2.9248 1.1196-.7012 1.9161-1.8173 2.2152-3.10409.2991-1.28682.0765-2.63972-.6191-3.7629l3.4466-1.14882c.1244-.04147.2327-.12105.3094-.22748.0768-.10642.118-.23429.118-.36549s-.0412-.25907-.118-.3655c-.0767-.10643-.185-.18601-.3094-.22747zm-7.6977 8.71795c-.69356.0001-1.37356-.1922-1.96437-.5554-.59081-.3633-1.06929-.8833-1.38221-1.5023-.31293-.61894-.44804-1.31256-.39032-2.00372.05773-.69115.30603-1.35275.71729-1.91122l2.82195.94063c.12831.04273.26701.04273.39532 0l2.82194-.94063c.4113.55847.6596 1.22007.7173 1.91122.0577.69116-.0774 1.38478-.3903 2.00372-.3129.619-.7914 1.139-1.3822 1.5023-.59084.3632-1.27084.5555-1.9644.5554z" fill="#2bb673"/></svg>