<svg width="23" height="25" viewBox="0 0 23 25" fill="none" xmlns="http://www.w3.org/2000/svg">
<path d="M2.43881 9.05987C2.43856 9.13423 2.42366 9.20781 2.39497 9.27642C2.36628 9.34502 2.32436 9.4073 2.2716 9.4597C2.21884 9.51211 2.15628 9.5536 2.08748 9.58182C2.01868 9.61004 1.945 9.62444 1.87064 9.62419H0.589607C0.513346 9.62734 0.437234 9.61503 0.365847 9.58802C0.294459 9.56101 0.229269 9.51984 0.174196 9.467C0.119122 9.41415 0.0753015 9.35072 0.0453663 9.28051C0.0154311 9.21029 0 9.13475 0 9.05843C0 8.9821 0.0154311 8.90656 0.0453663 8.83635C0.0753015 8.76614 0.119122 8.7027 0.174196 8.64986C0.229269 8.59701 0.294459 8.55584 0.365847 8.52883C0.437234 8.50182 0.513346 8.48952 0.589607 8.49267H1.8745C1.94914 8.49229 2.02312 8.50669 2.09216 8.53505C2.1612 8.5634 2.22395 8.60516 2.27677 8.65789C2.32959 8.71062 2.37145 8.77329 2.39992 8.84229C2.4284 8.91128 2.44293 8.98523 2.44267 9.05987" fill="#15B1B1"/>
<path d="M2.43886 12.368C2.43912 12.4427 2.4246 12.5168 2.39615 12.5859C2.3677 12.655 2.32587 12.7178 2.27307 12.7706C2.22028 12.8235 2.15755 12.8655 2.08849 12.894C2.01944 12.9226 1.94542 12.9372 1.87069 12.9371H0.589655C0.438967 12.9371 0.29445 12.8773 0.187897 12.7707C0.0813449 12.6642 0.0214844 12.5196 0.0214844 12.3689C0.0214844 12.2183 0.0813449 12.0737 0.187897 11.9672C0.29445 11.8606 0.438967 11.8008 0.589655 11.8008H1.87455C2.02484 11.8015 2.16877 11.8615 2.27513 11.9677C2.38149 12.0739 2.44171 12.2177 2.44272 12.368" fill="#15B1B1"/>
<path d="M2.43881 15.6879C2.43856 15.8386 2.37865 15.983 2.27218 16.0897C2.16571 16.1963 2.02134 16.2565 1.87064 16.257H0.589607C0.513346 16.2602 0.437234 16.2479 0.365847 16.2208C0.294459 16.1938 0.229269 16.1527 0.174196 16.0998C0.119122 16.047 0.0753015 15.9835 0.0453663 15.9133C0.0154311 15.8431 0 15.7676 0 15.6912C0 15.6149 0.0154311 15.5394 0.0453663 15.4692C0.0753015 15.399 0.119122 15.3355 0.174196 15.2827C0.229269 15.2298 0.294459 15.1887 0.365847 15.1616C0.437234 15.1346 0.513346 15.1223 0.589607 15.1255H1.8745C1.94881 15.1251 2.02248 15.1394 2.09127 15.1675C2.16006 15.1956 2.22263 15.237 2.2754 15.2893C2.32817 15.3417 2.37011 15.4039 2.39881 15.4724C2.42751 15.541 2.44242 15.6145 2.44267 15.6888" fill="#15B1B1"/>
<path d="M14.5211 5.15109C14.5215 5.17435 14.5172 5.19746 14.5087 5.21909C14.5001 5.24072 14.4873 5.26043 14.4711 5.27711C14.4549 5.29378 14.4355 5.30709 14.4141 5.31625C14.3927 5.32542 14.3697 5.33026 14.3465 5.33051H7.24483C7.19706 5.33052 7.15123 5.31167 7.11727 5.27808C7.08332 5.24449 7.06398 5.19885 7.06348 5.15109C7.06423 5.10332 7.08361 5.05773 7.11748 5.02403C7.15136 4.99034 7.19705 4.9712 7.24483 4.9707H14.3465C14.3934 4.97196 14.4379 4.99156 14.4706 5.02528C14.5032 5.059 14.5213 5.10416 14.5211 5.15109Z" fill="#15B1B1"/>
<path d="M14.5211 6.64427C14.5215 6.66758 14.5172 6.69074 14.5087 6.71242C14.5001 6.7341 14.4874 6.75388 14.4711 6.77063C14.4549 6.78738 14.4356 6.80077 14.4142 6.81004C14.3928 6.81931 14.3698 6.82428 14.3465 6.82466H7.24483C7.19697 6.82441 7.15114 6.80535 7.11721 6.7716C7.08328 6.73786 7.06398 6.69212 7.06348 6.64427C7.0636 6.62058 7.0684 6.59715 7.07758 6.57531C7.08676 6.55347 7.10015 6.53366 7.11699 6.517C7.13383 6.50034 7.15379 6.48716 7.17572 6.47821C7.19766 6.46926 7.22114 6.46472 7.24483 6.46485H14.3465C14.3698 6.46497 14.3928 6.46973 14.4143 6.47885C14.4357 6.48797 14.4551 6.50127 14.4714 6.51797C14.4876 6.53467 14.5004 6.55444 14.5089 6.57612C14.5175 6.59781 14.5216 6.62097 14.5211 6.64427Z" fill="#15B1B1"/>
<path d="M14.5211 8.13935C14.5215 8.16266 14.5172 8.18582 14.5087 8.2075C14.5001 8.22918 14.4874 8.24896 14.4711 8.26571C14.4549 8.28246 14.4356 8.29585 14.4142 8.30512C14.3928 8.31439 14.3698 8.31936 14.3465 8.31973H7.24483C7.19673 8.31973 7.1506 8.30063 7.11659 8.26662C7.08258 8.23261 7.06348 8.18648 7.06348 8.13838C7.06348 8.09029 7.08258 8.04416 7.11659 8.01015C7.1506 7.97614 7.19673 7.95703 7.24483 7.95703H14.3465C14.3937 7.9583 14.4386 7.97815 14.4713 8.01229C14.504 8.04643 14.5219 8.09209 14.5211 8.13935Z" fill="#15B1B1"/>
<path d="M20.7603 6.44922H22.2072C22.2254 6.44934 22.2435 6.45306 22.2603 6.46016C22.2771 6.46726 22.2923 6.4776 22.3051 6.49059C22.318 6.50358 22.3281 6.51896 22.3349 6.53586C22.3418 6.55276 22.3453 6.57085 22.3451 6.58909V8.34666C22.3451 8.38333 22.3307 8.41852 22.3048 8.44454C22.279 8.47056 22.2439 8.48531 22.2072 8.48556H20.7603V6.44922Z" fill="#15B1B1"/>
<path d="M20.7603 10.6543H22.2072C22.2257 10.6545 22.244 10.6585 22.261 10.6659C22.278 10.6732 22.2934 10.6839 22.3062 10.6973C22.3191 10.7107 22.3291 10.7265 22.3358 10.7438C22.3425 10.7611 22.3457 10.7795 22.3451 10.798V12.5508C22.3454 12.5691 22.342 12.5873 22.3352 12.6043C22.3284 12.6213 22.3183 12.6368 22.3055 12.6499C22.2927 12.663 22.2774 12.6734 22.2605 12.6806C22.2437 12.6877 22.2255 12.6915 22.2072 12.6916H20.7603V10.6543Z" fill="#15B1B1"/>
<path d="M20.7603 14.8672H22.2072C22.2255 14.8673 22.2437 14.8711 22.2605 14.8782C22.2774 14.8854 22.2927 14.8958 22.3055 14.9089C22.3183 14.922 22.3284 14.9375 22.3352 14.9545C22.342 14.9715 22.3454 14.9897 22.3451 15.008V16.7598C22.3457 16.7782 22.3425 16.7965 22.3358 16.8136C22.3291 16.8308 22.319 16.8464 22.3061 16.8595C22.2932 16.8727 22.2778 16.8831 22.2608 16.8901C22.2438 16.8972 22.2256 16.9008 22.2072 16.9006H20.7603V14.8672Z" fill="#15B1B1"/>
<path d="M19.4646 0.318457H2.19765C2.07356 0.316672 1.95034 0.339412 1.83507 0.385372C1.71979 0.431332 1.61473 0.499607 1.5259 0.586278C1.43708 0.672948 1.36625 0.776308 1.31748 0.890423C1.26871 1.00454 1.24296 1.12716 1.2417 1.25126V7.7857H1.94106C2.11295 7.78099 2.28404 7.81078 2.44422 7.87331C2.6044 7.93584 2.75043 8.02983 2.87367 8.14975C2.99691 8.26966 3.09487 8.41306 3.16176 8.57147C3.22865 8.72988 3.26311 8.90009 3.26311 9.07204C3.26311 9.24399 3.22865 9.4142 3.16176 9.57261C3.09487 9.73102 2.99691 9.87442 2.87367 9.99433C2.75043 10.1142 2.6044 10.2082 2.44422 10.2708C2.28404 10.3333 2.11295 10.3631 1.94106 10.3584H1.2417V11.0819H1.94106C2.10992 11.0819 2.27713 11.1151 2.43314 11.1797C2.58914 11.2444 2.7309 11.3391 2.8503 11.4585C2.9697 11.5779 3.06442 11.7196 3.12904 11.8756C3.19366 12.0316 3.22692 12.1989 3.22692 12.3677C3.22692 12.5366 3.19366 12.7038 3.12904 12.8598C3.06442 13.0158 2.9697 13.1576 2.8503 13.277C2.7309 13.3964 2.58914 13.4911 2.43314 13.5557C2.27713 13.6203 2.10992 13.6536 1.94106 13.6536H1.2417V14.3828H1.94106C2.11307 14.3781 2.28429 14.4079 2.44459 14.4705C2.60489 14.5331 2.75103 14.6272 2.87436 14.7472C2.99769 14.8672 3.09572 15.0107 3.16266 15.1692C3.2296 15.3277 3.26409 15.4981 3.26409 15.6701C3.26409 15.8422 3.2296 16.0126 3.16266 16.1711C3.09572 16.3296 2.99769 16.4731 2.87436 16.5931C2.75103 16.7131 2.60489 16.8072 2.44459 16.8698C2.28429 16.9323 2.11307 16.9622 1.94106 16.9575H1.2417V23.4909C1.24296 23.6151 1.2687 23.7378 1.31745 23.852C1.36619 23.9663 1.43699 24.0698 1.52579 24.1566C1.61458 24.2434 1.71963 24.3119 1.83492 24.358C1.95021 24.4042 2.07347 24.4272 2.19765 24.4257H19.4646C19.5886 24.4269 19.7116 24.4038 19.8266 24.3575C19.9416 24.3112 20.0464 24.2426 20.1349 24.1558C20.2234 24.069 20.2939 23.9656 20.3425 23.8515C20.391 23.7374 20.4166 23.6149 20.4177 23.4909V1.25126C20.4164 1.12733 20.3907 1.00486 20.3421 0.890876C20.2934 0.776888 20.2228 0.673615 20.1342 0.586969C20.0455 0.500324 19.9407 0.432008 19.8257 0.385933C19.7106 0.339858 19.5876 0.316928 19.4637 0.318457H19.4646ZM16.4955 8.65484C16.4949 8.77904 16.4696 8.90189 16.4212 9.01627C16.3728 9.13066 16.3022 9.23431 16.2135 9.32124C16.1248 9.40817 16.0197 9.47664 15.9043 9.52269C15.789 9.56875 15.6656 9.59148 15.5415 9.58957H6.12179C5.99762 9.59122 5.87435 9.56833 5.75906 9.52219C5.64377 9.47605 5.53873 9.40758 5.44999 9.32072C5.36124 9.23386 5.29054 9.13031 5.24194 9.01604C5.19334 8.90176 5.1678 8.77901 5.1668 8.65484V4.54066C5.16781 4.4164 5.19333 4.29356 5.24191 4.17917C5.29048 4.06479 5.36115 3.96112 5.44987 3.87411C5.53859 3.78709 5.64361 3.71844 5.75891 3.67209C5.87421 3.62574 5.99753 3.6026 6.12179 3.60401H15.5415C15.6657 3.60235 15.7891 3.62532 15.9045 3.67159C16.0198 3.71786 16.1249 3.78651 16.2136 3.87359C16.3023 3.96067 16.3729 4.06445 16.4212 4.17894C16.4696 4.29343 16.4949 4.41637 16.4955 4.54066V8.65484Z" fill="#15B1B1"/>
</svg>
