<svg fill="none" height="100" viewBox="0 0 100 100" width="100" xmlns="http://www.w3.org/2000/svg" xmlns:xlink="http://www.w3.org/1999/xlink"><linearGradient id="a" gradientUnits="userSpaceOnUse" x1="95" x2="-.000001" y1="93" y2="-7"><stop offset="0" stop-color="#ff5f6d"/><stop offset="1" stop-color="#ffc371"/></linearGradient><path d="m0 0h100v100h-100z" fill="url(#a)"/><g fill="#fff"><path d="m41.5578 20.2957 25.9917 27.4184-.9974 1.0521 1.7261 1.8212 3.7215-3.9257-1.7264-1.8209-.9974 1.0521-25.9917-27.4181.9974-1.0524-1.7265-1.8208-3.7211 3.9253 1.7261 1.8212z" fill-opacity=".8"/><path clip-rule="evenodd" d="m28 59.0011v-12.8034h1.0174v-1.1h-1.0174v-30.0977l41.712 44.0011zm5.0908-12.8034h-2.0367v-1.1h2.0367zm4.0735 0h-2.0368v-1.1h2.0368zm3.056-.7954v2.6456h1.1v-2.6456zm0 4.6365v1.9909h1.1v-1.9909zm0 3.9818v1.991h1.1v-1.991zm0 3.9819v.9955h1.1v-.9955z" fill-opacity=".8" fill-rule="evenodd"/><path d="m45.704 89c-.1173-.384-.2507-.7787-.4-1.184-.1387-.4053-.2773-.8107-.416-1.216h-4.32c-.1387.4053-.2827.8107-.432 1.216-.1387.4053-.2667.8-.384 1.184h-2.592c.416-1.1947.8107-2.2987 1.184-3.312s.736-1.968 1.088-2.864c.3627-.896.7147-1.744 1.056-2.544.352-.8107.7147-1.6 1.088-2.368h2.384c.3627.768.72 1.5573 1.072 2.368.352.8.704 1.648 1.056 2.544.3627.896.7307 1.8507 1.104 2.864s.768 2.1173 1.184 3.312zm-2.992-8.576c-.0533.16-.1333.3787-.24.656s-.2293.5973-.368.96-.2933.7627-.464 1.2c-.16.4373-.3253.896-.496 1.376h3.152c-.1707-.48-.336-.9387-.496-1.376s-.3147-.8373-.464-1.2c-.1387-.3627-.2613-.6827-.368-.96s-.192-.496-.256-.656zm10.1433-2.512c.192.352.4106.7893.656 1.312.256.512.5173 1.072.784 1.68.2773.5973.5493 1.2107.816 1.84.2666.6293.5173 1.2213.752 1.776.2346-.5547.4853-1.1467.752-1.776.2666-.6293.5333-1.2427.8-1.84.2773-.608.5386-1.168.784-1.68.256-.5227.48-.96.672-1.312h2.272c.1066.736.2026 1.5627.288 2.48.096.9067.176 1.856.24 2.848.0746.9813.1386 1.968.192 2.96.064.992.1173 1.9253.16 2.8h-2.432c-.032-1.0773-.0747-2.2507-.128-3.52-.0534-1.2693-.1334-2.5493-.24-3.84-.192.448-.4054.944-.64 1.488-.2347.544-.4694 1.088-.704 1.632-.224.544-.4427 1.0667-.656 1.568-.2134.4907-.3947.912-.544 1.264h-1.744c-.1494-.352-.3307-.7733-.544-1.264-.2134-.5013-.4374-1.024-.672-1.568-.224-.544-.4534-1.088-.688-1.632-.2347-.544-.448-1.04-.64-1.488-.1067 1.2907-.1867 2.5707-.24 3.84-.0534 1.2693-.096 2.4427-.128 3.52h-2.432c.0426-.8747.0906-1.808.144-2.8.064-.992.128-1.9787.192-2.96.0746-.992.1546-1.9413.24-2.848.096-.9173.1973-1.744.304-2.48z"/></g></svg>