<svg fill="none" height="100" viewBox="0 0 100 100" width="100" xmlns="http://www.w3.org/2000/svg" xmlns:xlink="http://www.w3.org/1999/xlink"><linearGradient id="a" gradientUnits="userSpaceOnUse" x1="-13" x2="100.035" y1="-15" y2="99.9658"><stop offset="0" stop-color="#6671e5"/><stop offset="1" stop-color="#4852d9"/></linearGradient><clipPath id="b"><path d="m29 18h44v45h-44z"/></clipPath><path d="m0 0h100v100h-100z" fill="url(#a)"/><g fill="#fff"><g clip-path="url(#b)" fill-opacity=".8"><path d="m60.2953 29.7804c-.9421-5.7096-4.5677-9.0139-9.8629-10.8209-4.0802-1.393-8.5311-1.2959-12.4618.4872-3.2559 1.4773-5.6319 3.8085-7.2013 6.9229-2.2538 4.4725-2.3173 9.7457-.3955 14.3767 2.4689 5.9483 6.7061 9.2281 13.2758 9.3108 7.3421.0926 2.882-4.1014 2.882-4.1014-2.2098-2.1025-2.0802-3.4826-.1785-4.3151.7065-.3094 1.4711-.4584 2.2401-.4758l4.0045-.0907c1.5185-.0344 3.013-.4673 4.2827-1.3168 1.7849-1.1937 2.9768-3.0237 3.4344-5.6434.2503-1.4324.2171-2.8991-.0195-4.3335zm-27.9542.5291c0-1.3856 1.1024-2.509 2.462-2.509s2.4621 1.1234 2.4621 2.509-1.1025 2.5091-2.4621 2.5091-2.462-1.123-2.462-2.5091zm3.2829 11.1517c-1.3596 0-2.4621-1.1235-2.4621-2.509 0-1.3856 1.1025-2.5091 2.4621-2.5091s2.462 1.1235 2.462 2.5091c0 1.3855-1.1024 2.509-2.462 2.509zm4.9241-15.3333c-1.3596 0-2.4621-1.1235-2.4621-2.509 0-1.3856 1.1025-2.5091 2.4621-2.5091s2.462 1.1235 2.462 2.5091c0 1.3855-1.1024 2.509-2.462 2.509zm8.6176.2785c-1.3596 0-2.462-1.1235-2.462-2.509 0-1.3856 1.1024-2.5091 2.462-2.5091s2.4621 1.1235 2.4621 2.5091c0 1.3855-1.1025 2.509-2.4621 2.509zm5.6081 6.1336c-1.3596 0-2.4621-1.1234-2.4621-2.509s1.1025-2.5091 2.4621-2.5091 2.462 1.1235 2.462 2.5091-1.1024 2.509-2.462 2.509z"/><path d="m50.5205 51.9206c1.3185.692 2.3169 1.7104 2.9964 3.0536 4.2685-3.7621 10.8837-12.6165 19.472-22.9248.0371-.0443-.0181-.1001-.0616-.0622-10.3366 9.0572-19.4197 16.3272-22.4068 19.9334z"/><path d="m50.2842 52.8125c-.112-.0723-.2396-.1161-.3716-.1261-5.6134-.4389-5.6804 4.6923-7.4893 10.3108l-.0024.0025c.0005-.0005.0015-.001.002-.0015-.0005.001-.0005.002-.001.0029l.0088-.0089c2.2098-1.8046 4.5887-2.3746 6.8879-2.8464 3.6564-.7503 3.9493-3.8054 3.52-4.6619-.6223-1.0956-1.4813-1.9794-2.5544-2.6714z"/></g><path d="m41.704 89c-.1173-.384-.2507-.7787-.4-1.184-.1387-.4053-.2773-.8107-.416-1.216h-4.32c-.1387.4053-.2827.8107-.432 1.216-.1387.4053-.2667.8-.384 1.184h-2.592c.416-1.1947.8107-2.2987 1.184-3.312s.736-1.968 1.088-2.864c.3627-.896.7147-1.744 1.056-2.544.352-.8107.7147-1.6 1.088-2.368h2.384c.3627.768.72 1.5573 1.072 2.368.352.8.704 1.648 1.056 2.544.3627.896.7307 1.8507 1.104 2.864s.768 2.1173 1.184 3.312zm-2.992-8.576c-.0533.16-.1333.3787-.24.656s-.2293.5973-.368.96-.2933.7627-.464 1.2c-.16.4373-.3253.896-.496 1.376h3.152c-.1707-.48-.336-.9387-.496-1.376s-.3147-.8373-.464-1.2c-.1387-.3627-.2613-.6827-.368-.96s-.192-.496-.256-.656zm10.4473-2.64c1.664 0 2.9386.2987 3.824.896.8853.5867 1.328 1.504 1.328 2.752 0 .7787-.1814 1.4133-.544 1.904-.352.48-.864.8587-1.536 1.136.224.2773.4586.5973.704.96.2453.352.4853.7253.72 1.12.2453.384.48.7893.704 1.216.224.416.432.8267.624 1.232h-2.8c-.2027-.3627-.4107-.7307-.624-1.104-.2027-.3733-.416-.736-.64-1.088-.2134-.352-.4267-.6827-.64-.992-.2134-.32-.4267-.608-.64-.864h-1.232v4.048h-2.496v-10.928c.544-.1067 1.104-.1813 1.68-.224.5866-.0427 1.1093-.064 1.568-.064zm.144 2.128c-.1814 0-.3467.0053-.496.016-.1387.0107-.272.0213-.4.032v3.008h.704c.9386 0 1.6106-.1173 2.016-.352.4053-.2347.608-.6347.608-1.2 0-.544-.208-.928-.624-1.152-.4054-.2347-1.008-.352-1.808-.352zm15.4476-2v2.128h-3.344v8.96h-2.496v-8.96h-3.344v-2.128z"/></g></svg>