<svg fill="none" height="100" viewBox="0 0 100 100" width="100" xmlns="http://www.w3.org/2000/svg" xmlns:xlink="http://www.w3.org/1999/xlink"><linearGradient id="a" gradientUnits="userSpaceOnUse" x1="-44.7507" x2="50.513" y1="50.513" y2="145.777"><stop offset="0" stop-color="#00aeef"/><stop offset="1" stop-color="#003143"/></linearGradient><path d="m0 0h100v100h-100z" fill="url(#a)"/><g fill="#fff"><path d="m33.976 89.144c-.608 0-1.216-.0213-1.824-.064-.5973-.032-1.2213-.1173-1.872-.256v-10.752c.512-.096 1.072-.1653 1.68-.208.608-.0533 1.1733-.08 1.696-.08.704 0 1.3493.0533 1.936.16.5973.096 1.1093.2667 1.536.512s.7573.5707.992.976c.2453.3947.368.8853.368 1.472 0 .8853-.4267 1.584-1.28 2.096.704.2667 1.184.6293 1.44 1.088s.384.976.384 1.552c0 1.1627-.4267 2.0373-1.28 2.624-.8427.5867-2.1013.88-3.776.88zm-1.264-4.976v2.864c.1813.0213.3787.0373.592.048s.448.016.704.016c.7467 0 1.3493-.1067 1.808-.32s.688-.608.688-1.184c0-.512-.192-.8747-.576-1.088-.384-.224-.9333-.336-1.648-.336zm0-1.904h1.216c.768 0 1.3173-.096 1.648-.288.3307-.2027.496-.5227.496-.96 0-.448-.1707-.7627-.512-.944s-.8427-.272-1.504-.272c-.2133 0-.4427.0053-.688.016-.2453 0-.464.0107-.656.032zm13.826-2.432c-1.1627 0-2.0053.3253-2.528.976-.512.64-.768 1.52-.768 2.64 0 .544.064 1.04.192 1.488.128.4373.32.816.576 1.136s.576.5707.96.752c.384.1707.832.256 1.344.256.2773 0 .512-.0053.704-.016.2027-.0107.3787-.032.528-.064v-3.856h2.496v5.488c-.2987.1173-.7787.24-1.44.368-.6613.1387-1.4773.208-2.448.208-.832 0-1.5893-.128-2.272-.384-.672-.256-1.248-.6293-1.728-1.12s-.8533-1.0933-1.12-1.808c-.256-.7147-.384-1.5307-.384-2.448 0-.928.144-1.7493.432-2.464s.6827-1.3173 1.184-1.808c.5013-.5013 1.088-.88 1.76-1.136.6827-.256 1.408-.384 2.176-.384.5227 0 .992.0373 1.408.112.4267.064.7893.144 1.088.24.3093.0853.56.176.752.272.2027.096.3467.1707.432.224l-.72 2c-.3413-.1813-.736-.336-1.184-.464-.4373-.1387-.9173-.208-1.44-.208zm8.9504 7.264c.352 0 .64-.0267.864-.08.2346-.064.4213-.144.56-.24.1386-.1067.2346-.2293.288-.368.0533-.1387.08-.2933.08-.464 0-.3627-.1707-.6613-.512-.896-.3414-.2453-.928-.5067-1.76-.784-.3627-.128-.7254-.272-1.088-.432-.3627-.1707-.688-.3787-.976-.624-.288-.256-.5227-.56-.704-.912-.1814-.3627-.272-.8-.272-1.312s.096-.9707.288-1.376c.192-.416.464-.768.816-1.056s.7786-.5067 1.28-.656c.5013-.16 1.0666-.24 1.696-.24.7466 0 1.392.08 1.936.24s.992.336 1.344.528l-.72 1.968c-.3094-.16-.656-.2987-1.04-.416-.3734-.128-.8267-.192-1.36-.192-.5974 0-1.0294.0853-1.296.256-.256.16-.384.4107-.384.752 0 .2027.048.3733.144.512s.2293.2667.4.384c.1813.1067.384.208.608.304.2346.0853.4906.176.768.272.576.2133 1.0773.4267 1.504.64.4266.2027.7786.4427 1.056.72.288.2773.5013.6027.64.976.1386.3733.208.8267.208 1.36 0 1.0347-.3627 1.84-1.088 2.416-.7254.5653-1.8187.848-3.28.848-.4907 0-.9334-.032-1.328-.096-.3947-.0533-.7467-.1227-1.056-.208-.2987-.0853-.56-.176-.784-.272-.2134-.096-.3947-.1867-.544-.272l.704-1.984c.3306.1813.736.3467 1.216.496.4906.1387 1.088.208 1.792.208zm14.3-9.184v2.128h-3.344v8.96h-2.496v-8.96h-3.344v-2.128z"/><path clip-rule="evenodd" d="m36.2476 33.2912.0793-.1833-.185-.2357.0264-.3403-.1585-.1833.0264-.2095.5286-.1571.3171-.1571-.0264-.2095.5021.0262.0793-.0786-.0793-.1309-.1321.0786-.185-.1048.3436-.1832.3964.1309.0264.2094.1586.0524.1586-.1833.1321.1048-.0264.288.2379.1047.5814-.3142-.0264-.0524.2907.1048.1586.1309.2114-.0262.185.1833.2114-.0785v.2618l.0265.1309.2114.1047h.1321v.1572l-.0528.1309-.2907.0262-.1586.1309h.1057l.1586.1571-.2379.1833.0264.1309.0265.707-.2643.1832-.0529.0786.1322.2618.2114-.0523.0264.1571.0529.1309.0793.0785-.3436.131-.1057.1047.1321.1047-.1586.0786.1058.0785-.1058.0786.2908.0524.0528.1047-.2114.0524-.0264.1047h-.2643l-.37-.1571-.2379-.2095-.1057-.0523-.185-.0524v-.1048l.2114-.0523.0264-.5499-.185-.3927-.2114-.0262-.1057.1571-.3964-.0262-.2379-.1309-.185.1571-.2379-.1309-.2378-.2357-.1057.0262-.0265-.1309-.2378-.0524-.2643-.1309z" fill-opacity=".8" fill-rule="evenodd"/><path clip-rule="evenodd" d="m39.1264 19.4864.1322-.1309.1321.0262.1321.1047-.1057.288.1586.0524.1321.1571.1586-.0262-.0264-.1833-.1322-.0785.1586-.1833.2907.0262.1322.1832.1057.131.0793.1309.0528-.0786h.2379l.0529.0524.1585-.0786v.1833l.0265.3142.185.131.185.1047.0528.1309-.0264.1571-.0529.3928.0793.2618.0529.288.2114.1833.2379.1571.185.1571-.0793.2095-.0793.1833-.0793.1047-.1586-.1833-.2642.2357.0264.288-.2114-.2095-.1322.2619-.4229-.1047-.2907.0785.1057.2618-.1321.1571-.0793.131-.2378-.0262-.2115-.1833h-.1321v-.288l-.2115-.0524v-.6284l-.1057-.1309-.1057-.1833-.2907-.0786.0264-.1309-.0793-.0524v-.2094l-.0264-.0786.1057-.1309-.0793.1309.1586-.2356.1586-.0786v-.4451l.0793-.1571v-.1048l-.0265-.3665.0793-.1571-.2907-.3142z" fill-opacity=".8" fill-rule="evenodd"/><path clip-rule="evenodd" d="m36.2465 18.3616-.0528-.1833-.0529-.1309.1322-.1833.1057-.2357.1057-.3142.2114-.3142.0529.3404.0264.1833.2114.2095.2115-.0524.0528.1833.2115.0523.0264.1571.2114.0786.0264.1047.2115.0524.1321-.1571.0793.2095.1057.1309.1586.1047.0529.1048.1321-.0524.0793.0785-.0793.1833.0793.0786.1057.0785v.0524l.2114-.0262v.1048l.0529.1047h-.3436l.0264.2356-.2378.0524-.0264.1047.2114-.0261.185-.0786.185-.1571.1321.1047-.0264.2357.1057.1833.1322.1833-.0529.1833v.2618.2357l-.0793.2094.0529.2619-.1322.1833-.185.2618-.2114-.0524-.2907-.0262-.1057-.2094-.1322-.1048.1586-.288-.1057-.2095-.1322-.1571-.2114-.0785-.1057-.1048-.0793-.1571-.1321.0524s-.0331-.0262-.1058-.0524c-.0726-.0261-.185-.0523-.185-.0523l-.1321-.0524-.1321.1047-.2115-.0523-.185-.0786-.1586.1048-.0264.1309s-.0859-.0131-.185-.0524-.2114-.1047-.2114-.1047l-.0529-.0786.185-.1047.1057-.1309-.0792-.1571v-.3666l.2907-.0262.1057-.1047.1057-.1571.2379-.0786.0528-.1833.1322.2095.1321-.0786.1057-.1832-.1057-.131-.1057-.1571v-.1833l-.185-.1571-.2379.0524-.1321-.2095-.1322.1048-.1585-.0262z" fill-opacity=".8" fill-rule="evenodd"/><path clip-rule="evenodd" d="m34.8458 23.3646-.1322-.2357-.1585-.2094.1057-.2357-.2643-.0524.0793-.4189.185-.1309-.0265-.1571.1058-.2095.3171-.2095.1057-.288-.2378-.1309.1321-.2357.0529-.2356.2907-.1048v-.2618l.3964.0524.2907-.0786.3965.2619.0793-.2095.2697-.0561.2324.0823.2114-.0262.5286.1309.2114.2357.1851.0785.2642.3142-.185.2619.0529.1833-.1321.1309-.0529.2094h-.185l-.1322-.2094-.0792.1571h-.1586l-.0793.288.1057.1047-.1321.0262-.1586.2619-.0529.1571-.0792.1571.1057.1309-.1586.0262h-.1057v-.131l-.3436.0262v.2095h-.1321l-.0265.2618.1586.0786-.1057.1047v.2357l.1321.0785.1586.131-.0264.1832-.185.0262-.1586-.1571-.1321-.0785v-.1048l-.185-.1832h-.1586l-.0529-.1833-.2907-.1571.0264-.131-.0264-.0785-.2379.0785-.1585.131-.1322-.1571z" fill-opacity=".8" fill-rule="evenodd"/><path clip-rule="evenodd" d="m40.9248 19.5693-.0793-.2094-.2114.1571-.1057-.1571.1586-.131-.0793-.1309-.1322-.0262-.0793.0786-.2642-.1309-.0529-.2357.2643-.3927.2379-.0786v.1571l.0792.0524.2379.0785.1586.1571.3435-.0262.0793.1833-.1585.0262.1321.1571-.1321.1571h.3171l.1057.1833-.0264.0786h-.1586l-.1586-.1571v.2356l.1322.1571.2114.2357.0265.1571-.0793.0785.2378.4713.4229.0786.2114.2095.0265.1571-.1058.0523.0265.0524.185.0262.2114.1047.185.2095.3436.0785.1585-.288.1058.0262.0264.1309.1321.0524.1058.1047.1057-.0785-.0529.4975.2114.0262.2908.3142.0528-.0262v.1571h.2379l.0264.0785-.2379.3142-.1321.0262.0264.3142-.2907.2095-.0793-.0262-.0264-.2356-.0793.0261-.0528.131-.2115-.0262-.1586-.0524-.0264.0524-.5286-.3142s.1322-.1571 0-.1833c-.1321-.0262-.2642-.1047-.2642-.1047v-.1833l-.1586.0262-.2379-.1833-.2643-.1048-.1585-.1833-.339-.1109-.1632-.2556-.1321-.6023.0792-.3927v-.1571l-.4228-.2619.0264-.5236.2114-.0786-.1321-.1833z" fill-opacity=".8" fill-rule="evenodd"/><path clip-rule="evenodd" d="m38.3353 21.4219-.1322.1309-.0529.2095-.185.0523-.1585-.2356-.0529.1833h-.185l-.0793.288.1322.0785v.0786l-.1586-.0262-.2379.5237.0793.1309-.0528.0786-.2115.0261-.0264-.1571-.0793.0524-.2907-.0524.0529.2619-.1322-.0524-.0264.2357.1321.0785-.0793.1833.0265.1833.2643.2095v.2094l.1057.0786-.0265.2356-.1057.0524v.2095l.1586.1047h.2379v.2095l.185.1309.0793.1833.3171.0262.185-.0524.0529.1309.2378.0262v.1048l.37.0523.1057-.1047.1322-.0786s.3171.131.2378.0262c-.0792-.1047-.0792-.288-.0792-.288l.1585.1571.1586-.1571v.2618l.1322.0524.1057.2357-.1057.2618-.1322.0785.1586.0786.0264.2095.3436.3404.0793-.131.0793.1048v.1047l.6607.0524.0793.1047-.0265.1833.2908.1571.2642-.0524.1322.2095.37-.0524.7929.1833.2114-.1047v-.1833l-.2114-.2356-.0265-.2357-.2907-.2357.0529-.1047-.0793-.0524h-.1322l-.0264-.1571h-.2378l-.1586-.1833.0793-.0523-.2643-.1571-.185-.7332-.1057-.2618-.3965-.0786-.185-.4189-.37-.2357-.0528-.3665-.2908-.0786-.1057-.1047-.1585-.0262.0792-.288h-.2642l-.0265-.6284-.2114-.3666-.2379-.0524-.0793-.2095v-.2356l-.4492-.0786z" fill-opacity=".8" fill-rule="evenodd"/><path clip-rule="evenodd" d="m42.6414 26.9756v-.2095l-.3436-.2357.0793-.1309-.2115-.0524v-.1047l-.2642-.0262-.2115-.1833.1322-.0261-.3436-.1833-.2114-.9688-.4229-.1048-.185-.4189-.3172-.1833-.1057-.4189.2643-.2619-.0793-.2618.2907-.0786.4493.0786.0793-.2095.2643.2095-.0264-.3142.2643-.2619.1057.2095.3171-.4713.3965.2618h.185v.1833l.2907.1048.1057.2356.4229.2618.0528-.1047.3172.1571.0793.0786-.0265.0785.2379.0524.0793.1047-.2379.1048.2115.0785.0792.1047v.1833l-.0792.0524v.1309l.1585.0786.0265.0785-.1058.0786-.2114.1571.0793.1309-.1321.0786-.0793-.131-.1586-.0523-.0264.0785-.2115-.0262-.1057.131.2643.2356-.0264.1833.1585.1047-.185.2357-.185.0262-.185.2094-.2642.4975v.0524l.0792.1309-.1321.0524.2907.2095z" fill-opacity=".8" fill-rule="evenodd"/><path clip-rule="evenodd" d="m44.334 24.225v-.1833l-.2379-.2094.2379-.0262-.1586-.1571h-.185l-.0793-.2357.185-.1571v.1833l.1322.1047.2378-.2094.0265-.3404.3435-.2881-.0264-.1047-.2378-.0262v-.1833l-.1058.0786-.2642-.3666h-.2115l.0793-.4713h.37l.0529.1047-.0265.131.1586.1571.0529-.1048.1321-.0523v-.131l-.1321-.0261-.0265-.2357.2908-.2095h.2378v-.1309l-.0793-.0524-.0264-.2094-.0793.0262-.0528.1047-.0529.0785-.1057-.0523.1057-.1833-.0529-.1048-.0528-.1047v-.1309h.1057l.1586-.1833.0528-.1309-.0264-.1571.0793-.0786h.2379l.1585.131-.1057.1047-.0264.1309-.0264.0524.0792.1571.1058-.0786h.2907l.0793.2357.2642.4451-.1057.0524v.1571l.1586.0523.1322.3928h.2642l-.2642.2357.2642.0785.185.0786v.0785l-.1321.1309-.2379.2095.0265.288-.1322.1833.1057.1833.1058.1833-.1586.1571v.1571l.1321.0262-.0528.2095.2378.1832v.6808l-.1321.2619-.0264.4189-.0529.2357-.0793.0785-.0264.288-.1322-.0785-.185-.1047v.1571l.1057.0785-.2378.1833-.1057-.0262v-.1047l-.0529.0523-.2114-.0261v-.131l.1057-.0523-.1057-.0262v-.1309l.0793-.2095-.3172-.0786.185-.0785-.1057-.1571v-.1047l-.2378-.2095h-.1851l-.0528.1309-.0793-.2095-.3171-.1571-.1058-.288-.1321-.1309z" fill-opacity=".8" fill-rule="evenodd"/><path clip-rule="evenodd" d="m42.1673 27.3966.4493.1571.2114-.1047.0529-.1833-.2115-.2881.6079.0262-.2378-.2356.185-.0262-.1322-.2095.37-.576.1322-.1571.1321.0523.2114-.288-.185-.1047.0265-.2357-.2379-.1833.0793-.1309.2114-.0785.2115.0523.0264.2095.2114-.1047-.1321-.1833.3171-.1833.2114.288.185.1309.1058.2357.0792-.1571h.1586l.2115.1833v.1047l.1321.1309-.2643.1309.3964.0786-.0792.0786v.2356l.0528.0524-.0793.0262v.1309l.2115.0262.1057-.1048v.1309l.0793.0524v.419l.1321.288.0264.1833-.185.2618-.1321-.0262-.185.1571-.0264.2357-.185.2618-.1586.1833v.1309l.0793.1309.1057.0262-.1322.0786-.0528.1571-.0529-.1048-.2907-.0261-.2379.0785-.0528.1309h-.1322l-.0528-.1047-.3964-.0786-.1058-.1309-.0793-.0262-.0792.1048-.1322-.0786-.0793-.0262-.0528.1048-.2115-.0262-.0792-.2618h-.1058l-.0792-.0786-.2908-.0262-.1057.1309-.1586-.1309v-.0785l-.2114-.2881h-.0793l-.1057-.1309-.0528-.1309z" fill-opacity=".8" fill-rule="evenodd"/><path clip-rule="evenodd" d="m40.8178 30.0397-.0265-.4714.0529-.0523.0264-.5761-.1586-.1571h-.1321l-.0529.1048h-.1057l-.1057-.2095v-.1309l.0793-.0262.0264-.3928-.1585-.0262.0792-.0523-.1057-.2095.1322-.1309-.0265-.1833.0529-.3666.3171-.1047.1058.0262.2378.1833.2907-.0524.1322.1833.37-.0524.2907.1047-.1057.2095.1321.2095.1322.1047.185.2619-.0264.0785.2378.1571v.1048l-.1586.1309-.1057.0523.1057.1572-.1585.0523.0528.1048-.1585-.0786-.1322.3666h-.1057v.2094l.0793.0786-.0264.1047-.1322-.0261v-.0786h-.2907l-.0264-.1833-.185-.0785-.0265.3665h-.0793l.0265.1048.1585.1047v.0786l-.2378.1571-.0793.0523-.1321-.1047-.1322.1571v-.1047h-.1321v.1047l-.0529-.0785h-.185v-.1572z" fill-opacity=".8" fill-rule="evenodd"/><path clip-rule="evenodd" d="m40.5555 30.2482v-.1833l.2643-.0262-.0529-.4713.1057-.0262-.0264-.5499-.1586-.2618h-.0528l-.1058.1309-.1321.0262-.1322-.2357v-.1047h.1058l.0793-.4189h-.2908l.1586-.0524-.1586-.2095.1057-.1309-.2114-.0262h-.1057l-.3436-.2095-.0793.1833-.185.1309h-.0528l-.1322-.1571-.1321.0786-.3172-.1833-.185-.0524-.0528.1048-.5022-.0262-.1321.2618h-.1322v-.1571l-.0792-.0785-.0793.1047-.1057-.1309h-.1586l-.1322-.1047-.0528.1047-.185.0785-.0265.2095.2115.1048v.0785l-.185.0786v.3665l.0528.0786-.1321-.0262-.0264.2357.1321.1047-.1057.1309-.1322.0786v.1571l-.1321.0261v.1048h.185l.1586.1571.0264.288h.0793v-.1047l.0264-.1048h.1057l.185.1833v.1048l-.185.3142-.1321.0523-.2114.0262-.0265.0786-.2378-.0524-.0793.1571.185.1047.1057-.0523h.3171l-.1057.1571.1322.0523.2643.0262.0793.1571-.1322.0262-.1321-.0523h-.1058l-.0264.0785.185.0524.1586.0785.0264.0786.1322.0785.2907.0786v.1833l.1321.0523.1586-.2094.1322.1833-.0265.288.1057.1047.0265-.0524h.1321l.1586-.0785.37-.2618h.1057l.0264.1047.185-.0262.1322.1571.0528-.0524h.185l.1586.1833.0264-.0523.1586-.0262.0793.1047v.2619l.1321.1047.1322.0262.2907.0262v.1571l.0529.0523h.1057l.0264-.0785v.1047h.1586l.0528.1571.1058-.1309.0792.0262.185-.1571v-.2619l-.0792-.0523v-.1833l.2114-.3142.0793-.1309-.0264-.2357.0528-.2095-.1321.1048-.2908.0261.0265-.2356-.185-.3142h-.0529l-.2114.2095-.0793-.0262-.2379.2094-.0264-.576-.1057-.0524z" fill-opacity=".8" fill-rule="evenodd"/><path clip-rule="evenodd" d="m37.3829 31.1672-.1586-.1309-.185-.0524.0265-.1047.37.0786-.0793-.1571h-.2379l-.2378-.1048.1321-.1571-.2379-.0524-.1057.1048-.2114-.1048.0528-.1832.2115.0785.0528-.1047.2908.0262.0792-.1048.2115-.3404-.2643-.2618-.0793.2356-.1586.0262.0529-.2618-.1586-.1833-.1586-.0262-.0793.1833-.3171-.0262-.0529.2095h-.0792l-.0265.1047h.185v.1309l-.1057.1572-.0528-.1572-.1322.131-.0528-.131-.1586-.1047-.0793.1571.0793-.2618-.2643-.1833.0264-.1571-.185-.0262-.0264.0786h-.2114l-.2115.1309-.0264.1309.1321.1309.0529.3666-.4757.3142.0528.2095-.1585-.0262-.0793.0785-.0265.2095-.0264.1833-.0264.1309-.1322-.0262-.1321.0786.0793.0785.1321.1048-.0264.1047.2907.1833-.0264.1571.1586.1571-.0793.2357.1057.2094.1321.1571h.185l.1586.1571.1057.131.185-.0262.6608.2094h.2642v-.1309h-.0264l-.1321-.2094v-.3666l-.1322-.1571v-.2357l.3172-.1571.2114-.0262.2907-.1833-.0264-.2094h.555l.0529-.0524-.1058-.0785-.1057.0523-.185-.1047z" fill-opacity=".8" fill-rule="evenodd"/><path clip-rule="evenodd" d="m40.5277 31.0345-.0265-.5499-.1057-.0785.2114-.1833h.1586l.0793.1833.0264-.1833h.0793v.1571l.185-.2357.1322.1309.3171-.2618-.2643-.2618.1322.0523.0264-.3927.1586.0785.0264.1571.2907.0262v.1047h.2114l-.0264-.1571-.1321-.0785v-.1571l.1321.0262.1586-.419.185.1048-.0793-.1571h.185l-.1321-.1833.2643-.1571.0264-.1833-.1057-.0262.1057-.1047.2907.0523.185.1048.0529.2356.2378.0524.0529-.1309.2378.1309.0793-.1571.2115.2095.3171.0523.1322.1309h.1057l.0793-.1832.4492-.0524.0793.1309.0793.0262-.0793.2095h.1057l.0529.1832-.1057.1572.1057.0785-.0529.1309.1058.1571.0264.1833-.1322.0262v.2357l.2115.2356h.185l.0793.1309-.0529.0786h-.37l-.0529.0785v.1571h-.0528v.1833l-.2643.3666-.185-.1833-.1321.0786-.1058-.1048v.1309l-.1057.1048-.0264.2095.1057.0523-.0528.1309.0264.0524.1586-.0262.1585.1309-.1057.131.185.1047-.1057.1309h-.1586l-.0264.1048-.1586-.0524-.1057-.1571-.0264.1309h-.1586l-.0793-.1047-.2114.1047-.185.0262-.2114-.1309-.5286.0262v-.131l-.1322-.1833h-.0793l-.1585-.1571-.2115-.0261-.1057.0785.0529.2095-.0265.0785-.2907-.2356v-.1048l.1057-.0785-.0528-.1309-.1586.1309-.0793-.0786-.1321.2881-.185-.3666.1321-.1571-.0264-.3928-.1321.1309-.2643-.0261.0264-.131-.2379-.3927-.185.2095-.0793-.1048z" fill-opacity=".8" fill-rule="evenodd"/><path clip-rule="evenodd" d="m39.8392 35.7237v-.1309l.2643-.0262-.0528-.1309-.3436-.0524.1057-.1047-.1057-.0524.1586-.0785-.1057-.1571.4228-.1571-.1321-.2095v-.1571l-.2643.0262-.1057-.2618.3435-.2357-.0528-.8379.2643-.1833-.185-.1833h-.1586l.2379-.1571.2642.0524.1058-.2095-.0265-.1047h.185l-.0264.1309.1586.1309.2114.0262.185.0262.2379-.1571.0264-.288h-.1057v-.2357l.2114-.2618.185.3142.1057-.2619.1058.0524.1585-.1571.0793.1047-.1586.1833.3172.2357.0264-.1047-.1057-.131.1321-.1309.2379.0524.1586.1309.1586.1309.0792.1833.0793.0786-.4493.6022-.2643.3142.1586.0785.0529.1572.1321.0785.0265.4975-.2115.2095v.1309l-.1321-.0262-.2379.4713-.185.1048h-.1586l-.0792.1832-.2379.1833-.4757.1048-.1057-.1048-.0793-.0262-.1057.1833v.1833l-.3172-.0262-.2643-.0785-.1057.1309z" fill-opacity=".8" fill-rule="evenodd"/><path clip-rule="evenodd" d="m42.7488 34.073v-.3927l-.1322-.1048v-.1047l-.185-.1571.7136-.8641-.0528-.1047h.4757l.185.1571h.185l.2379-.1309.2114.1047.0528-.1833.1058.2095.185.0524v-.1309h.1321l.1321-.1048-.2114-.1309.1057-.1047-.185-.1571-.1585.0261-.0529-.0261.1321-.131-.1321-.0785.0793-.288v-.1833l.1321.1309.1586-.0524.1586.1571.3436-.3665-.0529-.1571.0529-.2619.3171.0262.1057.1309.0793.0786.0529-.1048h.0793l.1321.131.0793.0261.0264.1571-.1586.0262-.0264.0786.1586.1309v.3928l-.0529.2094h-.1585l.1321.1571.0264.1833-.1321.0786-.0264.1571-.1058-.0262-.1321.1571.1321.1833v.2095l-.185.1309-.0793.1309.3701.3928-.1586.1571.0264.1047.185.1309.1322.2095-.0529.7593.0793.1048-.0793.0785v.1047l.0793.0262.1057.1048v.0785l.0793.0786-.0264.3142-.185.3665-.3436.131h-.185l-.2115-.2619-.3171-.2356h-.2379l-.3435-.2881-.2643-.0523-.0265-.1309.1322-.0524.0264-.1833-.1057-.0524.0793-.0523v-.1048l-.1057-.1309-.0793.0524-.2379.0523-.0793-.0523v-.1833l.1057-.0524s0-.1571-.1057-.1571-.1321 0-.1321 0l-.0793.1309h-.0529l-.0528-.1571v-.2094l-.2379-.1571-.2114-.0524z" fill-opacity=".8" fill-rule="evenodd"/><path clip-rule="evenodd" d="m40.7656 35.7746v-.1833l.1057-.1833.1322.1309.5286-.1047.2643-.2095.0528-.2094.1586.0523.2378-.1309.1586-.4713.1586.0785.0264-.2094.2115-.2095.555.1309.185.0786v.2618l.0792.1571.1851-.1047.1585.0523-.1057.0786v.2095l.1057.0785h.2379l.1057-.1309.1057.1833-.1586.1309h.1322v.1571l-.1586.0786.0529.1833.2378.0261.3436.2881.2379-.0262.3435.288.185.2618-.2642.0524v.1571l-.1058.0262.0265.2357.1321.1571.2114-.0524.1058.3142h-.1058l-.2114-.2357.0793.3142.3171.0524.2379.1571-.2379.0786-.1321.0785-.3171-.0262-.3172-.1309-.37.1048-.2379.1047-.6342-.3928-.1058-.2618-.3171-.3404h-.1322l.1058.2618-.1322.1571-.2907-.0523-.185-.2619-.2643-.288-.1057-.0524h-.37l-.1586-.1047h-.2907l-.1586-.0262-.2114.1833v-.1309l-.2114-.0786-.1058-.2094.0529-.3404z" fill-opacity=".8" fill-rule="evenodd"/><path clip-rule="evenodd" d="m38.5986 35.2773h.2908l.2642.2357.37.2095.2908.0262.2907.0523.1057-.1833.2114.131h.3436l.1586.288-.0529.2356.0793.2357.1057.0262.1322.0262v.1571l.2378.1047.0793.2095.1057-.131.1322.0786.1585.1833.37-.0262-.2642-.2357.3171-.0785.2907.2095-.2114.0785.0264.1571.2379.1833.1586.1047.1585-.0261.1057.0523-.0264.2357-.0264.3666-.185.2094.0528.131h-.185l-.3171-.2095-.0793-.0262-.0529.1571h-.2378l-.1322.1833-.1585-.0524-.2115.1833-.0264-.2356h-.1586l.0265-.1572-.185-.0523-.0265.1047.1322.1833-.185.0524-.0155.1772-.196.0846v-.3404l-.0264-.2356-.1057-.131-.1057.0786-.1322.1833-.1321-.3142-.2114-.0524.1321-.1571-.2378-.0524-.1851-.1309.1058-.1047v-.1048l-.1586.0262-.1057-.0785.185-.1048-.0793-.2094-.1057-.1309-.185.1047-.0793-.2619-.0793-.1047h-.0793v.2095l-.2907-.3142h.1586l.1057-.0524-.1586-.1571-.1321.0262-.0793.0524-.0264-.1571.185-.0524-.2379-.1309.1586-.0786-.3172-.2356z" fill-opacity=".8" fill-rule="evenodd"/><path clip-rule="evenodd" d="m43.0385 37.9221v-.3404l-.1321-.1047.1585-.0786.3701.0262.2114.0262.1321.1571v.1833l.0529.1833.3964.2356-.1057-.288.2114-.0262.0529.131.1321.0785.37-.2357.1322.0786-.0264.1309.1321.1571v-.2094l.5814-.0262.2908.0523.185.2357.0264.288-.2379-.1833-.185-.2356h-.6343l-.0264.1047h.5286l.2643.1833.3435.2618.1322.1048.1057.0523-.1321.0524-.0265.1309h-.2643l-.0264.1309-.185-.0523v.3666l.2114.1309-.0528.1309h-.185l-.0529-.1309-.0528.1309-.2643-.0262-.0529-.3142-.3171.288h-.1322l-.0528-.2356h-.1057l-.0529.1047-.2643-.1309-.0528.1047.1585.1048-.1585.0785-.1058-.0262v-.1309l-.2114-.0262-.1057-.288-.2643-.1833-.0264-.1571-.37-.0262-.0529.0786-.3171-.288-.0529-.1572-.0793-.1571.185-.1832z" fill-opacity=".8" fill-rule="evenodd"/><path clip-rule="evenodd" d="m38.9951 36.7188.3171.3403.0265-.2618.1585.1571v.1571l.0793.1047.1586-.1571.185.2881-.2379.1571.1586.1309.1586-.0524.0528.1048-.185.0785v.0524l-.0264.1571-.1321-.0786-.1057.1571.0264.2357-.2379.0262.0066.4975-.218.2291-.2048.0327-.1388.1047-.1057-.0261-.3436.288-.0528.0785-.3833.0197.0397-.2815-.185-.0524-.0529-.1047.1322-.0786.0528-.1832-.1321-.0524.0264-.288.1322-.131-.185-.2618.1321.0524.1586-.1571v-.0524l-.0793-.0786.0264-.288-.0528-.0523.1585-.0786.1322.0524v.1571l.0912-.1155.1599-.0089.2775-.2946.1717-.0196.0595-.1571-.0462-.216z" fill-opacity=".8" fill-rule="evenodd"/><path clip-rule="evenodd" d="m38.2822 39.5188.4493-.3404.1322.0262.1057-.1309.2208-.0479.1834-.2172.0186-.4943.2099-.0293-.0513-.2325.1586-.1309.1321.1047.0545-.2372.1305.1325.3049.0262-.1727.1571.2114.0785.0561.1217.1553.1925.0529-.1309.1321-.1309.1058.1309.0296.5946-.0032.348-.0793.288-.0682.0911-.1697.0399v.0785l.1058.0786-.0265.1309-.2907-.0524-.1586.0524.1238.03.0877.1795-.0265.3665-.1321.0524.1539.0877.0575.1218-.2846.2203-.2439.0092-.0265.2418h-.185l-.1508-.1185-.1663.0661h-.2379l-.0793-.0785v-.3142l.0793-.2357.1586.0524-.0203-.1741.0622-.1555-.0683-.0693-.1322-.0201.1151.1124-.1944.1495-.1057-.1048.0264-.1047-.0918-.0846-.2002-.0995-.3423-.261.0793-.1833z" fill-opacity=".8" fill-rule="evenodd"/><path clip-rule="evenodd" d="m39.126 41.2178.3171.0785.1586-.1047.1057.1309.2115.0262.0264-.288.185.0261.3436-.2094-.0265-.131-.2114-.1309.1057-.0523.0529-.3666-.0793-.1309-.1322-.0786.1586-.0785.3172.1309.0264-.1309-.1057-.131-.0264-.0785h.1585l.2115-.3666-.0265-.4189.185-.0786.0793-.1833h.1322v-.1047l-.1322-.1571.0264-.1047.1586.0785v.1309l.1586.0524.0264.1571h.1057l.1058-.1571.185.0785.1321-.1832h.2379l.0792-.1571.3172.2232.2114.0386.0265.1047.37.3142.0264.1571-.0529.0786h-.0793l-.0528.1047.0793.0786.0264.1047-.0793.0262v.1571l.1057.0524-.0264.0523h-.1321l-.1322.2095.0264.288-.0264.2881-.0793.1309-.1057.1047-.1321-.0262-.1586.3142-.0264.1833.1057.0262-.1057.0786v.1309l-.1322.1309-.1057-.1047-.0529.0785.0793.2095-.185.0785-.4493.0786-.1321-.3142h-.2114l-.1058-.2357.1586-.1047-.2643-.1047-.1057-.0786-.0793.0786.1586.2094h-.2643l-.2114.1048.1586.1571.1585.0785-.2114.0262-.3436-.1047-.0793.0262.1586.1047-.0793.1833-.0793.1309-.0264.1309h-.4493l-.2643-.1309v.1833l-.2643-.0262-.0528-.1309-.2115-.0262-.1321-.0786v-.1309l-.1586-.1047v-.1309l.0529-.1048.2114-.0523-.0264-.131z" fill-opacity=".8" fill-rule="evenodd"/><path clip-rule="evenodd" d="m42.6155 41.3257-.1321-.0785v-.1309l.185-.3142.1321.0261.2115-.2618v-.3142l-.0265-.2618.0793-.2095h.185l.0529-.0786-.1321-.0262v-.1832h.0792v-.1048l-.1057-.1047.0265-.1048.1321.0524.0529-.1047-.0265-.1571.0265-.0786.3435.0262.0529.1309.2643.2095.0793.2618.1057.131v.1832l.1057.131.1057.0523v.1048h-.1321l-.1057.0785.0264.0786h.3964l.2114.1309.0529.1833h.0793v.288l.185.288.0529.1571-.2379-.1571-.1057.1048.1321.0523v.3404h-.3171l-.1322.2357-.1321.0523-.185-.2356-.1057.0524-.1586.2094-.1057.0524h-.0529l-.1321-.1571-.0793.0262-.1586-.1833h-.0264l-.0529.0524h-.1321l-.1322-.1048-.0264-.1571-.1586.0262z" fill-opacity=".8" fill-rule="evenodd"/><path clip-rule="evenodd" d="m40.2098 42.2189.2115-.3666-.2115-.1833h.1586l.2643.1309h.2907l-.3435-.2618.1321-.1048.37.0262-.185-.2094.0793-.131.0528.1048.3172.1047-.1322.1047.0793.2095.2379.0262.1057.3142.3172-.0524.3435-.0785-.1057-.2095.0264-.1047.1322.1047.1586-.1309-.0529-.1571.1057-.0524.3436.2357.1321-.0262.0265.1309.1585.1571.1322.0262.0793-.1047.1321.1833.2379.0785-.0793.1309.1321.0786-.0792.0785.0264.3142-.0793.1048.0529.2356-.2379.0262v.0786l.1321.0523.0265.1048-.0793.0262.0264.1832.2379-.1571h.0793l-.0265.2619.1586.0523v.0524h.2379l.0528.0786-.0528.1833.1585.2618s.1322.1833.0265.1833c-.1058 0-.1586 0-.1586 0l-.185-.0524-.0793-.0785-.1321-.3142-.0793-.0786-.185.1309.0528.1833-.1585.2357-.3436.1571-.0265.1309.1058.1309-.0265.3404-.0264.1047-.2907-.1309v-.1309l-.1057-.0262-.0265.0786-.2378.2094-.1586-.0261-.2379.1309h-.1585l-.185-.1309-.0265.0261-.1057-.0785-.0264-.1309.1586-.0262-.185-.2357.1585.0262.0265-.0785-.1057-.1833-.2115-.131-.0264.1572h-.4097l-.1717-.131-.1322-.0785.1057.2487-.1057.1048-.3964-.0524-.1057-.1178-.1322.0785h-.1057l.0793-.1571-.3172-.1309.0529-.4713.1586-.0524-.0793-.1309v-.1309l-.1057-.0786.2114-.3404.2643-.1047-.0264-.2095.2643-.1833.1057.0786.0793-.1571-.1058-.0524-.0264-.1309-.2378.1833-.1322-.0786z" fill-opacity=".8" fill-rule="evenodd"/><path clip-rule="evenodd" d="m43.8054 42.2151-.1322-.1833.2115-.0262.2114-.2095.0793-.0785.1585.2356.185-.0785.1322-.1833h.2907l.0793.2095h.2114l.0265.0523-.185.2095.0792.1571h.2908l.1321.1571v.1048l-.0793.1309.0793.0262.185-.131.2114.0262-.0264.1833-.0793.1833-.1057.2095h-.1321l-.2115-.0524.3436.288.1057.1571.1057.2619.2908.1833v.1309l-.0793.0262-.2379.0523-.6079-.2356-.2114.2356-.3436-.1833-.1057.1571h-.0793l-.2907-.3403.1057-.1571-.0793-.1571-.2642-.0262-.1322-.131.0529-.2094-.1057-.0262-.2379.2356.0528-.2094-.0264-.1571-.1586-.0524.2908-.0524-.0529-.2356.1057-.1048z" fill-opacity=".8" fill-rule="evenodd"/><path clip-rule="evenodd" d="m41.2155 51.9531-.2379.1048.0529.2095.1586.2356-.1322.4451.0264.1571.2115.0524.2378.3404.2115.0262.0793-.1571-.0265-.1571-.1057-.1309-.185-.0262-.185-.1571.0264-.4452zm-.4493-7.6719.185.2357-.1322.1571-.1585-.1047-.2115.0262-.1057-.1048-.2378.1309.0528.2095.1586.1833.0793-.1309.1057.0524-.0264.1309.1057.0523-.0264.1571-.1586.1571.1057.1048-.1057.0262-.0264.2356-.1586-.0785.0528.2356.2115.288-.2379.4452.2643.1833-.0529.1571-.0528.2094.2378.1833-.0528.2357.1586.2618.0264.288.1057.0786-.2379.0785.0265.1571.1057.0786-.1057.4451.2643.0262.0528.2095-.2114-.0524v.1309l.1586.1833.1585.0262v.2357l.185.1571.0265.3404.2378-.0524-.185.2618h-.2378l-.0265.2095.0793.2618.2379.419-.0793.0524-.0264.6284.185.2356.0264.3404.0264.1833.3172.1571.2378-.1047.1586.3142-.0528.1309.1585.1571-.1057.2357-.2378.2618.3171.1309.3171-.0785-.0528-.131h.185l.0264-.1571-.1321-.0785.1057-.1571v-.5237l-.1057-.0524.2246-.1833.1718-.4974.1586-.1571-.0793-.2357-.2114-.3928-.2115-.4189-.0793-.1833.1851-.1833h-.4493l.2642-.3666.1322-.288.1057-.6546-.2643-.4189v-.1309l.1586-.131-.2643-.1833.0264-.4974.2379-.131-.2379-.4451.0265-.6022.1585-.1833.1322.2356.1586-.2094-.0529-.1309-.1586-.0262-.1057-.1048.1057-.2094.0529.1047.1321.0524.0529-.1833.1321-.0786-.0264-.1309-.2379-.3928-.2643-.1309-.1321-.2356-.0529-.0786-.2114.1571-.185.0262-.1586-.1571-.0792.0524-.1058-.2357.1586-.0523-.2379-.2357.2115.0524-.1057-.3142-.1586-.1048-.0264.1833h-.4229z" fill-opacity=".8" fill-rule="evenodd"/><path clip-rule="evenodd" d="m42.8796 53.0554-.0529.4713.2907.1833.0793-.288zm.251-6.8994-.0925.0392-.0396.1964-.1322-.0654-.0528-.1441-.1454.2357.1057.1178.1718.0131.0661.1571-.1586.2095-.1321-.2226-.1718.1571-.0132.563.2511.4975-.2511.1309-.0264.4844.251.1964-.1453.0916-.0132.144.2775.4452-.119.6284-.37.6677.4361-.0131-.1718.1833.4625.9819.1057.2618.1718.0524.0132.1702-.2775.0523-.2114.3535.1189.1048.0793.2356h.119l.0396.2095.0793.2618.3303.0262.1983-.3011.1057-.0655.1057-.1963-.0529-.1179-.066-.1571-.2511-.1571.1982-.1047.3568-.3666.0264-.288.0132-.3273h.1058l.185-.6808.0132-.5368-.119-.4975.3568-.3534.0793-.1702.119-.0262.1585-.2619v-.3273l-.2378-.6938-.1322-.0655v-.3142l-.185-.3928-.0528-.4451.1057-.2487.2114-.2095.1322-.4582.1057-.0917.0925.0655.1982-.1964.0925-.1833-.0397-.2095-.0792-.0785v-.1702l.2775-.0131.1718-.144.1057-.5499-.6079-.2094-.2643.2356-.3039-.1833-.1322.1702-.1321.0786-.3039-.0393-.119-.0785-.2114-.4059-.1982.0786.066.2094-.1982.2357-.3303.1571-.0397.1047.1057.1178-.0264.5106-.3039-.144.0264-.1309-.1189-.0524-.0132.0917-.2379.2094-.1718-.0261.185.3142.2643.1178.1982.3404z" fill-opacity=".8" fill-rule="evenodd"/><path clip-rule="evenodd" d="m44.1299 39.5329.1682.037.0187.1296.1121.0555.1682-.0925-.1869-.1111.0748-.0926.2803.1111.0374-.1111.0934.0185.0561.2222.1495.0185.299-.2962.056.3147.2617.0371.056-.1482.0748.1296.1682.0186.0747-.1296-.2242-.1111v-.4259l.1869.0741.0373-.1296h.2617l.0187-.1296h.056l.1495.037.0561.1481.5419.1111.1869.2222h.1495l.0935.2222.5793.0925.3364.2407.1682.2963.0187.3518h-.1495l-.0187.2777-.1495.1296.2055.1296-.0934.2407-.1121.3518-.1309-.0556-.2055-.1296-.0935.2592-.0934-.0185-.0187-.1296h-.1121l-.1308-.2037-.1682-.0185.1308.1667-.1495.0185-.2056.1296-.0187-.2037h-.1682l-.1121.0926-.0934-.1481-.1682-.0185-.3177.3147-.4299.0185-.0373.1111.1682.0926-.0187.0926-.0561.0925-.2429.2037h-.1869l-.0935-.1111h-.2803l-.0934-.1666.1869-.2037-.243-.0555-.056-.2037v-.3518l-.1309-.0926.1122-.111.299.2221-.1122-.2036-.2055-.3148.0187-.2592h-.0561l-.0934-.1666-.1495-.1296-.4486-.0185-.0186-.0741.1121-.0926h.1308l.0187-.074-.2056-.1852z" fill-opacity=".8" fill-rule="evenodd"/><path clip-rule="evenodd" d="m46.2622 44.1797.0187-.1111-.2617-.1481-.1308-.3332-.3738-.3703.2617.0185.1495-.3703.0374-.2037-.1869-.074-.2243.1666-.0374-.037.0561-.1667v-.0926h.1121l.3364-.2221.0374-.1667-.1869-.1111.0374-.1296.3551.0186.355-.2963.1682.0185.1309.1111.1121-.0926.1308.0186.0374.2036.1682-.1111.2055-.0185-.1121-.2036.1121.0185.1495.2222h.0935l.056.1481h.0748l.0748.2777-.0935.3147-.2429.1297s.0747.1666 0 .1666c-.0748 0-.243 0-.243 0l-.1121.4073.2242.1296.0935-.1666.1308-.0741.243.1481.0934.0926.2056-.1851.2429.1296-.0934.074-.0187.1852.2429.074-.0934.0371v.2407h-.2056l-.0747.1666-.2243.0926v.1666l-.0747.0185v.0926l-.1496.1111-.0747.2962-.0748.1111-.0186.0741-.1869.037h-.2617l-.0373.2037h-.0561l-.2056-.1296-.299.0185-.2616-.1481-.0374-.1297.1682-.1481-.2803-.1851z" fill-opacity=".8" fill-rule="evenodd"/><path clip-rule="evenodd" d="m45.9614 44.2751.299-.111-.0374.3332.299.1111-.1868.1852.0373.1851.2617.1852.3364-.1111.2242.2592.0374.5184-.2616.1111-.1495.074-.0374.2593h.3737l.0748.074v.4073l.1495.3703-.1121.1852.1495.4814-.299-.1482-.2243-.111-.0747.074.4111.2963v.111h-.1121l-.1869.2222v.4814l-.2243.3703-.0747.2222-.0374.4443.2243.3333.0747.4073-.299.4074.1121.2592-.0374.4814.1496.4073v.2222h-.1496v.2221l-.5232.3333-.1869-.1481-.4485-.037-.2616.074.4858.3703-.1121.2222h-.4111l-.299-.0741.1868.3703-.2616.0741-.299-.1111.1121-.2592-.2242-.3333v-.2962l-.0374-.2963.0748-.5924-.0748-.3333.1869-.5184.0374-.6295-.1495-.5555.4485-.3703.2616-.1851.0748-.5925-.2991-.5925-.1121-.111v-.2593l-.1869-.3702-.0747-.4814.3364-.5555.1495-.4443h.2242l.2617-.2963v-.2592l-.1495-.1111v-.2221l.4111.037.1121-.2963z" fill-opacity=".8" fill-rule="evenodd"/><path clip-rule="evenodd" d="m45.2589 28.3386.37-.3927-.0264-.2357.185-.2095.185.0262.1586-.2095-.0265-.2618-.1321-.2357v-.4451l.2643-.1833-.1322-.0785v-.1833l.2908.2095-.0793.4189.1585.1571-.0264.2095.185.1309h.185l.1322-.1833.2378.0524.1586-.0262v.3928l-.0529.0523-.1585-.1047-.0793.3666-.1586.1571.0793.1833.2114-.0262-.0264.1309-.1057.1309-.0264.2095.2378.1833-.0264.1571-.185.1047.0264.1047h-.1321v.131l.1321.2618.0264.1571.1586-.0262.1322.1571-.0529.1571.185.0786.6079.1571.0528.1833.3436-.288.5021.2356-.0264.3142-.2378.2619-.185-.0262h-.4229l-.2379.0523-.3964.4714-.1321-.1833-.0529-.0786-.185-.0785v.1571l-.2114.1309-.1057-.0786-.0793.1571.0793.1571.1585.1048-.0528.1047-.0793-.0262-.1057.2357h-.1322v.1833l-.1586.0523v.2881l-.1321.0523-.2114-.0262v-.2356l-.1586-.1309.2114-.0262.0793-.5499-.2114-.2356.1586-.0262.0264-.1833-.2379-.1571-.1057-.0262-.0529.1047-.1585-.1832h.0793l.0528-.131-.0264-.1309-.185.0262-.2114-.2357-.0265-.2094.1322-.0262-.0265-.2357-.1057-.1309.0265-.1309-.1058-.1047.1058-.1048v-.2356h-.185l.1585-.1833-.1321-.0786.0793-.1833z" fill-opacity=".8" fill-rule="evenodd"/><path clip-rule="evenodd" d="m46.1839 36.346.2114-.3404-.0264-.3142-.1057-.2357-.1586-.0523v-.1048l.0793-.0785-.0793-.1048.0529-.3142.0264-.4713-.37-.3927.185-.2357-.37-.3404.2379-.2618.0528-.3142-.185-.1571.185-.131.0793.0524.1322-.2095.2378.0786.0264-.1309.1058-.1833.0792-.1309.0529-.131.1057-.0785.1322-.1833.1321.0262v-.1048l-.185-.1571-.0264-.1309.0264-.1309.0793.1047.2643-.1571.0264-.1571.1586.0786.2114.288.3172-.4713.2643-.1047.1585.0785.0265.2357h.2378v.4451l.2114.3142v.1309l-.1321.1833-.0264.1571.185.419.555.3404-.1322.0523-.0792.1833.2378.4189.0264.1833-.0792.131.185.4713.185.0785.1321.0524.0529.0785-.2115.1048v.2356l-.1585.0524-.1322.1047-.1057.2881.0264.3927-.185.0262-.1057-.1047-.0264.1309h-.0793l.0264.1833-.2907.288-.2114.1309h-.0793l-.2379-.1571-.1585.1571h-.0793l-.1586-.1047v.1833l-.1322.1309-.0528-.2095-.1057-.0524-.2379.2619-.1586.0524-.1321.1309-.0793-.1571-.1057.1833h-.1586l-.1586-.131-.0528.0786-.1057-.1571z" fill-opacity=".8" fill-rule="evenodd"/><path clip-rule="evenodd" d="m46.1569 36.375-.4229.1309-.2643.0262.0265.2618.2378.2881.3172.288.0264.1571.1057.1309-.0264.2619.2907.3927.3171.2095.3172.0785.1321.1571h-.2907l.2114.2095.1322-.0785.1321.2618.4758.1309.1585-.1309v-.288l.3436-.0524.2379-.1047.6078.1047-.1585-.4451.2643-.288-.5286-.1048-.185-.2356-.1322-.2881-.185-.1047-.1321-.3404-.2643-.1309.2114-.1833-.5021-.0262-.0529-.2094-.1321-.0524-.2643.2618-.0793-.0523-.185.2094-.0793-.1309-.1057.2357-.1586-.0524-.1321-.1047-.0793.1047-.1057-.1571z" fill-opacity=".8" fill-rule="evenodd"/><path clip-rule="evenodd" d="m47.8755 39.2823.1321-.1571v-.2619l.4493-.0523.1586-.1048.5814.1309-.1321-.4713.2643-.2356-.4493-.1309-.1322-.0262-.2642-.4975-.2115-.1048-.0793-.3403-.2907-.1833.2115-.1571-.4493-.0524.0264-.1309v-.1571l.2114.1571.2379-.1833.3171.1571.2379-.1047.1586.2618.2114-.1047.2114-.0524.0793.1309.1322-.3927.2378.3665-.2114.1833.185.0524.3964.0523.0265.4975.2114-.0523.1321.1309h.185l.1322-.1047h.1321l.0264.2094v.1833l-.0528.1571.2379.6808.1057.1047-.1057.0524-.4493.2095.185.3142-.0793.288-.2379-.2095-.0793.131-.0793.3404-.185-.0524.1058-.3142-.2379-.1309-.1321-.1571-.3965-.0786-.1586.2357-.0264.1309-.0264.3666-.1322.1571-.185-.1048-.0264.2095-.0793.1309-.2643-.1309-.0264-.2357-.0793-.2618-.2114-.1309z" fill-opacity=".8" fill-rule="evenodd"/><path clip-rule="evenodd" d="m48.5625 40.6133.3436.0262.2114.1833.2379.1047.5286.1571-.1057.1833-.37.6022-.3436.2357.0793.4713.3171.2356.1586.3666.2643.1833-.2907.3928.2114.1832.0793.1571-.1322.1048h-.2907l-.3171-.0786.0264-.3404.0264-.3142-.1321-.0523-.0793.1309h-.3436l-.2114-.1309v-.1048l.1321-.0523-.2378-.1571-.2115.1832-.2642-.2094h-.1586l-.1586.2094-.2379-.1571.1586-.3927.3172.0262-.0529-.1571.2379-.131.0793-.3404-.1322-.2356.1322-.2618.37.1571.1321-.5499-.1057-.2095.1321-.1047z" fill-opacity=".8" fill-rule="evenodd"/><path clip-rule="evenodd" d="m51.1524 43.3436-.2115.0307-.1321.2459.1057.2152.2907-.0308.2114.2459.1058-.1537-.0529-.2766-.1057-.1844zm-.4434.4513-.3738.1111-.2242.1481-.0748.1851-.2552-.1915-.1933-.2528.1121-.2222.1496-.2222-.2243-.2221-.1869-.3333-.2616-.1852-.1121-.4814.3363-.2592.2617-.4813.2242-.3333.3738.037.3364.2592.1495.2592h.299.2616l.1122.2592.0373.2592.1122.4074-.1495.3332-.2198.168.1431.224-.484.1265z" fill-opacity=".8" fill-rule="evenodd"/><path clip-rule="evenodd" d="m48.5098 36.4296.4228-.3666-.0528-.2094h.1057v-.1571l.1586.1571.1585-.0262-.0264-.4451.0793-.2881.37-.1571-.0529-.2356.2379-.1048-.0793-.0785.1586-.0524.185-.0262.0793-.1571.1585.1833.1586-.0262.1057.0786.0793-.4451.2643-.0262.0793.1047.3171.1309v.131l.2115.2094h.2378l.0529-.0785h.2114l.2907.1833.1586.0785-.1586.1047.0265.2357.1057.2095-.0793.1833-.0264.1571.1585.1571-.2907.0523-.1057-.1047-.0793.0786.1057.0523.0529.4975-.1321.3142-.1322.0262.0793.1309-.1586.2619-.2114.1571-.1322-.1048-.2642-.3142-.0265.1309-.1585-.0261-.2115.4451-.1321-.1047-.1057.0785-.2115.0524-.1585-.1571-.2115.0523v-.5236h-.37l-.2114-.0786.185-.2095-.1321-.2094-.0793-.0262-.1586.288-.0793-.1571-.2114.1047-.185.1048z" fill-opacity=".8" fill-rule="evenodd"/><path clip-rule="evenodd" d="m48.1661 30.1965-.0265-.1833-.4228-.1048-.37-.1309.0528-.1571-.1321-.1571-.1322.0262-.0264-.1571-.1322-.1833-.0792-.2095.185.0262v-.1309l.1585-.1047.0265-.131-.185-.1571-.0529-.1833.1321-.1571.0265-.2094-.2115.0261-.0792-.1571.2114-.1571.0528-.3665.1058.1309.1057-.1047v-.3928l.185.1571.2643.1571.1321.0786.3436.1309.2907.0785.3964.0524.2908.1309h.185l.0793.1309v.2357l.0264.288-.0529.1833.3172.1571-.1057.1833-.2643-.0524-.185.2619.1585.1309-.1057.1571.0793.2095.185.1047-.1057.0524-.1586-.0524.0265.1309.1321.1047-.1321.2619-.3436-.0262-.2115-.1047-.2907-.131z" fill-opacity=".8" fill-rule="evenodd"/><path clip-rule="evenodd" d="m49.7515 34.5176-.2379-.1047-.2114-.4451.1057-.1048v-.2618l-.2643-.3928.0529-.1833.185-.0523-.3964-.2095-.1586-.1571-.2114-.3666.0264-.1571.1586-.1833v-.1309l-.2379-.3404.0264-.4451-.2378-.0262-.0793-.2095.2643-.0523.2378.0523.2379-.288v-.2618l.1321-.0786.185.0524.185-.2357-.185-.1309v-.1571l.1586.0524.1586-.0262-.2114-.1048-.1058-.2356.1058-.1571-.1322-.1309.185-.2619.2643.1048.1057-.2095-.2114-.0786-.1057-.1309v-.1309-.5237l-.0265-.1047.1322-.0262.1321.1047h.2379l.0793.1571.555.1048.2643-.1048.3171-.1309.3436.0524.1322-.0786.2114.1048.185-.1571.1321.0785-.0528.1309-.1322.3666-.0264.2095-.1321.1047.2114.2357-.0264.1571-.185.0262-.1058.1571-.0528.2094-.1057.0262-.1058-.288-.0792.1047-.1586-.0523-.0793.0523.2114.1571.0529.2095-.0529.1571h.0529l.1321.2619h.185l-.0264.288.1322.1047-.0793.1047h.185l.185.1572.2643.0523.1057-.0785.2378.0785-.0528.1571-.1322-.0262.0529.1833.1057.0524.0529.0524-.1322.1571-.0264.2618.2114.1833.185.1047.0529.3404.1586-.1047.0264.1047.2114.1309.0529.1048-.1586.2618-.185.1833-.185-.0785-.1057-.1833-.1586.3142-.1057-.2095-.1586.288-.2114.0262-.185-.1571h-.2379l-.0793.2095.2379.1833.2643.1571-.0264.3404-.1322.1047-.0264.2357.1321.288.0793.1571-.185-.0524-.2378.1047h-.2643l-.2115-.1571.0265-.1571-.37-.1309-.0265-.1047-.2643-.0262-.1057.4189-.1057-.0523-.1321.0523-.1586-.1832-.0793.1571z" fill-opacity=".8" fill-rule="evenodd"/><path clip-rule="evenodd" d="m52.5535 34.8334-.2907-.2619-.0793-.288-.0528-.1571-.0264-.2095.185-.1047.0264-.3404-.5286-.3666.0793-.1047v-.1309l.2114.0261.2115.1833.185-.0262.185-.2618.1321.1309.1057-.2618.2115.1833.2378-.1048.185-.2618.1322-.2095.5814-.1047-.37.0524.2907-.0524h.3436l.185.0524.2643-.1833.2643.0523.1057.1833.2907-.1833.1586-.1309h.2907l-.0529.2095.2379.2618v.1833l-.0793.1309-.0264.0786-.37.2095.2114.0523.0529-.0785.185.0523.1057.2095-.0265.1309-.185.1048.2643.1833.0529.1571-.185.0262-.0793.1047.1321.1047v.1048.0523l-.185.0524-.3171.0262-.0793.1309.1586.0786.0528.1047-.1321.0785-.3171.0786-.3172.0785-.0793.2095-.3436-.0262-.2642.2619v.0785l.1585.1833.2115.0524.0528.1833-.0528.1309-.1322.1047s.1586.0786-.0264.1309c-.185.0524-.2379.0786-.2379.0786l-.1321-.1309-.0793-.1833-.2379.0262-.1585-.1833h-.2115l-.0264-.2095.1586-.1309-.3172-.0786-.0793-.2094-.185-.0262-.1321-.2619-.1586-.1571-.0793.0262-.0528.0524z" fill-opacity=".8" fill-rule="evenodd"/><path clip-rule="evenodd" d="m53.5309 32.3678-.2115-.0786-.0264-.1833-.185.0786-.0528-.2619-.2379-.1309-.1321-.1833-.0265-.2618.185-.1833-.2378-.1309v-.1571l.1057.0262.1057-.1571-.2907-.1048-.0529.1048h-.2643l-.185-.1833h-.2378l.1057-.1309-.1057-.1048v-.2618l-.185-.0262-.1057-.288h-.0793l.0264-.1048-.0264-.2356-.2379-.1571h.2907l.0529-.1309.1057.3142h.1321l.0529-.2357.0793-.1309h.1321l.1058-.2095-.2379-.2356.1586-.0786-.0529-.1571.1057-.1833.1322-.3142.2114.0262.0793.0786.4493-.2881.1585.2357.6872.0262.0793-.0786.2114.1048.3436-.2881.0264.131-.0793.0261-.0264.4975.1057.1048-.0528.0523-.1586.0262-.0529.1309.2115.0524-.1058.1309-.0264.2619.1322.2356v.3666l.3171.0785.2114.2095.5022.0262.1321.2095v.2356l.1058.2095.1057-.2095.1321-.0262.1057.1833-.0793.2095-.185.0524v.2618l.1322.0786.1586.0261.2114.0786.1057.1309.0793.1048-.1586.1832-.2114.1571-.2907.0262-.4493.2881-.0793-.131-.3172-.0785-.2378.1571-.185-.0262-.37.0262h-.3172z" fill-opacity=".8" fill-rule="evenodd"/><path clip-rule="evenodd" d="m56.0679 32.1576v-.2095l.37-.3142-.1586-.2618-.3436-.1048-.185-.1047.0529-.2357.1585-.0785.0793-.1833-.1057-.1833-.0793-.0524-.185.2619-.1057-.1833.0264-.2095-.1585-.2356-.4493-.0524-.185-.2357-.37-.0523v-.3404l-.1057-.2357v-.288l.1321-.1309-.2643-.0786.0529-.1047.2643-.0262-.1322-.1571.0529-.4975.0528-.1309.4229-.0786h.2907l.37.0786.7136-.1309.6607.3404.1057-.131.3172.1048.3436.2094h.2378l.1057-.1047.185.0524.3965-.2095v.2095l.1321.0262.0793.1571.3964-.1048.1586.0262-.0528.1571.2114.1833.0264.2357-.1321.1571v.0785l.2907.288-.0264.1048-.0793.0262v.0785l.1585.0786v.2094l-.1585.3142v.0786l.1585.2095-.2642.0523-.1322.1571.1586.3404-.1586.0524.1586.2357-.2379.4713-.3964-.0524-.0264.1309.0793.0786-.1058.0785-.1057-.1309h-.2114l-.3436-.0785-.1057.1047.1057.1047-.185.1571-.37-.288-.0264-.1571-.2115-.0262-.2378.2095-.2379.1309.0264.2095-.0528.1309-.1586-.1047-.2378.2094-.2115.0524z" fill-opacity=".8" fill-rule="evenodd"/><path clip-rule="evenodd" d="m59.2921 31.6882.2907-.4975-.185-.2357.1586-.0262-.1321-.3666.185-.1571h.2114l-.2114-.2618.185-.3142.0264-.2618-.2114-.131.1321-.1309-.2643-.3142v-.1047l.1057-.1048v-.2618l-.2114-.1833.0264-.1309-.1585-.1309.0792-.131h.0793l.2379.0786.1586-.1833.7928.0262.4758-.0786.185.1571.1585-.2094h.4229l.2907.1047.2379.288.1057-.0261.1057.0785.1057-.0524.185.1048v.1309l.1322.0262.3171.1571.2114.0523.0793-.0785h.1057v.2095l.2908.0785.2643.1571-.0529.1571.1057.2357.2379.0785-.1057.131.2378.0261.1057.1571-.0264.3928h-.1057l-.1057-.0524-.1586.1571-.3171-.0261-.4493-.0786-.2643.0786-.2115.1309.185.2094-.0264.1833-.2378.4452h-.185l-.3965.0523-.1057-.2094h-.1321l-.0265.1832-.1057.3404-.2643.2095-.1321.0524-.3172.0785-.1321-.1047-.1586.1047-.185-.0262-.0793-.1309-.185.1048-.1321-.131-.1586.1833-.2114.2881-.4229.0261-.0793-.1832-.2643-.0262.1057-.1571z" fill-opacity=".8" fill-rule="evenodd"/><path clip-rule="evenodd" d="m55.8038 34.7002.1586-.0523-.1057-.1571-.1057-.0524.0528-.1571.3172.0262.185-.0786v-.1833l-.1057-.1309.185-.0523-.0265-.1571-.185-.2095.1058-.1309.0264-.1833-.0529-.1048-.1321-.0785-.1586.0785-.185-.0785.37-.1309.1322-.3666.2642-.1833.185-.1833.185.2095.0793-.1571-.0793-.1833.1851-.2618.3435-.1048h.1322l.185.1571.2114.3142.1322-.2094v-.0786l.1321-.1047.1057.0523.4229-.0523.1057.2356.1321-.0523-.1057-.131v-.1309l.3436.0524.3171.0785-.1585.2357.2643.0262.0528.1309-.185.2095-.185-.131-.1586-.0261-.0792.0523.1585.2619.1586.1047h-.1586l-.185.1309-.0528.419-.0529.7593.1586.4451-.1586.4452-.1057.0785v.0786l.1321.1047v.1047l-.1057.0524v.5499l-.3436.2094-.37.0524-.2378-.1833h-.2907l-.2643-.1309h-.2379l-.0528.1571.1585.2095-.0528.1833-.1322.1832-.0793.2619-.3964-.1047v-.1833l.0793-.0524-.0529-.2095-.2114-.4451.2643-.0786-.2114-.1047v-.3142l.2907.0786v-.1571l-.2379-.1048.37-.2618v-.1571l-.2378-.0524-.2379.4189-.2114-.1571z" fill-opacity=".8" fill-rule="evenodd"/><path clip-rule="evenodd" d="m58.9502 34.8854.185-.4975-.185-.419.1321-1.2044.1586-.1048.2907.0262-.2114-.1047-.2643-.3142.1322-.0786.185.0262.185.1833.1585-.2095.3965.0262.4228-.5237.1322.1309.1586-.0785.0792.1309.2643.0262.1057-.1047.1058.1047.37-.0786.37-.2094.1321-.5499h.1322l.0792.2095.3701-.0786h.2642l-.0528.1833-.0793.1833-.185.3404-.0793.4713-.3964.2618-.0529.4713.1322.1833v.1571l-.185.3666h-.3436l-.5286-.0785-.2114.0523.2114.1833.0529.2095-.1322.0524-.0528-.131-.0265-.1047-.1585-.0262-.185.1833.1057.1047v.5761l-.1322.1571-.0528.5237h-.185l-.1322-.2881-.2114-.1832.1057-.1048-.2114.0524h-.2379l-.0793-.1571-.1586.0262h.0265v.4975l.1057.1571-.1322.1047-.1321-.0524-.0793-.1309-.2378-.1571z" fill-opacity=".8" fill-rule="evenodd"/><path clip-rule="evenodd" d="m51.7334 37.3426.2643-.2356.1057-.1571-.1057-.1833h.1586l.1057-.288v-.2881l-.0529-.2618-.1321-.0785.1057-.0786.1321.1571.2379-.0524h.0793l-.1586-.1833.0793-.3403-.0793-.1833v-.2619l.1057-.1047.1586.0262.185-.1571.2379.3927.185.0786.1321.2095.2643.1047.0264.0785-.1586.0786.1322.1571-.185.0524.2907-.0262.1586.1833.2378-.0786.0529.2619.1586.0785-.0529.0786-.1586.2618.0793.2357-.1321.0523-.1586.419-.1057.0785-.0529.1309-.0264.0524-.3436-.0262-.185.0786h-.1585v-.0524l-.185-.0262-.0793.0524-.0265.3404-.1585.2618-.2379-.2094-.0264-.131-.0529.1833-.2114-.0523-.0793-.0786.1586-.0786-.0793-.1832-.185.0785-.0529.1309-.0793-.1571.185-.2618z" fill-opacity=".8" fill-rule="evenodd"/><path clip-rule="evenodd" d="m50.8355 39.2562-.2378-.3666.6078-.2095-.3171-.7593.0793-.1833v-.2357l.185-.4975.1585.0524.0265-.1309.3171.3927.37.1571-.185.1833.0529.1571.2907-.1833.1057.131-.185.1833.2643.0785.3172.1047-.0265.1048-.0793.2356-.185.1571-.0528.2357-.185-.0524h-.1322l-.0528.1833v.2619l-.3436.1571-.1322.1309-.1321.1571-.2114-.0262v-.1571l-.185.1309-.1586-.1309z" fill-opacity=".8" fill-rule="evenodd"/><path clip-rule="evenodd" d="m53.1078 38.8918-.3171-.1309v-.0785l-.2643-.2095.0793-.2095.2378-.288.0264-.3666.185-.1047.0793.1047h.2379l.0793-.0785.4493.0523v-.1833l.1585-.0523.1058-.4452.2114-.0523-.1321-.2357.2378-.3404.2907-.1309-.0264-.1047.1586-.1571-.0529-.2619-.1586-.0262-.1585-.288.2114-.2618.37.0524.1322-.2095.4492-.1571.4493.1309.2379.1571.2907-.4189.2115.0523v.1571l-.3436.2357.2114.1309v.1309l-.2643-.0785-.0264.3142.1586.1047-.185.0524.1321.4189.1321.1833v.0786l-.1057.0523v.2095.0786l-.2907.1309.1057.2618-.2114.0524-.1586.3142.1586.1833.0264.1309-.1321.1047-.0529.2095.1057.2095-.1585.2095-.1058-.0786h-.185l-.1321.1047.0264.3142.1322.0524.0793-.1047.0792.0523v.3404h-.1057l-.185-.1571-.0528.0786-.2115-.2095v-.2095h-.1057l-.0264-.1047-.2114-.0524.1321-.1047-.2907-.2357-.4229-.0261-.185.1571h-.3171l-.1322.0261.0529.2095-.2379.0524-.2907-.2095-.1586.1048.0265.0785.0793.0786z" fill-opacity=".8" fill-rule="evenodd"/><path clip-rule="evenodd" d="m51.4839 39.786.0561.1204.0934.1574.0468.2869.3644-.1573.3457-.0926-.1588-.2963-.1682-.2869-.3364.0185zm-1.1493 1.1202.6728.1481-.0748.3703zm-1.4576-.6295.1121-.4074.2242.1111.1495-.1851v-.3333l.1869-.4073.3738.1111.3737.2592-.1121.3703.2243.037.1121-.4073.4485.2962.3738.0741.0747.1851.1495.1111v.2592l-.0373.2222-.1869.2963-.0748.2962-.2616-.2962h-.4859l-.3738-.1111h-.299l-.3364-.0741z" fill-opacity=".8" fill-rule="evenodd"/><path clip-rule="evenodd" d="m52.5589 39.8207.2336-.4258.0841-.1296-.1122-.1852.0374-.3147.299.1296.1308-.1944-.0654-.1111-.0187-.0833.1215-.0741.3084.2037.2336-.0648-.0281-.1944.1402-.0371.3084.0093.1681-.1574.4018.0278-.0654-.0185.2336.1296.1402.1203-.1121.0926.1962.0648.0374.0926h.1028l-.0187.2036.2149.2037.0467.0926-.0093.2407.0654.1573.2149.2222-.0094.1481.1308.0463-.0654.0556.0094.1111.271.2129.1401.4536.1402.4536.2336.0926-.243.1759.0187.0925.1869.1019-.0747.0648-.0094.0833.0654.1389.0561.074-.0187.0926.0374.7128.0934.1204.1028.2036-.028.2315-.2056.1203-.2616-.1389-.2243.0093-.3364-.0463-.1682-.1111-.1682-.0092-.1962.1111-.0654-.0463h-.1869l-.2429-.1204-.1215-.2129-.0093.0185-.1495-.0092-.1028-.1482.1775-.0462.1121-.1574-.0187-.324.1215-.2037-.1401-.1296-.0281-.2037-.1682-.2036-.0747-.1667-.2803-.2036-.0374-.1852-.1962-.1296-.0748-.361-.3738-.1019-.2709.2315-.1028-.0648-.1028.2129h-.1121l-.2523-.1389v-.1758h-.0094l-.1214-.1297-.1776-.1758.1495-.0834-.0093-.1759zm-.3925-.611-.028.25.1588.2036.0468.1204.1027-.0185.1402-.213.1588-.2684-.0747-.1944.0093-.2222-.1511-.1788-.1572.2991-.2523-.0648-.0093.1944z" fill-opacity=".8" fill-rule="evenodd"/><path clip-rule="evenodd" d="m51.8651 43.9208-.2643-.4451-.1057-.2618.1322-.3666.185-.3142.2378-.2619.0793-.2618-.1057-.2095v-.1833l-.185-.1047-.185-.0524v-.1833l-.1586-.0785.1322-.2619.0528-.2618.0265-.2095.2642-.0785.185-.0786.1586-.0262.2907.2619.0265.1833.2907.1309.1321-.1833.1057.1047.2643-.3403.4493.1309.0529.3404.2378.1571.0265.2356.2643.2357.2378.3142-.0264.1833.2114.1833-.1586.1571.0265.3404-.0793.1832h-.185l-.1057.0524-.1586-.1047-.2907.0262-.1322-.2095h-.1321l-.1586.0785-.0793.2619-.0528.1833-.37.1309h-.1322l-.2643.1571h-.0528l-.0793-.1571h-.0793l-.0793.1047-.0264.2619v.1309l-.1586.1833z" fill-opacity=".8" fill-rule="evenodd"/><path clip-rule="evenodd" d="m52.0781 43.9682.0793.2618.3436.131.0528.2094.1058.2095.3435.288.1322.4975.2378.5499.1058.4189.4757.4713.1586.2881.37.1309.4228-.3142-.0793-.3666-.2907-.4713.0264-.1571-.4228-.6284-.0264-.419.2642-.1309.0793-.3142v-.4451l-.2643-.1833-.3171-.1309-.0264-.1048.2114-.0785-.1057-.1833.1321.0262.2643-.6023-.1586-.0785h-.2642l-.1058-.2095-.2907.0524-.1586.5237-.4228.1309-.0529-.0524-.3436.1833-.1057-.1571h-.0793l-.0792.0785v.4975z" fill-opacity=".8" fill-rule="evenodd"/><path clip-rule="evenodd" d="m46.9761 50.2259-.0529-.3927-.1586-.2095.0265-.3928.2114-.3665-.0528-.2357v-.3666l.185-.2094h.1057l-.1322-.131-.3171-.4975.37.2095.2378.2095-.0264-.2357-.1057-.288.1321-.1833-.1321-.3666v-.3927l-.1057-.1047-.37-.0524-.0265-.288.4229-.1571v-.4452l-.0264-.1047.0528-.0786.0265-.1832.3964.0523.1321-.1833h.0265l.185.2357-.0265.2618h.1322l.1586.2357h.1585l.0529.1571.3964.0785.185.0524-.0264.1309-.1057.0262v.1309l-.185.131-.0529.2094-.2907.1833.1586.1571v.2095l-.2643.0524v.5236l.4229.0786.0528.0524-.0528.1309-.2643.2618-.1586-.1309-.1321.0785-.1586-.0785.0264.3142-.1586.2357.0265.2094.1585-.0785.0529.3142-.0793.1571-.0793.3666-.185.3404-.185.0261-.3171.3404z" fill-opacity=".8" fill-rule="evenodd"/><path clip-rule="evenodd" d="m48.0336 48.6823-.1321.1047-.0529-.2095.185-.2356-.0793-.3928.1586.1571.185-.1047.1057.1047.3172-.2094.0264-.1571-.4228-.131-.0265-.4975.2643-.0785v-.1833l-.185-.2095.2907-.1571.0265-.2094.2378-.131-.0264-.0785.1321-.0524.0265-.1309-.185-.1047.185-.1571.1057-.0524.0528.1571h.1586l.1057-.0524.2115.2357-.0793.1047-.0265.1309.0529.0786h.1586l.0793.1309.4493.0786.0264.1047-.1322.0262-.0793.1309.2908.0524.0264.1309-.2379.0524s.0529.1571-.0528.1571-.2115-.1048-.2115-.1048l-.0792.1048-.1586-.0262-.0793.1571-.0529.1571-.185.0785-.2907.1833-.185.1309-.0264.1833-.0529.3142-.2114.131-.1057.2356-.1322.1571z" fill-opacity=".8" fill-rule="evenodd"/><path clip-rule="evenodd" d="m48.9323 47.716.3436-.1832.3435-.1571.1057-.2881h.1586l.0529-.0785.3171.0785.0529-.1833h.185l-.0264-.1571-.3172-.0523.0793-.1571.1321.0261-.0264-.1309-.4228-.0523-.1058-.131-.2114-.0261.0264-.1571.1057-.0786-.2378-.288h-.185l-.1057-.1309-.3436.2094-.4229-.0785-.0264-.1048h-.1057l-.1586-.2618h-.185l.0264-.2618-.1585-.2095v-.3142l.2378-.2619.0265-.1309.2378-.1309.0529-.1309.2378-.0262v-.3142l.3172.0262.1057-.1571.1321.0523-.0264.6285.37.1571.2114-.0524.1322-.0786.1586.1048.0793-.1833.3171-.1571.37.0785.37.2095.2643.2357.3171.1309.3172.1309.2379.2095.1585.3666-.1585.1832-.2643.131-.4493.3142-.2379.2356-.0264.1833-.3172.0524.185.288-.0792.2095.0264.2356.1057.1571-.3172.0262-.2907.1571v.1833l-.0528.1833-.185-.0524-.1586-.0262-.3436-.1571-.185.1048-.0264.1309-.3172.1309-.0264-.2356z" fill-opacity=".8" fill-rule="evenodd"/><path clip-rule="evenodd" d="m48.9907 47.6775.3738.037-.0374.1852.3737-.1111v-.0741l.2243-.1481.2616.1111-.0747.2962-.2616.0371-.2617.3703.1121.2962-.0747.2222-.3738.074-.1495.2592-.0373.2963.1121.1481.3364-.3333.1868-.074.1496.074.6353.0371.0374.2592-.3737.3703-.1122.2221.2617.1482v.2221l-.2617.4444-.2242.2592v.5555l-.3738.4443.0374.4073-.3364.1111-.299.1852-.3364-.0741-.2616-.2222-.4859-.1111.1121-.1851-.1495-.1852s-.1495-.4073.0374-.4073.4485-.1481.4485-.1481l-.2616-.1111-.2617-.037.0374-.3703.1869-.2222-.1121-.1851-.1122.2592-.1868.037-.0374.2592.1121.1111-.1869.2222-.299-.4814-.0747-.3703v-.5184l.3737-.1852.1869-.2222.1495.0741.2616-.5554.1122-.2963-.0748-.3332.3738.037.2616-.3333.2243-.1481.0374-.2962z" fill-opacity=".8" fill-rule="evenodd"/><path clip-rule="evenodd" d="m51.4572 51.7554-.3363.3333-.1122.3333.299.1481.2243-.2592-.0748-.2592zm-.4111-.6295.3364-.2222.1121.2222-.0374.2592-.2242.2592-.1869.1852v-.4073zm-.7475-.1851.3737.1851.1869.1852.0374.2962-.1121.3333-.1869.2592-.4112-.1852-.1121.2592-.1121.3703-.2616.1111.0747-.4073.1495-.2962v-.3333l.1495-.2962zm-.1122-.1852.0748-.3703-.2616-.1481.4111-.4443.1121-.1111-.0747-.2963-.5607.0371-.1868-.1111-.5233.2962-.0748-.1851.0374-.3703.4859-.1111.0748-.2222-.1495-.3333.299-.3332.2242-.0371.1121-.2962.3364.037.1122-.3332.5232-.1482.0374-.2592.2616.2592.2243.2963-.0374.3703.299.1111.1869.5924-.2616.1482v.3332l-.2243.4444-.1495.4073-.0747.2222.0747.5184-.6728.2222z" fill-opacity=".8" fill-rule="evenodd"/><path clip-rule="evenodd" d="m52.3526 51.4582-.1121.2962h.3738zm1.8688-2.7402-.1495.4814-.1868.5554v.5184l.3737.4074v-.4814-.4814l.1869-.4814.0374-.2592zm-2.6537 1.7404.3364-.3703.299-.4444.0374-.6665-.0374-.4814-.1495-.4073-.1495-.4073v-.4074l-.2616-.2221-.2616-.2963.0373-.3332.2243-.3703.3364-.1852.1495-.1851.5232-.0371.1122.4074.2242.8146.3738.4444.2616.3332.1495.2222-.0373.4073-.1122.1111v.4814l-.1495.3333-.0747.2592-.0748.3333v.3332.2592l-.2616.1852-.1495.2962-.4485.1481-.0374.2222-.2243.1111-.299.1852s-.1121-.0371-.1121-.1852-.1121-.3333-.1121-.3333l.1868-.2592zm.2243 1.5552.1869-.2592.2242.2963-.1495.1481z" fill-opacity=".8" fill-rule="evenodd"/><path clip-rule="evenodd" d="m54.5885 47.6897.6872.0523.2114.4714.0529.4189.2114.2618-.0529.5761-.1057.576-.37.2619-.3171.3665-.1586-.0523.0529-.5237.0528-.576.0529-.5237-.0529-.5237zm1.9558-.2619-.5286-.1571v-.4189-.2619l.4229.2095.1585.2619zm-.9515-1.571.6872.0524.3171.2618-.0528.3142-.4758-.2095zm-.8986.3142h.5815l.2643.3142.2114.3666-.1586.3142-.37.1571-.2643-.0524-.0528-.4713zm-.5285-1.1521.2114-.2618.1057-.419-.2114-.2618-.37-.2619.0528-.2618.3172-.576.4228.1571.4229.3665.4229-.1571.2643.0524.5814.1571.0529.2095-.0529.2618v.2095l-.1586.4713.4757-.0524h.2643l-.2114.3142v.2619l.1057.3666-.3171-.1571-.3172.1047-.5814-.0524-.3172-.2095-.1585.2095s-.1586.1571-.37.0524c-.2115-.1047-.5815-.4713-.6343-.5237z" fill-opacity=".8" fill-rule="evenodd"/><path clip-rule="evenodd" d="m56.8763 45.4964-.1495-.2222.0374-.2221.2243-.4074-.2617.0371-.3364-.0741-.1121.1111.0748-.2962-.0374-.2593.0747-.2221-.1121-.4444.4112.1111.2242-.1851.2243.074.1495-.1481-.1122-.3333-.0747-.2222v-.2221l.0747-.2963.0374-.2592.3364.0741.2243.3703.2242.4443.0748.3333v.2962l.2616.3703-.0374.2592.299.1111-.4111.0371.0374.4073h-.299l-.2243.1481-.1121.3333-.2616.3703v.2592l-.1496-.0741v-.1851z" fill-opacity=".8" fill-rule="evenodd"/><path clip-rule="evenodd" d="m60.0529 49.7905-.2243-.1481-.0747-.4443-.0374-.4074v-.1481l-.2617-.4073-.1868-.5184-.299-.2592-.2243-.3333-.1495-.2962v-.1111l-.1495-.1852-.1869-.1481-.5606-.4073.1121-.1852-.2616-.2592.0373-.2221.1122-.4444.3737-.1481h.1495l.0374-.3703h.299l.2616.074.1496-.1851.4485-.1111.2242.1111.0748.2222-.1495.2592.1869.2592.1868.3703.1869.3332.1495.2593v-.2963h.299l.1495.1111v.3333l.2617.037.0747.3703.0374.4073.1121.2963-.0374.2592.2617.1851.0747-.1851.0374-.1852-.1121-.1481.0374-.3333.299-.1111.299.3333.2616.6295.0748.4444-.2617.4814.4112.2962-.0748.2962-.0374.1852.1122.4443.0373.1852v.1851l.1122.1852-.0748.2222.0748.3703.2242.4443-.1121.2222-.1121.1481.1121.2592-.2616.0741-.2243-.0741.0748-.2222h-.3364l-.2243.2222-.4111.0741-.2243.2222-.3737.2221-.0748-.2962.1869-.2592-.299-.2592v-.3333l-.2243-.2962-.0747-.5184-.1869-.1852zm-3.2144-3.2956.2243.4073.1495.2222v.1481l-.0748.0371-.0747.3703.1121.4073.3364.3703.2242.1111v.2221l.0374.0741h.299l.1869-.2222.0748-.2222v-.2221l-.0748-.2222-.598-.9998-.0374-.2222zm-.2242-.7406.3363.1111.0748.2592-.1121.037z" fill-opacity=".8" fill-rule="evenodd"/><path clip-rule="evenodd" d="m61.038 46.327.37-.4713v-.3666l.1586-.5237.74-.5237-.2114-.9949.5285-.2619-.1057-.4713-.2643-.6808.1058-.4189-.3701-.3666.5286-.6284-.6343-1.4139-.3171.0523-.37-.6284h-.1586l-.2114.2095.2114.8902.1057.5761-.1585.2094v.3143l-.3172-.1048-.37.3142-.37.6284-.1586.4714.2643.4713.0465.6622-.0652.1693-.1927.0064v.1571l-.4229.5236.3172.2619-.1058.2094.0529.2095.3172.6808.3171.4189.0529-.2094.37.0523.0528.3142z" fill-opacity=".8" fill-rule="evenodd"/><path clip-rule="evenodd" d="m60.7722 52.5565.5815-.3142.2643-.2095.2642-.0523.3701.6284.4228.2095.1586-.0524.1057-.2619.2643.3666v.1571h-.2643l-.0529.3666h-.4757l-.2114.2618.2114.5237.4229.419-.1586.2618.2643.4189.2114.2619-.1057.3666h-.2114l-.0529-.2095-.37.4189.1057.4713.2115.3666.0528.3666-.1057.2618.1057.419.37.4713v.3142l.0529.4189.2643.8379.2114.5237-.0528.2618-.1586-.1571-.2114-.576-.2643-.3142-.2115-.3666-.1585-.3666v-.3142l-.8986-1.0473-.1057-.8379v-.3666l-.1586-.3666-.3172-.4189-.0528-.2095.2643-.3142.0528-.3666.1057-.3142.1058-.4713-.0529-.576-.2114.4713-.2643-.1571.2114.3666.1586.4189-.2643.5237.0529.0523-.5286-.0523.0528.2618h-.3171l-.0529-.2618.1586-.4713.1057-.419-.2643-.2095zm-.74-.4713.5286-.1047.1057.5236-.1586.4714-.3171.5236.0529-.3665.0528-.7332zm3.3037 9.4963c-.0273-.1099.0134-.1539-.0832-.2511-.13-.1309.0223-.1465.1248-.1465.0382 0-.0385.3899-.0416.3976z" fill-opacity=".8" fill-rule="evenodd"/><path clip-rule="evenodd" d="m62.8871 52.5603-.2114.2618-.37-.1571-.1057-.2095-.3172-.4713.1586-.2094h.2643l.1057.2094.37.0524v-.2095l.1586-.4189-.1586-.2618-.1057-.5237-.0529-.2619-.1057-.5236-.1057-.3666.1057-.5237.3172.1047.3171-.1571h.5286l.3171.2095.4757.2618.2643.5761.2643.7331-.1057.2095.3172.6808.3171.8902.0529.2619-.0529.576v.3666l-.0529.419.0529.5236.1586.5761.0528.576.0529.4713.2643.4713-.2643.1048-.2643.3142-.1586-.1047-.0528-.2619-.1586-.3666.0529-.2094-.1586-.0524-.1586.1047-.2643.0524-.3171-.1047-.0529-.2095-.2114-.5237-.1586-.1047-.2114.2618-.1057.2095-.2115-.0524-.2643.4713-.1585.0524-.1586.2095.0529.4189-.1586.3666-.0529-.5237-.1586-.4189-.0528-.2095.3171-.3666.2115.2095.1585-.3142-.2114-.419-.2114-.3665.1057-.2095-.2643-.2618-.1057-.3142-.1586-.419.2643-.2618h.4229v-.3142h.2643v-.1571z" fill-opacity=".8" fill-rule="evenodd"/><path clip-rule="evenodd" d="m61.0901 46.8538-.1057-.5236.2643-.3142.2114-.3666.0529-.6284.7928-.5761-.0528-.3142-.1058-.576.4758-.3666-.1057-.419-.1586-.6807v-.3666l-.37-.5237.4757-.6284-.2114-.5237-.37-.9426.1057-.1571.4228-.419h.2643l.1586.2619.1057.4189.1057-.3665.1057-.2095.2643.1047-.1585.3666.1057.3666.1057.2618.1057.9426.2643.3666.1586.3142-.1057.2095.1585.1571.0529.2095-.37.2618.0528.4189.0529.3666.0529.2619.2114.2618-.1586.8379.2114.4189.4229.2095-.1057.2618.1586.6284.3171.3143.0529.4189.1057.5237-.1586.1047.1586.5237.1057.6284.1057.5237v.3142l.1057.4189.1057.419v.4713l-.2642-.1047.1585.576.2115.8379.1585.5237-.2114.3665-.1057-.2618-.1586-.4713-.1586-.5237-.2642-.5237.0528-.1571-.1057-.4189-.2114-.7332-.2115-.2094-.5285-.3666-.6872-.1571-.4757.2095-.3172-.2619-.2114-.3142.1586-.4189-.0529-.419-.2643-.5237-.3171-.4713-.1586.0524-.2114.3142.1586.419-.1058.2094-.2114-.2618z" fill-opacity=".8" fill-rule="evenodd"/><path d="m41.4861 54.1363c-.0235-.0206-.033-.0367-.033-.056 0-.0342.013-.0342.0474.0003.0184.0183.0273.0367.0273.056 0 .0158-.0019.0287-.0043.0287s-.0192-.013-.0374-.029z" fill-opacity=".8"/></g></svg>