<svg fill="none" height="100" viewBox="0 0 100 100" width="100" xmlns="http://www.w3.org/2000/svg" xmlns:xlink="http://www.w3.org/1999/xlink"><linearGradient id="a" gradientUnits="userSpaceOnUse" x1="-.000001" x2="93.9404" y1="2" y2="103.675"><stop offset="0" stop-color="#94dc8e"/><stop offset="1" stop-color="#116954"/></linearGradient><path d="m0 0h100v100h-100z" fill="url(#a)"/><g fill="#fff"><path d="m39.976 89.144c-.608 0-1.216-.0213-1.824-.064-.5973-.032-1.2213-.1173-1.872-.256v-10.752c.512-.096 1.072-.1653 1.68-.208.608-.0533 1.1733-.08 1.696-.08.704 0 1.3493.0533 1.936.16.5973.096 1.1093.2667 1.536.512s.7573.5707.992.976c.2453.3947.368.8853.368 1.472 0 .8853-.4267 1.584-1.28 2.096.704.2667 1.184.6293 1.44 1.088s.384.976.384 1.552c0 1.1627-.4267 2.0373-1.28 2.624-.8427.5867-2.1013.88-3.776.88zm-1.264-4.976v2.864c.1813.0213.3787.0373.592.048s.448.016.704.016c.7467 0 1.3493-.1067 1.808-.32s.688-.608.688-1.184c0-.512-.192-.8747-.576-1.088-.384-.224-.9333-.336-1.648-.336zm0-1.904h1.216c.768 0 1.3173-.096 1.648-.288.3307-.2027.496-.5227.496-.96 0-.448-.1707-.7627-.512-.944s-.8427-.272-1.504-.272c-.2133 0-.4427.0053-.688.016-.2453 0-.464.0107-.656.032zm8.418-4.352h2.496v11.088h-2.496zm7.2585 5.536c0 .544.064 1.0347.192 1.472.1387.4373.3307.816.576 1.136.256.3093.5653.5493.928.72s.7787.256 1.248.256c.4587 0 .8693-.0853 1.232-.256.3733-.1707.6827-.4107.928-.72.256-.32.448-.6987.576-1.136.1387-.4373.208-.928.208-1.472s-.0693-1.0347-.208-1.472c-.128-.448-.32-.8267-.576-1.136-.2453-.32-.5547-.5653-.928-.736-.3627-.1707-.7733-.256-1.232-.256-.4693 0-.8853.0907-1.248.272-.3627.1707-.672.416-.928.736-.2453.3093-.4373.688-.576 1.136-.128.4373-.192.9227-.192 1.456zm8.464 0c0 .9493-.144 1.7867-.432 2.512-.2773.7147-.6613 1.3173-1.152 1.808-.4907.48-1.0773.8427-1.76 1.088-.672.2453-1.3973.368-2.176.368-.7573 0-1.472-.1227-2.144-.368s-1.2587-.608-1.76-1.088c-.5013-.4907-.896-1.0933-1.184-1.808-.288-.7253-.432-1.5627-.432-2.512s.1493-1.7813.448-2.496c.2987-.7253.6987-1.3333 1.2-1.824.512-.4907 1.0987-.8587 1.76-1.104.672-.2453 1.376-.368 2.112-.368.7573 0 1.472.1227 2.144.368s1.2587.6133 1.76 1.104.896 1.0987 1.184 1.824c.288.7147.432 1.5467.432 2.496z"/><path d="m40.3606 38.2975 9.2947 2.9134-1.2141 3.8733-9.2947-2.9134z" fill-opacity=".8"/><path d="m54.5121 54.828c.7844-.8195 1.455-1.7471 1.984-2.7608.0369-.0712.0695-.1449.1047-.216h-18.1606v-2.7056h19.1191c.1892-.8463.2938-1.7261.2946-2.6361-.0008-2.5943-.8111-4.9692-2.1974-6.9339-1.1109-1.5721-2.5959-2.8605-4.3137-3.7495l-.8798 2.8061-9.2955-2.9141 5.2605-16.7835 2.0652.6471.8087-2.5817 5.1642 1.6182-.8095 2.5817 2.0669.6496-2.4202 7.7199c3.089 1.3654 5.7301 3.5352 7.6555 6.2575 2.133 3.0137 3.3904 6.7163 3.3887 10.6826.0009 2.981-.7141 5.8155-1.9748 8.3185h3.6332v2.1648c0 2.9768-2.4352 5.412-5.4121 5.412h-22.188c-2.9768 0-5.412-2.4352-5.412-5.412v-2.1648z" fill-opacity=".8"/></g></svg>