<svg fill="none" height="100" viewBox="0 0 100 100" width="100" xmlns="http://www.w3.org/2000/svg" xmlns:xlink="http://www.w3.org/1999/xlink"><linearGradient id="a" gradientUnits="userSpaceOnUse" x1="-44.7507" x2="50.513" y1="50.513" y2="145.777"><stop offset="0" stop-color="#e55a5a"/><stop offset="1" stop-color="#2f0000"/></linearGradient><path d="m0 0h100v100h-100z" fill="url(#a)"/><g fill="#fff"><path d="m39.976 89.144c-.608 0-1.216-.0213-1.824-.064-.5973-.032-1.2213-.1173-1.872-.256v-10.752c.512-.096 1.072-.1653 1.68-.208.608-.0533 1.1733-.08 1.696-.08.704 0 1.3493.0533 1.936.16.5973.096 1.1093.2667 1.536.512s.7573.5707.992.976c.2453.3947.368.8853.368 1.472 0 .8853-.4267 1.584-1.28 2.096.704.2667 1.184.6293 1.44 1.088s.384.976.384 1.552c0 1.1627-.4267 2.0373-1.28 2.624-.8427.5867-2.1013.88-3.776.88zm-1.264-4.976v2.864c.1813.0213.3787.0373.592.048s.448.016.704.016c.7467 0 1.3493-.1067 1.808-.32s.688-.608.688-1.184c0-.512-.192-.8747-.576-1.088-.384-.224-.9333-.336-1.648-.336zm0-1.904h1.216c.768 0 1.3173-.096 1.648-.288.3307-.2027.496-.5227.496-.96 0-.448-.1707-.7627-.512-.944s-.8427-.272-1.504-.272c-.2133 0-.4427.0053-.688.016-.2453 0-.464.0107-.656.032zm11.442 4.832c.352 0 .64-.0267.864-.08.2347-.064.4213-.144.56-.24.1387-.1067.2347-.2293.288-.368s.08-.2933.08-.464c0-.3627-.1707-.6613-.512-.896-.3413-.2453-.928-.5067-1.76-.784-.3627-.128-.7253-.272-1.088-.432-.3627-.1707-.688-.3787-.976-.624-.288-.256-.5227-.56-.704-.912-.1813-.3627-.272-.8-.272-1.312s.096-.9707.288-1.376c.192-.416.464-.768.816-1.056s.7787-.5067 1.28-.656c.5013-.16 1.0667-.24 1.696-.24.7467 0 1.392.08 1.936.24s.992.336 1.344.528l-.72 1.968c-.3093-.16-.656-.2987-1.04-.416-.3733-.128-.8267-.192-1.36-.192-.5973 0-1.0293.0853-1.296.256-.256.16-.384.4107-.384.752 0 .2027.048.3733.144.512s.2293.2667.4.384c.1813.1067.384.208.608.304.2347.0853.4907.176.768.272.576.2133 1.0773.4267 1.504.64.4267.2027.7787.4427 1.056.72.288.2773.5013.6027.64.976s.208.8267.208 1.36c0 1.0347-.3627 1.84-1.088 2.416-.7253.5653-1.8187.848-3.28.848-.4907 0-.9333-.032-1.328-.096-.3947-.0533-.7467-.1227-1.056-.208-.2987-.0853-.56-.176-.784-.272-.2133-.096-.3947-.1867-.544-.272l.704-1.984c.3307.1813.736.3467 1.216.496.4907.1387 1.088.208 1.792.208zm14.3-9.184v2.128h-3.344v8.96h-2.496v-8.96h-3.344v-2.128z"/><path d="m49.556 35.1648c5.331 0 9.6527-4.3217 9.6527-9.6527 0-5.3311-4.3217-9.6527-9.6527-9.6527s-9.6527 4.3216-9.6527 9.6527c0 5.331 4.3217 9.6527 9.6527 9.6527z" fill-opacity=".8"/><path d="m53.6498 35.8242h-8.19c-6.813 0-12.3573 5.5437-12.3573 12.3578v10.0183l.0253.1564.6907.2158c6.5024 2.0313 12.1526 2.7102 16.8032 2.7102 9.082 0 14.347-2.5907 14.6733-2.755l.6448-.3274h.0678v-10.0183c.0005-6.8141-5.5426-12.3578-12.3578-12.3578zm-2.1871 19.4416-1.7672 2.5863c-.0241.0353-.0622.0561-.1043.0561-.0011 0-.0022 0-.0033 0-.0415 0-.0813-.0219-.1043-.0583l-1.6416-2.588c-.014-.0218-.0207-.0482-.0196-.0762l.8213-12.5602c.0045-.0668.0589-.1172.1262-.1172h1.7038c.0667 0 .1216.0504.1273.1172l.8824 12.559c.0034.0298-.005.0572-.0207.0813zm-.7995-13.1376h-2.0256l-1.761-3.6398c0-.3493.2825-.6307.6318-.6307h4.229c.3482 0 .6307.2814.6307.6307z" fill-opacity=".8"/></g></svg>