<svg enable-background="new 0 0 100 100" viewBox="0 0 100 100" xmlns="http://www.w3.org/2000/svg" xmlns:xlink="http://www.w3.org/1999/xlink"><linearGradient id="a" gradientUnits="userSpaceOnUse" x1="2.8813" x2="98.145" y1="2.8811" y2="98.1451"><stop offset="0" stop-color="#15b1b1"/><stop offset="1" stop-color="#620c90"/></linearGradient><path d="m0 0h100v100h-100z" fill="url(#a)"/><path d="m30.1 86.1c-.6 0-1.1 0-1.7-.1-.6 0-1.1-.1-1.8-.2v-10c.5-.1 1-.2 1.6-.2s1.1-.1 1.6-.1c.7 0 1.3.1 1.8.2.6.1 1 .2 1.4.5.4.2.7.5.9.9s.3.8.3 1.4c0 .8-.4 1.5-1.2 2 .7.2 1.1.6 1.3 1s.4.9.4 1.5c0 1.1-.4 1.9-1.2 2.5-.7.4-1.9.6-3.4.6zm-1.2-4.6v2.7h.6s.4 0 .7 0c.7 0 1.3-.1 1.7-.3s.6-.6.6-1.1-.2-.8-.5-1c-.4-.2-.9-.3-1.5-.3zm0-1.8h1.1c.7 0 1.2-.1 1.5-.3s.5-.5.5-.9-.2-.7-.5-.9-.8-.3-1.4-.3c-.2 0-.4 0-.6 0s-.4 0-.6 0zm9.9 5.1c0 .4-.1.8-.4 1s-.6.3-1 .3-.7-.1-1-.3-.4-.6-.4-1c0-.5.1-.8.4-1s.6-.4 1-.4.7.1 1 .4c.3.2.4.6.4 1zm1.8 1.2v-10.4h7v2h-4.7v2h4.2v1.9h-4.2v2.5h5v2zm9-7.6c.4-.1.9-.2 1.5-.3s1.2-.2 1.9-.2 1.2.1 1.7.3.8.4 1.1.7.4.7.6 1.1c.1.4.2.9.2 1.5v4.5h-2.2v-4.2c0-.7-.1-1.2-.3-1.5s-.5-.5-1.1-.5c-.2 0-.3 0-.5 0s-.3 0-.5 0v6.2h-2.2v-7.6zm8.9-2.3 2.2-.4v2.3h2.7v2h-2.7v2.8c0 .5.1.8.2 1.1.2.3.5.4 1 .4.2 0 .5 0 .7-.1.3-.1.5-.1.7-.2l.3 1.7c-.3.1-.6.2-.9.3s-.7.1-1.2.1c-.6 0-1.1-.1-1.5-.2-.4-.2-.7-.4-1-.7-.2-.3-.4-.7-.5-1.1s-.1-.9-.1-1.4zm11.6 4c-.2 0-.4-.1-.7-.1-.3-.1-.6-.1-.9-.1-.1 0-.3 0-.5 0s-.3 0-.4.1v6h-2.2v-7.5c.4-.1.9-.3 1.4-.4s1.2-.2 1.8-.2h.4c.2 0 .3 0 .5.1.2 0 .3 0 .5.1.2 0 .3.1.4.1z" fill="#fff"/><path d="m27 19h46v45h-46z" fill="none"/><g fill="#fff"><path d="m31.6 41.2h-5.2c-1 0-1.9-.8-1.9-1.9 0-1 .8-1.9 1.9-1.9h5.2c1 0 1.9.8 1.9 1.9 0 1-.9 1.9-1.9 1.9z"/><path d="m38 53.5-3.7 3.7c-.7.7-1.9.7-2.7 0-.7-.7-.7-1.9 0-2.7l3.7-3.7c.7-.7 1.9-.7 2.7 0 .7.7.7 1.9 0 2.7z"/><path d="m35.5 27.7-3.7-3.7c-.7-.7-.7-1.9 0-2.7.7-.7 1.9-.7 2.7 0l3.7 3.7c.7.7.7 1.9 0 2.7-.8.7-2 .7-2.7 0z"/><path d="m47.8 21.2v-5.2c0-1 .8-1.9 1.9-1.9 1 0 1.9.8 1.9 1.9v5.2c0 1-.8 1.9-1.9 1.9-1.1 0-1.9-.9-1.9-1.9z"/><path d="m61.1 24.9 3.9-3.4c.8-.7 2-.6 2.7.2.7.8.6 2-.2 2.7l-3.9 3.4c-.8.7-2 .6-2.7-.2-.7-.8-.6-2 .2-2.7z"/><path d="m67.8 37.5 5.2-.1c1 0 1.9.8 1.9 1.8 0 1-.8 1.9-1.8 1.9l-5.2.1c-1 0-1.9-.8-1.9-1.8-.1-1 .8-1.9 1.8-1.9z"/><path d="m63.7 50.9 3.7 3.7c.7.7.7 1.9 0 2.7-.7.7-1.9.7-2.7 0l-3.7-3.7c-.7-.7-.7-1.9 0-2.7.8-.8 2-.8 2.7 0z"/><path d="m49.6 26.4c-10.5.4-16.5 11.2-11 20.2 1.6 2 3.3 3.8 3.5 5.1.2 3.2 1.5 5.2 5.2 4.9h.6c-.1-.1-.2-.1-.4-.2 0-3.9-.5-7-2-7.8l-.8-6.5s1.7-3.9 4.5 0l.3.3s3-4.6 4.8.2c0 0 .3 5.3-2 7.4l-.6 6.4c-.1 0-.2.1-.2.1h.4c2.7.5 4.4-.3 4.7-3.4.5-2.9 2-5.3 4.6-7.2 5-9.5-2.2-19.3-11.6-19.5zm0 13.3c-1.5 0-2.8-1.2-2.8-2.8 0-1.5 1.2-2.8 2.8-2.8 1.5 0 2.8 1.2 2.8 2.8-.1 1.5-1.3 2.8-2.8 2.8z"/><path d="m45.4 58.9h8.8s1.1 0 1.2 1.5v2.2s-.8 1.1-2.1 2c0 0 .2 1.9-1.7 2.3h-4.1s-1.3-.6-1.3-2.2c0 0-1.8-1-2.2-2.5v-2c-.2 0-.3-1.2 1.4-1.3z"/></g></svg>