<svg enable-background="new 0 0 100 100" viewBox="0 0 100 100" xmlns="http://www.w3.org/2000/svg" xmlns:xlink="http://www.w3.org/1999/xlink"><linearGradient id="a" gradientUnits="userSpaceOnUse" x1="2.8813" x2="98.145" y1="2.8811" y2="98.1451"><stop offset="0" stop-color="#e25544"/><stop offset="1" stop-color="#620c90"/></linearGradient><path d="m0 0h100v100h-100z" fill="url(#a)"/><path d="m25 20h50v46h-50z" fill="none"/><path d="m36 88.2c-1.7 0-3-.5-3.9-1.4s-1.3-2.3-1.3-4c0-.9.1-1.6.4-2.3s.6-1.2 1.1-1.7 1-.8 1.7-1.1c.6-.2 1.4-.4 2.1-.4.4 0 .8 0 1.2.1s.7.1.9.2c.3.1.5.2.7.3s.3.2.4.2l-.7 1.9c-.3-.2-.7-.3-1.1-.4s-.9-.2-1.4-.2c-.4 0-.7.1-1.1.2-.3.1-.6.3-.9.6s-.5.6-.6 1-.2.9-.2 1.5c0 .5.1.9.2 1.3s.3.8.5 1.1.6.5.9.7c.4.2.8.3 1.4.3.3 0 .6 0 .9-.1s.5-.1.7-.1c.2-.1.4-.1.6-.2s.3-.1.4-.2l.6 1.9c-.3.2-.8.4-1.4.5-.7.2-1.4.3-2.1.3zm7.4-1.4c0 .4-.1.8-.4 1s-.6.3-1 .3-.7-.1-1-.3-.4-.6-.4-1c0-.5.1-.8.4-1s.6-.4 1-.4.7.1 1 .4c.3.2.4.6.4 1zm1.8 1.2v-10.4h7v2h-4.7v2h4.2v1.9h-4.2v2.5h5v2zm10.8-4c0 .7.2 1.2.5 1.7.3.4.8.6 1.4.6h.6c.2 0 .3 0 .4-.1v-4.1c-.1-.1-.3-.2-.6-.2-.2-.1-.4-.1-.7-.1-1.1 0-1.6.8-1.6 2.2zm5 3.7c-.2.1-.4.1-.7.2-.3 0-.5.1-.8.1s-.6.1-.9.1-.6 0-.8 0c-.7 0-1.2-.1-1.7-.3s-.9-.5-1.3-.8c-.4-.4-.6-.8-.8-1.3s-.3-1.1-.3-1.7.1-1.2.2-1.7c.2-.5.4-1 .7-1.3s.7-.6 1.1-.8.9-.3 1.5-.3c.3 0 .6 0 .8.1s.5.1.8.3v-3.6l2.2-.4zm8.9 0c-.4.1-.9.2-1.5.3s-1.2.2-1.9.2-1.2-.1-1.7-.3c-.4-.2-.8-.4-1-.8-.3-.3-.4-.7-.6-1.2-.1-.4-.2-.9-.2-1.5v-4.4h2.2v4.1c0 .7.1 1.2.3 1.6s.5.5 1.1.5h.5s.3 0 .5-.1v-6.1h2.2z" fill="#fff"/><path d="m79.5 46.5v20.7h-59v-3.9l14.7.1v-5.7h14.8v-5.5h14.6v-5.7z" fill="none"/><circle cx="51.4" cy="17.4" fill="none" r="4.5"/><g fill="#fff"><path d="m38.7 35c-.7 0-1.4-.3-1.9-.9-.9-1-.7-2.6.3-3.5l6-5.8 7.9-2.4c.7-.2 1.4 0 1.9.5l5 5.3h5.7c1.3 0 2.5.9 2.6 2.2.1 1.5-1 2.8-2.5 2.8l-8.6.3-4.8-5.1-4.2 1-5.7 5c-.5.4-1.1.6-1.7.6z"/><path d="m46.2 28.1s-2.5 10.4-1.7 14.9l-4.2 7.9s-.2 5.9 4.9 2.7l4.8-8.8.8-4.1 3.2 2.6 1 6.7c1.2 2.2 4.6 2.3 5.2-1l-.9-8.4s-2-2.4-7.1-5.4l1.6-6.3-4.8-3.1z"/><path d="m40.7 42.1-5.8 5.6c-.6.5-1.5.5-2 0l-10-10.2c-.5-.5-.5-1.4 0-1.9l4.9-5c.7 2.5 2 4.7 3.6 6.6l-.4.5c-.4.4-.3 1.1.2 1.6l.4.4c.5.5 1.2.5 1.6 0l.3-.4c2.2 1.7 4.7 2.7 7.2 2.8z"/><path d="m32.3 34.8c0 .5.1 1 .3 1.4-.3 0-.5.1-.7.3l-.3.3c-1.5-1.8-2.6-4-3.2-6.5l.9-.9c.4-.4 1-.4 1.4 0l2.9 2.8c-.8.6-1.3 1.5-1.3 2.6z"/><path d="m35.6 31.5c-.8 0-1.4.2-2 .7l.7.7c.4-.2.8-.4 1.3-.4 1.3 0 2.3 1 2.3 2.3 0 .5-.1.9-.3 1.2l.7.7c.4-.5.6-1.2.6-1.9 0-1.8-1.5-3.3-3.3-3.3z"/><path d="m41.4 41.1-.6.6c-2.5-.2-5-1.1-7.1-2.7l.4-.4c.2-.2.2-.4.2-.6 0-.3-.2-.7-.5-1l-.4-.4c-.3-.2-.6-.3-.9-.3-.2-.4-.3-.9-.3-1.4 0-1.1.5-2.1 1.3-2.7l.7.7 3.2 3.2.7.7 3.1 3c.6.3.6.9.2 1.3z"/><path d="m34 37.8c0 .2 0 .5-.2.7l-.3.4-.2.3-.2.3c-.3.4-.9.3-1.4 0l-.3-.5c-.4-.4-.5-1-.2-1.4l.3-.3.3-.3.2-.2c.2-.2.5-.3.8-.2.2 0 .4.1.6.3l.4.3c.1.1.2.3.2.6z"/><path d="m79.5 46.5v20.7h-59v-3.9l14.7.1v-5.7h14.8v-5.5h14.6v-5.7z"/><circle cx="50.7" cy="17" r="4.8"/></g></svg>