<svg enable-background="new 0 0 100 100" viewBox="0 0 100 100" xmlns="http://www.w3.org/2000/svg" xmlns:xlink="http://www.w3.org/1999/xlink"><linearGradient id="a" gradientUnits="userSpaceOnUse" x1="2.8813" x2="98.145" y1="2.8811" y2="98.1451"><stop offset="0" stop-color="#e1b23a"/><stop offset="1" stop-color="#620c90"/></linearGradient><path d="m0 0h100v100h-100z" fill="url(#a)"/><g fill="#fff"><path d="m35.1 86.2c-1.7 0-3-.5-3.9-1.4s-1.3-2.3-1.3-4c0-.9.1-1.6.4-2.3s.6-1.2 1.1-1.7 1-.8 1.7-1.1c.6-.2 1.4-.4 2.1-.4.4 0 .8 0 1.2.1s.7.1.9.2c.3.1.5.2.7.3s.3.2.4.2l-.7 1.9c-.3-.2-.7-.3-1.1-.4s-.9-.2-1.4-.2c-.4 0-.7.1-1.1.2-.3.1-.6.3-.9.6s-.5.6-.6 1-.2.9-.2 1.5c0 .5 0 .9.1 1.3s.3.8.5 1.1.5.5.9.7.8.3 1.4.3c.3 0 .6 0 .9-.1s.5-.1.7-.1c.2-.1.4-.1.6-.2s.3-.1.4-.2l.6 1.9c-.3.2-.8.4-1.4.5-.5.2-1.2.3-2 .3zm7.2-.2h-2.3v-7.9h2.2zm.2-10.2c0 .4-.1.7-.4 1-.3.2-.6.3-.9.3s-.7-.1-.9-.3c-.3-.2-.4-.6-.4-1s.1-.7.4-1c.3-.2.6-.4.9-.4s.7.1.9.4.4.6.4 1zm3.9 10.2c-.5-1-1-2.2-1.6-3.5-.5-1.3-1-2.8-1.5-4.4h2.4c.1.4.2.8.3 1.3.1.4.3.9.4 1.4.2.5.3.9.4 1.3s.3.8.4 1.2c.1-.4.3-.8.4-1.2s.3-.9.4-1.3c.1-.5.3-.9.4-1.4s.3-.9.4-1.3h2.3c-.5 1.6-1 3-1.5 4.4-.5 1.3-1 2.5-1.5 3.5zm8.4 0h-2.2v-7.9h2.2zm.2-10.2c0 .4-.1.7-.4 1-.3.2-.6.3-.9.3s-.7-.1-1-.3-.4-.6-.4-1 .1-.7.4-1c.3-.2.6-.4.9-.4s.7.1.9.4c.4.3.5.6.5 1zm1.6 6.3c0-.6.1-1.1.3-1.6s.5-.9.8-1.3.8-.7 1.3-.9 1.1-.3 1.7-.3c.4 0 .8 0 1.2.1.3.1.7.2 1 .3l-.5 1.8c-.2-.2-.4-.2-.7-.3-.2-.1-.5-.1-.8-.1-.7 0-1.2.2-1.5.6s-.5 1-.5 1.6c0 .7.2 1.3.5 1.7s.8.6 1.6.6c.3 0 .6 0 .9-.1.3 0 .6-.1.9-.2l.3 1.8c-.3.1-.6.2-1 .3s-.8.1-1.3.1c-.7 0-1.3-.1-1.9-.3-.5-.2-1-.5-1.3-.9s-.6-.8-.7-1.3c-.2-.5-.3-1.1-.3-1.6zm10.3 2.3c.4 0 .7 0 .9-.1s.3-.2.3-.5c0-.2-.1-.3-.3-.5-.2-.1-.6-.3-1-.5-.4-.1-.7-.3-1-.4s-.5-.3-.7-.5-.4-.4-.5-.7-.2-.6-.2-1c0-.7.3-1.3.8-1.8.5-.4 1.3-.6 2.3-.6.5 0 .9 0 1.4.1.4.1.8.2 1.1.3l-.5 1.8c-.3-.1-.5-.2-.9-.2-.3-.1-.6-.1-1-.1-.7 0-1.1.2-1.1.6v.2c0 .1.1.1.2.2s.2.1.4.2.4.2.6.2c.5.2.9.4 1.2.5.3.2.6.4.8.6s.3.4.4.7c.1.2.1.5.1.9 0 .8-.3 1.4-.9 1.8s-1.4.6-2.5.6c-.7 0-1.3-.1-1.8-.2s-.8-.2-1-.3l.4-1.8c.4.2.8.3 1.2.4.5.1.9.1 1.3.1z"/><path d="m74.3 63.4h-49.1v-26.8h49.1zm-47.1-2h45.1v-22.8h-45.1z"/><path d="m59.9 63.3h-20.4v-39l10.3-10.7 10.2 10.5v39.2zm-18.4-2h16.5v-36.4l-8.2-8.4-8.3 8.6z"/><path d="m49.7 36.3c-3.4 0-6.1-2.7-6.1-6.1s2.7-6.1 6.1-6.1 6.1 2.7 6.1 6.1-2.7 6.1-6.1 6.1zm0-10.2c-2.3 0-4.1 1.8-4.1 4.1s1.8 4.1 4.1 4.1 4.1-1.8 4.1-4.1-1.8-4.1-4.1-4.1z"/><path d="m44.9 39.8h10.1v2h-10.1z"/><path d="m44.9 44.9h10.1v2h-10.1z"/><path d="m29.7 53.7h5v2h-5z"/><path d="m63.9 53.7h5v2h-5z"/><path d="m45.7 63.3v-11.9h8.1v11.6zm2-9.9v7.8l4.1-.1v-7.7z"/></g></svg>