<svg enable-background="new 0 0 100 100" viewBox="0 0 100 100" xmlns="http://www.w3.org/2000/svg" xmlns:xlink="http://www.w3.org/1999/xlink"><linearGradient id="a" gradientUnits="userSpaceOnUse" x1="2.8813" x2="98.145" y1="2.8811" y2="98.1451"><stop offset="0" stop-color="#e13ada"/><stop offset="1" stop-color="#620c90"/></linearGradient><path d="m0 0h100v100h-100z" fill="url(#a)"/><path d="m16.6 86v-10.4h7v2h-4.6v2.2h4.1v2h-4.1v4.2zm9.9-1.2c0 .4-.1.8-.4 1s-.6.3-1 .3-.7-.1-1-.3-.4-.6-.4-1c0-.5.1-.8.4-1s.6-.4 1-.4.7.1 1 .4c.2.2.4.6.4 1zm5.2 1.3c-.6 0-1.1 0-1.7-.1-.6 0-1.1-.1-1.8-.2v-10c.5-.1 1-.2 1.6-.2s1.1-.1 1.6-.1c.7 0 1.3.1 1.8.2.6.1 1 .2 1.4.5.4.2.7.5.9.9s.3.8.3 1.4c0 .8-.4 1.5-1.2 2 .7.2 1.1.6 1.4 1 .2.4.4.9.4 1.5 0 1.1-.4 1.9-1.2 2.5-.8.4-2 .6-3.5.6zm-1.2-4.6v2.7h.6s.4 0 .7 0c.7 0 1.3-.1 1.7-.3s.6-.6.6-1.1-.2-.8-.5-1c-.4-.2-.9-.3-1.5-.3zm0-1.8h1.1c.7 0 1.2-.1 1.5-.3s.5-.5.5-.9-.2-.7-.5-.9-.8-.3-1.4-.3c-.2 0-.4 0-.6 0s-.4 0-.6 0zm10.8 4.7h.6.5v-1.7c-.1 0-.2 0-.4-.1s-.3 0-.5 0-.4 0-.6 0-.3.1-.5.1-.2.2-.3.3-.1.3-.1.5c0 .3.1.6.3.7.2.2.5.2 1 .2zm-.2-6.5c.7 0 1.2.1 1.6.2.4.2.8.4 1 .6.3.3.5.6.6 1s.2.8.2 1.3v4.7c-.3.1-.8.2-1.3.2-.6.1-1.3.2-2.1.2-.5 0-1 0-1.4-.1s-.8-.2-1.1-.4-.5-.5-.7-.8-.2-.7-.2-1.2.1-.8.3-1.2c.2-.3.4-.6.8-.8.3-.2.7-.3 1.1-.4s.8-.1 1.2-.1h.8c.2 0 .4.1.6.1v-.2c0-.4-.1-.7-.3-.9s-.6-.3-1.2-.3c-.4 0-.8 0-1.1.1-.4.1-.7.1-1 .2l-.3-1.8c.1 0 .3-.1.5-.1s.4-.1.6-.1.5-.1.7-.1c.2-.1.4-.1.7-.1zm5.5.5c.4-.1.9-.2 1.5-.3s1.2-.2 1.9-.2 1.2.1 1.7.3.8.4 1.1.7.4.7.6 1.1c.1.4.2.9.2 1.5v4.5h-2.2v-4.2c0-.7-.1-1.2-.3-1.5s-.5-.5-1.1-.5c-.2 0-.3 0-.5 0s-.3 0-.5 0v6.2h-2.2v-7.6zm11.2 2.6c.2-.2.4-.5.7-.8.2-.3.5-.5.7-.8s.4-.5.6-.7.4-.4.5-.6h2.7c-.5.6-1 1.2-1.6 1.8-.5.6-1 1.1-1.7 1.7.3.3.6.6.9 1s.6.8.9 1.2.6.8.8 1.2.5.8.6 1.1h-2.6c-.2-.3-.3-.5-.6-.9-.2-.3-.4-.6-.6-.9s-.5-.6-.7-.9-.5-.5-.8-.7v3.3h-2.2v-11.3l2.2-.4v6.7zm8.8 5h-2.2v-7.9h2.2zm.2-10.2c0 .4-.1.7-.4 1-.3.2-.6.3-.9.3s-.7-.1-.9-.3c-.3-.2-.4-.6-.4-1s.1-.7.4-1c.3-.2.6-.4.9-.4s.7.1.9.4c.3.3.4.6.4 1zm2 2.6c.4-.1.9-.2 1.5-.3s1.2-.2 1.9-.2 1.2.1 1.7.3c.4.2.8.4 1.1.7s.4.7.6 1.1c.1.4.2.9.2 1.5v4.5h-2.2v-4.2c0-.7-.1-1.2-.3-1.5s-.5-.5-1.1-.5c-.2 0-.3 0-.5 0s-.3 0-.5 0v6.2h-2.2v-7.6zm10.8 3.4c0 1.2.5 1.9 1.5 1.9.2 0 .4 0 .6-.1s.4-.1.5-.2v-3.6c-.1 0-.2 0-.4 0s-.3 0-.5 0c-.6 0-1 .2-1.3.6s-.4.8-.4 1.4zm4.9 3.2c0 1.3-.3 2.2-1 2.9-.7.6-1.7.9-3 .9-.5 0-1 0-1.4-.1-.5-.1-.9-.2-1.3-.3l.4-1.9c.4.1.7.2 1.1.3s.8.1 1.3.1c.6 0 1.1-.1 1.3-.4.3-.3.4-.6.4-1.1v-.3c-.2.1-.5.2-.8.3-.2 0-.5.1-.8.1-1.1 0-1.9-.3-2.5-1s-.9-1.6-.9-2.7c0-.6.1-1.1.3-1.6s.4-.9.8-1.2c.3-.3.8-.6 1.3-.8s1.1-.3 1.7-.3h.8s.6.1.9.1.5.1.8.1c.3.1.5.1.7.2v6.7z" fill="#fff"/><path d="m28 16h44v48h-44z" fill="none"/><g fill="#fff"><path d="m58.2 25.8c-.8-.9-1.5-1.8-1.5-2.5.2-.4.3-.9.3-1.3 0-.7-.2-1.3-.6-1.8l3.1-6c-1.2-1.5-3.1-1.5-3.1-1.5-2 0-3.2 1.2-3.2 1.2-2.2-1.6-3.4-1.3-3.4-1.3-1.6 0-3.2 1.2-3.2 1.2-4.3-2.7-6 .3-6 .3l3.1 5.8c-.5.5-.8 1.2-.8 1.9 0 .5.1 1 .3 1.4.1.7-.8 1.7-1.6 2.7-4.4 2.9-7.3 7.8-7.3 13.5 0 3 .8 5.8 2.2 8.2.4.7.9 1.3 1.3 2h2.7c-.6-.6-1.2-1.3-1.7-2-1.6-2.3-2.6-5.2-2.6-8.2 0-7.8 6.2-14.1 13.8-14.1s13.8 6.3 13.8 14.1c0 3.5-1.2 6.7-3.3 9.1-.4.5-.9 1-1.4 1.4.4.4.8 1 .8 1.7v.2c1.7-1.4 3.1-3.1 4.1-5.1 1.1-2.2 1.8-4.7 1.8-7.3.1-5.7-3-10.8-7.6-13.6zm-15.4-11.2c1.6-.6 3.8 2 3.8 2h.4c.7-1.1 1.5-1.6 1.9-1.8.2-.1.3-.1.5-.1h.8c1.4.1 2.5 1.9 2.5 1.9.2.2.4.3.7 0 1.2-1.3 2.5-2.3 3.8-1.7l-2.8 4.4c-.1 0-.3 0-.4 0h-8.3c-.2 0-.4 0-.6.1zm11.3 8.3h-8.3c-.5 0-.9-.4-.9-.9s.4-.9.9-.9h8.3c.5 0 .9.4.9.9s-.4.9-.9.9zm-3.5 32.8c2.3-.1 4.5-.7 6.5-1.7h-6.5z"/><path d="m71.2 47.5c-1.3-2.1-4.1-2.5-4.2-2.5h-.4l-2.5 1.9-3 2.4c-.2-.2-.3-.4-.5-.6-.5-.5-1.1-.8-1.8-.9h-19.9-2.3-.1l-8.2 5.1v11.1 1.8l1.5-1 8-4.4 11.5 4.9h2.1l19.7-13 .1-.3c.8-1.7.8-3.3 0-4.5zm-1.7 3.6-18.7 12.4h-1.1l-12-5.1-7.4 4v-8.4l6.8-4.3h21.4c.2 0 .5.2.7.3.4.4.8 1 .8 1.7v.2c0 .7-.3 1.5-1.6 1.9h-7.8v2h8.2.1c2.1-.7 3.3-2.3 3.1-4.3 0-.2 0-.3-.1-.5l5.2-4c.6.1 1.8.5 2.4 1.4.4.7.4 1.6 0 2.7z"/><path d="m47.4 37.5c-.5 0-.8 0-1.2 0h-.1c-.4-.4-.8-.8-1.2-1.2h2.5c0-.8 0-1.7 0-2.5 0-.2-.1-.4-.2-.6-.1-.1-.3-.2-.4-.2-.2-.1-.4-.1-.6 0-.1 0-.1.1-.2.1 0-.1-.1-.1-.1-.2-.1-.2-.2-.5-.3-.7 0-.1 0-.3.1-.4s.2-.2.4-.3c.3-.1.6-.2.9-.3.6-.1 1 .1 1.4.6.3.4.5.8.5 1.3v.7 2.5.1h.1.7.1l1.2 1.2c-.7 0-1.3 0-2 0v.1 3.6c0 .4.2.7.5.9.2.1.3.2.5.2.6.1 1.1-.1 1.5-.4.6-.4 1.1-.9 1.5-1.6.2-.3.3-.7.4-1 0-.1 0-.1 0-.2-.1 0-.1 0-.2 0-.3 0-.6 0-1-.1-.3-.1-.6-.4-.7-.7-.2-.4-.2-.9-.1-1.4.1-.3.3-.6.5-.9l.6-.3c.3-.1.6-.1 1 0 .3.1.6.3.9.5.5.5.8 1.1.9 1.8.1.8 0 1.7-.4 2.4-.3.6-.6 1.1-1.1 1.6-.3.3-.6.6-1 .9-.5.4-1.1.6-1.7.8-.3.1-.7.1-1 .1s-.6-.1-.9-.2c-.6-.3-1.1-.7-1.4-1.2-.1-.2-.2-.3-.3-.5v-.1c-.1-1.6-.1-3-.1-4.4z"/></g></svg>