<svg enable-background="new 0 0 100 100" viewBox="0 0 100 100" xmlns="http://www.w3.org/2000/svg" xmlns:xlink="http://www.w3.org/1999/xlink"><linearGradient id="a" gradientUnits="userSpaceOnUse" x1="3.1813" x2="98.445" y1="3.2523" y2="98.5164"><stop offset="0" stop-color="#46e643"/><stop offset="1" stop-color="#620c90"/></linearGradient><path d="m.3.4h100v100h-100z" fill="url(#a)"/><path d="m26.2 17h47.4v50.3h-47.4z" fill="none" transform="matrix(.00554622 -1 1 .00554622 7.477 91.9125)"/><g fill="#fff"><path d="m17.3 79.5c.4-.6.8-1.1 1.5-1.5.6-.4 1.3-.5 2.1-.5 1 0 1.8.2 2.5.7s1.1 1.1 1.3 2h-2.2c-.1-.3-.4-.5-.6-.6-.3-.1-.6-.2-1-.2-.6 0-1.2.2-1.5.6-.4.4-.6 1-.6 1.7s.2 1.3.6 1.8c.4.4 1 .6 1.7.6.5 0 .9-.1 1.2-.4s.6-.6.7-1.1h-2.5v-1.4h4.3v1.8c-.1.5-.4 1-.7 1.4-.4.4-.8.8-1.3 1-.5.3-1.1.4-1.8.4-.8 0-1.5-.2-2.1-.5s-1.1-.8-1.5-1.5c-.4-.6-.5-1.3-.5-2.1s0-1.5.4-2.2z"/><path d="m31.9 83h-4.5c0 .4.2.7.4.9s.5.3.8.3c.5 0 .8-.2 1-.6h2.1c-.1.4-.3.8-.6 1.1s-.6.6-1.1.8c-.4.2-.9.3-1.4.3-.6 0-1.2-.1-1.7-.4s-.9-.7-1.2-1.2-.4-1.1-.4-1.8.1-1.3.4-1.8.7-.9 1.1-1.2c.5-.3 1.1-.4 1.7-.4s1.2.1 1.7.4.9.6 1.1 1.1c.3.5.4 1 .4 1.7.3.4.3.6.2.8zm-1.9-1c0-.4-.1-.7-.3-.9s-.5-.3-.9-.3c-.3 0-.6.1-.8.3s-.4.5-.4.9z"/><path d="m34.2 85.4c-.5-.3-.9-.7-1.2-1.2s-.4-1.1-.4-1.8.1-1.2.4-1.8c.3-.5.7-.9 1.2-1.2s1.1-.4 1.7-.4 1.2.1 1.7.4.9.7 1.2 1.2.4 1.1.4 1.8-.1 1.2-.4 1.8c-.3.5-.7.9-1.2 1.2s-1.1.4-1.7.4-1.1-.1-1.7-.4zm2.7-1.7c.3-.3.4-.7.4-1.2s-.1-.9-.4-1.2-.6-.4-1-.4-.7.1-1 .4-.4.7-.4 1.2.1.9.4 1.2.6.4.9.4.9-.1 1.1-.4z"/><path d="m44 79.5c.3.2.6.4.8.7v-.9h2v6.4c0 .6-.1 1.1-.4 1.6s-.6.9-1.1 1.2-1.1.4-1.8.4c-1 0-1.7-.2-2.3-.7s-.9-1.1-1-1.8h2c.1.2.2.4.4.6.2.1.5.2.9.2s.7-.1 1-.4c.2-.2.4-.6.4-1.1v-.9c-.2.3-.5.5-.8.7s-.7.3-1.2.3-1-.1-1.4-.4-.8-.7-1-1.2c-.3-.5-.4-1.1-.4-1.8s.1-1.2.4-1.7.6-.9 1-1.2.9-.4 1.4-.4c.4.1.8.2 1.1.4zm.4 1.9c-.3-.3-.6-.4-1-.4s-.7.1-1 .4c-.3.2-.4.6-.4 1.1s.1.9.4 1.2.6.4 1 .4.7-.1 1-.4.4-.7.4-1.2-.1-.9-.4-1.1z"/><path d="m51.1 79.6c.4-.2.7-.3 1.2-.3v2.1h-.5c-.5 0-.9.1-1.1.3s-.4.6-.4 1.1v3h-2v-6.4h2v1.2c.1-.5.4-.8.8-1z"/><path d="m53.2 80.8c.3-.5.6-.9 1-1.2s.9-.4 1.4-.4.9.1 1.2.3.6.4.8.7v-.9h2v6.4h-2v-.9c-.2.3-.5.5-.8.7s-.7.3-1.2.3-1-.1-1.4-.4-.8-.7-1-1.2c-.3-.5-.4-1.1-.4-1.8 0-.6.1-1.1.4-1.6zm4 .6c-.3-.3-.6-.4-1-.4s-.7.1-1 .4-.4.7-.4 1.2.1.9.4 1.2.6.4 1 .4.7-.1 1-.4.4-.7.4-1.2c0-.6-.1-1-.4-1.2z"/><path d="m63.8 79.5c.3-.2.7-.3 1.2-.3s1 .1 1.4.4.8.7 1 1.2c.3.5.4 1.1.4 1.7 0 .7-.1 1.2-.4 1.8-.3.5-.6.9-1 1.2s-.9.4-1.4.4c-.4 0-.8-.1-1.2-.3-.3-.2-.6-.4-.8-.7v4h-2v-9.5h2v.9c.2-.4.5-.6.8-.8zm1.6 1.8c-.3-.3-.6-.4-1-.4s-.7.1-1 .4-.4.7-.4 1.2.1.9.4 1.2.6.4 1 .4.7-.1 1-.4.4-.7.4-1.2-.1-.9-.4-1.2z"/><path d="m74.6 80c.4.5.7 1.2.7 2v3.8h-2v-3.5c0-.4-.1-.8-.3-1s-.5-.4-.9-.4-.7.1-.9.4c-.2.2-.3.6-.3 1v3.5h-2v-8.6h2v3c.2-.3.5-.5.8-.7s.7-.3 1.2-.3c.7 0 1.3.3 1.7.8z"/><path d="m78.1 79.3 1.5 4 1.5-4h2.1l-4 9.5h-2.1l1.5-3.3-2.6-6.2z"/><path d="m50.8 64.7c.9 1.1 1.5 1.8 1.5 1.8-25.8 10.5-33.5-29.9-33.5-29.9 2.6.1 5 .3 7.3.5 1 .1 2 .3 3 .4 28.6 4.5 23.2 21.6 22.2 24.2-.1.2-.1.3-.1.3-.1-.1-.2-.2-.2-.4-8.3-12.4-14.8-15.9-20.8-16.8h-.1.1c4.6 1.5 12.8 10.5 17.9 16.4 1 1.4 2 2.6 2.7 3.5z"/><path d="m50.8 64.7-.1-.1c.1 0 .1.1.1.1z"/><path d="m70.9 41s-4.8 12.2-10.4 19.5c-1.3 1.7-2.6 3.1-3.9 4s-2.6 1.4-3.9 1.3l-.7-1-.2-.3s.4-1.1.8-2.7.7-3.7.6-5.9c0 0 5.6-6.1 8.4-7.4 0 0-1.4-1-8.1 4.9h-.4s-.1-3.8-1.9-5.8c0 0 10.4-6.9 19.7-6.6z"/><path d="m50.9 61.7c.1.1.2.2.2.4 0 0 .1-.1.1-.3 0-.1-.2-.1-.3-.1zm1.9-50.4c-14.5 0-26.2 11.5-26.7 25.8v.9c0 14.1 10.9 25.6 24.7 26.6s-.1-.1-.1-.1c-.7-.9-1.7-2-2.8-3.3-8.5-1.8-15.4-8.1-17.9-16.4-.7-2.2-1-4.5-1-6.8 0-.2 0-.3 0-.5.3-12.8 10.8-23.2 23.7-23.2 13.1 0 23.7 10.6 23.7 23.7 0 9.7-5.9 18.1-14.3 21.8-.3.5-.6.9-.9 1.3-.9 1.2-1.8 2.2-2.7 3 12-2.6 21-13.3 21-26.1 0-14.7-11.9-26.7-26.7-26.7zm-1.6 50.8s.1-.1.1-.3c-.1 0-.2 0-.4 0 .1 0 .2.1.3.3zm-.3-.4c.1.1.2.2.2.4 0 0 .1-.1.1-.3 0-.1-.2-.1-.3-.1z"/><path d="m48.3 13.4s-9.6 6.3-9.8 23.2l-4.7.5s7.4 2.1 8.6 3.2h8.4l.5.6v4.6l3.2-1.6v-3.4h8.5s4.2-1.7 8.8-1.1l-.4 1.1 6.3-.1v-3.3l-10.4.1-1.4-10.6 6.5-2.7-2.2-2.6-5.2 2-4.6-8.5-6.4-.8s6.1 3.7 7.7 9.9l1.3 3.4 1.1 9.9h-9.6l.1-9.2s7.5-.5 9.3-.7l-1.4-3.2-7.9.8.1-11.3-3.3.4v10.7 12.3h-9.5s.4-9.9 2.3-10.1l8.3 1.3-.4-3.8-7.7-.6s3.3-8.2 7.9-9.3z"/><path d="m33.8 23.3 7.1 3.2 1.8-3.2-6.6-2.1z"/><path d="m65.6 54.3 5.3 2.7 2.3-3.3-6.1-1.9z"/></g></svg>