<svg enable-background="new 0 0 100 100" viewBox="0 0 100 100" xmlns="http://www.w3.org/2000/svg" xmlns:xlink="http://www.w3.org/1999/xlink"><linearGradient id="a" gradientUnits="userSpaceOnUse" x1="2.8813" x2="98.145" y1="2.8811" y2="98.1451"><stop offset="0" stop-color="#53e3b0" stop-opacity=".9"/><stop offset=".0001" stop-color="#61b2df" stop-opacity=".9"/><stop offset="1" stop-color="#900c7b"/></linearGradient><path d="m0 0h100v100h-100z" fill="url(#a)"/><path d="m30.6 75.6h2.4v10.4h-2.3v-4.4h-3.9v4.4h-2.3v-10.4h2.3v4h3.9v-4zm6.9 10.4h-2.2v-7.9h2.2zm.3-10.2c0 .4-.1.7-.4 1-.3.2-.6.3-.9.3s-.7-.1-.9-.3c-.3-.2-.4-.6-.4-1s.1-.7.4-1c.3-.2.6-.4.9-.4s.7.1.9.4.4.6.4 1zm4.2 8.6c.4 0 .7 0 .9-.1s.3-.2.3-.5c0-.2-.1-.3-.3-.5-.2-.1-.6-.3-1-.5-.4-.1-.7-.3-1-.4s-.5-.3-.7-.5-.4-.4-.5-.7-.2-.6-.2-1c0-.7.3-1.3.8-1.8s1.3-.6 2.3-.6c.5 0 .9 0 1.4.1.4.1.8.2 1 .3l-.4 1.8c-.3-.1-.5-.2-.9-.2-.3-.1-.6-.1-1-.1-.7 0-1 .2-1 .6v.2c0 .1.1.1.2.2s.2.1.4.2.4.2.6.2c.5.2.9.4 1.2.5.3.2.6.4.8.6s.3.4.4.7c.1.2.1.5.1.9 0 .8-.3 1.4-.9 1.8s-1.4.6-2.5.6c-.7 0-1.3-.1-1.8-.2s-.8-.2-1-.3l.4-1.8c.4.2.8.3 1.2.4s.8.1 1.2.1zm5-8.3 2.2-.4v2.3h2.8v2h-2.7v2.8c0 .5.1.8.2 1.1.2.3.5.4 1 .4.2 0 .5 0 .7-.1.3-.1.5-.1.7-.2l.3 1.7c-.3.1-.6.2-.9.3s-.7.1-1.2.1c-.6 0-1.1-.1-1.5-.2-.4-.2-.7-.4-1-.7-.2-.3-.4-.7-.5-1.1s-.1-.9-.1-1.4zm14 5.9c0 .6-.1 1.2-.3 1.7s-.4.9-.8 1.3c-.3.4-.8.6-1.2.8-.5.2-1 .3-1.6.3s-1.1-.1-1.6-.3-.9-.5-1.2-.8c-.3-.4-.6-.8-.8-1.3s-.3-1.1-.3-1.7.1-1.2.3-1.7.5-.9.8-1.3c.4-.4.8-.6 1.2-.8.5-.2 1-.3 1.6-.3s1.1.1 1.6.3.9.5 1.2.8.6.8.8 1.3c.2.6.3 1.1.3 1.7zm-2.3 0c0-.7-.1-1.2-.4-1.6s-.7-.6-1.2-.6-.9.2-1.2.6-.4.9-.4 1.6.1 1.2.4 1.7c.3.4.7.6 1.2.6s.9-.2 1.2-.6.4-1 .4-1.7zm8.9-1.9c-.2 0-.4-.1-.7-.1-.3-.1-.6-.1-.9-.1-.1 0-.3 0-.5 0s-.3 0-.4.1v6h-2.2v-7.5c.4-.1.9-.3 1.4-.4.6-.1 1.2-.2 1.8-.2h.4c.2 0 .3 0 .5.1.2 0 .3 0 .5.1.2 0 .3.1.4.1zm9.1-2c-.5 1.5-.9 2.9-1.4 4.3-.5 1.3-1 2.6-1.6 3.9-.2.5-.4.8-.6 1.1s-.4.6-.7.8c-.2.2-.5.4-.9.4-.3.1-.7.2-1.1.2-.3 0-.7 0-1-.1s-.5-.1-.7-.2l.4-1.8c.2.1.4.1.6.2h.6c.4 0 .7-.1.9-.3s.4-.5.6-.9c-.5-1-1-2.1-1.5-3.4-.5-1.2-1-2.6-1.4-4.2h2.4c.1.4.2.8.3 1.3.1.4.3.9.4 1.4.2.5.3.9.5 1.3s.3.8.4 1.2c.1-.4.3-.8.4-1.2s.3-.9.4-1.3c.1-.5.3-.9.4-1.4s.2-.9.3-1.3z" fill="#fff"/><path d="m22 16h56v48h-56z" fill="none"/><g fill="#fff"><path d="m59.7 55.9v-33.4c0-3.6-2.9-6.5-6.5-6.5h-26.9l.2.2c-2.5.7-4.3 2.9-4.3 5.6 0 3.2 2.6 5.8 5.8 5.8 1.6 0 3-.6 4-1.6v30.3.1c.6 4.3 3.4 6.6 5.8 6.6h.4c.4 0 .8 0 1.2-.1h25 .1c4-.9 4.8-3.8 5.1-5.8l.2-1.1h-10.1zm-31.7-30.2c-2.1 0-3.8-1.7-3.8-3.8s1.7-3.8 3.8-3.8h.5c1.9.2 3.4 1.8 3.4 3.8v.1c-.1 2-1.8 3.7-3.9 3.7zm6.1 30.5v-31.1c.2-1.2.1-2.3-.2-3.4 0-1.4-.6-2.7-1.5-3.7h20.8c2.5 0 4.5 2 4.5 4.5v33.1h-15.4v.9c0 .3 0 .6-.1.8-.4 1.3-1.4 2.5-2.3 3.4-.6.3-1.2.4-1.9.4-1.4-.1-3.5-1.6-3.9-4.9zm30.1 4.7h-21.6c.7-.8 1.2-1.9 1.4-3h23.3c-.4 1.7-1.4 2.6-3.1 3z"/><path d="m53.5 25.9h-14.6c-.5 0-1-.4-1-1 0-.5.4-1 1-1h14.5c.5 0 1 .4 1 1 .1.5-.4 1-.9 1z"/><path d="m53.5 32.4h-14.6c-.5 0-1-.4-1-1 0-.5.4-1 1-1h14.5c.5 0 1 .4 1 1 .1.5-.4 1-.9 1z"/><path d="m50.1 38.6h-11.2c-.5 0-1-.4-1-1 0-.5.4-1 1-1h11.1c.5 0 1 .4 1 1 .1.6-.4 1-.9 1z"/><path d="m47.8 44.9h-8.9c-.5 0-1-.4-1-1 0-.5.4-1 1-1h8.9c.5 0 1 .4 1 1 0 .6-.4 1-1 1z"/><path d="m47.8 51.2h-8.9c-.5 0-1-.4-1-1 0-.5.4-1 1-1h8.9c.5 0 1 .4 1 1 0 .6-.4 1-1 1z"/></g><path d="m53.9 49c2.3-9.1 7.1-14.8 15.1-15.9" fill="none" stroke="#fff" stroke-linecap="round" stroke-miterlimit="10" stroke-width="2"/><path d="m57.1 44.4c-3.2-1.2-1.6-9.8 3.6-13.6 0 0 2.3-3.3 9.8-2.4 0 0 6.5 0 9.3-2.1 0 0 2.4.6.4 3.3s-7.5 9.3-13.5 9.2c-4.3-.4-7.5 6.8-9.6 5.6z" fill="none" stroke="#fff" stroke-linecap="round" stroke-miterlimit="10" stroke-width="2"/></svg>