<svg fill="none" height="100" viewBox="0 0 100 100" width="100" xmlns="http://www.w3.org/2000/svg" xmlns:xlink="http://www.w3.org/1999/xlink"><linearGradient id="a" gradientUnits="userSpaceOnUse" x1="100" x2="-9.80821" y1="100" y2="-9.69199"><stop offset="0" stop-color="#d24074"/><stop offset="1" stop-color="#1268c3"/></linearGradient><path d="m0 0h100v100h-100z" fill="url(#a)"/><g fill="#fff"><path d="m27.6641 32.7317 12.3235 7.0507c.5163.2954 1.1664.2084 1.5869-.212l1.5652-1.5654 2.0688 2.069-6.0367 6.0371 6.9215 6.9216 6.0364-6.037 1.8639 1.864-1.5653 1.5655c-.4205.4206-.5074 1.0707-.2121 1.5869l7.0504 12.324c.3445.6023 1.0969.8344 1.721.5309l10.2678-4.9951c.3833-.1864.6529-.5469.7235-.9673.0705-.4203-.0665-.849-.3679-1.1504l-12.3234-12.3242c-.2473-.2473-.5826-.3862-.9323-.3862s-.685.1389-.9322.3862l-1.5652 1.5653-2.1078-2.1079c.4828-1.1197.5293-2.3837.1379-3.5308 1.0812.5851 2.2969.8964 3.5608.8964 2.0027 0 3.8856-.7799 5.3018-2.1962.5147-.5148.5147-1.3495 0-1.8644l-3.4375-3.4376.8752-.8752c.5147-.5149.5147-1.3496-.0001-1.8644-.2575-.2575-.5949-.3862-.9322-.3862s-.6748.1288-.9322.3862l-.8751.8751-3.4373-3.4375c-.2473-.2474-.5826-.3862-.9323-.3862s-.685.1388-.9322.3862c-2.3953 2.3954-2.8265 6.0213-1.2965 8.8614-.5052-.1731-1.0409-.2642-1.5907-.2642-.6804 0-1.339.139-1.9451.4015l-2.3108-2.3109 1.5653-1.5654c.5149-.5147.5149-1.3494 0-1.8644l-12.3234-12.3241c-.2492-.2493-.5854-.3862-.932-.3862-.0725 0-.1456.0059-.2183.0182-.4204.0705-.7808.3401-.9673.7235l-4.9949 10.2685c-.3034.624-.0713 1.3763.5309 1.721z" fill-opacity=".8"/><path d="m59.2568 22.8399c5.5727 0 10.1065 4.5342 10.1065 10.1074 0 .7281.5903 1.3183 1.3184 1.3183.728 0 1.3183-.5902 1.3183-1.3183 0-7.0271-5.7165-12.744-12.7431-12.7441-.7281 0-1.3184.5903-1.3184 1.3184s.5901 1.3183 1.3183 1.3183z" fill-opacity=".8"/><path d="m59.2564 28.5528c2.4229 0 4.3941 1.9714 4.3941 4.3945 0 .7281.5902 1.3183 1.3183 1.3183.728 0 1.3183-.5902 1.3183-1.3183 0-3.877-3.154-7.0312-7.0307-7.0312-.7281 0-1.3184.5902-1.3184 1.3183s.5902 1.3184 1.3184 1.3184z" fill-opacity=".8"/><path d="m36.6013 48.682c-1.8845 1.8847-1.8845 4.9515 0 6.8362h.0001l.0854.0855c.9131.9131 2.1268 1.4158 3.4179 1.4158 1.2912 0 2.505-.5028 3.4179-1.4158l.7069-.707-6.9215-6.9215z" fill-opacity=".8"/><path d="m38.28 77.912h2.496v11.088h-2.496zm10.2185 11.312c-1.8027 0-3.1787-.5013-4.128-1.504-.9387-1.0027-1.408-2.4267-1.408-4.272 0-.9173.144-1.7333.432-2.448.288-.7253.6827-1.3333 1.184-1.824.5013-.5013 1.0987-.88 1.792-1.136s1.4453-.384 2.256-.384c.4693 0 .896.0373 1.28.112.384.064.72.144 1.008.24.288.0853.528.176.72.272s.3307.1707.416.224l-.72 2.016c-.3413-.1813-.7413-.336-1.2-.464-.448-.128-.96-.192-1.536-.192-.384 0-.7627.064-1.136.192-.3627.128-.688.336-.976.624-.2773.2773-.5013.64-.672 1.088s-.256.992-.256 1.632c0 .512.0533.992.16 1.44.1173.4373.2987.816.544 1.136.256.32.5867.576.992.768.4053.1813.896.272 1.472.272.3627 0 .688-.0213.976-.064s.544-.0907.768-.144c.224-.064.4213-.1333.592-.208s.3253-.144.464-.208l.688 2c-.352.2133-.848.4053-1.488.576s-1.3813.256-2.224.256zm13.9868-11.312v2.128h-3.344v8.96h-2.496v-8.96h-3.3441v-2.128z"/></g></svg>