<svg fill="none" height="100" viewBox="0 0 100 100" width="100" xmlns="http://www.w3.org/2000/svg" xmlns:xlink="http://www.w3.org/1999/xlink"><linearGradient id="a" gradientUnits="userSpaceOnUse" x1="105" x2="-13" y1="-24" y2="118"><stop offset="0" stop-color="#6964de"/><stop offset="1" stop-color="#cd6549"/></linearGradient><clipPath id="b"><path d="m28 18h44v44h-44z"/></clipPath><path d="m0 0h100v100h-100z" fill="url(#a)"/><g clip-path="url(#b)"><path d="m64.8248 44.3155-6.8059-2.618c.4628-2.1891.0266-4.5609-1.3835-6.5027l7.1125-7.1126c3.5934 2.1863 8.2521-.4069 8.2521-4.6469 0-2.997-2.4383-5.4353-5.4353-5.4353-4.2435 0-6.831 4.6624-4.6469 8.2521l-7.1126 7.1125c-3.0537-2.2175-7.2401-2.0657-10.1304.4103l-3.6197-3.0768c1.8059-3.5943-.8203-7.8667-4.859-7.8667-2.997 0-5.4353 2.4383-5.4353 5.4353 0 4.4482 5.0611 6.9797 8.6171 4.4026l3.6191 3.0763c-1.7119 2.8076-1.5765 6.3824.3677 9.0596l-4.734 4.7339c-4.4774-3.0355-10.6307.1648-10.6307 5.6452 0 3.7582 3.0575 6.8157 6.8157 6.8157 5.4758 0 8.6839-6.1486 5.6451-10.6307l4.734-4.7338c1.9839 1.4407 4.461 1.8914 6.7673 1.3227l2.9422 6.9546c-2.7832 2.4696-1.0322 7.0872 2.6879 7.0872 2.2358 0 4.0549-1.819 4.0549-4.0549 0-2.3235-1.9749-4.2205-4.3597-4.0422l-2.9429-6.9561c1.1277-.7078 2.0718-1.6822 2.743-2.8344l6.8071 2.6185c-.097 2.3189 1.7629 4.226 4.0505 4.226 2.2359 0 4.0549-1.819 4.0549-4.0549 0-3.7611-4.7439-5.5145-7.1752-2.5865z" fill="#fff" fill-opacity=".8"/></g><path d="m20.304 87.096c.352 0 .64-.0267.864-.08.2347-.064.4213-.144.56-.24.1387-.1067.2347-.2293.288-.368s.08-.2933.08-.464c0-.3627-.1707-.6613-.512-.896-.3413-.2453-.928-.5067-1.76-.784-.3627-.128-.7253-.272-1.088-.432-.3627-.1707-.688-.3787-.976-.624-.288-.256-.5227-.56-.704-.912-.1813-.3627-.272-.8-.272-1.312s.096-.9707.288-1.376c.192-.416.464-.768.816-1.056s.7787-.5067 1.28-.656c.5013-.16 1.0667-.24 1.696-.24.7467 0 1.392.08 1.936.24s.992.336 1.344.528l-.72 1.968c-.3093-.16-.656-.2987-1.04-.416-.3733-.128-.8267-.192-1.36-.192-.5973 0-1.0293.0853-1.296.256-.256.16-.384.4107-.384.752 0 .2027.048.3733.144.512s.2293.2667.4.384c.1813.1067.384.208.608.304.2347.0853.4907.176.768.272.576.2133 1.0773.4267 1.504.64.4267.2027.7787.4427 1.056.72.288.2773.5013.6027.64.976s.208.8267.208 1.36c0 1.0347-.3627 1.84-1.088 2.416-.7253.5653-1.8187.848-3.28.848-.4907 0-.9333-.032-1.328-.096-.3947-.0533-.7467-.1227-1.056-.208-.2987-.0853-.56-.176-.784-.272-.2133-.096-.3947-.1867-.544-.272l.704-1.984c.3307.1813.736.3467 1.216.496.4907.1387 1.088.208 1.792.208zm11.4445 2.128c-1.8027 0-3.1787-.5013-4.128-1.504-.9387-1.0027-1.408-2.4267-1.408-4.272 0-.9173.144-1.7333.432-2.448.288-.7253.6827-1.3333 1.184-1.824.5013-.5013 1.0987-.88 1.792-1.136s1.4453-.384 2.256-.384c.4693 0 .896.0373 1.28.112.384.064.72.144 1.008.24.288.0853.528.176.72.272s.3307.1707.416.224l-.72 2.016c-.3413-.1813-.7413-.336-1.2-.464-.448-.128-.96-.192-1.536-.192-.384 0-.7627.064-1.136.192-.3627.128-.688.336-.976.624-.2773.2773-.5013.64-.672 1.088s-.256.992-.256 1.632c0 .512.0533.992.16 1.44.1173.4373.2987.816.544 1.136.256.32.5867.576.992.768.4053.1813.896.272 1.472.272.3627 0 .688-.0213.976-.064s.544-.0907.768-.144c.224-.064.4213-.1333.592-.208s.3253-.144.464-.208l.688 2c-.352.2133-.848.4053-1.488.576s-1.3813.256-2.224.256zm5.419-11.312h2.496v11.088h-2.496zm5.1625 11.088v-11.088h7.488v2.096h-4.992v2.176h4.432v2.048h-4.432v2.672h5.36v2.096zm17.2431 0c-.7146-1.2693-1.488-2.5227-2.32-3.76s-1.7173-2.4053-2.656-3.504v7.264h-2.464v-11.088h2.032c.352.352.7414.784 1.168 1.296.4267.512.8587 1.0613 1.296 1.648.448.576.8907 1.1787 1.328 1.808.4374.6187.848 1.216 1.232 1.792v-6.544h2.48v11.088zm9.8098.224c-1.8027 0-3.1787-.5013-4.128-1.504-.9387-1.0027-1.408-2.4267-1.408-4.272 0-.9173.144-1.7333.432-2.448.288-.7253.6826-1.3333 1.184-1.824.5013-.5013 1.0986-.88 1.792-1.136.6933-.256 1.4453-.384 2.256-.384.4693 0 .896.0373 1.28.112.384.064.72.144 1.008.24.288.0853.528.176.72.272s.3306.1707.416.224l-.72 2.016c-.3414-.1813-.7414-.336-1.2-.464-.448-.128-.96-.192-1.536-.192-.384 0-.7627.064-1.136.192-.3627.128-.688.336-.976.624-.2774.2773-.5014.64-.672 1.088-.1707.448-.256.992-.256 1.632 0 .512.0533.992.16 1.44.1173.4373.2986.816.544 1.136.256.32.5866.576.992.768.4053.1813.896.272 1.472.272.3626 0 .688-.0213.976-.064s.544-.0907.768-.144c.224-.064.4213-.1333.592-.208.1706-.0747.3253-.144.464-.208l.688 2c-.352.2133-.848.4053-1.488.576s-1.3814.256-2.224.256zm5.419-.224v-11.088h7.488v2.096h-4.992v2.176h4.432v2.048h-4.432v2.672h5.36v2.096z" fill="#fff"/></svg>