<svg fill="none" height="100" viewBox="0 0 100 100" width="100" xmlns="http://www.w3.org/2000/svg" xmlns:xlink="http://www.w3.org/1999/xlink"><linearGradient id="a" gradientUnits="userSpaceOnUse" x1="-.000001" x2="93.9404" y1="2" y2="103.675"><stop offset="0" stop-color="#ff8282"/><stop offset="1" stop-color="#b70500"/></linearGradient><path d="m0 0h100v100h-100z" fill="url(#a)"/><g fill="#fff"><path d="m67.5283 40.5664h-3.8115c.3885 1.0637.6007 2.2116.6007 3.408v14.4052c0 .4988-.0868.9776-.2447 1.4229h6.3012c2.3538 0 4.2687-1.915 4.2687-4.2687v-7.853c.0001-3.9228-3.1915-7.1144-7.1144-7.1144z" fill-opacity=".8"/><path d="m35.6827 43.9744c0-1.1965.2122-2.3443.6007-3.408h-3.8115c-3.9229 0-7.1145 3.1916-7.1145 7.1145v7.853c0 2.3537 1.9149 4.2687 4.2687 4.2687h6.3014c-.158-.4455-.2448-.9242-.2448-1.423z" fill-opacity=".8"/><path d="m54.3574 36.8633h-8.7136c-3.9229 0-7.1145 3.1916-7.1145 7.1145v14.4052c0 .7858.637 1.4229 1.4229 1.4229h20.0968c.7859 0 1.4229-.637 1.4229-1.4229v-14.4052c0-3.9229-3.1916-7.1145-7.1145-7.1145z" fill-opacity=".8"/><path d="m49.9995 18c-4.7179 0-8.5561 3.8382-8.5561 8.5562 0 3.2001 1.7662 5.995 4.3747 7.4624 1.2372.696 2.6635 1.0937 4.1814 1.0937 1.5178 0 2.9441-.3977 4.1814-1.0937 2.6085-1.4674 4.3746-4.2624 4.3746-7.4624 0-4.7179-3.8382-8.5562-8.556-8.5562z" fill-opacity=".8"/><path d="m34.977 25.9766c-3.5284 0-6.3989 2.8704-6.3989 6.3988s2.8705 6.3988 6.3989 6.3988c.895 0 1.7473-.1854 2.5215-.5186 1.3386-.5763 2.4423-1.5965 3.1252-2.8743.4794-.8969.7521-1.92.7521-3.0059 0-3.5283-2.8705-6.3988-6.3988-6.3988z" fill-opacity=".8"/><path d="m65.0199 25.9766c-3.5284 0-6.3988 2.8704-6.3988 6.3988 0 1.086.2727 2.1091.7521 3.0059.6829 1.2779 1.7866 2.2981 3.1252 2.8743.7742.3332 1.6265.5186 2.5215.5186 3.5284 0 6.3989-2.8704 6.3989-6.3988s-2.8705-6.3988-6.3989-6.3988z" fill-opacity=".8"/><path d="m17.2469 86.215c.33 0 .6-.025.81-.075.22-.06.395-.135.525-.225.13-.1.22-.215.27-.345s.075-.275.075-.435c0-.34-.16-.62-.48-.84-.32-.23-.87-.475-1.65-.735-.34-.12-.68-.255-1.02-.405-.34-.16-.645-.355-.915-.585-.27-.24-.49-.525-.66-.855-.17-.34-.255-.75-.255-1.23s.09-.91.27-1.29c.18-.39.435-.72.765-.99s.73-.475 1.2-.615c.47-.15 1-.225 1.59-.225.7 0 1.305.075 1.815.225s.93.315 1.26.495l-.675 1.845c-.29-.15-.615-.28-.975-.39-.35-.12-.775-.18-1.275-.18-.56 0-.965.08-1.215.24-.24.15-.36.385-.36.705 0 .19.045.35.135.48s.215.25.375.36c.17.1.36.195.57.285.22.08.46.165.72.255.54.2 1.01.4 1.41.6.4.19.73.415.99.675.27.26.47.565.6.915s.195.775.195 1.275c0 .97-.34 1.725-1.02 2.265-.68.53-1.705.795-3.075.795-.46 0-.875-.03-1.245-.09-.37-.05-.7-.115-.99-.195-.28-.08-.525-.165-.735-.255-.2-.09-.37-.175-.51-.255l.66-1.86c.31.17.69.325 1.14.465.46.13 1.02.195 1.68.195zm13.2255-2.175c0 .62-.09 1.19-.27 1.71-.18.51-.44.95-.78 1.32-.34.36-.75.64-1.23.84-.47.2-1 .3-1.59.3-.58 0-1.11-.1-1.59-.3-.47-.2-.875-.48-1.215-.84-.34-.37-.605-.81-.795-1.32-.19-.52-.285-1.09-.285-1.71s.095-1.185.285-1.695c.2-.51.47-.945.81-1.305.35-.36.76-.64 1.23-.84.48-.2 1-.3 1.56-.3.57 0 1.09.1 1.56.3.48.2.89.48 1.23.84s.605.795.795 1.305.285 1.075.285 1.695zm-2.28 0c0-.69-.14-1.23-.42-1.62-.27-.4-.66-.6-1.17-.6s-.905.2-1.185.6c-.28.39-.42.93-.42 1.62s.14 1.24.42 1.65c.28.4.675.6 1.185.6s.9-.2 1.17-.6c.28-.41.42-.96.42-1.65zm3.7363.015c0-.57.09-1.105.27-1.605.19-.51.46-.95.81-1.32.35-.38.775-.68 1.275-.9s1.07-.33 1.71-.33c.42 0 .805.04 1.155.12.35.07.69.175 1.02.315l-.465 1.785c-.21-.08-.44-.15-.69-.21s-.53-.09-.84-.09c-.66 0-1.155.205-1.485.615-.32.41-.48.95-.48 1.62 0 .71.15 1.26.45 1.65.31.39.845.585 1.605.585.27 0 .56-.025.87-.075s.595-.13.855-.24l.315 1.83c-.26.11-.585.205-.975.285s-.82.12-1.29.12c-.72 0-1.34-.105-1.86-.315-.52-.22-.95-.515-1.29-.885-.33-.37-.575-.805-.735-1.305-.15-.51-.225-1.06-.225-1.65zm10.21 3.945h-2.235v-7.89h2.235zm.21-10.17c0 .41-.135.735-.405.975-.26.23-.57.345-.93.345s-.675-.115-.945-.345c-.26-.24-.39-.565-.39-.975s.13-.73.39-.96c.27-.24.585-.36.945-.36s.67.12.93.36c.27.23.405.55.405.96zm5.0059 8.61c.22 0 .43-.005.63-.015s.36-.025.48-.045v-1.695c-.09-.02-.225-.04-.405-.06s-.345-.03-.495-.03c-.21 0-.41.015-.6.045-.18.02-.34.065-.48.135s-.25.165-.33.285-.12.27-.12.45c0 .35.115.595.345.735.24.13.565.195.975.195zm-.18-6.54c.66 0 1.21.075 1.65.225s.79.365 1.05.645c.27.28.46.62.57 1.02s.165.845.165 1.335v4.65c-.32.07-.765.15-1.335.24-.57.1-1.26.15-2.07.15-.51 0-.975-.045-1.395-.135-.41-.09-.765-.235-1.065-.435-.3-.21-.53-.48-.69-.81s-.24-.735-.24-1.215c0-.46.09-.85.27-1.17.19-.32.44-.575.75-.765s.665-.325 1.065-.405c.4-.09.815-.135 1.245-.135.29 0 .545.015.765.045.23.02.415.05.555.09v-.21c0-.38-.115-.685-.345-.915s-.63-.345-1.2-.345c-.38 0-.755.03-1.125.09-.37.05-.69.125-.96.225l-.285-1.8c.13-.04.29-.08.48-.12.2-.05.415-.09.645-.12.23-.04.47-.07.72-.09.26-.03.52-.045.78-.045zm8.7061 8.25c-.65-.01-1.18-.08-1.59-.21-.4-.13-.72-.31-.96-.54-.23-.24-.39-.525-.48-.855-.08-.34-.12-.72-.12-1.14v-8.685l2.235-.36v8.595c0 .2.015.38.045.54s.085.295.165.405c.09.11.215.2.375.27s.375.115.645.135zm8.3846-1.935c.33 0 .6-.025.81-.075.22-.06.395-.135.525-.225.13-.1.22-.215.27-.345s.075-.275.075-.435c0-.34-.16-.62-.48-.84-.32-.23-.87-.475-1.65-.735-.34-.12-.68-.255-1.02-.405-.34-.16-.645-.355-.915-.585-.27-.24-.49-.525-.66-.855-.17-.34-.255-.75-.255-1.23s.09-.91.27-1.29c.18-.39.435-.72.765-.99s.73-.475 1.2-.615c.47-.15 1-.225 1.59-.225.7 0 1.305.075 1.815.225s.93.315 1.26.495l-.675 1.845c-.29-.15-.615-.28-.975-.39-.35-.12-.775-.18-1.275-.18-.56 0-.965.08-1.215.24-.24.15-.36.385-.36.705 0 .19.045.35.135.48s.215.25.375.36c.17.1.36.195.57.285.22.08.46.165.72.255.54.2 1.01.4 1.41.6.4.19.73.415.99.675.27.26.47.565.6.915s.195.775.195 1.275c0 .97-.34 1.725-1.02 2.265-.68.53-1.705.795-3.075.795-.46 0-.875-.03-1.245-.09-.37-.05-.7-.115-.99-.195-.28-.08-.525-.165-.735-.255-.2-.09-.37-.175-.51-.255l.66-1.86c.31.17.69.325 1.14.465.46.13 1.02.195 1.68.195zm5.4704-2.16c0-.57.09-1.105.27-1.605.19-.51.46-.95.81-1.32.35-.38.775-.68 1.275-.9s1.07-.33 1.71-.33c.42 0 .805.04 1.155.12.35.07.69.175 1.02.315l-.465 1.785c-.21-.08-.44-.15-.69-.21s-.53-.09-.84-.09c-.66 0-1.155.205-1.485.615-.32.41-.48.95-.48 1.62 0 .71.15 1.26.45 1.65.31.39.845.585 1.605.585.27 0 .56-.025.87-.075s.595-.13.855-.24l.315 1.83c-.26.11-.585.205-.975.285s-.82.12-1.29.12c-.72 0-1.34-.105-1.86-.315-.52-.22-.95-.515-1.29-.885-.33-.37-.575-.805-.735-1.305-.15-.51-.225-1.06-.225-1.65zm10.21 3.945h-2.235v-7.89h2.235zm.21-10.17c0 .41-.135.735-.405.975-.26.23-.57.345-.93.345s-.675-.115-.945-.345c-.26-.24-.39-.565-.39-.975s.13-.73.39-.96c.27-.24.585-.36.945-.36s.67.12.93.36c.27.23.405.55.405.96zm4.181 8.985c0 .45-.145.795-.435 1.035-.28.23-.6.345-.96.345s-.685-.115-.975-.345c-.28-.24-.42-.585-.42-1.035s.14-.79.42-1.02c.29-.24.615-.36.975-.36s.68.12.96.36c.29.23.435.57.435 1.02z"/></g></svg>