<svg fill="none" height="24" viewBox="0 0 29 24" width="29" xmlns="http://www.w3.org/2000/svg" xmlns:xlink="http://www.w3.org/1999/xlink"><filter id="a" color-interpolation-filters="sRGB" filterUnits="userSpaceOnUse" height="25" width="28.2871" x="0" y="0"><feFlood flood-opacity="0" result="BackgroundImageFix"/><feBlend in="SourceGraphic" in2="BackgroundImageFix" mode="normal" result="shape"/><feColorMatrix in="SourceAlpha" result="hardAlpha" type="matrix" values="0 0 0 0 0 0 0 0 0 0 0 0 0 0 0 0 0 0 127 0"/><feOffset dy="1"/><feGaussianBlur stdDeviation="1"/><feComposite in2="hardAlpha" k2="-1" k3="1" operator="arithmetic"/><feColorMatrix type="matrix" values="0 0 0 0 0 0 0 0 0 0 0 0 0 0 0 0 0 0 0.25 0"/><feBlend in2="shape" mode="normal" result="effect1_innerShadow_3913:2425"/></filter><g fill="#2bb673" filter="url(#a)"><path d="m27.1706 6.23943c.1762 2.50515-1.1193 4.35337-3.6558 5.45577-2.4014 1.0427-4.7794 2.1454-7.1518 3.2507-.3459.1659-.7212.2616-1.1042.2814-.3831.0199-.7663-.0365-1.1275-.1658-4.13684-1.2973-8.28861-2.5478-12.43385-3.819-.3326-.086-.65625-.2031-.966946-.3497-.203348-.0789-.379875-.2149-.508857-.3908-.1289826-.1759-.2051407-.3843-.21925254-.60202-.01411186-.21768.03437514-.43555.13956554-.62664.105191-.19109.262756-.34818.454215-.45267.328704-.20308.677065-.37243 1.039795-.5055 2.0964-.88137 4.16954-1.82863 6.30231-2.61767.86136-.22329 1.61763-.74079 2.13792-1.46276.5202-.72196.7717-1.60321.711-2.49106-.0063-.25715.0232-.51334.0877-.762352.2219-.823547.72-1.119443 1.6945-.9226503 1.0939.2201103 2.1738.5092223 3.2574.7778313 3.1707.781581 6.3414 1.566651 9.5121 2.354441 1.7579.43929 1.8298.54023 1.8326 2.36173-.001.12964-.0009.25772-.0009.68675zm-22.12882 3.25068.03074.28691c3.19683.98578 6.39088 1.98328 9.59788 2.93558.3684.0718.7501.0214 1.0874-.143 2.3165-1.026 4.6264-2.066 6.9187-3.14415 1.8399-.86552 2.2466-1.7028 1.9584-3.93561l-11.4006-2.79801c-.076.20668-.1414.41692-.1958.63028-.1702 1.00218-.6109 1.93882-1.2746 2.70875-.6636.76992-1.5251 1.3435-2.49121 1.65949-.47933.18654-.94923.40057-1.42297.60296-.93567.39732-1.87164.79638-2.80794 1.1968z"/><path d="m15.2474 23.9999c-.4533-.1138-.7908-.1864-1.1191-.2796-4.18904-1.2822-8.3776-2.5686-12.56543-3.8601-.2071-.0573-.41054-.128-.609035-.2104-.77869-.3478-1.086412-.8744-.8849783-1.4919.0515313-.1532.1331373-.2947.2397433-.4162s.236152-.2204.381358-.2915c.145206-.071.303091-.1133.464462-.1229.16137-.0096.32302.0131.47561.0665.33482.0787.6654.1752.9904.2878 3.77967 1.1658 7.56597 2.3116 11.33257 3.5184.3804.1342.784.1893 1.1864.1622.4025-.0271.7954-.1358 1.1544-.3197 3.1921-1.4923 6.4057-2.9444 9.6184-4.3938.3847-.1831.7955-.3049 1.2178-.3616.2398-.0387.4851.0193.6821.1613.1971.1419.3297.3559.3689.5956.0409.4068-.0654.8152-.2994 1.1504-.2679.2782-.5994.4863-.9661.6075-3.5182 1.6048-7.0405 3.2025-10.5669 4.7918-.3851.1725-.7963.2961-1.1012.4062z"/><path d="m15.2263 19.6793c-.3926-.1007-.6863-.1683-.9726-.255-4.2276-1.3008-8.45532-2.6041-12.68294-3.9092-.33045-.0938-.649928-.2218-.95305-.3835-.240668-.1065-.431288-.3016-.5323077-.5446-.1010198-.2431-.1047415-.5157-.0104731-.7615.0629348-.2553.2205618-.4768.4410088-.6202.220448-.1434.487172-.1981.746092-.1521.42405.0606.84202.159 1.24881.2932 3.85988 1.1687 7.72256 2.3317 11.57116 3.5358.3412.1193.7028.1686 1.0635.1457s.7132-.1181 1.0366-.2796c3.154-1.4671 6.3267-2.8973 9.4946-4.3354.3457-.173.7069-.3131 1.0789-.4181.2686-.0894.5604-.0773.8208.0337s.4713.3127.5929.5683c.1292.2535.1535.5476.0676.8189-.0859.2712-.2749.4983-.5264.6311-.288.1867-.5931.3454-.9111.4746-3.44 1.5712-6.8818 3.1378-10.3254 4.6998-.428.193-.8784.3247-1.2477.4581z"/><path d="m5.04102 9.49047c.93567-.40105 1.87193-.80007 2.80884-1.19863.47374-.20332.9448-.41455 1.42321-.60295.96603-.31626 1.82733-.89034 2.49103-1.66041.6636-.77007 1.1043-1.70647 1.2745-2.70875.0544-.21307.1198-.42393.1958-.63028l11.4016 2.79801c.2863 2.23281-.1202 3.07191-1.9583 3.93743-2.2922 1.07821-4.6033 2.11821-6.9188 3.14411-.3376.1635-.719.213-1.0874.1421-3.2061-.9523-6.40017-1.9507-9.59793-2.93464z"/></g></svg>