<svg width="44" height="16" viewBox="0 0 44 16" fill="none" xmlns="http://www.w3.org/2000/svg">
<path d="M19.114 13V3.298H25.036V4.46H20.472V7.344H24.532V8.478H20.472V11.838H25.386V13H19.114ZM31.4997 7.26C31.341 7.12933 31.1123 7.00333 30.8137 6.882C30.515 6.76067 30.1883 6.7 29.8337 6.7C29.4603 6.7 29.1383 6.77 28.8677 6.91C28.6063 7.04067 28.3917 7.22733 28.2237 7.47C28.0557 7.70333 27.9343 7.98333 27.8597 8.31C27.785 8.63667 27.7477 8.98667 27.7477 9.36C27.7477 10.2093 27.9577 10.8673 28.3777 11.334C28.7977 11.7913 29.3577 12.02 30.0577 12.02C30.4123 12.02 30.7063 12.006 30.9397 11.978C31.1823 11.9407 31.369 11.9033 31.4997 11.866V7.26ZM31.4997 2.36L32.8017 2.136V12.79C32.503 12.874 32.1203 12.958 31.6537 13.042C31.187 13.126 30.6503 13.168 30.0437 13.168C29.4837 13.168 28.9797 13.0793 28.5317 12.902C28.0837 12.7247 27.701 12.4727 27.3837 12.146C27.0663 11.8193 26.819 11.4227 26.6417 10.956C26.4737 10.48 26.3897 9.948 26.3897 9.36C26.3897 8.8 26.4597 8.28667 26.5997 7.82C26.749 7.35333 26.9637 6.952 27.2437 6.616C27.5237 6.28 27.8643 6.01867 28.2657 5.832C28.6763 5.64533 29.143 5.552 29.6657 5.552C30.0857 5.552 30.4543 5.608 30.7717 5.72C31.0983 5.832 31.341 5.93933 31.4997 6.042V2.36ZM36.3418 13H35.0398V5.72H36.3418V13ZM35.6838 4.404C35.4505 4.404 35.2498 4.32933 35.0818 4.18C34.9231 4.02133 34.8438 3.81133 34.8438 3.55C34.8438 3.28867 34.9231 3.08333 35.0818 2.934C35.2498 2.77533 35.4505 2.696 35.6838 2.696C35.9171 2.696 36.1131 2.77533 36.2718 2.934C36.4398 3.08333 36.5238 3.28867 36.5238 3.55C36.5238 3.81133 36.4398 4.02133 36.2718 4.18C36.1131 4.32933 35.9171 4.404 35.6838 4.404ZM39.7988 5.72H42.5568V6.812H39.7988V10.172C39.7988 10.536 39.8268 10.8393 39.8828 11.082C39.9388 11.3153 40.0228 11.502 40.1348 11.642C40.2468 11.7727 40.3868 11.866 40.5548 11.922C40.7228 11.978 40.9188 12.006 41.1428 12.006C41.5348 12.006 41.8475 11.964 42.0808 11.88C42.3235 11.7867 42.4915 11.7213 42.5848 11.684L42.8368 12.762C42.7061 12.8273 42.4775 12.9067 42.1508 13C41.8241 13.1027 41.4508 13.154 41.0308 13.154C40.5361 13.154 40.1255 13.0933 39.7988 12.972C39.4815 12.8413 39.2248 12.65 39.0288 12.398C38.8328 12.146 38.6928 11.838 38.6088 11.474C38.5341 11.1007 38.4968 10.6713 38.4968 10.186V3.69L39.7988 3.466V5.72Z" fill="#B5B5B5"/>
<path d="M10.775 3.83222L13.189 6.24622C13.2377 6.29529 13.265 6.36161 13.265 6.43072C13.265 6.49984 13.2377 6.56615 13.189 6.61522L7.344 12.4602L4.86 12.7362C4.7824 12.7448 4.70387 12.7358 4.63022 12.7099C4.55656 12.6841 4.48966 12.642 4.43445 12.5868C4.37925 12.5316 4.33716 12.4647 4.31129 12.391C4.28542 12.3173 4.27644 12.2388 4.285 12.1612L4.56 9.67722L10.405 3.83222C10.4541 3.78325 10.5206 3.75574 10.59 3.75574C10.6594 3.75574 10.7259 3.78325 10.775 3.83222ZM15.111 3.21922L13.8 1.91322C13.6038 1.71799 13.3383 1.6084 13.0615 1.6084C12.7847 1.6084 12.5192 1.71799 12.323 1.91322L11.376 2.86022C11.3273 2.90929 11.3 2.97561 11.3 3.04472C11.3 3.11384 11.3273 3.18015 11.376 3.22922L13.79 5.64322C13.8391 5.69189 13.9054 5.7192 13.9745 5.7192C14.0436 5.7192 14.1099 5.69189 14.159 5.64322L15.11 4.70122C15.3052 4.50502 15.4148 4.2395 15.4148 3.96272C15.4148 3.68594 15.3052 3.42042 15.11 3.22422L15.111 3.21922ZM10.277 10.8712V13.5952H1.713V5.03122H7.863C7.94797 5.03038 8.02931 4.99669 8.09 4.93722L9.16 3.86722C9.20525 3.82238 9.23613 3.7651 9.24871 3.70265C9.2613 3.64021 9.25503 3.57543 9.23069 3.51656C9.20635 3.4577 9.16504 3.4074 9.11203 3.37208C9.05902 3.33676 8.9967 3.31801 8.933 3.31822H1.285C0.944543 3.31822 0.618001 3.45333 0.377074 3.69388C0.136147 3.93443 0.000529894 4.26076 0 4.60122L0 14.0212C0 14.362 0.135384 14.6889 0.376368 14.9299C0.617352 15.1708 0.944197 15.3062 1.285 15.3062H10.7C11.0408 15.3062 11.3676 15.1708 11.6086 14.9299C11.8496 14.6889 11.985 14.362 11.985 14.0212V9.80122C11.9847 9.73773 11.9657 9.67575 11.9303 9.62305C11.8949 9.57035 11.8447 9.52929 11.786 9.50503C11.7274 9.48077 11.6628 9.47439 11.6006 9.48671C11.5383 9.49902 11.481 9.52947 11.436 9.57422L10.366 10.6442C10.3084 10.7057 10.2765 10.7869 10.277 10.8712Z" fill="#B5B5B5"/>
</svg>
