<svg width="27" height="27" viewBox="0 0 27 27" fill="none" xmlns="http://www.w3.org/2000/svg">
<path d="M19.1798 0H7.81982C6.73261 0 5.85498 0.881568 5.85498 1.9668V25.0352C5.85498 26.1194 6.73261 27 7.81982 27H19.1798C20.2651 27 21.1447 26.1194 21.1447 25.0352V1.9668C21.1447 0.881568 20.2651 0 19.1798 0ZM10.6967 1.19445H16.3049C16.4466 1.19445 16.5617 1.40598 16.5617 1.6677C16.5617 1.92941 16.4466 2.14194 16.3049 2.14194H10.6967C10.5541 2.14194 10.4409 1.92941 10.4409 1.6677C10.4409 1.40598 10.5541 1.19445 10.6967 1.19445ZM13.5008 25.0588C12.8091 25.0588 12.2464 24.496 12.2464 23.8033C12.2464 23.1107 12.8091 22.5499 13.5008 22.5499C14.1905 22.5499 14.7533 23.1107 14.7533 23.8033C14.7533 24.496 14.1905 25.0588 13.5008 25.0588ZM19.6728 20.7601H7.32787V3.31867H19.6728V20.7601Z" fill="#B5B5C3"/>
<rect x="9.91162" y="7.51904" width="14.6962" height="9.56962" rx="4.78481" fill="#B5B5C3"/>
<path d="M15.2347 11.7515C15.2347 11.9739 15.1836 12.178 15.0815 12.3639C14.9795 12.5462 14.8227 12.6939 14.6113 12.8069C14.3998 12.9199 14.1373 12.9764 13.8238 12.9764H13.2442V14.3544H12.3091V10.5156H13.8238C14.13 10.5156 14.3889 10.5685 14.6003 10.6742C14.8118 10.7799 14.9703 10.9258 15.0761 11.1117C15.1818 11.2976 15.2347 11.5109 15.2347 11.7515ZM13.7527 12.2436C13.9314 12.2436 14.0644 12.1999 14.1519 12.1124C14.2394 12.0249 14.2832 11.9046 14.2832 11.7515C14.2832 11.5984 14.2394 11.4781 14.1519 11.3906C14.0644 11.3031 13.9314 11.2593 13.7527 11.2593H13.2442V12.2436H13.7527Z" fill="white"/>
<path d="M15.5355 12.8233C15.5355 12.5098 15.5939 12.2345 15.7105 11.9975C15.8308 11.7606 15.9931 11.5783 16.1972 11.4507C16.4014 11.3231 16.6292 11.2593 16.8808 11.2593C17.0958 11.2593 17.2836 11.3031 17.444 11.3906C17.608 11.4781 17.7338 11.5929 17.8213 11.7351V11.3031H18.7564V14.3544H17.8213V13.9224C17.7302 14.0646 17.6026 14.1794 17.4385 14.2669C17.2781 14.3544 17.0904 14.3982 16.8753 14.3982C16.6274 14.3982 16.4014 14.3344 16.1972 14.2068C15.9931 14.0755 15.8308 13.8914 15.7105 13.6545C15.5939 13.4139 15.5355 13.1368 15.5355 12.8233ZM17.8213 12.8287C17.8213 12.5954 17.7557 12.4113 17.6245 12.2764C17.4969 12.1415 17.3401 12.0741 17.1542 12.0741C16.9683 12.0741 16.8097 12.1415 16.6784 12.2764C16.5508 12.4077 16.487 12.59 16.487 12.8233C16.487 13.0566 16.5508 13.2425 16.6784 13.381C16.8097 13.5159 16.9683 13.5834 17.1542 13.5834C17.3401 13.5834 17.4969 13.5159 17.6245 13.381C17.7557 13.2462 17.8213 13.0621 17.8213 12.8287Z" fill="white"/>
<path d="M20.1328 11.3031L20.8383 13.2115L21.5382 11.3031H22.5499L20.6359 15.8035H19.6298L20.3297 14.2505L19.0884 11.3031H20.1328Z" fill="white"/>
</svg>
