<svg width="24" height="27" viewBox="0 0 24 27" fill="none" xmlns="http://www.w3.org/2000/svg">
<path d="M10.3104 0.607579C10.7896 0.214323 11.3856 0 12 0C12.6144 0 13.2104 0.214323 13.6896 0.607579L22.9896 8.23857C23.3049 8.49735 23.5594 8.82526 23.7343 9.19811C23.9092 9.57095 24 9.9792 24 10.3927V24.2383C24 24.9707 23.7155 25.6732 23.2092 26.1911C22.7028 26.709 22.0161 27 21.3 27H18.3C17.5839 27 16.8972 26.709 16.3908 26.1911C15.8845 25.6732 15.6 24.9707 15.6 24.2383V16.2599C15.6 16.0157 15.5052 15.7816 15.3364 15.6089C15.1676 15.4363 14.9387 15.3393 14.7 15.3393H9.3C9.06131 15.3393 8.83239 15.4363 8.6636 15.6089C8.49482 15.7816 8.4 16.0157 8.4 16.2599V24.2383C8.4 24.9707 8.11554 25.6732 7.60919 26.1911C7.10284 26.709 6.41608 27 5.7 27H2.7C1.98392 27 1.29716 26.709 0.790812 26.1911C0.284464 25.6732 0 24.9707 0 24.2383V10.3927C0 9.55439 0.372 8.76269 1.0104 8.23857L10.3104 0.607579Z" fill="#B5B5C3"/>
</svg>
