<svg fill="none" height="24" viewBox="0 0 20 24" width="20" xmlns="http://www.w3.org/2000/svg" xmlns:xlink="http://www.w3.org/1999/xlink"><filter id="a" color-interpolation-filters="sRGB" filterUnits="userSpaceOnUse" height="25" width="20" x="0" y="0"><feFlood flood-opacity="0" result="BackgroundImageFix"/><feBlend in="SourceGraphic" in2="BackgroundImageFix" mode="normal" result="shape"/><feColorMatrix in="SourceAlpha" result="hardAlpha" type="matrix" values="0 0 0 0 0 0 0 0 0 0 0 0 0 0 0 0 0 0 127 0"/><feOffset dy="1"/><feGaussianBlur stdDeviation="1"/><feComposite in2="hardAlpha" k2="-1" k3="1" operator="arithmetic"/><feColorMatrix type="matrix" values="0 0 0 0 0 0 0 0 0 0 0 0 0 0 0 0 0 0 0.25 0"/><feBlend in2="shape" mode="normal" result="effect1_innerShadow"/></filter><g filter="url(#a)"><path clip-rule="evenodd" d="m0 2c0-1.10457.895431-2 2-2h16c1.1046 0 2 .895431 2 2v20c0 1.1046-.8954 2-2 2h-16c-1.104569 0-2-.8954-2-2zm2.95847 3.00391c0-.55229.44772-1 1-1h12.07403c.5523 0 1 .44771 1 1v.66666c0 .55229-.4477 1-1 1h-12.07403c-.55228 0-1-.44771-1-1zm1 3.66619c-.55228 0-1 .44772-1 1v.6667c0 .5523.44772 1 1 1h12.07403c.5523 0 1-.4477 1-1v-.6667c0-.55228-.4477-1-1-1zm-1 5.6662c0-.5523.44772-1 1-1h12.07403c.5523 0 1 .4477 1 1v.6667c0 .5522-.4477 1-1 1h-12.07403c-.55228 0-1-.4478-1-1zm1 3.6662c-.55228 0-1 .4477-1 1v.6667c0 .5522.44772 1 1 1h6.14813c.5523 0 1-.4478 1-1v-.6667c0-.5523-.4477-1-1-1z" fill="#2bb673" fill-rule="evenodd"/></g></svg>