<svg fill="none" height="20" viewBox="0 0 28 20" width="28" xmlns="http://www.w3.org/2000/svg" xmlns:xlink="http://www.w3.org/1999/xlink"><filter id="a" color-interpolation-filters="sRGB" filterUnits="userSpaceOnUse" height="20" width="27.25" x=".5" y=".5"><feFlood flood-opacity="0" result="BackgroundImageFix"/><feBlend in="SourceGraphic" in2="BackgroundImageFix" mode="normal" result="shape"/><feColorMatrix in="SourceAlpha" result="hardAlpha" type="matrix" values="0 0 0 0 0 0 0 0 0 0 0 0 0 0 0 0 0 0 127 0"/><feOffset dy="1"/><feGaussianBlur stdDeviation="1"/><feComposite in2="hardAlpha" k2="-1" k3="1" operator="arithmetic"/><feColorMatrix type="matrix" values="0 0 0 0 0 0 0 0 0 0 0 0 0 0 0 0 0 0 0.25 0"/><feBlend in2="shape" mode="normal" result="effect1_innerShadow_4117:1637"/></filter><g filter="url(#a)"><path d="m27.165 1.74093c-.0562-.14769-.1378-.27976-.2393-.39028-.0066-.0072-.0132-.00843-.0187-.0144-.0993-.10209-.2129-.18733-.3408-.24499-.1048-.04683-.2151-.06123-.3254-.07206-.033-.0024-.0606-.0192-.0937-.0192h-8.8234c-.6099 0-1.103.53675-1.103 1.20082s.493 1.20082 1.103 1.20082h6.172l-8.7308 9.55956-3.322-4.63031c-.1919-.26776-.4776-.43348-.7864-.45871-.3209-.02523-.6166.09366-.84152.32542l-8.47045 8.731c-.442294.4564-.461007 1.2164-.04301 1.698.2184.2485.50955.3734.80184.3734.27244 0 .54483-.1093.7577-.3278l7.58914-7.8232 3.3452 4.6626c.1953.2726.4875.4395.8041.4599.3165.0192.6242-.108.8481-.3518l9.5965-10.50818v6.69568c0 .664.493 1.2008 1.103 1.2008.6099 0 1.1029-.5367 1.1029-1.2008v-9.60633-.00122c-.0011-.1573-.0298-.3122-.085-.45872z" fill="#2bb673"/></g><path d="m27.399 1.65292-.0003-.00096c-.0672-.17655-.1654-.33596-.2888-.47038v-.00003c-.0137-.0149-.0274-.02659-.0396-.03571-.1136-.1136-.2471-.212935-.4014-.282493l-.0007-.000329c-.1422-.063543-.2854-.080964-.3963-.091963l-.0068-.002029-.0021-.000608c-.0165-.004942-.0616-.018418-.1159-.018418h-8.8234c-.7676 0-1.353.6691-1.353 1.45082 0 .7817.5854 1.45082 1.353 1.45082h5.6051l-8.1406 8.91326-3.1421-4.37964c-.2321-.32376-.5828-.53068-.9692-.56225l-.0008-.00006c-.3993-.03139-.76671.11846-1.04051.40052l-.00005.00005-8.47044 8.73108h-.00008c-.533333.5503-.554636 1.4571-.0523 2.0359l.001.0011c.26519.3018.62442.4584.98964.4584.34062 0 .67737-.1371.93678-.4034l.00036-.0003 7.381-7.6086 3.1707 4.4195c.2361.3297.5953.5383.9912.5638l.0009.0001c.3951.0239.775-.1356 1.0474-.4323l.0005-.0005 9.1619-10.0323v6.0512c0 .7816.5854 1.4508 1.353 1.4508.7675 0 1.3529-.6691 1.3529-1.4508v-9.60633-.00122-.00179c-.0013-.18666-.0354-.37075-.101-.54494z" stroke="#2bb673" stroke-width=".5"/></svg>