<svg fill="none" height="24" viewBox="0 0 24 24" width="24" xmlns="http://www.w3.org/2000/svg" xmlns:xlink="http://www.w3.org/1999/xlink"><filter id="a" color-interpolation-filters="sRGB" filterUnits="userSpaceOnUse" height="25" width="24" x="0" y="0"><feFlood flood-opacity="0" result="BackgroundImageFix"/><feBlend in="SourceGraphic" in2="BackgroundImageFix" mode="normal" result="shape"/><feColorMatrix in="SourceAlpha" result="hardAlpha" type="matrix" values="0 0 0 0 0 0 0 0 0 0 0 0 0 0 0 0 0 0 127 0"/><feOffset dy="1"/><feGaussianBlur stdDeviation="1"/><feComposite in2="hardAlpha" k2="-1" k3="1" operator="arithmetic"/><feColorMatrix type="matrix" values="0 0 0 0 0 0 0 0 0 0 0 0 0 0 0 0 0 0 0.25 0"/><feBlend in2="shape" mode="normal" result="effect1_innerShadow"/></filter><g filter="url(#a)"><path d="m23.8014 7.45541-7.3298-7.258686c-.2646-.2622988-.6942-.2622988-.9588 0l-.0311.030756c-.4494.444955-.6971 1.03684-.6971 1.6662 0 .40547.1041.79455.2973 1.13958l-7.6693 6.51826c-.58697-.51949-1.33613-.80382-2.12965-.80382-.85508 0-1.6589.32972-2.26336.92846l-.04598.04553c-.26487.26216-.26487.68741 0 .94951l4.39111 4.3486-4.27665 4.235c-.08557.0872-.05796.1209-1.38881 1.7648-1.267367 1.5651-1.517994 1.8518-1.531013 1.8666-.2353014.2654-.2222818.6656.029565.9162.131958.1313.305959.1976.480503.1976.159082 0 .318572-.0551.446865-.1661.01126-.0097.29416-.2532 1.88485-1.5162 1.65972-1.318 1.69382-1.2907 1.78862-1.3822l4.26973-4.2283 4.15592 4.1157c.1324.1312.306.1967.4794.1967.1735 0 .3472-.0655.4795-.1967l.0459-.0456c.6046-.5986.9376-1.3947.9376-2.2414 0-.7858-.2873-1.5277-.8117-2.109l6.582-7.59499c.3485.19139.7414.2944 1.1508.2944.6356 0 1.2332-.24511 1.6825-.69033l.0311-.03076c.2648-.26243.2648-.68764 0-.94981z" fill="#2bb673"/></g></svg>