<svg fill="none" height="12" viewBox="0 0 15 12" width="15" xmlns="http://www.w3.org/2000/svg" xmlns:xlink="http://www.w3.org/1999/xlink"><clipPath id="a"><path d="m0 0h15v12h-15z"/></clipPath><g clip-path="url(#a)" fill="#1bc5bd"><path d="m14.4067 3.11827c.0935 1.25228-.592 2.17664-1.9384 2.72715-1.2733.52154-2.53395 1.0714-3.79231 1.62489-.18338.08299-.38239.13077-.58553.14064-.20314.00988-.40631-.01804-.59777-.0828-2.19321-.64809-4.39457-1.27422-6.592748-1.90909-.176378-.04312-.34808-.1018-.512837-.17518-.107846-.0394-.201525-.10679-.269931-.19474-.0684059-.08794-.10870098-.19284-.1161578-.30167-.00745682-.10884.0182924-.2174.0741291-.31291.0558367-.09552.1394557-.17379.2410297-.22595.174285-.10173.359119-.1863.551666-.25257 1.111509-.44101 2.211229-.91451 3.343529-1.30907 1.00353-.34939 1.52946-.95984 1.51093-1.976496-.0039-.129185.01135-.25842.04523-.383648.11748-.4116038.38181-.5590445.89871-.4610436.58015.1103576 1.15262.2557016 1.72736.3886416 1.6811.390583 3.3618.782886 5.042 1.177156.9321.21987.9701.27119.9719 1.18132-.0004.06562-.0008.13105-.0008.34537zm-11.73329 1.62531.01622.14355c1.69528.49256 3.38873.99082 5.08898 1.46719.19533.03583.39777.01072.5766-.07157 1.22808-.51131 2.45339-1.03264 3.66879-1.57122.9756-.4329 1.1911-.85225 1.0393-1.96775l-6.04506-1.40019c-.04031.10322-.07498.20843-.10391.31499-.0903.50098-.32399.96914-.67588 1.354s-.80868.67178-1.32087.82971c-.25393.09459-.5033.20027-.75452.30168-.49672.19941-.99323.39934-1.48965.59961z"/><path d="m8.08492 12.0001c-.24038-.0571-.4193-.0916-.59325-.1419-2.22122-.6417-4.44218-1.285-6.662798-1.92985-.109832-.02876-.217646-.06381-.322991-.10486-.4129765-.17385-.5761275-.43759-.4690428-.74608.0271725-.07674.0702898-.14754.1267478-.20847.056457-.06092.125084-.11079.20209-.14647.077006-.03567.160796-.05626.246435-.06116.085639-.00491.171482.00625.252502.03287.177607.03934.353027.0871.525527.14314 2.00388.58332 4.01175 1.15592 6.00931 1.76008.20175.067.41593.0944.62932.0808.21339-.0137.42156-.0678.6119-.1598 1.69253-.74696 3.39693-1.47228 5.10033-2.19663.2041-.09165.4221-.15254.6461-.18059.1271-.01944.2572.00937.3617.08031.1045.07093.175.17808.1958.29793.0218.20345-.0344.40738-.1585.57505-.142.13897-.3177.24331-.512.30417-1.8657.80216-3.7333 1.60076-5.60266 2.39556-.20694.0877-.42386.1493-.58652.2059z"/><path d="m8.07395 9.83884c-.2083-.0507-.36152-.08513-.5156-.12774-2.2429-.64993-4.48518-1.30139-6.72688-1.95444-.175147-.04676-.344566-.11113-.505225-.19183-.127186-.05357-.2277844-.15085-.2812937-.27213-.05350918-.12128-.0558627-.25707-.0065083-.3799.0334965-.12768.117247-.23874.234191-.31042.116943-.07167.258359-.09871.395686-.07573.224821.03045.44637.07952.66198.14689 2.04681.58417 4.09491 1.16426 6.13539 1.76761.18086.05966.37258.08423.5638.07282.19123-.01142.37813-.0587.54957-.1394 1.67174-.73373 3.35444-1.44866 5.03434-2.1679.1833-.08656.3747-.15657.572-.20889.1424-.04479.2973-.03885.4354.01665.1381.05549.2498.15672.3142.28461.0683.12672.0812.27351.0356.40903s-.1458.24898-.2791.31541c-.1527.09348-.3144.17292-.483.23759-1.8239.78515-3.6489 1.56816-5.47489 2.34933-.22456.09587-.46357.16197-.65966.22844z"/><path d="m2.67345 4.7443c.49641-.19884.99345-.39878 1.49107-.59961.25122-.10141.5006-.20709.75453-.30126.51219-.15805.96888-.44479 1.32076-.82971s.58556-.85339.67587-1.35442c.02883-.10645.06351-.21153.10392-.31457l6.0452 1.39977c.1518 1.11593-.0638 1.53399-1.0393 1.96818-1.2154.539-2.43983 1.05861-3.66882 1.57162-.17896.08191-.38126.107-.5766.07157-1.70025-.47637-3.3937-.97546-5.08898-1.4676z"/></g></svg>