<svg width="28" height="26" viewBox="0 0 28 26" fill="none" xmlns="http://www.w3.org/2000/svg">
<path d="M26.975 15.8492L24.4765 13.9804C24.5082 13.6923 24.5354 13.3554 24.5354 12.9989C24.5354 12.6425 24.5094 12.3056 24.4765 12.0174L26.9773 10.1476C27.4416 9.79662 27.5685 9.17368 27.2729 8.6548L24.6747 4.355C24.3972 3.86968 23.789 3.6205 23.1718 3.83825L20.2237 4.97032C19.6586 4.58032 19.0662 4.251 18.4535 3.98775L18.005 0.996684C17.9314 0.429 17.4149 0 16.8045 0H11.5947C10.9842 0 10.4689 0.429 10.3964 0.988L9.94675 3.98993C9.35327 4.24562 8.77002 4.57062 8.17993 4.9725L5.22391 3.83718C4.67003 3.63243 4.00747 3.86207 3.73226 4.34525L1.13077 8.65043C0.823856 9.14662 0.950687 9.79118 1.42525 10.1509L3.9237 12.0196C3.88404 12.3847 3.86482 12.7021 3.86482 13.0001C3.86482 13.298 3.88409 13.6154 3.9237 13.9816L1.42297 15.8514C0.958597 16.2034 0.832881 16.8264 1.12848 17.3442L3.72663 21.6439C4.00413 22.1282 4.60664 22.3795 5.22954 22.1607L8.17765 21.0286C8.74167 21.4176 9.33399 21.7469 9.94675 22.0112L10.3953 25.0012C10.4688 25.571 10.9842 26 11.5958 26H16.8056C17.4161 26 17.9325 25.571 18.005 25.012L18.4546 22.0112C19.0481 21.7544 19.6302 21.4305 20.2214 21.0275L23.1774 22.1628C23.3202 22.2159 23.4685 22.243 23.6214 22.243C24.0609 22.243 24.4652 22.0133 24.6691 21.6558L27.2785 17.3333C27.5685 16.8263 27.4416 16.2034 26.975 15.8492ZM14.1995 17.3333C11.7011 17.3333 9.66925 15.3898 9.66925 13C9.66925 10.6102 11.7011 8.66668 14.1995 8.66668C16.698 8.66668 18.7298 10.6102 18.7298 13C18.7298 15.3898 16.698 17.3333 14.1995 17.3333Z" fill="#B5B5C3"/>
</svg>
