<svg enable-background="new 0 0 289.207 289.207" viewBox="0 0 289.207 289.207" xmlns="http://www.w3.org/2000/svg"><path d="m284.292 43.708c-5.091-3.419-11.99-2.064-15.411 3.028l-30.569 45.519c-3.355-1.676-7.137-2.623-11.143-2.623h-16.658c-3.985 0-7.75.938-11.094 2.598l-30.551-45.493c-3.421-5.094-10.319-6.447-15.411-3.028-5.092 3.42-6.447 10.319-3.028 15.411l35.277 52.53c-.26 2.195-.148 148.04-.148 148.04 0 7.667 6.215 13.882 13.882 13.882s13.882-6.215 13.882-13.882v-62.471h11.106v62.471c0 7.667 6.215 13.882 13.882 13.882s13.882-6.215 13.882-13.882c0-53.649.068-145.573-.204-147.956l35.334-52.614c3.419-5.093 2.064-11.992-3.028-15.412z"/><path d="m218.873 81.873c14.696 0 26.615-11.908 26.615-26.614 0-9.339-4.824-17.553-12.113-22.301 1.443-.963 3.088-1.855 4.998-2.631.909-.369 1.521-1.231 1.567-2.211.047-.98-.481-1.897-1.352-2.35-4.209-2.186-9.338-2.231-14.178-1.303.821-1.538 1.855-3.109 3.183-4.702.628-.754.761-1.804.34-2.689-.421-.886-1.319-1.446-2.3-1.436-9.727.111-18.649 9.972-22.203 15.869-.633 1.05-1.142 2.147-1.524 3.26-5.893 4.882-9.648 12.251-9.648 20.493.001 14.707 11.92 26.615 26.615 26.615z"/><path d="m135.752 43.708c-5.091-3.419-11.99-2.064-15.411 3.028l-7.24 10.782c-2.85-1.338-6.023-1.51-9.055.123-.186.1-.357.215-.534.323l.043-.122c.763-2.17-.378-4.547-2.548-5.31-1.479-.521-3.04-.143-4.134.827-.976-13.8-12.483-24.706-26.539-24.706-14.057 0-25.564 10.906-26.54 24.706-1.096-.97-2.657-1.349-4.134-.827-2.17.763-3.311 3.14-2.548 5.31l.043.122c-.177-.109-.349-.224-.533-.323-3.031-1.633-6.206-1.461-9.056-.124l-7.24-10.781c-3.42-5.094-10.322-6.448-15.411-3.028-5.092 3.42-6.447 10.319-3.028 15.411l12.711 18.927c-.685 3.51-.701 7.087.48 10.327.336.922 1.177 1.565 2.154 1.646.979.081 1.913-.414 2.396-1.267.335-.591.681-1.144 1.032-1.678l16.504 24.575c-.25 2.119-.182.143-.182 35.685l-15.118 61.636c-.705 2.875-.051 5.915 1.777 8.244 1.826 2.33 4.623 3.69 7.584 3.69h5.791v38.784c0 7.667 6.215 13.882 13.882 13.882s13.882-6.215 13.882-13.882v-38.784h11.106v38.784c0 7.667 6.215 13.882 13.882 13.882s13.882-6.215 13.882-13.882v-38.784h5.726c2.961 0 5.758-1.36 7.584-3.69 1.828-2.329 2.482-5.369 1.777-8.244l-15.119-61.642h-.001c0-35.551.064-33.537-.171-35.595l16.561-24.661c.352.534.697 1.087 1.032 1.678.483.854 1.418 1.349 2.396 1.267.979-.081 1.819-.724 2.155-1.646 1.181-3.24 1.164-6.817.479-10.327l12.711-18.927c3.419-5.09 2.064-11.989-3.028-15.409zm-45.979 48.547c-3.355-1.676-7.138-2.623-11.144-2.623h-16.658c-3.985 0-7.75.938-11.093 2.597l-12.056-17.95c.951-.59 1.696-1.252 2.154-2.103.354-.658.633-1.336.839-2.025.783.844 1.885 1.34 3.044 1.34.458 0 .925-.076 1.381-.237.769-.271 1.401-.751 1.873-1.347 4.763 7.21 12.936 11.967 22.221 11.967s17.458-4.757 22.22-11.967c.472.596 1.104 1.076 1.874 1.347.457.161.923.237 1.381.237 1.159 0 2.261-.497 3.044-1.34.206.688.484 1.367.839 2.025.458.85 1.203 1.512 2.154 2.102z"/></svg>