<svg width="24" height="24" viewBox="0 0 24 24" fill="none" xmlns="http://www.w3.org/2000/svg">
<path d="M5 11.0013H16.86L13.23 6.64125C13.0603 6.43704 12.9786 6.17375 13.003 5.90933C13.0274 5.6449 13.1558 5.40099 13.36 5.23125C13.5642 5.06151 13.8275 4.97985 14.0919 5.00423C14.3563 5.02861 14.6003 5.15704 14.77 5.36125L19.77 11.3613C19.8036 11.409 19.8337 11.4591 19.86 11.5113C19.86 11.5613 19.86 11.5913 19.93 11.6413C19.9753 11.7559 19.9991 11.878 20 12.0013C19.9991 12.1245 19.9753 12.2466 19.93 12.3613C19.93 12.4113 19.93 12.4413 19.86 12.4913C19.8337 12.5434 19.8036 12.5935 19.77 12.6413L14.77 18.6413C14.676 18.7541 14.5582 18.8449 14.4252 18.9071C14.2921 18.9694 14.1469 19.0015 14 19.0013C13.7663 19.0017 13.5399 18.9203 13.36 18.7713C13.2587 18.6873 13.175 18.5842 13.1137 18.4679C13.0523 18.3515 13.0145 18.2242 13.0025 18.0932C12.9904 17.9622 13.0043 17.8302 13.0433 17.7046C13.0824 17.579 13.1458 17.4623 13.23 17.3613L16.86 13.0013H5C4.73478 13.0013 4.48043 12.8959 4.29289 12.7084C4.10536 12.5208 4 12.2665 4 12.0013C4 11.736 4.10536 11.4817 4.29289 11.2941C4.48043 11.1066 4.73478 11.0013 5 11.0013Z" fill="#212121" fill-opacity="0.52"/>
</svg>
