<svg width="13" height="16" viewBox="0 0 13 16" fill="none" xmlns="http://www.w3.org/2000/svg">
<g filter="url(#filter0_i)">
<path fill-rule="evenodd" clip-rule="evenodd" d="M0.5 2C0.5 0.895432 1.39543 0 2.5 0H10.0071C11.1117 0 12.0071 0.89543 12.0071 2V13.3428C12.0071 14.4474 11.1117 15.3428 10.0071 15.3428H2.5C1.39543 15.3428 0.5 14.4474 0.5 13.3428V2ZM2.20117 3.40991C2.20117 2.93915 2.58279 2.55753 3.05355 2.55753H9.44637C9.91713 2.55753 10.2987 2.93915 10.2987 3.40991C10.2987 3.88066 9.91713 4.26228 9.44637 4.26228H3.05355C2.58279 4.26228 2.20117 3.88066 2.20117 3.40991ZM3.0547 5.54297C2.58395 5.54297 2.20233 5.92459 2.20233 6.39535C2.20233 6.8661 2.58395 7.24772 3.0547 7.24772H9.44753C9.91828 7.24772 10.2999 6.8661 10.2999 6.39535C10.2999 5.92459 9.91828 5.54297 9.44753 5.54297H3.0547ZM2.20233 9.37528C2.20233 8.90453 2.58395 8.52291 3.0547 8.52291H9.44753C9.91828 8.52291 10.2999 8.90453 10.2999 9.37528C10.2999 9.84604 9.91828 10.2277 9.44753 10.2277H3.0547C2.58395 10.2277 2.20233 9.84604 2.20233 9.37528ZM3.0547 11.5098C2.58395 11.5098 2.20233 11.8914 2.20233 12.3621C2.20233 12.8329 2.58395 13.2145 3.0547 13.2145H6.03802C6.50878 13.2145 6.8904 12.8329 6.8904 12.3621C6.8904 11.8914 6.50878 11.5098 6.03802 11.5098H3.0547Z" fill="#2BB673"/>
</g>
<defs>
<filter id="filter0_i" x="0.5" y="0" width="11.5071" height="16.3428" filterUnits="userSpaceOnUse" color-interpolation-filters="sRGB">
<feFlood flood-opacity="0" result="BackgroundImageFix"/>
<feBlend mode="normal" in="SourceGraphic" in2="BackgroundImageFix" result="shape"/>
<feColorMatrix in="SourceAlpha" type="matrix" values="0 0 0 0 0 0 0 0 0 0 0 0 0 0 0 0 0 0 127 0" result="hardAlpha"/>
<feOffset dy="1"/>
<feGaussianBlur stdDeviation="1"/>
<feComposite in2="hardAlpha" operator="arithmetic" k2="-1" k3="1"/>
<feColorMatrix type="matrix" values="0 0 0 0 0 0 0 0 0 0 0 0 0 0 0 0 0 0 0.25 0"/>
<feBlend mode="normal" in2="shape" result="effect1_innerShadow"/>
</filter>
</defs>
</svg>
