<svg width="24" height="24" viewBox="0 0 24 24" fill="none" xmlns="http://www.w3.org/2000/svg">
<path d="M22.388 16.3189L17.375 14.1699C17.1612 14.0794 16.9239 14.0606 16.6986 14.1163C16.4732 14.172 16.272 14.2992 16.125 14.4789L13.905 17.1909C10.4194 15.5492 7.61392 12.7455 5.97 9.26091L8.682 7.04091C8.86259 6.89394 8.99043 6.69218 9.04618 6.46611C9.10193 6.24005 9.08256 6.00199 8.991 5.78791L6.843 0.774907C6.74255 0.543904 6.56457 0.355235 6.33981 0.241488C6.11506 0.12774 5.85763 0.0960557 5.612 0.151907L0.958003 1.22491C0.720846 1.27952 0.509267 1.41305 0.357927 1.60363C0.206588 1.79421 0.124462 2.03054 0.125003 2.27391C0.12474 5.00127 0.661741 7.70198 1.70534 10.2218C2.74893 12.7416 4.27868 15.0311 6.20722 16.9597C8.13576 18.8882 10.4253 20.418 12.9451 21.4616C15.4649 22.5052 18.1656 23.0422 20.893 23.0419C21.136 23.042 21.3719 22.9597 21.5621 22.8084C21.7522 22.6571 21.8855 22.4457 21.94 22.2089L23.014 17.5539C23.0694 17.3073 23.0371 17.049 22.9227 16.8236C22.8082 16.5982 22.6188 16.4197 22.387 16.3189H22.388Z" fill="#A4ACAE"/>
</svg>
