<svg width="25" height="24" viewBox="0 0 25 24" fill="none" xmlns="http://www.w3.org/2000/svg">
<path d="M19.25 12.9987H7.39L11.02 17.3587C11.1897 17.563 11.2714 17.8262 11.247 18.0907C11.2226 18.3551 11.0942 18.599 10.89 18.7687C10.6858 18.9385 10.4225 19.0201 10.1581 18.9958C9.89365 18.9714 9.64974 18.843 9.48 18.6387L4.48 12.6387C4.44636 12.591 4.41628 12.5409 4.39 12.4887C4.39 12.4387 4.39 12.4087 4.32 12.3587C4.27467 12.2441 4.25094 12.122 4.25 11.9987C4.25094 11.8755 4.27467 11.7534 4.32 11.6387C4.32 11.5887 4.32 11.5587 4.39 11.5087C4.41628 11.4566 4.44636 11.4065 4.48 11.3587L9.48 5.35875C9.57402 5.24587 9.69176 5.15509 9.82485 5.09286C9.95793 5.03064 10.1031 4.99851 10.25 4.99875C10.4837 4.99829 10.7101 5.07967 10.89 5.22875C10.9913 5.3127 11.075 5.4158 11.1363 5.53215C11.1977 5.64849 11.2355 5.7758 11.2475 5.90678C11.2596 6.03775 11.2457 6.16982 11.2067 6.29543C11.1676 6.42103 11.1042 6.5377 11.02 6.63875L7.39 10.9987H19.25C19.5152 10.9987 19.7696 11.1041 19.9571 11.2916C20.1446 11.4792 20.25 11.7335 20.25 11.9987C20.25 12.264 20.1446 12.5183 19.9571 12.7059C19.7696 12.8934 19.5152 12.9987 19.25 12.9987Z" fill="#212121" fill-opacity="0.52"/>
</svg>
