<svg width="58" height="61" viewBox="0 0 58 61" fill="none" xmlns="http://www.w3.org/2000/svg">
<path fill-rule="evenodd" clip-rule="evenodd" d="M57.893 5.52734V75.554H0V5.52734H8.26384V20.146H19.361V5.84408H38.6529V20.1201H49.5773V5.52734H57.893ZM8.17746 54.9664H16.5104V46.1757C13.9794 46.1757 11.5607 46.1353 9.14205 46.2188C8.91962 46.2853 8.71803 46.4079 8.55666 46.5748C8.3953 46.7417 8.27958 46.9474 8.22065 47.1719C8.14291 49.7288 8.17746 52.2943 8.17746 54.9664ZM41.371 55.0787C43.8819 55.0787 46.2343 55.1334 48.5954 55.0211C48.8588 54.9373 49.0963 54.7875 49.2853 54.5859C49.4743 54.3843 49.6085 54.1376 49.6752 53.8694C49.7846 51.6954 49.7731 49.5186 49.6752 47.3562C49.6522 46.9473 49.0561 46.2419 48.6962 46.2361C46.289 46.1353 43.8646 46.1785 41.3624 46.1785C41.371 49.2076 41.371 51.9776 41.371 55.0787ZM8.17171 34.6725C8.17171 37.2639 8.1429 39.7719 8.20913 42.2654C8.20913 42.6311 8.74758 43.2761 9.05567 43.2847C11.5262 43.3625 13.9996 43.3279 16.4989 43.3279V34.6725H8.17171ZM41.3912 34.6322V43.2128H49.5687V34.6322H41.3912ZM19.3495 54.9146H27.4866V46.3052H19.3466L19.3495 54.9146ZM30.4495 46.2966V54.9146H38.4859V46.2995L30.4495 46.2966ZM16.4615 66.5358V58.0445H8.30703V66.5358H16.4615ZM49.6176 58.0387H41.3912V66.4955H49.6176V58.0387ZM27.4463 43.2416V34.7186H19.384V43.2416H27.4463ZM30.4265 43.1984H38.5464V34.684H30.4236L30.4265 43.1984ZM27.4463 66.5214V58.0387H19.384V66.5214H27.4463ZM38.578 58.0387H30.4466V66.4494H38.5751L38.578 58.0387Z" fill="#212121" fill-opacity="0.04"/>
<path fill-rule="evenodd" clip-rule="evenodd" d="M16.3867 0V10.7286H10.5415V0H16.3867Z" fill="#212121" fill-opacity="0.04"/>
<path fill-rule="evenodd" clip-rule="evenodd" d="M47.4402 0V10.7286H41.4194V0H47.4402Z" fill="#212121" fill-opacity="0.04"/>
<path fill-rule="evenodd" clip-rule="evenodd" d="M10.5254 14.5605H16.3878V18.0907H10.5254V14.5605Z" fill="#212121" fill-opacity="0.04"/>
<path fill-rule="evenodd" clip-rule="evenodd" d="M41.416 14.5605H47.4771V18.0734H41.416V14.5605Z" fill="#212121" fill-opacity="0.04"/>
</svg>
