<svg width="48" height="16" viewBox="0 0 48 16" fill="none" xmlns="http://www.w3.org/2000/svg">
<path d="M21.368 12.034C22.7867 12.034 23.496 11.5487 23.496 10.578C23.496 10.2793 23.4307 10.0273 23.3 9.822C23.1787 9.60733 23.0107 9.42533 22.796 9.276C22.5814 9.11733 22.334 8.982 22.054 8.87C21.7834 8.758 21.494 8.646 21.186 8.534C20.8314 8.41267 20.4954 8.27733 20.178 8.128C19.8607 7.96933 19.5854 7.78733 19.352 7.582C19.1187 7.36733 18.932 7.11533 18.792 6.826C18.6614 6.53667 18.596 6.18667 18.596 5.776C18.596 4.92667 18.8854 4.264 19.464 3.788C20.0427 3.312 20.8407 3.074 21.858 3.074C22.446 3.074 22.978 3.13933 23.454 3.27C23.9394 3.39133 24.294 3.52667 24.518 3.676L24.084 4.782C23.888 4.66067 23.594 4.544 23.202 4.432C22.8194 4.31067 22.3714 4.25 21.858 4.25C21.5967 4.25 21.354 4.278 21.13 4.334C20.906 4.39 20.71 4.474 20.542 4.586C20.374 4.698 20.2387 4.84267 20.136 5.02C20.0427 5.188 19.996 5.38867 19.996 5.622C19.996 5.88333 20.0474 6.10267 20.15 6.28C20.2527 6.45733 20.3974 6.616 20.584 6.756C20.7707 6.88667 20.9854 7.008 21.228 7.12C21.48 7.232 21.7554 7.344 22.054 7.456C22.474 7.624 22.8567 7.792 23.202 7.96C23.5567 8.128 23.86 8.32867 24.112 8.562C24.3734 8.79533 24.574 9.07533 24.714 9.402C24.854 9.71933 24.924 10.1067 24.924 10.564C24.924 11.4133 24.6114 12.0667 23.986 12.524C23.37 12.9813 22.4974 13.21 21.368 13.21C20.9854 13.21 20.6307 13.182 20.304 13.126C19.9867 13.0793 19.702 13.0233 19.45 12.958C19.198 12.8833 18.9787 12.8087 18.792 12.734C18.6147 12.65 18.4747 12.58 18.372 12.524L18.778 11.404C18.9927 11.5253 19.3194 11.6607 19.758 11.81C20.1967 11.9593 20.7334 12.034 21.368 12.034ZM28.9452 12.062C29.2532 12.062 29.5239 12.0573 29.7572 12.048C29.9999 12.0293 30.2005 12.0013 30.3592 11.964V9.794C30.2659 9.74733 30.1119 9.71 29.8972 9.682C29.6919 9.64467 29.4399 9.626 29.1412 9.626C28.9452 9.626 28.7352 9.64 28.5112 9.668C28.2965 9.696 28.0959 9.75667 27.9092 9.85C27.7319 9.934 27.5825 10.0553 27.4612 10.214C27.3399 10.3633 27.2792 10.564 27.2792 10.816C27.2792 11.2827 27.4285 11.6093 27.7272 11.796C28.0259 11.9733 28.4319 12.062 28.9452 12.062ZM28.8332 5.538C29.3559 5.538 29.7945 5.608 30.1492 5.748C30.5132 5.87867 30.8025 6.07 31.0172 6.322C31.2412 6.56467 31.3999 6.85867 31.4932 7.204C31.5865 7.54 31.6332 7.91333 31.6332 8.324V12.874C31.5212 12.8927 31.3625 12.9207 31.1572 12.958C30.9612 12.986 30.7372 13.014 30.4852 13.042C30.2332 13.07 29.9579 13.0933 29.6592 13.112C29.3699 13.14 29.0805 13.154 28.7912 13.154C28.3805 13.154 28.0025 13.112 27.6572 13.028C27.3119 12.944 27.0132 12.8133 26.7612 12.636C26.5092 12.4493 26.3132 12.2067 26.1732 11.908C26.0332 11.6093 25.9632 11.25 25.9632 10.83C25.9632 10.4287 26.0425 10.0833 26.2012 9.794C26.3692 9.50467 26.5932 9.27133 26.8732 9.094C27.1532 8.91667 27.4799 8.786 27.8532 8.702C28.2265 8.618 28.6185 8.576 29.0292 8.576C29.1599 8.576 29.2952 8.58533 29.4352 8.604C29.5752 8.61333 29.7059 8.632 29.8272 8.66C29.9579 8.67867 30.0699 8.69733 30.1632 8.716C30.2565 8.73467 30.3219 8.74867 30.3592 8.758V8.394C30.3592 8.17933 30.3359 7.96933 30.2892 7.764C30.2425 7.54933 30.1585 7.36267 30.0372 7.204C29.9159 7.036 29.7479 6.90533 29.5332 6.812C29.3279 6.70933 29.0572 6.658 28.7212 6.658C28.2919 6.658 27.9139 6.69067 27.5872 6.756C27.2699 6.812 27.0319 6.87267 26.8732 6.938L26.7192 5.86C26.8872 5.78533 27.1672 5.71533 27.5592 5.65C27.9512 5.57533 28.3759 5.538 28.8332 5.538ZM39.2746 5.72C38.9106 7.08267 38.4812 8.38933 37.9866 9.64C37.5012 10.8907 37.0299 12.0107 36.5726 13H35.3966C34.9392 12.0107 34.4632 10.8907 33.9686 9.64C33.4832 8.38933 33.0586 7.08267 32.6946 5.72H34.0946C34.2066 6.17733 34.3372 6.66733 34.4866 7.19C34.6452 7.70333 34.8086 8.21667 34.9766 8.73C35.1539 9.234 35.3312 9.724 35.5086 10.2C35.6859 10.676 35.8539 11.1007 36.0126 11.474C36.1712 11.1007 36.3392 10.676 36.5166 10.2C36.6939 9.724 36.8666 9.234 37.0346 8.73C37.2119 8.21667 37.3752 7.70333 37.5246 7.19C37.6832 6.66733 37.8186 6.17733 37.9306 5.72H39.2746ZM40.0205 9.374C40.0205 8.73 40.1139 8.17 40.3005 7.694C40.4872 7.20867 40.7345 6.80733 41.0425 6.49C41.3505 6.17267 41.7052 5.93467 42.1065 5.776C42.5079 5.61733 42.9185 5.538 43.3385 5.538C44.3185 5.538 45.0699 5.846 45.5925 6.462C46.1152 7.06867 46.3765 7.99733 46.3765 9.248C46.3765 9.304 46.3765 9.37867 46.3765 9.472C46.3765 9.556 46.3719 9.63533 46.3625 9.71H41.3785C41.4345 10.466 41.6539 11.04 42.0365 11.432C42.4192 11.824 43.0165 12.02 43.8285 12.02C44.2859 12.02 44.6685 11.9827 44.9765 11.908C45.2939 11.824 45.5319 11.7447 45.6905 11.67L45.8725 12.762C45.7139 12.846 45.4339 12.9347 45.0325 13.028C44.6405 13.1213 44.1925 13.168 43.6885 13.168C43.0539 13.168 42.5032 13.0747 42.0365 12.888C41.5792 12.692 41.2012 12.426 40.9025 12.09C40.6039 11.754 40.3799 11.3573 40.2305 10.9C40.0905 10.4333 40.0205 9.92467 40.0205 9.374ZM45.0185 8.66C45.0279 8.072 44.8785 7.59133 44.5705 7.218C44.2719 6.83533 43.8565 6.644 43.3245 6.644C43.0259 6.644 42.7599 6.70467 42.5265 6.826C42.3025 6.938 42.1112 7.08733 41.9525 7.274C41.7939 7.46067 41.6679 7.67533 41.5745 7.918C41.4905 8.16067 41.4345 8.408 41.4065 8.66H45.0185Z" fill="#B5B5B5"/>
<path d="M10.775 3.83222L13.189 6.24622C13.2377 6.29529 13.265 6.36161 13.265 6.43072C13.265 6.49984 13.2377 6.56615 13.189 6.61522L7.344 12.4602L4.86 12.7362C4.7824 12.7448 4.70387 12.7358 4.63022 12.7099C4.55656 12.6841 4.48966 12.642 4.43445 12.5868C4.37925 12.5316 4.33716 12.4647 4.31129 12.391C4.28542 12.3173 4.27644 12.2388 4.285 12.1612L4.56 9.67722L10.405 3.83222C10.4541 3.78325 10.5206 3.75574 10.59 3.75574C10.6594 3.75574 10.7259 3.78325 10.775 3.83222ZM15.111 3.21922L13.8 1.91322C13.6038 1.71799 13.3383 1.6084 13.0615 1.6084C12.7847 1.6084 12.5192 1.71799 12.323 1.91322L11.376 2.86022C11.3273 2.90929 11.3 2.97561 11.3 3.04472C11.3 3.11384 11.3273 3.18015 11.376 3.22922L13.79 5.64322C13.8391 5.69189 13.9054 5.7192 13.9745 5.7192C14.0436 5.7192 14.1099 5.69189 14.159 5.64322L15.11 4.70122C15.3052 4.50502 15.4148 4.2395 15.4148 3.96272C15.4148 3.68594 15.3052 3.42042 15.11 3.22422L15.111 3.21922ZM10.277 10.8712V13.5952H1.713V5.03122H7.863C7.94797 5.03038 8.02931 4.99669 8.09 4.93722L9.16 3.86722C9.20525 3.82238 9.23613 3.7651 9.24871 3.70265C9.2613 3.64021 9.25503 3.57543 9.23069 3.51656C9.20635 3.4577 9.16504 3.4074 9.11203 3.37208C9.05902 3.33676 8.9967 3.31801 8.933 3.31822H1.285C0.944543 3.31822 0.618001 3.45333 0.377074 3.69388C0.136147 3.93443 0.000529894 4.26076 0 4.60122L0 14.0212C0 14.362 0.135384 14.6889 0.376368 14.9299C0.617352 15.1708 0.944197 15.3062 1.285 15.3062H10.7C11.0408 15.3062 11.3676 15.1708 11.6086 14.9299C11.8496 14.6889 11.985 14.362 11.985 14.0212V9.80122C11.9847 9.73773 11.9657 9.67575 11.9303 9.62305C11.8949 9.57035 11.8447 9.52929 11.786 9.50503C11.7274 9.48077 11.6628 9.47439 11.6006 9.48671C11.5383 9.49902 11.481 9.52947 11.436 9.57422L10.366 10.6442C10.3084 10.7057 10.2765 10.7869 10.277 10.8712Z" fill="#B5B5B5"/>
</svg>
