<svg fill="none" height="24" viewBox="0 0 24 24" width="24" xmlns="http://www.w3.org/2000/svg"><path d="m20.71 19.29-3.4-3.39c1.097-1.3975 1.6922-3.1233 1.69-4.9 0-1.58225-.4692-3.12897-1.3482-4.44456-.8791-1.31559-2.1285-2.34097-3.5903-2.94647s-3.0704-.76393-4.62222-.45525c-1.55185.30868-2.97731 1.07061-4.09613 2.18943s-1.88075 2.54428-2.18943 4.09613c-.30868 1.55182-.15025 3.16042.45525 4.62222s1.63088 2.7112 2.94647 3.5903c1.31559.879 2.86231 1.3482 4.44456 1.3482 1.7767.0022 3.5025-.593 4.9-1.69l3.39 3.4c.093.0937.2036.1681.3254.2189.1219.0508.2526.0769.3846.0769s.2627-.0261.3846-.0769c.1218-.0508.2324-.1252.3254-.2189.0937-.093.1681-.2036.2189-.3254.0508-.1219.0769-.2526.0769-.3846s-.0261-.2627-.0769-.3846c-.0508-.1218-.1252-.2324-.2189-.3254zm-15.71-8.29c0-1.18668.3519-2.34672 1.01119-3.33342.65928-.98669 1.59636-1.75573 2.69271-2.20985 1.09636-.45413 2.3028-.57295 3.4666-.34144 1.1639.23151 2.233.80296 3.0721 1.64207.8392.83912 1.4106 1.90822 1.6421 3.0721.2315 1.16384.1127 2.37024-.3414 3.46664s-1.2232 2.0334-2.2099 2.6927-2.1467 1.0112-3.3334 1.0112c-1.5913 0-3.11742-.6321-4.24264-1.7574-1.12522-1.1252-1.75736-2.6513-1.75736-4.2426z" fill="#2bb673"/></svg>