<svg fill="none" height="18" viewBox="0 0 16 18" width="16" xmlns="http://www.w3.org/2000/svg"><path d="m9.99972 8.99878v7.87892c.03998.3-.05999.6199-.28996.8299-.0925.0927-.20237.1662-.32333.2164s-.25062.076-.38157.076-.26062-.0258-.38157-.076c-.12096-.0502-.23083-.1237-.32333-.2164l-2.00972-2.0097c-.10905-.1066-.19197-.237-.24227-.381-.0503-.1439-.06663-.2976-.04769-.4489v-5.86922h-.03l-5.759202-7.379c-.1623689-.20844-.2356332-.47268-.20378346-.73497.03184976-.262293.16622446-.501316.37376046-.66484.189974-.1399808.399944-.21997.619915-.21997h13.99803c.22 0 .43.0799892.6199.21997.2076.163524.342.402547.3738.66484.0319.26229-.0414.52653-.2038.73497l-5.7592 7.379z" fill="#212121" fill-opacity=".52"/></svg>