<svg fill="none" height="17" viewBox="0 0 13 17" width="13" xmlns="http://www.w3.org/2000/svg"><path d="m10.087 5.93117v-1.818c-.0157-.94294-.40131-1.84194-1.07369-2.5032-.67239-.66127-1.5777-1.031845-2.52077-1.031845s-1.84837.370575-2.52076 1.031845c-.67239.66126-1.05801 1.56026-1.07374 2.5032v1.822c-.8011.14553-1.52582.56735-2.048019 1.19205s-.8088208 1.41274-.8099819 2.22695v4.65103c.0026423.639.2581499 1.251.7106779 1.7022.452533.4513 1.065283.705 1.704323.7058h8.07796c.6403-.0008 1.2541-.2555 1.7068-.7082.4528-.4528.7075-1.0666.7082-1.7068v-4.64803c-.0012-.81465-.2883-1.60302-.8111-2.22778-.5228-.62477-1.2482-1.04632-2.0499-1.19122zm-5.88396-1.818c0-.60708.24116-1.1893.67043-1.61857s1.01149-.67043 1.61857-.67043 1.1893.24116 1.61857.67043.67043 1.01149.67043 1.61857v1.6h-4.578z" fill="#2bb673"/></svg>