<svg fill="none" height="18" viewBox="0 0 17 18" width="17" xmlns="http://www.w3.org/2000/svg"><g fill="#2bb673"><path d="m15.7462 5.30312c-.0803-1.06674-.5509-2.06645-1.3219-2.808-.887-1.053-2.846-1.500003-6.42403-1.500003-3.578 0-5.53701.442003-6.42401 1.500003-.771765.74296-1.242139 1.74464-1.320988 2.813-.3397117 2.45329-.3397117 4.94168 0 7.39498.080133 1.0668.550784 2.0666 1.321958 2.808.64403.6503 1.48714 1.0664 2.39502 1.182.15329.0658.31533.1089.48102.128.235.025.47099.035.70599.055.94438.0933 1.89303.1364 2.84198.129.94025.007 1.88025-.0354 2.81606-.127.245-.02.4889-.032.7339-.057.1696-.0198.3353-.0643.492-.132.9033-.1163 1.7418-.5313 2.3821-1.179.771-.7415 1.2417-1.7412 1.322-2.808.3391-2.4533.3391-4.94165 0-7.39498zm-1.617 6.62298c-.0659.8288-.4255 1.6068-1.0139 2.194-.1487-.814-.363-1.6146-.641-2.394-.0792-.3349-.2557-.6388-.5074-.8735-.2516-.2348-.5671-.3898-.9066-.4455-2.02029-.3261-4.07981-.3261-6.10007 0-.34053.0561-.6567.2121-.90845.4482-.25175.236-.42766.5416-.50549.8778-.4 1.7-.60001 1.706-.65601 2.392-.59225-.5876-.9539-1.3683-1.01904-2.2-.26841-1.94108-.26841-3.90988 0-5.85098.06373-.84376.43613-1.63446 1.04602-2.221.7-.834 2.25197-1.183 5.08197-1.183 2.82997 0 4.38007.35 5.08207 1.183.61.58685.9824 1.37791 1.046 2.222.2684 1.9411.2684 3.9099 0 5.85098z"/><path d="m8.00026 4.27539c-.50067-.0002-.99019.1481-1.40656.42614-.41637.27803-.74093.67331-.93262 1.13583s-.24185.9715-.14422 1.46256c.09762.49106.33866.94213.69269 1.29616.35402.35402.80514.5951 1.2962.69273.49106.09762 1 .04742 1.46252-.14427s.85783-.51625 1.13583-.93263c.2781-.41637.4264-.90585.4262-1.40652-.0003-.67092-.2669-1.31428-.74135-1.78869-.47441-.4744-1.11778-.74104-1.78869-.74131z"/></g></svg>