<svg width="22" height="27" viewBox="0 0 22 27" fill="none" xmlns="http://www.w3.org/2000/svg">
<path d="M11.116 25.2564C9.19363 25.2562 7.3145 24.686 5.71621 23.6179C4.11792 22.5498 2.87224 21.0317 2.13668 19.2556C1.40112 17.4796 1.20871 15.5253 1.58379 13.6399C1.95887 11.7545 2.88459 10.0226 4.2439 8.66333C5.60321 7.30403 7.33505 6.37831 9.22045 6.00323C11.1059 5.62815 13.0601 5.82055 14.8362 6.55611C16.6123 7.29167 18.1303 8.53735 19.1984 10.1356C20.2666 11.7339 20.8368 13.6131 20.837 15.5354C20.8343 18.1128 19.8093 20.5838 17.9868 22.4063C16.1644 24.2287 13.6933 25.2538 11.116 25.2564ZM11.444 8.39041C11.1371 8.39068 10.8429 8.51263 10.6258 8.72952C10.4087 8.94641 10.2865 9.24054 10.286 9.54741V15.6674C10.2869 15.8551 10.362 16.0349 10.495 16.1674L13.732 19.3904C13.8397 19.4976 13.9674 19.5826 14.1079 19.6405C14.2485 19.6983 14.399 19.7279 14.551 19.7276C14.7029 19.7273 14.8533 19.697 14.9936 19.6386C15.1339 19.5801 15.2613 19.4946 15.3685 19.3869C15.4757 19.2792 15.5607 19.1515 15.6185 19.011C15.6764 18.8704 15.706 18.7199 15.7057 18.5679C15.7053 18.416 15.6751 18.2656 15.6166 18.1253C15.5582 17.985 15.4727 17.8576 15.365 17.7504L12.596 14.9994V9.54741C12.5957 9.2415 12.4744 8.94812 12.2586 8.73134C12.0427 8.51456 11.7499 8.392 11.444 8.39041Z" fill="#FF8585"/>
<path d="M12.648 4.71209V2.69309H13.57C13.847 2.6726 14.1059 2.54813 14.2949 2.34466C14.4838 2.14119 14.5888 1.87378 14.5888 1.59609C14.5888 1.31841 14.4838 1.051 14.2949 0.84753C14.1059 0.64406 13.847 0.519588 13.57 0.499094H8.34703C8.19615 0.487928 8.04459 0.508007 7.90182 0.558075C7.75905 0.608144 7.62814 0.687126 7.51728 0.790084C7.40642 0.893042 7.31799 1.01776 7.25753 1.15645C7.19706 1.29513 7.16585 1.4448 7.16585 1.59609C7.16585 1.74739 7.19706 1.89706 7.25753 2.03574C7.31799 2.17443 7.40642 2.29915 7.51728 2.4021C7.62814 2.50506 7.75905 2.58404 7.90182 2.63411C8.04459 2.68418 8.19615 2.70426 8.34703 2.69309H9.26903V4.71209C6.54219 5.13757 4.07627 6.57621 2.36394 8.74061C0.651613 10.905 -0.18104 13.6358 0.0323344 16.3874C0.245709 19.1389 1.4894 21.7087 3.51493 23.5832C5.54047 25.4578 8.19869 26.4991 10.9585 26.4991C13.7184 26.4991 16.3766 25.4578 18.4021 23.5832C20.4277 21.7087 21.6714 19.1389 21.8847 16.3874C22.0981 13.6358 21.2654 10.905 19.5531 8.74061C17.8408 6.57621 15.3749 5.13757 12.648 4.71209ZM10.958 24.3051C9.22467 24.3051 7.53025 23.7911 6.08901 22.8281C4.64778 21.8651 3.52448 20.4963 2.86115 18.8949C2.19783 17.2935 2.02427 15.5314 2.36243 13.8313C2.70059 12.1313 3.53528 10.5697 4.76095 9.34401C5.98661 8.11834 7.54821 7.28365 9.24826 6.94549C10.9483 6.60733 12.7105 6.78089 14.3119 7.44421C15.9133 8.10754 17.282 9.23084 18.245 10.6721C19.208 12.1133 19.722 13.8077 19.722 15.5411C19.7194 17.8645 18.7953 20.0919 17.1525 21.7349C15.5098 23.3779 13.2824 24.3022 10.959 24.3051H10.958Z" fill="#FF8585"/>
</svg>
