<svg fill="none" height="20" viewBox="0 0 20 20" width="20" xmlns="http://www.w3.org/2000/svg"><path d="m9.9915 1.66699c-4.6 0-8.325 3.73334-8.325 8.33331 0 4.6 3.725 8.3334 8.325 8.3334 4.6083 0 8.3417-3.7334 8.3417-8.3334 0-4.59997-3.7334-8.33331-8.3417-8.33331zm3.3417 11.66671c-.0771.0772-.1687.1385-.2695.1803s-.2089.0634-.318.0634c-.1092 0-.2172-.0216-.318-.0634-.1009-.0418-.1924-.1031-.2695-.1803l-2.7417-2.7417c-.07874-.0772-.14138-.1692-.18429-.2708-.04292-.1015-.06525-.2106-.06571-.3209v-3.33331c0-.45833.375-.83333.83334-.83333.45836 0 .83336.375.83336.83333v2.99167l2.5 2.50004c.325.325.325.85 0 1.175z" fill="#b8b8b8"/></svg>