<svg viewBox="0 0 60 60" xmlns="http://www.w3.org/2000/svg"><g stroke-linecap="round" stroke-linejoin="round"><path d="m6.6826 4.6879c-1.1054 0-1.9953.8962-1.9953 2.0095v46.606c0 1.113.8899 2.009 1.9953 2.009h46.634c1.106 0 1.996-.896 1.996-2.009v-46.606c0-1.1129-.89-2.0091-1.996-2.0091h-46.634z" fill="none" stroke="#fff" stroke-width="8.125"/><path d="m6.6826 4.6879c-1.1054 0-1.9953.8962-1.9953 2.0095v46.606c0 1.113.8899 2.009 1.9953 2.009h46.634c1.106 0 1.996-.896 1.996-2.009v-46.606c0-1.1129-.89-2.0091-1.996-2.0091h-46.634z" fill="none" stroke="#fff" stroke-width="8.125"/><path d="m6.6826 4.6879c-1.1054 0-1.9953.8962-1.9953 2.0095v46.606c0 1.113.8899 2.009 1.9953 2.009h46.634c1.106 0 1.996-.896 1.996-2.009v-46.606c0-1.1129-.89-2.0091-1.996-2.0091h-46.634z" fill="#fff" fill-rule="evenodd" stroke="#000" stroke-width="3.125"/></g><path d="m25.217 34.675v-5.594c0-.883.333-1.486 1-1.81.684-.325 1.846-.703 3.486-1.135 1.387-.379 2.468-.901 3.242-1.568.793-.666 1.189-1.729 1.189-3.188 0-1.207-.459-2.216-1.378-3.027-.918-.81-1.99-1.216-3.215-1.216-1.027 0-1.919.252-2.676.757-.756.504-1.531 1.216-2.324 2.135-.792.918-1.45 1.585-1.972 1.999-.523.415-1.171.622-1.946.622-1.009 0-1.828-.36-2.459-1.081-.612-.739-.919-1.72-.919-2.945 0-1.388.397-2.667 1.189-3.838.793-1.189 1.802-2.161 3.027-2.918 1.243-.775 2.585-1.369 4.026-1.784 1.459-.432 2.811-.6481 4.054-.6481 2.414 0 4.62.4774 6.62 1.4321 2 .955 3.594 2.351 4.783 4.189 1.207 1.819 1.811 3.927 1.811 6.323 0 1.999-.397 3.765-1.189 5.296-.775 1.532-1.874 2.793-3.297 3.783-1.405.973-3.099 1.712-5.08 2.216v2c0 1.153-.379 2.09-1.135 2.81-.739.703-1.685 1.054-2.838 1.054-1.207 0-2.179-.351-2.918-1.054-.721-.72-1.081-1.657-1.081-2.81zm3.999 15.889c-1.189 0-2.206-.432-3.053-1.297s-1.27-1.892-1.27-3.081c0-1.188.423-2.206 1.27-3.053s1.864-1.27 3.053-1.27c1.207 0 2.225.423 3.054 1.27s1.243 1.865 1.243 3.053c0 1.189-.414 2.216-1.243 3.081s-1.847 1.297-3.054 1.297z" stroke-width=".40656"/></svg>