<svg fill="none" height="100" viewBox="0 0 100 100" width="100" xmlns="http://www.w3.org/2000/svg" xmlns:xlink="http://www.w3.org/1999/xlink"><linearGradient id="a" gradientUnits="userSpaceOnUse" x1="-44.7507" x2="50.513" y1="50.513" y2="145.777"><stop offset="0" stop-color="#3a42e1"/><stop offset="1" stop-color="#620c90"/></linearGradient><path d="m0 0h100v100h-100z" fill="url(#a)"/><g fill="#fff"><path d="m47.704 89c-.1173-.384-.2507-.7787-.4-1.184-.1387-.4053-.2773-.8107-.416-1.216h-4.32c-.1387.4053-.2827.8107-.432 1.216-.1387.4053-.2667.8-.384 1.184h-2.592c.416-1.1947.8107-2.2987 1.184-3.312s.736-1.968 1.088-2.864c.3627-.896.7147-1.744 1.056-2.544.352-.8107.7147-1.6 1.088-2.368h2.384c.3627.768.72 1.5573 1.072 2.368.352.8.704 1.648 1.056 2.544.3627.896.7307 1.8507 1.104 2.864s.768 2.1173 1.184 3.312zm-2.992-8.576c-.0533.16-.1333.3787-.24.656s-.2293.5973-.368.96-.2933.7627-.464 1.2c-.16.4373-.3253.896-.496 1.376h3.152c-.1707-.48-.336-.9387-.496-1.376s-.3147-.8373-.464-1.2c-.1387-.3627-.2613-.6827-.368-.96s-.192-.496-.256-.656zm11.849 8.8c-1.8027 0-3.1787-.5013-4.128-1.504-.9387-1.0027-1.408-2.4267-1.408-4.272 0-.9173.144-1.7333.432-2.448.288-.7253.6827-1.3333 1.184-1.824.5013-.5013 1.0987-.88 1.792-1.136s1.4453-.384 2.256-.384c.4693 0 .896.0373 1.28.112.384.064.72.144 1.008.24.288.0853.528.176.72.272s.3307.1707.416.224l-.72 2.016c-.3413-.1813-.7413-.336-1.2-.464-.448-.128-.96-.192-1.536-.192-.384 0-.7627.064-1.136.192-.3627.128-.688.336-.976.624-.2773.2773-.5013.64-.672 1.088s-.256.992-.256 1.632c0 .512.0533.992.16 1.44.1173.4373.2987.816.544 1.136.256.32.5867.576.992.768.4053.1813.896.272 1.472.272.3627 0 .688-.0213.976-.064s.544-.0907.768-.144c.224-.064.4213-.1333.592-.208s.3253-.144.464-.208l.688 2c-.352.2133-.848.4053-1.488.576s-1.3813.256-2.224.256z"/><path d="m34.2119 54.5195 5.1797-5.1798c-1.7066-2.044-2.8192-4.5997-3.0712-7.4001h-7.3192c.2689 4.6852 2.0879 9.0768 5.2107 12.5799z" fill-opacity=".8"/><path d="m49.728 61.4922c5.5463 0 10.7606-2.1599 14.6825-6.0818 3.9218-3.9218 6.0817-9.1361 6.0817-14.6824s-2.1599-10.7607-6.0817-14.6825c-3.6336-3.6336-8.3771-5.7533-13.4659-6.0454v7.3192c6.8562.6171 12.2477 6.3947 12.2477 13.4087 0 7.4242-6.0401 13.4643-13.4643 13.4643-3.275 0-6.2802-1.1759-8.6168-3.1269l-5.1798 5.1797c3.8049 3.3918 8.6579 5.2471 13.7966 5.2471z" fill-opacity=".8"/><path d="m36.3197 39.5117c.581-6.4553 5.7368-11.611 12.192-12.192v-7.3192c-5.0888.292-9.8321 2.4118-13.4659 6.0454-3.6335 3.6336-5.7533 8.377-6.0453 13.4658z" fill-opacity=".8"/><path d="m46.8194 34.8008c.7759 0 1.3637.194 1.7634.5819.2352.2234.4174.5349.5467.9346s.194.964.194 1.6929v1.1462h5.784v1.9398h-5.784v4.0206c0 .3291.047.576.141.7406.0941.1528.3057.2292.6349.2292.3527 0 .6995-.0764 1.0404-.2292s.6172-.3527.8288-.5996c.2234-.2469.335-.5114.335-.7935 0-.1058-.047-.2057-.141-.2998-.0941-.094-.2763-.1411-.5467-.1411-.2116 0-.3997.0177-.5643.0529l-.2821-1.7986c.4232-.1058.9346-.1587 1.5341-.1587.6937 0 1.2521.1587 1.6753.4761s.6348.8111.6348 1.4812c0 .6349-.1469 1.1992-.4408 1.6929-.2939.4938-.6819.9052-1.1639 1.2344s-1.011.5819-1.5871.7583c-.5643.1646-1.1168.2469-1.6576.2469-.4937 0-.9111-.0588-1.252-.1764-.3292-.1175-.5937-.2704-.7935-.4585-.1294-.1293-.2528-.2762-.3704-.4408-.1058-.1646-.1939-.3939-.2645-.6878-.0587-.2939-.0881-.6877-.0881-1.1814v-3.9677h-1.4813v-1.9398h1.4813v-1.058c0-.4468-.0588-.7818-.1764-1.0052-.1175-.2233-.3879-.335-.8111-.335-.3175 0-.6525.0705-1.0052.2116l-.6701-1.6929c.4585-.1646.87-.2821 1.2344-.3527.3644-.0823.7818-.1234 1.252-.1234z" fill-opacity=".8"/></g></svg>