<svg fill="none" height="100" viewBox="0 0 100 100" width="100" xmlns="http://www.w3.org/2000/svg" xmlns:xlink="http://www.w3.org/1999/xlink"><linearGradient id="a" gradientUnits="userSpaceOnUse" x1="-45.6783" x2="51.4406" y1="51.4406" y2="148.559"><stop offset="0" stop-color="#7eaeff"/><stop offset="1" stop-color="#fca6e9"/></linearGradient><path d="m0 0h100v100h-100z" fill="url(#a)"/><g fill="#fff"><path d="m38.6492 53.2453v3.3056c0 .1429.0568.2801.1578.3811.1011.1011.2383.1579.3812.1579.143 0 .2801-.0568.3812-.1579.1011-.101.1579-.2382.1579-.3811v-3.3056h.4565c1.6482-.0019 3.2283-.6575 4.3938-1.823 1.1654-1.1654 1.821-2.7456 1.8228-4.3938v-.5222h-.4928c-1.5326.0019-3.0106.5691-4.1509 1.593-1.1404 1.0239-1.863 2.4325-2.0294 3.9561v-5.2134h.4565c1.6482-.0019 3.2283-.6575 4.3938-1.8229 1.1654-1.1655 1.821-2.7456 1.8228-4.3938v-.5223h-.4928c-1.5326.002-3.0106.5692-4.1509 1.5931-1.1404 1.0239-1.863 2.4325-2.0294 3.956v-5.2131h.4565c1.6482-.0018 3.2283-.6574 4.3938-1.8228 1.1654-1.1655 1.821-2.7456 1.8228-4.3938v-.5223h-.4928c-1.5326.002-3.0106.5692-4.1509 1.5931-1.1404 1.0239-1.863 2.4325-2.0294 3.956v-5.2133h.4565c1.6482-.0018 3.2283-.6574 4.3938-1.8229 1.1654-1.1654 1.821-2.7456 1.8228-4.3938v-.5222h-.4928c-1.5326.002-3.0106.5692-4.1509 1.5931-1.1404 1.0239-1.863 2.4325-2.0294 3.956v-3.1051c1.1012-1.1776 1.7016-2.7371 1.6744-4.3491s-.6799-3.1504-1.8201-4.2901l-.3693-.3694-.3485.3485c-1.126 1.1287-1.7759 2.6464-1.8159 4.2402-.0399 1.5938.5332 3.1421 1.6013 4.3258v2.7418c-.2644-1.4285-1.0201-2.7196-2.1363-3.6495-1.1161-.9299-2.5223-1.4401-3.9751-1.4422h-.4929v.5222c.0019 1.6482.6574 3.2284 1.8229 4.3939 1.1655 1.1654 2.7456 1.821 4.3939 1.8228h.3875v4.7561c-.2643-1.4286-1.02-2.7197-2.1362-3.6496-1.1161-.93-2.5224-1.4403-3.9752-1.4424h-.4929v.5223c.0019 1.6482.6575 3.2283 1.8229 4.3938 1.1655 1.1654 2.7457 1.821 4.3939 1.8228h.3875v4.7563c-.2643-1.4286-1.02-2.7197-2.1362-3.6497-1.1161-.93-2.5224-1.4402-3.9752-1.4423h-.4929v.5222c.0019 1.6482.6575 3.2283 1.823 4.3937 1.1655 1.1655 2.7456 1.821 4.3938 1.8229h.3875v4.7563c-.2643-1.4286-1.02-2.7197-2.1361-3.6497-1.1162-.93-2.5225-1.4402-3.9753-1.4423h-.4929v.5222c.0019 1.6482.6575 3.2284 1.8229 4.3938 1.1655 1.1655 2.7457 1.8211 4.3939 1.823z" fill-opacity=".8"/><path d="m62.7426 37.4042c-1.2191.612-2.2009 1.6108-2.7919 2.8401l.9267-2.8188c1.406-.7789 2.4554-2.0722 2.9281-3.6084s.3318-3.1958-.3931-4.6303l-.2355-.4661-.4402.2222c-1.428.7212-2.5229 1.9652-3.0569 3.4732-.5341 1.508-.4662 3.1638.1895 4.623l-.8844 2.6902c.224-1.455-.0749-2.9423-.8437-4.1978-.7687-1.2554-1.9576-2.1977-3.3554-2.6596l-.4682-.1539-.1631.4961c-.513 1.5664-.3837 3.2723.3595 4.7434.7431 1.4712 2.0395 2.5875 3.6047 3.1041l.3863.127-1.5161 4.613c.2232-1.454-.0766-2.9401-.8462-4.1938-.7695-1.2537-1.9588-2.1938-3.3563-2.6531l-.4682-.1539-.1631.4961c-.513 1.5664-.3838 3.2723.3594 4.7434.7432 1.4712 2.0395 2.5875 3.6047 3.104l.3864.1271-1.5165 4.6126c.2232-1.454-.0766-2.9401-.8461-4.1938s-1.9588-2.1939-3.3564-2.6531l-.4682-.1539-.1631.4962c-.513 1.5663-.3837 3.2722.3595 4.7433.7431 1.4712 2.0395 2.5874 3.6047 3.104l.3863.127-1.5166 4.6131c.2231-1.4539-.0767-2.9398-.8462-4.1934-.7694-1.2537-1.9585-2.1937-3.3559-2.653l-.4682-.1539-.1631.4961c-.513 1.5663-.3837 3.2722.3595 4.7434.7431 1.4711 2.0395 2.5874 3.6047 3.1039l.3863.127-1.0269 3.1236c-.0446.1359-.0335.2838.031.4115.0644.1276.177.2244.3128.269.1358.0447.2838.0335.4114-.0309.1276-.0645.2244-.177.269-.3128l1.027-3.1236.4152.1364c1.5663.515 3.273.3866 4.7447-.3568 1.4716-.7435 2.5877-2.041 3.1026-3.6073l.1632-.4961-.4682-.154c-1.4303-.4703-2.9827-.4055-4.3688.1825-1.3862.5879-2.5117 1.6591-3.1676 3.0144l1.5786-4.8019.4153.1365c1.5663.5147 3.273.3862 4.7447-.3574 1.4716-.7435 2.5876-2.0411 3.1025-3.6074l.1631-.4962-.4682-.1539c-1.4303-.4703-2.9828-.4055-4.3689.1825-1.3861.5879-2.5117 1.6591-3.1676 3.0144l1.5787-4.8019.4153.1364c1.5663.515 3.2729.3867 4.7446-.3567 1.4716-.7433 2.5877-2.0408 3.1027-3.6071l.1631-.4961-.4682-.1539c-1.4303-.4703-2.9827-.4055-4.3688.1825s-2.5116 1.6592-3.1675 3.0145l1.5786-4.802.4153.1365c1.5662.515 3.2729.3866 4.7445-.3567 1.4717-.7434 2.5878-2.0409 3.1028-3.6072l.1631-.4961-.4681-.1539c-.7752-.2573-1.5937-.3582-2.4081-.297s-1.6086.2833-2.3366.6535z" fill-opacity=".8"/><path d="m37.704 89c-.1173-.384-.2507-.7787-.4-1.184-.1387-.4053-.2773-.8107-.416-1.216h-4.32c-.1387.4053-.2827.8107-.432 1.216-.1387.4053-.2667.8-.384 1.184h-2.592c.416-1.1947.8107-2.2987 1.184-3.312s.736-1.968 1.088-2.864c.3627-.896.7147-1.744 1.056-2.544.352-.8107.7147-1.6 1.088-2.368h2.384c.3627.768.72 1.5573 1.072 2.368.352.8.704 1.648 1.056 2.544.3627.896.7307 1.8507 1.104 2.864s.768 2.1173 1.184 3.312zm-2.992-8.576c-.0533.16-.1333.3787-.24.656s-.2293.5973-.368.96-.2933.7627-.464 1.2c-.16.4373-.3253.896-.496 1.376h3.152c-.1707-.48-.336-.9387-.496-1.376s-.3147-.8373-.464-1.2c-.1387-.3627-.2613-.6827-.368-.96s-.192-.496-.256-.656zm12.201-.592c-1.1627 0-2.0053.3253-2.528.976-.512.64-.768 1.52-.768 2.64 0 .544.064 1.04.192 1.488.128.4373.32.816.576 1.136s.576.5707.96.752c.384.1707.832.256 1.344.256.2773 0 .512-.0053.704-.016.2027-.0107.3787-.032.528-.064v-3.856h2.496v5.488c-.2987.1173-.7787.24-1.44.368-.6613.1387-1.4773.208-2.448.208-.832 0-1.5893-.128-2.272-.384-.672-.256-1.248-.6293-1.728-1.12s-.8533-1.0933-1.12-1.808c-.256-.7147-.384-1.5307-.384-2.448 0-.928.144-1.7493.432-2.464s.6827-1.3173 1.184-1.808c.5013-.5013 1.088-.88 1.76-1.136.6827-.256 1.408-.384 2.176-.384.5227 0 .992.0373 1.408.112.4267.064.7893.144 1.088.24.3093.0853.56.176.752.272.2027.096.3467.1707.432.224l-.72 2c-.3413-.1813-.736-.336-1.184-.464-.4373-.1387-.9173-.208-1.44-.208zm8.9504 7.264c.352 0 .64-.0267.864-.08.2346-.064.4213-.144.56-.24.1386-.1067.2346-.2293.288-.368.0533-.1387.08-.2933.08-.464 0-.3627-.1707-.6613-.512-.896-.3414-.2453-.928-.5067-1.76-.784-.3627-.128-.7254-.272-1.088-.432-.3627-.1707-.688-.3787-.976-.624-.288-.256-.5227-.56-.704-.912-.1814-.3627-.272-.8-.272-1.312s.096-.9707.288-1.376c.192-.416.464-.768.816-1.056s.7786-.5067 1.28-.656c.5013-.16 1.0666-.24 1.696-.24.7466 0 1.392.08 1.936.24s.992.336 1.344.528l-.72 1.968c-.3094-.16-.656-.2987-1.04-.416-.3734-.128-.8267-.192-1.36-.192-.5974 0-1.0294.0853-1.296.256-.256.16-.384.4107-.384.752 0 .2027.048.3733.144.512s.2293.2667.4.384c.1813.1067.384.208.608.304.2346.0853.4906.176.768.272.576.2133 1.0773.4267 1.504.64.4266.2027.7786.4427 1.056.72.288.2773.5013.6027.64.976.1386.3733.208.8267.208 1.36 0 1.0347-.3627 1.84-1.088 2.416-.7254.5653-1.8187.848-3.28.848-.4907 0-.9334-.032-1.328-.096-.3947-.0533-.7467-.1227-1.056-.208-.2987-.0853-.56-.176-.784-.272-.2134-.096-.3947-.1867-.544-.272l.704-1.984c.3306.1813.736.3467 1.216.496.4906.1387 1.088.208 1.792.208zm14.3-9.184v2.128h-3.344v8.96h-2.496v-8.96h-3.344v-2.128z"/></g></svg>