<svg fill="none" height="100" viewBox="0 0 100 100" width="100" xmlns="http://www.w3.org/2000/svg" xmlns:xlink="http://www.w3.org/1999/xlink"><linearGradient id="a" gradientUnits="userSpaceOnUse" x1="0" x2="13.9222" y1="0" y2="110.814"><stop offset="0" stop-color="#8dc63f"/><stop offset="1" stop-color="#035315"/></linearGradient><path d="m0 0h100v100h-100z" fill="url(#a)"/><g fill-opacity=".8"><path d="m21.962 34.5268c.6358 15.1803 13.1843 27.3342 28.5181 27.3342 0-15.3338-12.1539-27.8824-27.3342-28.5182-.6644-.0278-1.2118.5194-1.1839 1.184z" fill="#eaeaea"/><path d="m30.0076 28.077c-3.3148 14.8276 5.6605 29.8151 20.4718 33.7838 3.9686-14.8112-4.5234-30.078-19.0218-34.621-.6346-.1988-1.3049.1882-1.45.8372z" fill="#eee"/><path d="m50.4795 61.861c15.3338 0 27.8823-12.1539 28.5181-27.3342.0279-.6646-.5195-1.2118-1.1839-1.184-15.1803.6358-27.3342 13.1844-27.3342 28.5182z" fill="#fff"/><path d="m69.5015 27.2398c-14.4984 4.5432-22.9904 19.8098-19.0218 34.621 14.8113-3.9687 23.7866-18.9563 20.4718-33.7838-.1451-.649-.8154-1.036-1.45-.8372z" fill="#fbfbfb"/><path d="m49.6433 22.3672c-10.2844 11.1835-10.0053 28.6509.8373 39.4935 10.8425-10.8426 11.1216-28.31.8372-39.4935-.4502-.4896-1.2243-.4896-1.6745 0z" fill="#f3f3f3"/></g><path d="m38.976 89.144c-.608 0-1.216-.0213-1.824-.064-.5973-.032-1.2213-.1173-1.872-.256v-10.752c.512-.096 1.072-.1653 1.68-.208.608-.0533 1.1733-.08 1.696-.08.704 0 1.3493.0533 1.936.16.5973.096 1.1093.2667 1.536.512s.7573.5707.992.976c.2453.3947.368.8853.368 1.472 0 .8853-.4267 1.584-1.28 2.096.704.2667 1.184.6293 1.44 1.088s.384.976.384 1.552c0 1.1627-.4267 2.0373-1.28 2.624-.8427.5867-2.1013.88-3.776.88zm-1.264-4.976v2.864c.1813.0213.3787.0373.592.048s.448.016.704.016c.7467 0 1.3493-.1067 1.808-.32s.688-.608.688-1.184c0-.512-.192-.8747-.576-1.088-.384-.224-.9333-.336-1.648-.336zm0-1.904h1.216c.768 0 1.3173-.096 1.648-.288.3307-.2027.496-.5227.496-.96 0-.448-.1707-.7627-.512-.944s-.8427-.272-1.504-.272c-.2133 0-.4427.0053-.688.016-.2453 0-.464.0107-.656.032zm15.6858 6.736c-.1174-.384-.2507-.7787-.4-1.184-.1387-.4053-.2774-.8107-.416-1.216h-4.32c-.1387.4053-.2827.8107-.432 1.216-.1387.4053-.2667.8-.384 1.184h-2.592c.416-1.1947.8106-2.2987 1.184-3.312.3733-1.0133.736-1.968 1.088-2.864.3626-.896.7146-1.744 1.056-2.544.352-.8107.7146-1.6 1.088-2.368h2.384c.3626.768.72 1.5573 1.072 2.368.352.8.704 1.648 1.056 2.544.3626.896.7306 1.8507 1.104 2.864.3733 1.0133.768 2.1173 1.184 3.312zm-2.992-8.576c-.0534.16-.1334.3787-.24.656-.1067.2773-.2294.5973-.368.96-.1387.3627-.2934.7627-.464 1.2-.16.4373-.3254.896-.496 1.376h3.152c-.1707-.48-.336-.9387-.496-1.376s-.3147-.8373-.464-1.2c-.1387-.3627-.2614-.6827-.368-.96-.1067-.2773-.192-.496-.256-.656zm14.6392 8.576c-.7147-1.2693-1.488-2.5227-2.32-3.76s-1.7173-2.4053-2.656-3.504v7.264h-2.464v-11.088h2.032c.352.352.7413.784 1.168 1.296s.8587 1.0613 1.296 1.648c.448.576.8907 1.1787 1.328 1.808.4373.6187.848 1.216 1.232 1.792v-6.544h2.48v11.088z" fill="#fff"/></svg>