<svg fill="none" height="100" viewBox="0 0 100 100" width="100" xmlns="http://www.w3.org/2000/svg" xmlns:xlink="http://www.w3.org/1999/xlink"><linearGradient id="a" gradientUnits="userSpaceOnUse" x1="-20" x2="100" y1="-18" y2="100"><stop offset="0" stop-color="#73ccd8"/><stop offset="1" stop-color="#2b6b9f"/></linearGradient><path d="m0 0h100v100h-100z" fill="url(#a)"/><g fill="#fff"><path d="m67.3214 55.5898-12.4903-21.6044v-12.0425h2.5268v-2.5269h-15.1611v2.5269h2.5268v12.0425l-12.4897 21.6044c-.8384 1.4503-.8394 3.1825-.0019 4.6336.837 1.4514 2.3374 2.3176 4.0122 2.3176h27.0663c1.6754 0 3.1754-.8662 4.0127-2.3176.8376-1.4511.8365-3.1833-.0018-4.6336zm-26.388-4.925c0-.9305.7546-1.6846 1.6845-1.6846.9305 0 1.6846.7541 1.6846 1.6846s-.7541 1.6846-1.6846 1.6846c-.9299 0-1.6845-.7541-1.6845-1.6846zm3.3691 6.7383c-.9299 0-1.6846-.7541-1.6846-1.6846s.7547-1.6846 1.6846-1.6846c.9305 0 1.6846.7541 1.6846 1.6846s-.7541 1.6846-1.6846 1.6846zm7.5806-3.7903c-1.3953 0-2.5269-1.1316-2.5269-2.5269s1.1316-2.5268 2.5269-2.5268c1.3958 0 2.5268 1.1315 2.5268 2.5268s-1.131 2.5269-2.5268 2.5269zm-9.0625-11.2866 4.4299-7.6627v-12.7206h5.0537v12.7206l4.4304 7.6627zm16.643 15.0769c-.9299 0-1.6845-.7541-1.6845-1.6846s.7546-1.6846 1.6845-1.6846c.9305 0 1.6846.7541 1.6846 1.6846s-.7541 1.6846-1.6846 1.6846z" fill-opacity=".8"/><path d="m32.336 89.224c-1.8027 0-3.1787-.5013-4.128-1.504-.9387-1.0027-1.408-2.4267-1.408-4.272 0-.9173.144-1.7333.432-2.448.288-.7253.6827-1.3333 1.184-1.824.5013-.5013 1.0987-.88 1.792-1.136s1.4453-.384 2.256-.384c.4693 0 .896.0373 1.28.112.384.064.72.144 1.008.24.288.0853.528.176.72.272s.3307.1707.416.224l-.72 2.016c-.3413-.1813-.7413-.336-1.2-.464-.448-.128-.96-.192-1.536-.192-.384 0-.7627.064-1.136.192-.3627.128-.688.336-.976.624-.2773.2773-.5013.64-.672 1.088s-.256.992-.256 1.632c0 .512.0533.992.16 1.44.1173.4373.2987.816.544 1.136.256.32.5867.576.992.768.4053.1813.896.272 1.472.272.3627 0 .688-.0213.976-.064s.544-.0907.768-.144c.224-.064.4213-.1333.592-.208s.3253-.144.464-.208l.688 2c-.352.2133-.848.4053-1.488.576s-1.3813.256-2.224.256zm12.107-11.312h2.496v11.088h-2.496v-4.704h-4.192v4.704h-2.496v-11.088h2.496v4.24h4.192zm5.162 11.088v-11.088h7.488v2.096h-4.992v2.176h4.432v2.048h-4.432v2.672h5.36v2.096zm12.7471-11.088c.192.352.4107.7893.656 1.312.256.512.5174 1.072.784 1.68.2774.5973.5494 1.2107.816 1.84.2667.6293.5174 1.2213.752 1.776.2347-.5547.4854-1.1467.752-1.776.2667-.6293.5334-1.2427.8-1.84.2774-.608.5387-1.168.784-1.68.256-.5227.48-.96.672-1.312h2.272c.1067.736.2027 1.5627.288 2.48.096.9067.176 1.856.24 2.848.0747.9813.1387 1.968.192 2.96.064.992.1174 1.9253.16 2.8h-2.432c-.032-1.0773-.0746-2.2507-.128-3.52-.0533-1.2693-.1333-2.5493-.24-3.84-.192.448-.4053.944-.64 1.488-.2346.544-.4693 1.088-.704 1.632-.224.544-.4426 1.0667-.656 1.568-.2133.4907-.3946.912-.544 1.264h-1.744c-.1493-.352-.3306-.7733-.544-1.264-.2133-.5013-.4373-1.024-.672-1.568-.224-.544-.4533-1.088-.688-1.632-.2346-.544-.448-1.04-.64-1.488-.1066 1.2907-.1866 2.5707-.24 3.84-.0533 1.2693-.096 2.4427-.128 3.52h-2.432c.0427-.8747.0907-1.808.144-2.8.064-.992.128-1.9787.192-2.96.0747-.992.1547-1.9413.24-2.848.096-.9173.1974-1.744.304-2.48z"/></g></svg>