<svg fill="none" height="100" viewBox="0 0 100 100" width="100" xmlns="http://www.w3.org/2000/svg" xmlns:xlink="http://www.w3.org/1999/xlink"><linearGradient id="a" gradientUnits="userSpaceOnUse" x1="93.3628" x2="-11.1444" y1="11.3333" y2="110.799"><stop offset="0" stop-color="#3a0e41"/><stop offset="1" stop-color="#09152f"/></linearGradient><path d="m0 0h100v100h-100z" fill="url(#a)"/><g fill="#fff"><path d="m67.8135 57.6571v-19.734h-9.8947v19.734h-2.8908v-25.8382h4.2908l-9.3186-11.8189-9.3232 11.8189h4.2916v25.8382h-2.8908v-13.8765h-9.8946v13.8765h-2.1832v2.3429h40v-2.3429z" fill-opacity=".8"/><path d="m34.28 89v-11.088h7.488v2.096h-4.992v2.176h4.432v2.048h-4.432v2.672h5.36v2.096zm14.8591.224c-1.8026 0-3.1786-.5013-4.128-1.504-.9386-1.0027-1.408-2.4267-1.408-4.272 0-.9173.144-1.7333.432-2.448.288-.7253.6827-1.3333 1.184-1.824.5014-.5013 1.0987-.88 1.792-1.136.6934-.256 1.4454-.384 2.256-.384.4694 0 .896.0373 1.28.112.384.064.72.144 1.008.24.288.0853.528.176.72.272s.3307.1707.416.224l-.72 2.016c-.3413-.1813-.7413-.336-1.2-.464-.448-.128-.96-.192-1.536-.192-.384 0-.7626.064-1.136.192-.3626.128-.688.336-.976.624-.2773.2773-.5013.64-.672 1.088-.1706.448-.256.992-.256 1.632 0 .512.0534.992.16 1.44.1174.4373.2987.816.544 1.136.256.32.5867.576.992.768.4054.1813.896.272 1.472.272.3627 0 .688-.0213.976-.064s.544-.0907.768-.144c.224-.064.4214-.1333.592-.208.1707-.0747.3254-.144.464-.208l.688 2c-.352.2133-.848.4053-1.488.576s-1.3813.256-2.224.256zm7.1088-5.776c0 .544.064 1.0347.192 1.472.1386.4373.3306.816.576 1.136.256.3093.5653.5493.928.72.3626.1707.7786.256 1.248.256.4586 0 .8693-.0853 1.232-.256.3733-.1707.6826-.4107.928-.72.256-.32.448-.6987.576-1.136.1386-.4373.208-.928.208-1.472s-.0694-1.0347-.208-1.472c-.128-.448-.32-.8267-.576-1.136-.2454-.32-.5547-.5653-.928-.736-.3627-.1707-.7734-.256-1.232-.256-.4694 0-.8854.0907-1.248.272-.3627.1707-.672.416-.928.736-.2454.3093-.4374.688-.576 1.136-.128.4373-.192.9227-.192 1.456zm8.464 0c0 .9493-.144 1.7867-.432 2.512-.2774.7147-.6614 1.3173-1.152 1.808-.4907.48-1.0774.8427-1.76 1.088-.672.2453-1.3974.368-2.176.368-.7574 0-1.472-.1227-2.144-.368s-1.2587-.608-1.76-1.088c-.5014-.4907-.896-1.0933-1.184-1.808-.288-.7253-.432-1.5627-.432-2.512s.1493-1.7813.448-2.496c.2986-.7253.6986-1.3333 1.2-1.824.512-.4907 1.0986-.8587 1.76-1.104.672-.2453 1.376-.368 2.112-.368.7573 0 1.472.1227 2.144.368s1.2586.6133 1.76 1.104c.5013.4907.896 1.0987 1.184 1.824.288.7147.432 1.5467.432 2.496z"/></g></svg>