<svg fill="none" height="100" viewBox="0 0 100 100" width="100" xmlns="http://www.w3.org/2000/svg" xmlns:xlink="http://www.w3.org/1999/xlink"><linearGradient id="a" gradientUnits="userSpaceOnUse" x1="100" x2=".000003" y1="-.000003" y2="100"><stop offset="0" stop-color="#a84c6e"/><stop offset="1" stop-color="#d06d88"/></linearGradient><path d="m0 0h100v100h-100z" fill="url(#a)"/><g fill="#fff"><path d="m34.28 89v-11.088h7.488v2.096h-4.992v2.176h4.432v2.048h-4.432v2.672h5.36v2.096zm17.2431 0c-.7146-1.2693-1.488-2.5227-2.32-3.76s-1.7173-2.4053-2.656-3.504v7.264h-2.464v-11.088h2.032c.352.352.7414.784 1.168 1.296.4267.512.8587 1.0613 1.296 1.648.448.576.8907 1.1787 1.328 1.808.4374.6187.848 1.216 1.232 1.792v-6.544h2.48v11.088zm10.1618-9.168c-1.1627 0-2.0054.3253-2.528.976-.512.64-.768 1.52-.768 2.64 0 .544.064 1.04.192 1.488.128.4373.32.816.576 1.136s.576.5707.96.752c.384.1707.832.256 1.344.256.2773 0 .512-.0053.704-.016.2026-.0107.3786-.032.528-.064v-3.856h2.496v5.488c-.2987.1173-.7787.24-1.44.368-.6614.1387-1.4774.208-2.448.208-.832 0-1.5894-.128-2.272-.384-.672-.256-1.248-.6293-1.728-1.12s-.8534-1.0933-1.12-1.808c-.256-.7147-.384-1.5307-.384-2.448 0-.928.144-1.7493.432-2.464s.6826-1.3173 1.184-1.808c.5013-.5013 1.088-.88 1.76-1.136.6826-.256 1.408-.384 2.176-.384.5226 0 .992.0373 1.408.112.4266.064.7893.144 1.088.24.3093.0853.56.176.752.272.2026.096.3466.1707.432.224l-.72 2c-.3414-.1813-.736-.336-1.184-.464-.4374-.1387-.9174-.208-1.44-.208z"/><path d="m63.5426 51.0819h-.1511c-.0073 0-.0142-.0018-.0215-.0018-.0117.0003-.0231.0018-.035.0018h-3.1358v2.4676h3.3436c.6355 0 1.1727-.5651 1.1727-1.2338-.0003-.669-.5373-1.2338-1.1729-1.2338z" fill-opacity=".8"/><path d="m63.4351 47.6788c0-.6624-.537-1.2218-1.1727-1.2218h-2.0632v2.1591h2.7921c.2111-.1542.4438-.497.4438-.9373z" fill-opacity=".8"/><path d="m67.7647 39.5166h-7.8654c2.915 0 5.2353-2.4122 5.2353-5.327v-11.9433c0-2.9151-2.3203-5.2463-5.2353-5.2463h-11.9431c-2.9149 0-5.3379 2.3311-5.3379 5.2463v11.9431c0 1.0824.353 2.0893.9133 2.9281l-.2118-.2247c-.9953-.9952-2.3165-1.5434-3.7318-1.5434-1.4155 0-2.7398.5482-3.7351 1.5434l-7.3074 7.3091c-2.0612 2.0611-2.0604 5.4152.0008 7.4765l7.3093 7.3092c.9954.9952 2.3232 1.5435 3.7385 1.5435s2.743-.5483 3.7384-1.5435l7.2836-7.3092c.7564-.7563 1.2553-1.687 1.4096-2.6642v6.1496c0 2.9148 2.423 5.327 5.3379 5.327h10.4009c2.915 0 5.2352-2.4122 5.2352-5.327v-10.4009c.0002-2.9152-2.3201-5.2463-5.235-5.2463zm-13.1751-18.1194c1.7848 0 3.4675.6901 4.7385 1.9435.485.4784.4907 1.2594.0122 1.7447-.4787.4852-1.2599.4907-1.7449.0123-.8061-.7948-1.8736-1.2328-3.0058-1.2328-2.3604 0-4.2806 1.9202-4.2806 4.2806s1.9202 4.2806 4.2806 4.2806c1.2509 0 2.4358-.5452 3.2509-1.4958.4435-.5173 1.2225-.5771 1.7396-.1334.5173.4434.5771 1.2223.1335 1.7394-1.2843 1.4983-3.1519 2.3573-5.1241 2.3573-3.721 0-6.7482-3.0272-6.7482-6.7481.0002-3.7211 3.0274-6.7483 6.7483-6.7483zm-7.1147 26.9702c-.2219.644-.924.9864-1.5683.7645l-1.8191-.6266-3.9067 3.9067.6107 1.8567c.213.6473-.1391 1.3447-.7865 1.5577-.128.0421-.258.062-.3857.062-.5185 0-1.0011-.3293-1.172-.8486l-3.3363-10.1422c-.1463-.4453-.028-.9351.3057-1.2642.3336-.3293.8251-.4406 1.2682-.2879l10.0252 3.4535c.6445.222.9869.9242.7648 1.5684zm4.5508-3.6046v2.1037c-.1543-.9768-.6533-1.9079-1.4098-2.6645l-5.6007-5.5933c.8388.5603 1.8587.9079 2.941.9079h9.4076c-2.9151 0-5.3381 2.3311-5.3381 5.2462zm11.5173 11.2556h-4.526c-.6813 0-1.2851-.5929-1.2851-1.2742v-9.5618c0-.6814.6038-1.1934 1.2851-1.1934h3.2456c2.0072 0 3.6403 1.6348 3.6403 3.6691 0 .5455-.1218 1.0632-.3489 1.5449.9812.6636 1.6292 1.8135 1.6292 3.0991-.0001 2.0405-1.6332 3.7163-3.6402 3.7163z" fill-opacity=".8"/><path d="m39.3172 49.7878 2.1749-2.1747-3.2597-1.1229z" fill-opacity=".8"/></g></svg>