<svg fill="none" height="100" viewBox="0 0 100 100" width="100" xmlns="http://www.w3.org/2000/svg" xmlns:xlink="http://www.w3.org/1999/xlink"><linearGradient id="a" gradientUnits="userSpaceOnUse" x1="-19" x2="100" y1="-18" y2="100"><stop offset="0" stop-color="#3a42e1"/><stop offset=".985358" stop-color="#620c90"/></linearGradient><path d="m0 0h100v100h-100z" fill="url(#a)"/><g fill="#fff"><path clip-rule="evenodd" d="m48.799 23.9194c-1.1397.8669-2.3133 1.9737-3.4643 3.2784-.6889-1.0858-1.2064-2.2615-1.5426-3.4838-.1033-.3763-.1889-.7563-.2569-1.14 2.4039-.6456 4.9779-.6825 7.46-.0418-.7115.3517-1.4482.8178-2.1962 1.3872z" fill-opacity=".8" fill-rule="evenodd"/><path clip-rule="evenodd" d="m56.2051 33.3233c.5818-1.6257.9759-3.1715 1.1749-4.5685.131-.9174.175-1.7733.1335-2.5517 1.8096 1.7782 3.0638 3.9733 3.6935 6.3294-.374.1341-.7556.2521-1.1397.353-1.253.3271-2.5551.4771-3.8622.4378z" fill-opacity=".8" fill-rule="evenodd"/><path clip-rule="evenodd" d="m53.4873 39.1233c.9986-1.7253 1.8209-3.4469 2.4569-5.0984 1.4582.0688 2.9127-.0873 4.3105-.4526.3778-.0983.7506-.2127 1.1183-.3418.6661 3.137.238 6.5077-1.4457 9.5242z" fill-opacity=".8" fill-rule="evenodd"/><path clip-rule="evenodd" d="m52.8572 38.7662-10.6775-6.0207c.9696-1.6073 2.0161-3.0768 3.0903-4.3705 1.122 1.5163 2.5828 2.8308 4.3496 3.8269s3.6632 1.5741 5.5686 1.7647c-.6121 1.5556-1.3916 3.1751-2.331 4.7996z" fill-opacity=".8" fill-rule="evenodd"/><path clip-rule="evenodd" d="m44.8424 27.7676c-1.1459 1.3638-2.2629 2.9206-3.293 4.6275l-6.44-3.6327c1.8348-2.9316 4.609-4.9791 7.7245-5.9851.0692.3763.1548.7489.2556 1.1179.374 1.365.9633 2.6722 1.7529 3.8724z" fill-opacity=".8" fill-rule="evenodd"/><path clip-rule="evenodd" d="m41.1854 33.0103c-.9986 1.7253-1.8209 3.4469-2.4569 5.0985-1.4582-.0677-2.9127.0873-4.3105.4525-.3778.0984-.7505.2127-1.1183.3419-.6661-3.1371-.238-6.5078 1.4457-9.5243z" fill-opacity=".8" fill-rule="evenodd"/><path clip-rule="evenodd" d="m41.8163 33.3633 10.6775 6.0195c-.9696 1.6073-2.0161 3.0768-3.0903 4.3705-1.122-1.5163-2.5828-2.8309-4.3496-3.827-1.7668-.996-3.6632-1.574-5.5685-1.7646.6107-1.5544 1.3902-3.1739 2.3309-4.7984z" fill-opacity=".8" fill-rule="evenodd"/><path clip-rule="evenodd" d="m49.8301 44.3658c1.1459-1.3638 2.2629-2.9207 3.293-4.6275l6.4413 3.6314c-1.8348 2.9316-4.609 4.9791-7.7245 5.9851-.0693-.3763-.1549-.7489-.2556-1.1179-.3753-1.3637-.9646-2.6722-1.7542-3.8711z" fill-opacity=".8" fill-rule="evenodd"/><path clip-rule="evenodd" d="m45.8749 48.216c1.1397-.8658 2.3133-1.9725 3.4643-3.2785.6888 1.0858 1.2064 2.2615 1.5426 3.485.1033.3763.1889.7563.2569 1.1412-2.4039.6456-4.9779.6825-7.46.0418.7103-.3541 1.4469-.8202 2.1962-1.3895z" fill-opacity=".8" fill-rule="evenodd"/><path clip-rule="evenodd" d="m64.7489 45.0224.0126.0073-.3652.6186c-.0189.032-.039.0602-.0592.091-2.7767 4.1872-6.7347 7.4349-11.729 8.7409-.5994.1574-1.2051.2853-1.8134.3861v3.7409h3.6306l4.7575 4.7258h-23.6935l4.7576-4.7258h3.6305v-3.8269c-.2405-.0443-.481-.0947-.7203-.1501-3.123-.7181-6.0257-2.1852-8.4297-4.2585-.5981-.5165-.6548-1.4191-.1246-2.0045.5289-.5841 1.4519-.6382 2.0501-.1217.2808.2422.5679.4734.8639.6948l1.059-1.793c-.2128-.1586-.4193-.3246-.6208-.4943-.1335-.9063-.1121-1.9811.0579-3.1776.199-1.4069.6057-2.9723 1.2089-4.6226 1.8701.1611 3.7338.7132 5.4666 1.6909 1.7328.9764 3.1558 2.2774 4.2338 3.7777-1.1624 1.3343-2.3474 2.4619-3.4958 3.335-.9747.7403-1.9179 1.2962-2.7894 1.6368-.2506-.0848-.4999-.1771-.748-.2779l-1.0893 1.8434c.9697.4279 1.9809.7648 3.0211 1.0034 2.652.61 5.4036.5608 8.0355-.1266 3.9642-1.0379 7.5809-3.4052 9.6676-6.8878l-.0114-.0061.3337-.5645c.0089-.0172.0177-.0332.0277-.0504l.1197-.2029c2.0967-3.6658 2.6445-7.9613 1.53-12.0243-.7216-2.6304-2.0967-5.0259-4.0297-6.9885-.6989-.7096-1.4608-1.354-2.2755-1.9246l-1.1233 1.8987c.2128.1587.4206.3247.6221.4944.1334.9063.112 1.9823-.058 3.1776-.2002 1.4068-.6069 2.9735-1.2101 4.6226-1.8688-.1611-3.7338-.7133-5.4666-1.6897-1.7328-.9776-3.1545-2.2774-4.2325-3.7789 1.1623-1.3343 2.3473-2.4607 3.4958-3.3338.9747-.7416 1.9179-1.2974 2.7881-1.638.2518.0861.5024.1783.7505.2791l1.0905-1.8446c-.4596-.1857-.9268-.3517-1.4028-.4956-.7669-.2336-1.1951-1.0305-.9558-1.7794.238-.7489 1.0553-1.167 1.8209-.9346 3.1319.9531 5.9791 2.6685 8.2534 4.978 2.2743 2.3094 3.895 5.1279 4.7438 8.2219 1.2731 4.6374.7014 9.5329-1.5855 13.7583z" fill-opacity=".8" fill-rule="evenodd"/><path clip-rule="evenodd" d="m38.4677 38.8073c-.5818 1.6257-.9759 3.1714-1.1749 4.5684-.1297.9174-.175 1.7733-.1335 2.5517-1.8083-1.7782-3.0638-3.9745-3.6935-6.3306.374-.1341.7556-.2521 1.1397-.353 1.2542-.3271 2.5551-.4771 3.8622-.4365z" fill-opacity=".8" fill-rule="evenodd"/><path d="m40.688 79.832c-1.1627 0-2.0053.3253-2.528.976-.512.64-.768 1.52-.768 2.64 0 .544.064 1.04.192 1.488.128.4373.32.816.576 1.136s.576.5707.96.752c.384.1707.832.256 1.344.256.2773 0 .512-.0053.704-.016.2027-.0107.3787-.032.528-.064v-3.856h2.496v5.488c-.2987.1173-.7787.24-1.44.368-.6613.1387-1.4773.208-2.448.208-.832 0-1.5893-.128-2.272-.384-.672-.256-1.248-.6293-1.728-1.12s-.8533-1.0933-1.12-1.808c-.256-.7147-.384-1.5307-.384-2.448 0-.928.144-1.7493.432-2.464s.6827-1.3173 1.184-1.808c.5013-.5013 1.088-.88 1.76-1.136.6827-.256 1.408-.384 2.176-.384.5227 0 .992.0373 1.408.112.4267.064.7893.144 1.088.24.3093.0853.56.176.752.272.2027.096.3467.1707.432.224l-.72 2c-.3413-.1813-.736-.336-1.184-.464-.4373-.1387-.9173-.208-1.44-.208zm8.9504 7.264c.352 0 .64-.0267.864-.08.2346-.064.4213-.144.56-.24.1386-.1067.2346-.2293.288-.368.0533-.1387.08-.2933.08-.464 0-.3627-.1707-.6613-.512-.896-.3414-.2453-.928-.5067-1.76-.784-.3627-.128-.7254-.272-1.088-.432-.3627-.1707-.688-.3787-.976-.624-.288-.256-.5227-.56-.704-.912-.1814-.3627-.272-.8-.272-1.312s.096-.9707.288-1.376c.192-.416.464-.768.816-1.056s.7786-.5067 1.28-.656c.5013-.16 1.0666-.24 1.696-.24.7466 0 1.392.08 1.936.24s.992.336 1.344.528l-.72 1.968c-.3094-.16-.656-.2987-1.04-.416-.3734-.128-.8267-.192-1.36-.192-.5974 0-1.0294.0853-1.296.256-.256.16-.384.4107-.384.752 0 .2027.048.3733.144.512s.2293.2667.4.384c.1813.1067.384.208.608.304.2346.0853.4906.176.768.272.576.2133 1.0773.4267 1.504.64.4266.2027.7786.4427 1.056.72.288.2773.5013.6027.64.976.1386.3733.208.8267.208 1.36 0 1.0347-.3627 1.84-1.088 2.416-.7254.5653-1.8187.848-3.28.848-.4907 0-.9334-.032-1.328-.096-.3947-.0533-.7467-.1227-1.056-.208-.2987-.0853-.56-.176-.784-.272-.2134-.096-.3947-.1867-.544-.272l.704-1.984c.3306.1813.736.3467 1.216.496.4906.1387 1.088.208 1.792.208zm14.3-9.184v2.128h-3.344v8.96h-2.496v-8.96h-3.344v-2.128z"/></g></svg>