<svg fill="none" height="100" viewBox="0 0 100 100" width="100" xmlns="http://www.w3.org/2000/svg" xmlns:xlink="http://www.w3.org/1999/xlink"><linearGradient id="a" gradientUnits="userSpaceOnUse" x1="-44.7507" x2="50.513" y1="50.513" y2="145.777"><stop offset="0" stop-color="#e25544"/><stop offset="1" stop-color="#620c90"/></linearGradient><path d="m0 0h100v100h-100z" fill="url(#a)"/><g fill="#fff"><path d="m43.968 77.912h2.496v11.088h-2.496v-4.704h-4.192v4.704h-2.496v-11.088h2.496v4.24h4.192zm8.106 0c.192.352.4107.7893.656 1.312.256.512.5173 1.072.784 1.68.2773.5973.5493 1.2107.816 1.84s.5173 1.2213.752 1.776c.2347-.5547.4853-1.1467.752-1.776s.5333-1.2427.8-1.84c.2773-.608.5387-1.168.784-1.68.256-.5227.48-.96.672-1.312h2.272c.1067.736.2027 1.5627.288 2.48.096.9067.176 1.856.24 2.848.0747.9813.1387 1.968.192 2.96.064.992.1173 1.9253.16 2.8h-2.432c-.032-1.0773-.0747-2.2507-.128-3.52s-.1333-2.5493-.24-3.84c-.192.448-.4053.944-.64 1.488s-.4693 1.088-.704 1.632c-.224.544-.4427 1.0667-.656 1.568-.2133.4907-.3947.912-.544 1.264h-1.744c-.1493-.352-.3307-.7733-.544-1.264-.2133-.5013-.4373-1.024-.672-1.568-.224-.544-.4533-1.088-.688-1.632s-.448-1.04-.64-1.488c-.1067 1.2907-.1867 2.5707-.24 3.84s-.096 2.4427-.128 3.52h-2.432c.0427-.8747.0907-1.808.144-2.8.064-.992.128-1.9787.192-2.96.0747-.992.1547-1.9413.24-2.848.096-.9173.1973-1.744.304-2.48z"/><path d="m59.8983 51.4998c-5.3082-4.1505-1.5619-21.2225-1.5619-21.2225h6.4877c.6771 0 3.3316-.4257 3.3316-3.6044 0-3.9103-3.2439-3.67-3.2439-3.67s-17.7816 0-23.8868 0c-3.921 0-7.46 4.4893-9.4913 7.7002-1.0815 1.7148-.4699 2.1954 1.3872 1.3872 6.5099-2.8507 8.3447-1.8241 8.3447-1.8241.4587 2.1954.6116 12.1021-1.0592 16.012-1.693 3.6811-4.8165 8.3447-.2295 11.0862 3.5826 2.0314 7.3396-2.141 6.9682-9.2407-.1747-3.7574-.4698-17.8468-.4698-17.8468h5.9857c-.1862 2.1954-1.2013 13.4016-.1417 20.0426 1.1028 11.0862 13.1501 8.9345 15.3999 2.6549.5568-1.7367.4262-3.0695.0108-4.0747-.7649-1.8674-2.0429-1.9655-1.9004-1.0921.0878.5568.033 1.1028-.0548 1.5949-.2625 1.5183-3.3642 3.8987-5.8765 2.0973z" fill-opacity=".8"/></g></svg>