<svg fill="none" height="100" viewBox="0 0 100 100" width="100" xmlns="http://www.w3.org/2000/svg" xmlns:xlink="http://www.w3.org/1999/xlink"><linearGradient id="a" gradientUnits="userSpaceOnUse" x1="0" x2="100" y1="0" y2="100"><stop offset="0" stop-color="#ffb423"/><stop offset="1" stop-color="#f35800"/></linearGradient><path d="m0 0h100v100h-100z" fill="url(#a)"/><g fill="#fff"><path d="m54.9175 56.9791v1.2879c0 1.0248-.7368 1.8774-1.6954 2.0225l-.3107 1.1699c-.1687.6349-.7279 1.0793-1.3759 1.0793h-3.0801c-.648 0-1.2072-.4444-1.3759-1.0793l-.3018-1.1699c-.9675-.1542-1.7043-.9977-1.7043-2.0316v-1.2879c0-.6892.5415-1.2425 1.2161-1.2425h7.4119c.6746.0091 1.2161.5623 1.2161 1.2516zm5.7076-17.359c0 2.9294-1.1362 5.5868-2.9825 7.5367-1.4025 1.4874-2.3079 3.383-2.6097 5.4055-.1332.8706-.8699 1.5146-1.7398 1.5146h-6.5953c-.861 0-1.6066-.6349-1.7309-1.5056-.3107-2.0225-1.225-3.9452-2.6275-5.4235-1.8108-1.9228-2.9381-4.5348-2.9647-7.4098-.0622-6.0403 4.6424-10.9288 10.5542-10.9741 5.9029-.0454 10.6962 4.834 10.6962 10.8562zm-9.4269-6.5754c0-.6711-.5326-1.2244-1.1983-1.2244-4.2253 0-7.6693 3.5099-7.6693 7.8361 0 .6711.5325 1.2243 1.1983 1.2243.6568 0 1.1983-.5441 1.1983-1.2243 0-2.9748 2.3701-5.3873 5.2727-5.3873.6657 0 1.1983-.5442 1.1983-1.2244zm-1.1983-7.8451c.6568 0 1.1983-.5442 1.1983-1.2244v-4.2899c0-.6711-.5326-1.2244-1.1983-1.2244-.6658 0-1.1984.5442-1.1984 1.2244v4.2899c0 .6802.5415 1.2244 1.1984 1.2244zm-14.1048 14.4114c0-.6711-.5326-1.2244-1.1984-1.2244h-4.1986c-.6568 0-1.1983.5442-1.1983 1.2244 0 .6712.5326 1.2244 1.1983 1.2244h4.1986c.6658 0 1.1984-.5442 1.1984-1.2244zm33.6065-1.2244h-4.1986c-.6568 0-1.1983.5442-1.1983 1.2244 0 .6712.5326 1.2244 1.1983 1.2244h4.1986c.6569 0 1.1984-.5442 1.1984-1.2244 0-.6711-.5326-1.2244-1.1984-1.2244zm-8.6812-8.6069c.3018 0 .6125-.1179.8432-.3537l2.9737-3.0383c.4704-.4807.4704-1.2516 0-1.7323-.4705-.4807-1.225-.4807-1.6954 0l-2.9737 3.0383c-.4704.4807-.4704 1.2516 0 1.7323.2397.2358.5415.3537.8522.3537zm-22.4843-.3628c.2308.2358.5415.3537.8433.3537s.6125-.1179.8433-.3537c.4704-.4807.4704-1.2516 0-1.7323l-2.9737-3.0383c-.4704-.4806-1.2249-.4806-1.6954 0-.4705.4807-.4705 1.2516 0 1.7323z" fill-opacity=".8"/><path d="m41.968 77.912h2.496v11.088h-2.496v-4.704h-4.192v4.704h-2.496v-11.088h2.496v4.24h4.192zm8.186 9.184c.352 0 .64-.0267.864-.08.2347-.064.4213-.144.56-.24.1387-.1067.2347-.2293.288-.368s.08-.2933.08-.464c0-.3627-.1707-.6613-.512-.896-.3413-.2453-.928-.5067-1.76-.784-.3627-.128-.7253-.272-1.088-.432-.3627-.1707-.688-.3787-.976-.624-.288-.256-.5227-.56-.704-.912-.1813-.3627-.272-.8-.272-1.312s.096-.9707.288-1.376c.192-.416.464-.768.816-1.056s.7787-.5067 1.28-.656c.5013-.16 1.0667-.24 1.696-.24.7467 0 1.392.08 1.936.24s.992.336 1.344.528l-.72 1.968c-.3093-.16-.656-.2987-1.04-.416-.3733-.128-.8267-.192-1.36-.192-.5973 0-1.0293.0853-1.296.256-.256.16-.384.4107-.384.752 0 .2027.048.3733.144.512s.2293.2667.4.384c.1813.1067.384.208.608.304.2347.0853.4907.176.768.272.576.2133 1.0773.4267 1.504.64.4267.2027.7787.4427 1.056.72.288.2773.5013.6027.64.976s.208.8267.208 1.36c0 1.0347-.3627 1.84-1.088 2.416-.7253.5653-1.8187.848-3.28.848-.4907 0-.9333-.032-1.328-.096-.3947-.0533-.7467-.1227-1.056-.208-.2987-.0853-.56-.176-.784-.272-.2133-.096-.3947-.1867-.544-.272l.704-1.984c.3307.1813.736.3467 1.216.496.4907.1387 1.088.208 1.792.208zm11.4445 2.128c-1.8027 0-3.1787-.5013-4.128-1.504-.9387-1.0027-1.408-2.4267-1.408-4.272 0-.9173.144-1.7333.432-2.448.288-.7253.6827-1.3333 1.184-1.824.5013-.5013 1.0987-.88 1.792-1.136s1.4453-.384 2.256-.384c.4693 0 .896.0373 1.28.112.384.064.72.144 1.008.24.288.0853.528.176.72.272s.3307.1707.416.224l-.72 2.016c-.3413-.1813-.7413-.336-1.2-.464-.448-.128-.96-.192-1.536-.192-.384 0-.7627.064-1.136.192-.3627.128-.688.336-.976.624-.2773.2773-.5013.64-.672 1.088s-.256.992-.256 1.632c0 .512.0533.992.16 1.44.1173.4373.2987.816.544 1.136.256.32.5867.576.992.768.4053.1813.896.272 1.472.272.3627 0 .688-.0213.976-.064s.544-.0907.768-.144c.224-.064.4213-.1333.592-.208s.3253-.144.464-.208l.688 2c-.352.2133-.848.4053-1.488.576s-1.3813.256-2.224.256z"/></g></svg>