<svg fill="none" height="100" viewBox="0 0 100 100" width="100" xmlns="http://www.w3.org/2000/svg" xmlns:xlink="http://www.w3.org/1999/xlink"><linearGradient id="a" gradientUnits="userSpaceOnUse" x1="-27" x2="103.5" y1="-21.5" y2="100"><stop offset="0" stop-color="#e25544"/><stop offset="1" stop-color="#620c90"/></linearGradient><clipPath id="b"><path d="m28 18h44v44h-44z"/></clipPath><path d="m0 0h100v100h-100z" fill="url(#a)"/><g fill="#fff"><path d="m30.224 77.912c.192.352.4107.7893.656 1.312.256.512.5173 1.072.784 1.68.2773.5973.5493 1.2107.816 1.84s.5173 1.2213.752 1.776c.2347-.5547.4853-1.1467.752-1.776s.5333-1.2427.8-1.84c.2773-.608.5387-1.168.784-1.68.256-.5227.48-.96.672-1.312h2.272c.1067.736.2027 1.5627.288 2.48.096.9067.176 1.856.24 2.848.0747.9813.1387 1.968.192 2.96.064.992.1173 1.9253.16 2.8h-2.432c-.032-1.0773-.0747-2.2507-.128-3.52s-.1333-2.5493-.24-3.84c-.192.448-.4053.944-.64 1.488s-.4693 1.088-.704 1.632c-.224.544-.4427 1.0667-.656 1.568-.2133.4907-.3947.912-.544 1.264h-1.744c-.1493-.352-.3307-.7733-.544-1.264-.2133-.5013-.4373-1.024-.672-1.568-.224-.544-.4533-1.088-.688-1.632s-.448-1.04-.64-1.488c-.1067 1.2907-.1867 2.5707-.24 3.84s-.096 2.4427-.128 3.52h-2.432c.0427-.8747.0907-1.808.144-2.8.064-.992.128-1.9787.192-2.96.0747-.992.1547-1.9413.24-2.848.096-.9173.1973-1.744.304-2.48zm18.9394 11.088c-.1174-.384-.2507-.7787-.4-1.184-.1387-.4053-.2774-.8107-.416-1.216h-4.32c-.1387.4053-.2827.8107-.432 1.216-.1387.4053-.2667.8-.384 1.184h-2.592c.416-1.1947.8106-2.2987 1.184-3.312.3733-1.0133.736-1.968 1.088-2.864.3626-.896.7146-1.744 1.056-2.544.352-.8107.7146-1.6 1.088-2.368h2.384c.3626.768.72 1.5573 1.072 2.368.352.8.704 1.648 1.056 2.544.3626.896.7306 1.8507 1.104 2.864.3733 1.0133.768 2.1173 1.184 3.312zm-2.992-8.576c-.0534.16-.1334.3787-.24.656-.1067.2773-.2294.5973-.368.96-.1387.3627-.2934.7627-.464 1.2-.16.4373-.3254.896-.496 1.376h3.152c-.1707-.48-.336-.9387-.496-1.376s-.3147-.8373-.464-1.2c-.1387-.3627-.2614-.6827-.368-.96-.1067-.2773-.192-.496-.256-.656zm14.1107-2.512v2.128h-3.344v8.96h-2.496v-8.96h-3.344v-2.128zm8.3921 0h2.496v11.088h-2.496v-4.704h-4.192v4.704h-2.496v-11.088h2.496v4.24h4.192z"/><g clip-path="url(#b)" fill-opacity=".8"><path d="m47.3907 36.6034-6.875 20.4291c-.0187.0568-.0519.1077-.0963.1478l-2.2206 1.9903-.8731 2.5953c-.0231.0683-.067.1276-.1256.1695-.0586.042-.1289.0645-.201.0643-.0364.0063-.0736.0063-.11 0-.0429-.0144-.0826-.0371-.1168-.0668-.0341-.0297-.0621-.0659-.0822-.1065s-.032-.0847-.035-.1299c-.0031-.0452.0029-.0905.0175-.1334l.8765-2.5987-.5259-2.8497c-.0138-.0577-.0138-.1177 0-.1753l7.4765-22.2441c.5977 1.275 1.6195 2.3029 2.891 2.9081z"/><path d="m63.1109 61.9992c-.0363.0067-.0736.0067-.11 0-.072.0002-.1423-.0223-.2009-.0642-.0586-.042-.1026-.1013-.1256-.1695l-.8731-2.5988-2.2207-1.98c-.0444-.04-.0775-.091-.0962-.1478l-6.875-20.4291c1.2731-.6077 2.2952-1.6395 2.8909-2.9184l7.48 22.2303c.0138.0576.0138.1177 0 .1753l-.5259 2.8531.8731 2.5988c.0167.0437.0243.0903.0224.1371-.0019.0467-.0134.0926-.0337.1347-.0202.0422-.0489.0797-.0842.1104s-.0765.0539-.1211.0681z"/><path d="m51.2209 30.0113c0 .2414-.0716.4773-.2057.678s-.3246.3571-.5476.4494c-.223.0924-.4684.1166-.7051.0695s-.4541-.1633-.6248-.334c-.1707-.1706-.2869-.3881-.334-.6248s-.0229-.4821.0695-.7051c.0923-.2229.2487-.4135.4494-.5476s.4366-.2057.678-.2057c.3236 0 .634.1286.8629.3574.2288.2289.3574.5393.3574.8629z"/><path d="m53.0014 24.1328h-6.0019c-.6275.0009-1.2291.2509-1.6725.6949-.4434.4441-.6925 1.046-.6925 1.6735v4.6372c-.0181.7164.1073 1.4291.3689 2.0961.2616.6671.6541 1.2751 1.1543 1.7882.5003.513 1.0981.9207 1.7584 1.1991.6602.2784 1.3695.4219 2.0861.4219.7165 0 1.4258-.1435 2.0861-.4219s1.2581-.6861 1.7583-1.1991c.5003-.5131.8927-1.1211 1.1543-1.7882.2616-.667.3871-1.3797.3689-2.0961v-4.6372c-.0009-.6278-.2507-1.2297-.6947-1.6737-.4439-.444-1.0458-.6938-1.6737-.6947zm-3.0009 7.7825c-.3775 0-.7465-.112-1.0603-.3218-.3138-.2097-.5584-.5079-.7026-.8567-.1443-.3488-.1819-.7326-.108-1.1028.0739-.3701.2559-.7101.5231-.9767.2671-.2667.6074-.4481.9777-.5214.3703-.0732.754-.0349 1.1025.11.3486.1449.6463.39.8555.7042s.3206.6834.3199 1.0608c-.0009.5054-.2023.9898-.56 1.3468-.3577.3571-.8424.5576-1.3478.5576z"/><path d="m51.9077 19.9087v3.5372h-3.8122v-3.5372c-.011-.2571.0303-.5138.1211-.7546.0909-.2408.2295-.4607.4076-.6465s.3919-.3336.6286-.4346.4914-.1531.7488-.1531c.2573 0 .512.0521.7487.1531s.4505.2488.6286.4346.3167.4057.4076.6465.1321.4975.1212.7546z"/></g></g></svg>