<svg fill="none" height="100" viewBox="0 0 100 100" width="100" xmlns="http://www.w3.org/2000/svg" xmlns:xlink="http://www.w3.org/1999/xlink"><linearGradient id="a" gradientUnits="userSpaceOnUse" x1="100" x2="-26" y1="100" y2="-30"><stop offset="0" stop-color="#6964de"/><stop offset="1" stop-color="#fca6e9"/></linearGradient><path d="m0 0h100v100h-100z" fill="url(#a)"/><g fill="#fff"><path d="m65.852 40.8084c2.8938.3387 5.5139-1.7328 5.8527-4.627.3382-2.8933-1.7331-5.5137-4.6271-5.8522-2.8936-.3387-5.514 1.7328-5.8517 4.6268-.3395 2.8939 1.7325 5.5139 4.6261 5.8524z" fill-opacity=".8"/><path d="m42.8773 36.5187 7.847-1.5671 1.6874 2.7139-6.1135 5.8133c.944.2386 1.8506.5937 2.6933 1.0582.4043.2228.7831.4802 1.1493.7288.59.4007 1.1452.7864 1.6954.9374.4352.1195 1.0054.1263 1.0416.1284.775-.0067 1.4579-.2223 2.1549-.6767 1.8127-1.182 4.0377-2.4064 6.7972-2.5276.2036-.0089.4094-.0135.6117-.0135.8852 0 1.7508.087 2.5786.2556-.5678-.9066-10.6851-13.1668-10.6851-13.1668l-.2666-.3189c-.6529-.776-1.7455-1.1006-2.7529-.7314l-9.5277 3.4946c-.9186.3359-1.481 1.3-1.2837 2.2888.2182 1.0922 1.2807 1.8009 2.3731 1.583z" fill-opacity=".8"/><path d="m77.5617 48.7095c-1.2988.5823-2.2669.8198-3.3421.8198-.4235 0-.8616-.0378-1.3395-.1161-1.5918-.2838-2.7264-1.203-3.8238-2.092-.6749-.5467-1.3124-1.0632-2.0498-1.4434-1.3347-.692-2.9398-1.0575-4.6432-1.0575-.1766 0-.3563.0041-.5341.012-2.329.1022-4.2175 1.1383-5.9117 2.2428-.9938.6483-2.1727.9594-3.2426.9594-.3227 0-.9794-.0708-1.4056-.1937-.818-.2359-1.5193-.7124-2.1976-1.1728-.3484-.2368-.6774-.4602-1.0099-.6435-1.4237-.7849-3.0677-1.1998-4.7542-1.1998h-.0342c-2.3611.0077-4.4965.7319-6.1749 2.0936-2.3373 1.8968-3.8797 2.4297-4.3194 2.5049 0 0-.3688.0964-1.1608.0964-1.5172 0-2.7851-.497-4.0577-1.0504-.894-.3888-1.7365-.612-2.5606-.677.1598.0923.3127.1887.4611.2905.646.4503 1.1776.9977 1.6915 1.5271.2752.2831.5349.5507.8108.8046 1.0804.9939 3.3102 2.1686 5.8765 2.1686 1.3023 0 2.5623-.2831 3.7447-.8418.3479-.1643.6867-.3601 1.0451-.5671.5948-.3434 1.2127-.6894 1.8973-.9199.8639-.2911 2.205-.1947 2.205-.1947 1.3904.0889 2.4316.7458 3.1834 1.3082 2.2903 1.7133 4.4511 2.5218 6.8004 2.5446l.1197.0007c1.6163 0 3.0952-.3115 4.3956-.9259.6058-.2864 1.1825-.7075 1.7933-1.1537 1.147-.8379 2.3333-1.7046 3.8611-1.7645.0908-.0037.1832-.0056.2771-.0056.8365 0 2.0961.1454 3.3462.8378 1.5048.8362 3.3253 1.6908 5.4258 1.6908.3052 0 .6167-.0179.9258-.0528 1.9335-.2188 3.5677-.9317 4.8573-2.1187.2766-.2544.5369-.5228.8124-.8069.5879-.6055 1.1955-1.2318 1.9632-1.7073.0576-.0358.1154-.0705.1738-.1042-.9277.0825-1.9106.3717-3.1054.9075z" fill-opacity=".8"/><path d="m38.608 77.784c1.6533 0 2.9227.2933 3.808.88.8853.576 1.328 1.5253 1.328 2.848 0 1.3333-.448 2.2987-1.344 2.896-.896.5867-2.176.88-3.84.88h-.784v3.712h-2.496v-10.928c.544-.1067 1.12-.1813 1.728-.224s1.1413-.064 1.6-.064zm.16 2.128c-.1813 0-.3627.0053-.544.016-.1707.0107-.32.0213-.448.032v3.2h.784c.864 0 1.5147-.1173 1.952-.352s.656-.672.656-1.312c0-.3093-.0587-.5653-.176-.768-.1067-.2027-.2667-.3627-.48-.48-.2027-.128-.4533-.2133-.752-.256-.2987-.0533-.6293-.08-.992-.08zm13.5969-2h2.496v11.088h-2.496v-4.704h-4.192v4.704h-2.496v-11.088h2.496v4.24h4.192zm5.162 11.088v-11.088h7.488v2.096h-4.992v2.176h4.432v2.048h-4.432v2.672h5.36v2.096z"/></g></svg>