<svg fill="none" height="100" viewBox="0 0 100 100" width="100" xmlns="http://www.w3.org/2000/svg" xmlns:xlink="http://www.w3.org/1999/xlink"><linearGradient id="a" gradientUnits="userSpaceOnUse" x1="-3.5" x2="94.5322" y1="-5" y2="104.878"><stop offset="0" stop-color="#3a0e41"/><stop offset="1" stop-color="#031e57"/></linearGradient><path d="m0 0h100v100h-100z" fill="url(#a)"/><g fill="#fff"><path d="m51.2287 31.7585c.9219-.9203.9228-2.4147.0008-3.3368l-3.6711-3.6711c-.9224-.9224-2.4147-.9229-3.3376 0l-4.5978 4.5985 7.0079 7.0079z" fill-opacity=".8"/><path d="m51.0588 49.9485c-4.2351 4.2351-11.2075 1.5097-11.066-4.2878.0432-1.7628.7732-3.4406 2.0554-4.7228l2.9144-2.9144-7.0079-7.0079-3.1819 3.1811c-6.3541 6.354-6.3663 16.6381-.0212 23.0059 6.3417 6.3647 16.7901 6.2795 23.1397-.07l3.0898-3.0898-7.0079-7.0079z" fill-opacity=".8"/><path d="m63.5761 40.7661c-.9206-.9222-2.4154-.9229-3.3368 0l-4.5977 4.5978 7.0079 7.0079 4.5977-4.5978c.9223-.9223.923-2.4146 0-3.3375z" fill-opacity=".8"/><path d="m59.8434 29.4491c1.1956.302 2.3927 1.5001 2.7009 2.6896.1643.6338.8105 1.009 1.4382.8462.6308-.1635 1.0097-.8074.8462-1.4382-.5232-2.0186-2.3737-3.8719-4.4074-4.3855-.6318-.1595-1.2733.2232-1.4329.8549-.1596.6318.2231 1.2735.855 1.433z" fill-opacity=".8"/><path d="m69.9619 30.001c-.9453-3.6479-4.3434-7.0405-8.0035-7.9648-.6318-.1595-1.2733.2232-1.4329.8549-.1596.6318.2232 1.2734.855 1.433 2.8225.7129 5.5668 3.4509 6.2969 6.2689.1642.6338.8104 1.009 1.4382.8462.6308-.1634 1.0097-.8074.8463-1.4382z" fill-opacity=".8"/><path d="m37.608 77.784c1.6533 0 2.9227.2933 3.808.88.8853.576 1.328 1.5253 1.328 2.848 0 1.3333-.448 2.2987-1.344 2.896-.896.5867-2.176.88-3.84.88h-.784v3.712h-2.496v-10.928c.544-.1067 1.12-.1813 1.728-.224s1.1413-.064 1.6-.064zm.16 2.128c-.1813 0-.3627.0053-.544.016-.1707.0107-.32.0213-.448.032v3.2h.784c.864 0 1.5147-.1173 1.952-.352s.656-.672.656-1.312c0-.3093-.0587-.5653-.176-.768-.1067-.2027-.2667-.3627-.48-.48-.2027-.128-.4533-.2133-.752-.256-.2987-.0533-.6293-.08-.992-.08zm13.5969-2h2.496v11.088h-2.496v-4.704h-4.192v4.704h-2.496v-11.088h2.496v4.24h4.192zm9.226 4.56c.448-.7573.8746-1.5147 1.28-2.272.4053-.7573.7786-1.52 1.12-2.288h2.752c-.608 1.1947-1.2374 2.352-1.888 3.472-.6507 1.12-1.3387 2.2453-2.064 3.376v4.24h-2.496v-4.208c-.7254-1.1307-1.4187-2.2613-2.08-3.392-.6507-1.1307-1.28-2.2933-1.888-3.488h2.896c.3413.768.7093 1.5307 1.104 2.288.3946.7573.816 1.5147 1.264 2.272z"/></g></svg>