<svg fill="none" height="100" viewBox="0 0 100 100" width="100" xmlns="http://www.w3.org/2000/svg" xmlns:xlink="http://www.w3.org/1999/xlink"><linearGradient id="a" gradientUnits="userSpaceOnUse" x1="100" x2="-21" y1="100" y2="-21"><stop offset="0" stop-color="#b65fc4"/><stop offset="1" stop-color="#db6e4e"/></linearGradient><clipPath id="b"><path d="m28 18h44v44h-44z"/></clipPath><path d="m0 0h100v100h-100z" fill="url(#a)"/><g fill="#fff"><g clip-path="url(#b)" fill-opacity=".8"><path d="m71.9178 38.9894-8.4399-13.8414c-.1421-.233-.4309-.3305-.6846-.2314l-1.0089.3931-.1417-.2324c-.2092-.3431-.6344-.4869-1.0088-.3409l-10.6338 4.1432-10.6339-4.1431c-.3747-.146-.7996-.0022-1.0088.3409l-.1417.2324-1.0088-.3931c-.254-.099-.5428-.0016-.6847.2314l-8.4399 13.8414c-.0864.1417-.1059.3142-.0532.4715s.1721.2834.3262.3445l12.0371 4.7707-1.5688 10.0929c-.0252.1624.0218.3277.1287.4525.107.1248.263.1966.4273.1966h1.4051c.1138 0 .2247-.0344.3186-.0988l8.8968-6.1111 8.8967 6.1111c.0938.0644.2048.0988.3186.0988h1.4051c.1643 0 .3205-.0718.4273-.1966.1069-.1248.1539-.2901.1287-.4525l-1.5688-10.0929 12.0371-4.7707c.1543-.0611.2736-.1872.3262-.3445.0527-.1574.0332-.3299-.0532-.4716zm-21.4676 4.2422v-7.202c0-.2486-.2016-.4502-.4501-.4502-.2486 0-.4502.2016-.4502.4502v7.202l-16.3654-6.486 6.227-10.212 10.2875 4.0082c.1937.0754.4084.0754.6021 0l10.2875-4.0082 6.2269 10.212z"/><path d="m59.9905 30.031c-.0903-.2316-.3513-.3465-.5829-.2559l-6.6394 2.5883c-.2317.0903-.3462.3513-.2559.5829.0695.1779.2394.2867.4196.2867.0543 0 .1097-.0099.1634-.0308l6.6393-2.5883c.2316-.0903.3462-.3513.2559-.5829z"/><path d="m53.8639 34.8379c-.2317.0904-.3462.3513-.2559.5829.0695.1779.2394.2868.4196.2868.0543 0 .1097-.0099.1634-.0309l6.6394-2.5882c.2317-.0904.3462-.3513.2559-.5829-.0904-.2316-.3514-.3464-.583-.2559z"/><path d="m54.7896 38.124c.0695.1779.2394.2868.4195.2868.0544 0 .1098-.0099.1634-.0309l6.6394-2.5882c.2317-.0904.3463-.3513.2559-.5829-.0903-.2317-.3515-.3464-.5829-.256l-6.6394 2.5882c-.2316.0905-.3461.3513-.2559.583z"/><path d="m47.2317 32.3632-6.6394-2.5882c-.2313-.0903-.4925.0243-.5829.2559-.0903.2316.0243.4925.2559.5829l6.6393 2.5882c.0537.021.109.0309.1634.0309.1801 0 .3501-.1089.4196-.2868.0903-.2317-.0242-.4925-.2559-.5829z"/><path d="m46.1379 34.8379-6.6394-2.5883c-.2313-.0903-.4925.0243-.5829.2559-.0902.2316.0243.4926.2559.583l6.6394 2.5882c.0537.0209.1089.0308.1634.0308.18 0 .3501-.1088.4195-.2867.0903-.2316-.0243-.4926-.2559-.5829z"/><path d="m44.9543 37.5409-6.6394-2.5882c-.2313-.0902-.4925.0242-.5829.256-.0902.2316.0243.4925.2559.5829l6.6394 2.5882c.0537.021.1089.0309.1634.0309.18 0 .3501-.1088.4195-.2867.0903-.2319-.0243-.4927-.2559-.5831z"/></g><path d="m39.528 77.784c1.664 0 2.9387.2987 3.824.896.8853.5867 1.328 1.504 1.328 2.752 0 .7787-.1813 1.4133-.544 1.904-.352.48-.864.8587-1.536 1.136.224.2773.4587.5973.704.96.2453.352.4853.7253.72 1.12.2453.384.48.7893.704 1.216.224.416.432.8267.624 1.232h-2.8c-.2027-.3627-.4107-.7307-.624-1.104-.2027-.3733-.416-.736-.64-1.088-.2133-.352-.4267-.6827-.64-.992-.2133-.32-.4267-.608-.64-.864h-1.232v4.048h-2.496v-10.928c.544-.1067 1.104-.1813 1.68-.224.5867-.0427 1.1093-.064 1.568-.064zm.144 2.128c-.1813 0-.3467.0053-.496.016-.1387.0107-.272.0213-.4.032v3.008h.704c.9387 0 1.6107-.1173 2.016-.352s.608-.6347.608-1.2c0-.544-.208-.928-.624-1.152-.4053-.2347-1.008-.352-1.808-.352zm10.4039 7.184c.352 0 .64-.0267.864-.08.2346-.064.4213-.144.56-.24.1386-.1067.2346-.2293.288-.368.0533-.1387.08-.2933.08-.464 0-.3627-.1707-.6613-.512-.896-.3414-.2453-.928-.5067-1.76-.784-.3627-.128-.7254-.272-1.088-.432-.3627-.1707-.688-.3787-.976-.624-.288-.256-.5227-.56-.704-.912-.1814-.3627-.272-.8-.272-1.312s.096-.9707.288-1.376c.192-.416.464-.768.816-1.056s.7786-.5067 1.28-.656c.5013-.16 1.0666-.24 1.696-.24.7466 0 1.392.08 1.936.24s.992.336 1.344.528l-.72 1.968c-.3094-.16-.656-.2987-1.04-.416-.3734-.128-.8267-.192-1.36-.192-.5974 0-1.0294.0853-1.296.256-.256.16-.384.4107-.384.752 0 .2027.048.3733.144.512s.2293.2667.4.384c.1813.1067.384.208.608.304.2346.0853.4906.176.768.272.576.2133 1.0773.4267 1.504.64.4266.2027.7786.4427 1.056.72.288.2773.5013.6027.64.976.1386.3733.208.8267.208 1.36 0 1.0347-.3627 1.84-1.088 2.416-.7254.5653-1.8187.848-3.28.848-.4907 0-.9334-.032-1.328-.096-.3947-.0533-.7467-.1227-1.056-.208-.2987-.0853-.56-.176-.784-.272-.2134-.096-.3947-.1867-.544-.272l.704-1.984c.3306.1813.736.3467 1.216.496.4906.1387 1.088.208 1.792.208zm14.3-9.184v2.128h-3.344v8.96h-2.496v-8.96h-3.344v-2.128z"/></g></svg>