<svg fill="none" height="100" viewBox="0 0 100 100" width="100" xmlns="http://www.w3.org/2000/svg" xmlns:xlink="http://www.w3.org/1999/xlink"><linearGradient id="a" gradientUnits="userSpaceOnUse" x1="-29" x2="106" y1="-30" y2="106"><stop offset="0" stop-color="#01dcba"/><stop offset="1" stop-color="#7f30cb"/></linearGradient><clipPath id="b"><path d="m27 20h46v46h-46z"/></clipPath><path d="m0 0h100v100h-100z" fill="url(#a)"/><g fill="#fff"><g clip-path="url(#b)" fill-opacity=".8"><path d="m35.0859 36.3516c-2.973 0-5.3906-2.4176-5.3906-5.3907 0-2.973 2.4176-5.3906 5.3906-5.3906 2.9731 0 5.3907 2.4176 5.3907 5.3906 0 2.9731-2.4176 5.3907-5.3907 5.3907z"/><path d="m64.9141 36.3516c-2.9731 0-5.3907-2.4176-5.3907-5.3907 0-2.973 2.4176-5.3906 5.3907-5.3906 2.973 0 5.3906 2.4176 5.3906 5.3906 0 2.9731-2.4176 5.3907-5.3906 5.3907z"/><path d="m50 33.4766c-3.7153 0-6.7383-3.023-6.7383-6.7383s3.023-6.7383 6.7383-6.7383 6.7383 3.023 6.7383 6.7383-3.023 6.7383-6.7383 6.7383z"/><path d="m51.3477 33.6113v9.2974c0 .7449-.6028 1.3477-1.3477 1.3477s-1.3477-.6028-1.3477-1.3477v-9.2974c-4.5595.661-8.0859 4.5577-8.0859 9.2974v8.086c0 .7448.6028 1.3476 1.3477 1.3476h3.0191l1.0291 12.4218c.0579.6975.6422 1.2345 1.3424 1.2345h5.3906c.7002 0 1.2845-.537 1.3424-1.2345l1.0291-12.4218h3.0191c.7449 0 1.3477-.6028 1.3477-1.3476v-8.086c0-4.7397-3.5264-8.6364-8.0859-9.2974z"/><path d="m37.7812 51.1758v-8.086c0-2.02.5436-3.8972 1.4206-5.574-1.2101-.7224-2.607-1.1642-4.1159-1.1642-4.4588 0-8.0859 3.627-8.0859 8.0859v6.7383c0 .7449.6028 1.3476 1.3477 1.3476h1.4753l1.2265 12.2632c.0685.6883.6489 1.2134 1.3411 1.2134h5.3906c.6923 0 1.2727-.5251 1.3411-1.2134l.9961-9.9586c-1.3759-.6457-2.3372-2.0344-2.3372-3.6522z"/><path d="m73.0003 44.4375c0-4.4589-3.6271-8.0859-8.086-8.0859-1.5088 0-2.9057.4418-4.1158 1.1642.877 1.6768 1.4205 3.554 1.4205 5.574v8.086c0 1.6178-.9612 3.0065-2.3372 3.6522l.9961 9.9586c.0685.6883.6489 1.2134 1.3411 1.2134h5.3907c.6922 0 1.2726-.5251 1.3411-1.2134l1.2265-12.2632h1.4753c.7449 0 1.3477-.6027 1.3477-1.3476z"/></g><path d="m36.72 79.096c.128.4373.2667.9333.416 1.488.16.544.3253 1.1093.496 1.696.1813.5867.3627 1.1733.544 1.76s.3573 1.1307.528 1.632c.1387-.544.2773-1.136.416-1.776.1493-.64.288-1.3013.416-1.984s.2507-1.36.368-2.032c.128-.6827.2453-1.3387.352-1.968h2.592c-.3733 1.856-.8053 3.7387-1.296 5.648-.48 1.9093-1.0027 3.7227-1.568 5.44h-2.288c-.3733-1.024-.736-2.096-1.088-3.216-.352-1.1307-.6987-2.2613-1.04-3.392-.3413 1.1307-.6827 2.2613-1.024 3.392-.3413 1.12-.6987 2.192-1.072 3.216h-2.288c-.5653-1.7173-1.0933-3.5307-1.584-5.44-.48-1.9093-.9067-3.792-1.28-5.648h2.704c.1067.6293.224 1.2853.352 1.968.128.672.2613 1.3493.4 2.032s.2773 1.344.416 1.984c.1493.64.2987 1.232.448 1.776.192-.5227.3787-1.0773.56-1.664s.3573-1.1733.528-1.76.3253-1.152.464-1.696c.1493-.544.2827-1.0293.4-1.456zm15.2399 7.76v2.144h-7.408v-11.088h2.496v8.944zm4.9972.24c.352 0 .64-.0267.864-.08.2347-.064.4214-.144.56-.24.1387-.1067.2347-.2293.288-.368.0534-.1387.08-.2933.08-.464 0-.3627-.1706-.6613-.512-.896-.3413-.2453-.928-.5067-1.76-.784-.3626-.128-.7253-.272-1.088-.432-.3626-.1707-.688-.3787-.976-.624-.288-.256-.5226-.56-.704-.912-.1813-.3627-.272-.8-.272-1.312s.096-.9707.288-1.376c.192-.416.464-.768.816-1.056s.7787-.5067 1.28-.656c.5014-.16 1.0667-.24 1.696-.24.7467 0 1.392.08 1.936.24s.992.336 1.344.528l-.72 1.968c-.3093-.16-.656-.2987-1.04-.416-.3733-.128-.8266-.192-1.36-.192-.5973 0-1.0293.0853-1.296.256-.256.16-.384.4107-.384.752 0 .2027.048.3733.144.512s.2294.2667.4.384c.1814.1067.384.208.608.304.2347.0853.4907.176.768.272.576.2133 1.0774.4267 1.504.64.4267.2027.7787.4427 1.056.72.288.2773.5014.6027.64.976.1387.3733.208.8267.208 1.36 0 1.0347-.3626 1.84-1.088 2.416-.7253.5653-1.8186.848-3.28.848-.4906 0-.9333-.032-1.328-.096-.3946-.0533-.7466-.1227-1.056-.208-.2986-.0853-.56-.176-.784-.272-.2133-.096-.3946-.1867-.544-.272l.704-1.984c.3307.1813.736.3467 1.216.496.4907.1387 1.088.208 1.792.208zm14.3-9.184v2.128h-3.344v8.96h-2.496v-8.96h-3.344v-2.128z"/></g></svg>