<svg fill="none" height="28" viewBox="0 0 28 28" width="28" xmlns="http://www.w3.org/2000/svg"><g fill="#212121"><path d="m17.8784 0h1.8033c1.6328.408625 3.2664 1.225 4.1852 2.688 1.4971 2.14375 1.0543 4.865 1.0885 7.315.0682.8846-.2039 2.0755-1.2592 2.2111-2.3476.2039-4.6952 0-7.0428.0683.1365-.6125.238-1.225.3403-1.8375 1.3607.2721 2.8578.4419 4.0828-.3404 1.463-.74812 2.1437-2.3135 2.45-3.84475-1.0544-.238-2.2794-.27212-3.1299-1.05437-.9187-.74813-1.2591-1.97313-1.6327-3.06163-.1024 1.701-1.1909 2.96013-2.6198 3.74238-.7822-1.05438-1.6669-2.04138-2.6539-2.96013 1.1218-1.463 2.6189-2.5515 4.3882-2.926z"/><path d="m8.25041 3.57278c3.50439-.64662 7.11029 2.34763 7.00879 5.91938.2038 3.19814-2.6198 6.15824-5.81791 6.19234-2.926.238-5.74963-1.9731-6.29388-4.865-.749-3.26634 1.76838-6.83897 5.103-7.24672zm-3.7765 6.25975c.34038 2.24527 2.177 4.28667 4.52463 4.38897 2.55146.1365 4.69526-2.0755 4.83086-4.55872-2.45.10238-4.86499-.95287-6.15824-3.06162-.91787 1.19-2.0405 2.24437-3.19725 3.23137z"/><path d="m21.0766 13.7453c1.4971 0 2.9942-.1024 4.4905.0683 1.1908.2038 1.939 1.2591 2.3817 2.3135v3.9121c-.5442-.6125-1.0544-1.2591-1.7692-1.701-1.0203-.2721-1.701.6125-2.3477 1.225-1.2591 1.2591-2.5173 2.4832-3.7765 3.7424.0342-1.5654 0-3.1299-.2038-4.6953.8846-1.1226 1.8033-2.2111 2.7221-3.3337-.476-.5102-.9861-1.0203-1.4971-1.5313z"/><path d="m.0166016 19.6652c.8846254-3.1298 4.5246284-2.4158 7.0087484-2.4832-.34037.4086-.71487.8164-1.05437 1.225.81637 3.164 1.63275 6.3621 2.41587 9.5602h-7.485623c0-.6466-.272125-.9187-.8505004-.8505v-7.4506h-.034125z"/><path d="m11.4142 17.1797c1.9049.2039 4.0828-.4086 5.7838.7149 1.5312 1.0885 1.1567 3.164 1.225 4.7635-.476-.4419-.9529-.8847-1.4289-1.3265-.3063 0-.8846 0-1.1568 0-.5442.5101-1.0543 1.0543-1.5986 1.5653v1.1568c1.3265 1.225 2.6198 2.5174 3.7424 3.9462h-8.06313c.88463-2.9601 1.56533-5.9876 2.27933-9.016.3395-.7831-.4427-1.2591-.7831-1.8042z"/><path d="m7.6377 18.8134c.51012-.5101 1.02025-1.0544 1.53125-1.5654.51012.5102 1.02025 1.0544 1.56535 1.5654-.5442 2.0073-1.05435 4.0145-1.4971 6.0559-.6125-2.0073-1.05525-4.0486-1.5995-6.0559z"/><path d="m25.7373 18.8828c.5442.5101 1.0544 1.0544 1.5986 1.5654-2.5174 2.5515-5.103 5.0689-7.7227 7.5189h-.2039c-1.5654-1.463-3.1299-2.9943-4.5929-4.5588.5443-.476 1.0885-.987 1.5986-1.4971 1.0544.987 2.0755 2.0072 3.1299 3.0284 2.0423-2.0423 4.1178-4.0495 6.1924-6.0568z"/><path d="m24.3428 24.5306c1.225-1.1909 2.5173-2.3476 3.64-3.64v2.5856c-.7823 1.2924-2.3809.952-3.64 1.0544z"/></g></svg>