<svg fill="none" height="32" viewBox="0 0 37 32" width="37" xmlns="http://www.w3.org/2000/svg"><g fill="#212121"><path d="m1.4205 25.5998h27.8755c.25 0 .4917-.0874.6833-.2469.2678-.2242 6.3753-5.4782 6.7477-16.8197h-29.93776c-.37099 10.295-5.995724 15.134-6.054178 15.1823-.342684.2895-.468763.7625-.314595 1.1833.153102.4198.552106.701 1.000033.701z"/><path d="m35.6963 2.13333h-5.3334v-1.06666c0-.597337-.4693-1.06667-1.0666-1.06667-.5974 0-1.0667.469333-1.0667 1.06667v1.06666h-5.4044v-1.06666c0-.597337-.4694-1.06667-1.0667-1.06667s-1.0667.469333-1.0667 1.06667v1.06666h-5.3333v-1.06666c0-.597337-.4693-1.06667-1.0666-1.06667-.5974 0-1.0667.469333-1.0667 1.06667v1.06666h-5.33334c-.59733 0-1.06666.46933-1.06666 1.06667v3.19999h29.9377v-3.19999c0-.59734-.4693-1.06667-1.0666-1.06667z"/><path d="m31.3494 26.9888c-.5792.4823-1.3062.7448-2.0531.7448h-22.4711v3.2c0 .5896.47708 1.0667 1.06666 1.0667h27.80444c.5895 0 1.0666-.4771 1.0666-1.0667v-11.957c-2.0565 5.0454-4.9263 7.6044-5.4135 8.0122z"/></g></svg>