<?xml version="1.0" encoding="utf-8"?>
<!-- Generator: Adobe Illustrator 25.2.1, SVG Export Plug-In . SVG Version: 6.00 Build 0)  -->
<svg version="1.1" id="Layer_1" xmlns="http://www.w3.org/2000/svg" xmlns:xlink="http://www.w3.org/1999/xlink" x="0px" y="0px"
	 viewBox="0 0 2000 2000" style="enable-background:new 0 0 2000 2000;" xml:space="preserve">
<style type="text/css">
	.st0{fill:#FFFFFF;}
	.st1{fill:#BCBEC0;}
	.st2{fill:#AFAFAF;}
	.st3{fill:#D1D3D4;}
	.st4{fill:#C9C9C9;}
	.st5{fill:#939598;}
</style>
<g>
	
		<image style="overflow:visible;opacity:0.33;" width="406" height="406" xlink:href="E2CDF3B8.png"  transform="matrix(1 0 0 1 805 813)">
	</image>
	<g>
		<path class="st0" d="M1135.2,1199.9H873.3c-31.3,0-56.6-25.4-56.6-56.6V881.4c0-31.3,25.4-56.6,56.6-56.6h261.9
			c31.3,0,56.6,25.4,56.6,56.6v261.9C1191.8,1174.5,1166.4,1199.9,1135.2,1199.9z"/>
	</g>
</g>
<g>
	<g>
		<path class="st1" d="M866.7,1038.2c33.8,24.8,112.5,51,150.8,51.5c38.3,0.6,44.1-14.5,44.1-14.5l65.8-137.9
			c-0.3,0.5-0.8,1.2-1.6,2.1c-3.9,4.4-14.6,11.9-42,11.5c-8.1-0.1-17.8-1.7-28.4-4.4c-39.7-10.1-92-35.7-118-55.8L866.7,1038.2z"/>
		<path class="st2" d="M1055.4,946.4c10.6,2.7,20.3,4.3,28.4,4.4c27.3,0.4,38.1-7.1,42-11.5l2-2.8l0.1-0.2c0,0,8.8-22.9-50.2-41.3
			L1055.4,946.4z"/>
		<path class="st3" d="M915.6,1109.7c0,0,38.7,25.1,95.9,24.3c0,0,29.2,0.5,52.6-12.3l75.3-122.1l-1.3,1.3
			c-3.5,3.2-13.9,11-35.8,13.4c0,0,0,0,0,0c-23.9,2.6-61.5-1.1-118.6-24.2L915.6,1109.7z"/>
		<path class="st4" d="M1102.3,1014.3c21.9-2.4,32.3-10.2,35.8-13.4l1.3-1.3l0.1-0.2c8.7-19.2-11.1-39.3-11.1-39.3L1102.3,1014.3z"
			/>
	</g>
	<path class="st5" d="M983.6,990.2l-46.6,81.8c29.7,10.3,60.6,17.5,80.5,17.8c38.3,0.6,44.1-14.5,44.1-14.5l28.7-60.2
		C1066.4,1015.4,1032.1,1009.7,983.6,990.2z"/>
</g>
</svg>
