<svg fill="none" height="28" viewBox="0 0 26 28" width="26" xmlns="http://www.w3.org/2000/svg"><g fill="#212121"><path d="m14.7788 9.87251c1.4622.39029 3.0994 0 4.2886-.91617 1.54-1.20843 2.3197-3.39166 1.7352-5.28262-.6432-2.37835-3.158-4.034804-5.5749-3.6060346-2.3005.3115146-4.2299 2.4168546-4.2299 4.7567146-.1759 2.2996 1.5392 4.54058 3.781 5.04811z"/><path d="m25.8129 17.5329c-.0972-.5461-.6625-.8191-1.0921-1.0527-2.1246-1.0527-4.2693-2.0861-6.3939-3.1187-.5259-.3115-1.1306-.0778-1.5401.3116-1.092 1.0526-2.0082 2.3004-3.1773 3.2551-.448-1.8131-.7411-3.6839-1.4228-5.4191-.5259-1.3257-2.33895-1.91023-3.50888-1.0912-3.00226 1.9688-4.95097 5.1461-6.23815 8.4013-1.11043 2.9051-1.812212 6.0824-1.36419 9.1817h15.51712c1.8909-.9161 3.9569-1.4035 5.9065-2.2024.7411-.2923 1.1892-1.0921 1.1699-1.8717-.0779-.8576-.546-1.5987-.9162-2.3583.7989-.9555 1.6574-1.8717 2.4948-2.7878.2922-.3317.6431-.7403.5653-1.2478zm-5.0097 3.6069-2.3004-3.0408c-.1365-.175-.3903-.2144-.5653-.0779s-.2144.3903-.0779.5653l2.2419 2.9629c-.0779.0192-.1558.0586-.2337.0779-1.8323.6046-3.6253 1.3064-5.4585 1.9102-.0971-1.3642-.3115-2.7293-.448-4.0935-.0586-.2922.1558-.4874.3317-.6624 1.1891-1.2478 2.3197-2.5341 3.5867-3.704 1.4421.6239 2.8264 1.4036 4.2492 2.066.5259.273 1.1113.448 1.5594.8575-1.0335.994-1.891 2.1246-2.8851 3.1388z"/></g></svg>