<svg fill="none" height="30" viewBox="0 0 24 30" width="24" xmlns="http://www.w3.org/2000/svg"><path d="m17.4677 23.1381h3.7022l-4.0034 4.2679v-3.9667c0-.1662.1352-.3012.3012-.3012zm-4.4677-16.57134 1.1414-.14764-.7125-1.0225zm10.399-5.831466v20.932206h-5.9313c-.9771 0-1.7718.7949-1.7718 1.7718v6.5607h-14.361c-.406173 0-.735291-.3293-.735291-.7353v-28.529406c0-.406029.329118-.735294.735291-.735294h21.3287c.4062 0 .7354.329265.7354.735294zm-12.3194 8.935296c.0835.03059.1688.04515.2531.04515.2997 0 .5813-.18471.6903-.4825l.4066-1.10971 2.6594-.34412.6758.96971c.143.20514.3714.315.6038.315.1451 0 .2917-.04294.4197-.13206.3332-.23221.415-.69044.1829-1.02353l-3.1437-4.51132c-.0011-.00162-.0027-.00295-.0039-.00456-.0203-.02883-.0446-.05471-.0691-.08044-.009-.00942-.0167-.02074-.0261-.02956-.0194-.01824-.042-.03324-.0635-.04941-.0172-.01295-.0331-.0278-.0512-.03912-.0138-.00868-.0297-.01441-.0442-.02221-.0284-.01515-.0565-.03073-.0865-.04191-.0021-.00074-.0037-.00206-.0057-.00279-.0173-.00633-.0349-.00839-.0521-.01339-.0269-.00764-.0535-.01617-.0812-.02073-.0244-.00412-.0485-.00441-.0729-.00588-.0231-.00147-.0461-.00412-.0693-.00353-.0248.00073-.049.005-.0735.00823-.0228.00294-.0456.00485-.0683.01-.0244.00559-.0476.01456-.0714.02265-.0213.0072-.043.01309-.0638.0225-.0283.01265-.0543.02897-.0808.045-.0132.00809-.0272.01338-.0401.02235-.0015.00103-.0027.0025-.0041.00353-.0296.02088-.0562.04559-.0825.07074-.009.00853-.0195.01573-.028.02456-.0178.01882-.0322.04088-.0479.06161-.0136.0178-.029.03442-.0406.05324-.0077.0122-.0127.02647-.0197.03926-.0163.03015-.0327.06015-.0446.09206-.0007.00191-.0019.00338-.0025.0053l-1.8917 5.1625c-.1397.38132.056.80367.4373.94338zm1.9343 12.73221c0-.406-.3291-.7353-.7353-.7353h-7.4484c-.40618 0-.7353.3293-.7353.7353s.32912.7353.7353.7353h7.4485c.4061 0 .7352-.3293.7352-.7353zm3.1261-4.4853c0-.406-.3291-.7353-.7352-.7353h-10.5746c-.40618 0-.7353.3293-.7353.7353s.32912.7353.7353.7353h10.5746c.4061 0 .7352-.3293.7352-.7353zm2.2931-4.4853c0-.406-.3291-.7353-.7353-.7353h-12.8676c-.40618 0-.7353.3293-.7353.7353s.32912.7353.7353.7353h12.8676c.4062 0 .7353-.3293.7353-.7353zm2.8011-8.72352c-.0521-.4025-.4194-.68706-.8237-.63486l-.9825.12721-.1272-.9825c-.0521-.40265-.4193-.68721-.8237-.63485-.4026.05206-.6871.42088-.6348.82353l.1272.9825-.9825.1272c-.4027.05206-.6871.42074-.6349.82353.0479.37074.3643.64103.7284.64103.0313 0 .0632-.00206.0953-.00618l.9825-.1272.1272.9825c.0479.37073.3643.64103.7284.64103.0313 0 .0632-.00206.0951-.00618.4027-.05206.6871-.42088.6349-.82353l-.1272-.9825.9825-.1272c.4028-.05206.687-.42074.635-.82353z" fill="#212121"/></svg>