<svg fill="none" height="32" viewBox="0 0 32 32" width="32" xmlns="http://www.w3.org/2000/svg"><g fill="#212121"><path d="m6 8.33398v-6c0-.34666.04-.68.13333-1h-3.8c-1.28 0-2.33333 1.05334-2.33333 2.33334v6c0 1.27998 1.05333 2.33338 2.33333 2.33338h.49334l1.70666 2.2666c.18667.24.46667.3867.76.4h.04c.29334 0 .56-.12.74667-.3466l2-2.28c-1.24-.7734-2.08-2.14672-2.08-3.70672z"/><path d="m29.6666 1.33398h-3.8c.0933.32.1333.65334.1333 1v6c0 1.56-.84 2.93332-2.08 3.70672l2 2.28c.1867.2266.4534.3466.7467.3466h.04c.2933-.0133.5733-.16.76-.4l1.6933-2.2666h.5067c1.28 0 2.3333-1.0534 2.3333-2.33338v-6c0-1.28-1.0533-2.33334-2.3333-2.33334z"/><path d="m16 13.3333c-.012 0-.0253 0-.0373 0-.3014-.012-.5814-.1586-.7627-.4l-1.7-2.2666h-3.1667c-1.28663 0-2.3333-1.0467-2.3333-2.33337v-6c0-1.28666 1.04667-2.33333 2.3333-2.33333h11.3334c1.2866 0 2.3333 1.04667 2.3333 2.33333v6c0 1.28667-1.0467 2.33337-2.3333 2.33337h-2.88l-2.0347 2.3253c-.1893.2173-.464.3413-.752.3413z"/><path d="m5.33366 22.6673c1.47276 0 2.66666-1.1939 2.66666-2.6666 0-1.4728-1.1939-2.6667-2.66666-2.6667s-2.66667 1.1939-2.66667 2.6667c0 1.4727 1.19391 2.6666 2.66667 2.6666z"/><path d="m8.89333 24.5333c-1.34666 1.0134-2.22666 2.64-2.22666 4.4667v.3333h-5.66667c-.546667 0-1-.4533-1-1v-.6666c0-2.0267 1.64-3.6667 3.66667-3.6667h3.33333c.69333 0 1.34667.2 1.89333.5333z"/><path d="m26.6667 22.6673c1.4727 0 2.6666-1.1939 2.6666-2.6666 0-1.4728-1.1939-2.6667-2.6666-2.6667-1.4728 0-2.6667 1.1939-2.6667 2.6667 0 1.4727 1.1939 2.6666 2.6667 2.6666z"/><path d="m31.9998 27.6667v.6666c0 .5467-.4534 1-1 1h-5.6667v-.3333c0-1.8267-.88-3.4533-2.2267-4.4667.5467-.3333 1.2-.5333 1.8934-.5333h3.3333c2.0267 0 3.6667 1.64 3.6667 3.6667z"/><path d="m16 23.334c2.2091 0 4-1.7909 4-4 0-2.2092-1.7909-4-4-4s-4 1.7908-4 4c0 2.2091 1.7909 4 4 4z"/><path d="m19.667 25.334h-7.3333c-2.0227 0-3.66671 1.644-3.66671 3.6667v2c0 .552.448 1 1 1h12.66671c.552 0 1-.448 1-1v-2c0-2.0227-1.644-3.6667-3.6667-3.6667z"/></g></svg>