<svg fill="none" height="31" viewBox="0 0 31 31" width="31" xmlns="http://www.w3.org/2000/svg"><path d="m29.9258 9.6483-9.2017-9.201652c-.3321-.33251-.8715-.33251-1.2037 0l-.039.038989c-.5642.564053-.8751 1.314373-.8751 2.112193 0 .514.1306 1.00723.3732 1.44462l-9.62793 8.26305c-.73687-.6586-1.67736-1.019-2.67353-1.019-1.07346 0-2.08257.418-2.8414 1.177l-.05771.0577c-.33251.3323-.33251.8714 0 1.2037l5.51254 5.5125-5.36885 5.3687c-.10743.1105-.07277.1533-1.74349 2.2372-1.59104 1.984-1.905672 2.3475-1.922017 2.3662-.2953937.3364-.2790491.8438.037116 1.1615.165659.1663.384097.2504.603216.2504.199715 0 .399935-.0698.560995-.2106.01413-.0122.36928-.3209 2.36621-1.922 2.08359-1.6707 2.1264-1.6361 2.24541-1.7521l5.36014-5.3602 5.2173 5.2174c.1662.1663.3841.2494.6019.2494.2177 0 .4358-.0831.6018-.2494l.0578-.0578c.759-.7588 1.1769-1.7681 1.1769-2.8414 0-.9961-.3606-1.9366-1.0189-2.6735l8.263-9.628c.4374.2427.9306.3732 1.4446.3732.798 0 1.5481-.3107 2.1122-.8751l.039-.039c.3325-.3326.3325-.87166 0-1.204z" fill="#212121"/></svg>