<svg fill="none" height="33" viewBox="0 0 33 33" width="33" xmlns="http://www.w3.org/2000/svg"><g fill="#212121"><path d="m24.0104 14.668c-4.7787 0-8.6666 3.888-8.6666 8.6666 0 4.7787 3.8879 8.6667 8.6666 8.6667s8.6667-3.888 8.6667-8.6667c0-4.7786-3.888-8.6666-8.6667-8.6666zm0 14.6666c-.552 0-1-.448-1-1s.448-1 1-1 1 .448 1 1-.448 1-1 1zm1.988-5.7893c-.872.6693-.988 1.2867-.988 2.1227 0 .552-.448 1-1 1s-1-.448-1-1c0-1.464.4413-2.6894 1.7693-3.7094.3534-.2706.564-.712.564-1.1786 0-.7974-.5986-1.444-1.3333-1.444s-1.3333.648-1.3333 1.444c0 .552-.448 1-1 1s-1-.448-1-1.0014c0-1.8986 1.496-3.444 3.3333-3.444s3.3333 1.5454 3.3333 3.444c0 1.0854-.5026 2.1187-1.3453 2.7667z"/><path d="m24.6517.14608c-3.4533-.506667-6.5066.32-9.3066 2.52-2.8-2.2-5.85338-3.026667-9.30671-2.52-1.16.16-2.02667 1.16-2.02667 2.30667v14.62665c0 .6533.28 1.28.77333 1.72.49334.4533 1.17334.6667 1.84.5867 2.12-.24 4.17335.2 6.06665 1.28.0934.04.1734.0933.2667.1466.0133-.0533.0267-.0933.04-.1466.1467-.6134.3467-1.2134.6-1.7867-1.8267-1.0267-3.80001-1.56-5.84001-1.56-.45334 0-.89334.0267-1.36.08-.14667.0133-.24-.0533-.28-.0933-.06667-.0534-.10667-.1334-.10667-.2267v-14.62665c0-.16.13333-.30667.30667-.33334 3.01333-.44 5.57331.30667 8.02671 2.32.12.08.2266.18667.3466.28.3734.33334.9334.33334 1.3067 0 .12-.09333.2267-.2.3467-.28 2.4533-2.01333 5.0133-2.74666 8.0266-2.32.1734.02667.3067.17334.3067.33334v9.55995c.68.04 1.3467.1467 2 .3067v-9.86665c0-1.14667-.8667-2.14667-2.0267-2.30667z"/><path d="m12.9977 20.668c-.0133.0533-.0266.0933-.04.1466-.1333.6-.2266 1.2267-.2666 1.8534h-9.68003c-1.28 0-2.333336-1.0534-2.333336-2.3334v-15.3333c0-1.28 1.039996-2.32 2.319996-2.33333h1.68c.54667 0 1 .44 1 1 0 .54667-.44 1-1 1h-1.66666c-.18667 0-.33334.16-.33334.33333v15.3333c0 .1867.14667.3334.33334.3334z"/><path d="m30.0117 5.0013v8.72c-.6266-.3867-1.2933-.72-2-.9867v-7.7333c0-.18666-.1466-.33333-.3333-.33333h-1.6667c-.5466 0-1-.45333-1-1s.4534-1 1-1h1.6667c1.28 0 2.3333 1.05333 2.3333 2.33333z"/><path d="m16.3438 4v11c-.7734.7067-1.4534 1.52-2 2.4267v-13.4267c0-.54667.4533-1 1-1 .5466 0 1 .45333 1 1z"/></g></svg>