<svg fill="none" height="32" viewBox="0 0 24 32" width="24" xmlns="http://www.w3.org/2000/svg"><path clip-rule="evenodd" d="m.0458984 2.23633c0-1.10457.8954306-2.000002 2.0000016-2.000002h19.4901c1.1046 0 2 .895432 2 2.000002v27.32017c0 1.1046-.8954 2-2 2h-19.4901c-1.10457 0-2.0000016-.8954-2.0000016-2zm3.4809416 4.22082c0-.55229.44771-1 1-1h14.53006c.5523 0 1 .44771 1 1v1.48002c0 .55228-.4477 1-1 1h-14.53006c-.55229 0-1-.44772-1-1zm1.00013 5.09335c-.55228 0-1 .4477-1 1v1.48c0 .5523.44772 1 1 1h14.53013c.5522 0 1-.4477 1-1v-1.48c0-.5523-.4478-1-1-1zm-1 7.0883c0-.5523.44772-1 1-1h14.53013c.5522 0 1 .4477 1 1v1.48c0 .5523-.4478 1-1 1h-14.53013c-.55228 0-1-.4477-1-1zm1 5.0908c-.55228 0-1 .4477-1 1v1.48c0 .5523.44772 1 1 1h7.57003c.5523 0 1-.4477 1-1v-1.48c0-.5523-.4477-1-1-1z" fill="#212121" fill-rule="evenodd"/></svg>