<svg fill="none" height="32" viewBox="0 0 31 32" width="31" xmlns="http://www.w3.org/2000/svg"><g fill="#212121"><path d="m0 3h31v6h-31z"/><path clip-rule="evenodd" d="m31 10h-31v22h31zm-23.62475 12v-1.072h-2.456v-4.472h-1.248v5.544zm.80381-5.544v5.544h3.92804v-1.048h-2.68004v-1.336h2.21604v-1.024h-2.21604v-1.088h2.49604v-1.048zm8.36354 4.952c.0747.2027.1414.4.2.592h1.336c-.208-.5973-.4053-1.1493-.592-1.656-.1866-.5067-.3706-.984-.552-1.432-.176-.448-.352-.872-.528-1.272-.176-.4053-.3546-.8-.536-1.184h-1.192c-.1866.384-.368.7787-.544 1.184-.1706.4-.3466.824-.528 1.272-.176.448-.3573.9253-.544 1.432-.1866.5067-.384 1.0587-.592 1.656h1.296c.0587-.192.1227-.3893.192-.592.0747-.2027.1467-.4053.216-.608h2.16zm-1.416-3.368c.0534-.1387.0934-.248.12-.328.032.08.0747.1893.128.328.0534.1387.1147.2987.184.48.0747.1813.152.3813.232.6s.1627.448.248.688h-1.576c.0854-.24.168-.4693.248-.688.0854-.2187.1627-.4187.232-.6.0694-.1813.1307-.3413.184-.48zm4.1462 2.512c.2133.5013.4293.984.648 1.448h1.2c.2187-.464.4347-.9467.648-1.448s.416-.9973.608-1.488.368-.96.528-1.408.3013-.848.424-1.2h-1.328c-.1067.32-.224.6667-.352 1.04-.1227.368-.2507.736-.384 1.104-.128.368-.256.72-.384 1.056-.1227.336-.2347.6267-.336.872-.1067-.2453-.2213-.536-.344-.872s-.2507-.688-.384-1.056l-.384-1.104c-.1227-.3733-.2373-.72-.344-1.04h-1.376c.1173.352.256.752.416 1.2.1653.448.344.9173.536 1.408s.3947.9867.608 1.488zm4.7734-4.096v5.544h3.9281v-1.048h-2.68v-1.336h2.216v-1.024h-2.216v-1.088h2.496v-1.048z" fill-rule="evenodd"/><rect height="6" rx="1" width="2" x="4"/><rect height="6" rx="1" width="2" x="25"/></g></svg>