<svg fill="none" height="32" viewBox="0 0 32 32" width="32" xmlns="http://www.w3.org/2000/svg"><g fill="#212121"><path d="m.000125 25.0375c0 .5178.419738.9375.937473.9375h9.355502l-2.09003 3.6201c-.25886.4484-.10524 1.0218.34312 1.2806.14762.0853.3088.1258.46786.1258.32399 0 .63917-.1681.81272-.4689l2.63133-4.5576h2.604v4.0889c0 .5177.4198.9375.9375.9375s.9375-.4198.9375-.9375v-4.0889h2.604l2.6313 4.5576c.1736.3008.4887.4689.8127.4689.159 0 .3203-.0405.4679-.1258.4484-.2588.602-.8322.3431-1.2806l-2.09-3.6201h9.3555c.5177 0 .9375-.4197.9375-.9375v-3.0687h-31.9991v3.0687z"/><path clip-rule="evenodd" d="m31.0616 2.59755h-14.1246v-1.660077c0-.517735-.4197-.937473-.9375-.937473-.5177 0-.9374.419738-.9374.937473v1.660077h-14.124628c-.517734 0-.937472.41974-.937472.93747v17.55728h31.9991v-17.55728c0-.51773-.4198-.93747-.9375-.93747zm-21.41707 7.40245c0 1.1046-.89543 2-2 2s-2-.8954-2-2c0-1.10457.89543-2 2-2s2 .89543 2 2zm-2 8c1.10457 0 2-.8954 2-2s-.89543-2-2-2-2 .8954-2 2 .89543 2 2 2zm3.99997-9h2v2h-2zm17 0h-13v2h13zm-17 6h2v2h-2zm17 0h-13v2h13z" fill-rule="evenodd"/></g></svg>