<svg fill="none" height="33" viewBox="0 0 24 33" width="24" xmlns="http://www.w3.org/2000/svg"><g fill="#212121"><path d="m16.8761 6.45267c.1435 0 .2514-.10788.2514-.25139v-.71959h3.9541c.2158 0 .3593.18015.3593.35928v24.91273c0 .2158-.1802.3593-.3593.3593h-18.76417c-.21577 0-.35928-.1802-.35928-.3593v-24.91273c0-.21577.18015-.35928.35928-.35928h3.95416v.71857c0 .14351.10789.25139.25139.25139zm-5.1766-5.06865c.8265 0 1.5817.53944 2.0132 1.36589h-4.02639c.43159-.82747 1.15109-1.36589 2.01319-1.36589zm-3.34345 1.36589h-1.86971c-.14351 0-.25139.10789-.25139.2514v.82645h-3.95416c-1.11449 0-2.013212.89872-2.013212 2.01321v24.91273c0 1.1145.898722 2.0132 2.013212 2.0132h18.76521c1.1145 0 2.0132-.8987 2.0132-2.0132v-24.91273c0-1.11449-.8987-2.01321-2.0132-2.01321h-3.9542v-.82645c0-.14351-.1079-.2514-.2514-.2514h-1.8697c-.5384-1.51042-1.833-2.552644-3.3068-2.552644s-2.73178 1.042224-3.30785 2.552644z"/><path d="m14.0722 20.0776-2.3725 2.4804-2.30019-2.4448c-.14351-.1802-.35928-.2514-.61068-.2514-.21577 0-.39592.0723-.53943.2158s-.21578.288-.21578.4671c0 .1435.07227.2881.18016.396l2.55262 2.6605-2.7684 2.8763c-.10788.1079-.14351.2514-.14351.3959 0 .1802.07227.3593.21578.5028s.32366.2158.53943.2158c.2514 0 .43155-.1079.61068-.288l2.51602-2.6239 2.4804 2.6239c.1801.1801.3959.288.6106.288.2148 0 .396-.0723.5395-.2158s.2158-.3236.2158-.5028c0-.1435-.0357-.288-.1436-.3959l-2.7317-2.8763 2.5882-2.7318c.0723-.0722.1079-.1801.1079-.3959 0-.1802-.0722-.3237-.2514-.4672-.1435-.1079-.3236-.1801-.5394-.1801-.2168 0-.3959.0712-.5405.2514z"/><path d="m10.6223 13.7856-1.65392-1.6539-1.65393 1.6539 3.30785 3.2712 5.9307-5.9317-1.6529-1.61729z"/></g></svg>