<svg fill="none" height="22" viewBox="0 0 16 22" width="16" xmlns="http://www.w3.org/2000/svg"><g fill="#17799c"><path d="m15.9996 16.0959v-16.0959h-15.999559l-.000041 21.0038h11.095v-4.9079zm-7.99978-14.5769c1.1518 0 2.08888.93709 2.08888 2.08889 0 .93775-.62108 1.73314-1.47354 1.99643v1.13055h-1.23069v-2.26873h.61535c.4732 0 .8582-.38501.8582-.85821s-.385-.8582-.8582-.8582-.8582.385-.8582.8582h-1.2307c0-1.15184.93709-2.08893 2.0889-2.08893zm.61534 6.82898c.01489.33233-.29348.61534-.61534.61534-.34497 0-.60042-.28195-.61535-.61534-.01489-.33233.29348-.61535.61535-.61535.34496 0 .60041.28195.61534.61535zm-5.71565 2.66102h10.28779v1.2307h-10.28779zm0 2.5434h10.28779v1.2307h-10.28779zm6.20776 3.7742h-6.20776v-1.2307h6.20776z"/><path d="m12.3262 17.3281v3.6585l3.6585-3.6585z"/></g></svg>