<svg fill="none" height="32" viewBox="0 0 24 32" width="24" xmlns="http://www.w3.org/2000/svg"><g clip-rule="evenodd" fill="#212121" fill-rule="evenodd"><path d="m24 2.29297v29.03013h-24v-29.03013h3.42584v6.06028h4.60042v-5.92898h7.99764v5.91824h4.5288v-6.04954zm-20.60997 20.49533h3.4545v-3.6442c-1.04924 0-2.05193-.0168-3.05462.0179-.09221.0275-.17578.0783-.24268.1475-.06689.0692-.11486.1545-.13929.2476-.03223 1.06-.01791 2.1235-.01791 3.2312zm13.76067.0466c1.0409 0 2.0161.0227 2.9949-.0239.1092-.0347.2077-.0968.286-.1804.0784-.0836.134-.1859.1617-.297.0453-.9013.0405-1.8037 0-2.7001-.0096-.1695-.2567-.462-.4059-.4644-.9979-.0418-2.003-.0238-3.0403-.0238.0036 1.2557.0036 2.404.0036 3.6896zm-13.76305-8.4596c0 1.0743-.01194 2.114.01551 3.1477 0 .1516.22322.419.35094.4226 1.02418.0322 2.04954.0179 3.08565.0179v-3.5882zm13.77145-.0167v3.5572h3.39v-3.5572zm-9.13761 8.4083h3.37331v-3.5691h-3.37451zm4.60161-3.5727v3.5727h3.3315v-3.5715zm-5.79887 8.3903v-3.5201h-3.38048v3.5201zm13.74517-3.5225h-3.4103v3.5058h3.4103zm-9.1913-6.1343v-3.5333h-3.34229v3.5333zm1.2355-.0179h3.3661v-3.5297h-3.3673zm-1.2355 9.6688v-3.5166h-3.34229v3.5166zm4.6147-3.5166h-3.3709v3.4867h3.3697z"/><path d="m6.79327 0v4.44763h-2.42315v-4.44763z"/><path d="m19.6669 0v4.44763h-2.496v-4.44763z"/><path d="m4.36328 6.03711h2.43032v1.46345h-2.43032z"/><path d="m17.1699 6.03711h2.5127v1.45628h-2.5127z"/></g></svg>