<svg fill="none" height="33" viewBox="0 0 25 33" width="25" xmlns="http://www.w3.org/2000/svg"><g fill="#212121"><path d="m10.3554 9.123c.187.56.498 1.12.902 1.555.902.84 2.301.84 3.172 0 .435-.466.746-1.057.933-1.679.031-.093.093-.155.155-.187.342-.342.404-.871.155-1.275-.031-.062-.093-.124-.093-.187 0-.498 0-.995 0-1.493 0-.622-.187-1.244-.622-1.679-.342-.373-.809-.56-1.306-.653-.622-.124-1.244-.124-1.866.031-.529.124-1.026.435-1.337.902-.28.404-.373.871-.404 1.337v1.524c0 .093-.06202.187-.12402.249-.218.404-.124.995.24902 1.275.124.062.155.187.186.28z"/><path clip-rule="evenodd" d="m24.661 1.97027v21.39503.528.342c0 .964-.778 1.773-1.773 1.773h-.124-18.379c-.964 0-1.773.778-1.773 1.773 0 .964.778 1.773 1.773 1.773h18.13.373c.964 0 1.773.591 1.773 1.306 0 .746-.778 1.337-1.773 1.337h-19.374c-2.892-.187-3.421-1.928-3.514-2.519v-5.504-.777-21.42703c0-.964.777-1.773004 1.772-1.773004h21.116c.964 0 1.773.777 1.773 1.773004zm-17.509 19.40503h11.444c.311 0 .56-.249.56-.56s-.249-.56-.56-.56h-11.444c-.311 0-.56.249-.56.56s.249.56.56.56zm0-2.55h11.444c.311 0 .56-.249.56-.56s-.249-.56-.56-.56h-11.444c-.311 0-.56.249-.56.56s.249.56.56.56zm12.4897-3.328h1.2563s0-12.71903.03-12.71903h-16.233v12.71903h1.35344c.99552-2.0891 2.53574-2.5199 2.53574-2.5199h.84c.83902 0 1.52402-.591 1.67902-1.368.528.342 1.119.529 1.741.529.621 0 1.212-.187 1.741-.529.155.808.839 1.399 1.679 1.399h.84s1.54.4318 2.5375 2.4889z" fill-rule="evenodd"/></g></svg>