<svg fill="none" height="29" viewBox="0 0 33 29" width="33" xmlns="http://www.w3.org/2000/svg"><g fill="#212121"><path d="m31.697 7.47592c.2056 2.92238-1.3056 5.07838-4.2647 6.36448-2.8013 1.2164-5.5754 2.5028-8.3429 3.7921-.4035.1935-.8413.3051-1.2882.3283s-.8939-.0426-1.3152-.1934c-4.8259-1.5134-9.66919-2.9721-14.50486-4.4551-.38798-.1004-.76554-.237-1.127989-.408-.237216-.092-.443145-.2506-.593611-.4558-.150465-.2052-.2393079-.4484-.25577016-.7023-.01646224-.254.04010066-.5081.16281116-.731.122711-.223.30652-.4062.529868-.5281.383451-.2369.789831-.4345 1.212981-.58971 2.44558-1.02817 4.86401-2.1332 7.35201-3.05366 1.00486-.26048 1.88706-.86418 2.49396-1.7064.6069-.84221.9002-1.87024.8295-2.90597-.0074-.29997.0271-.59883.1022-.88932.2589-.960714.84-1.3058941 1.9769-1.076323 1.2761.25677 2.5357.594037 3.7999.907383 3.6988.91176 7.3976 1.82759 11.0964 2.7466 2.0506.51245 2.1345.6302 2.1378 2.75509-.0011.15123-.0011.30065-.0011.80113zm-25.81449 3.79208.03586.3347c3.72927 1.1501 7.45533 2.3136 11.19653 3.4245.4297.0838.875.025 1.2685-.1668 2.7023-1.1968 5.3969-2.4101 8.071-3.6678 2.1464-1.0097 2.6208-1.98642 2.2846-4.59112l-13.2995-3.26404c-.0886.24111-.1648.48636-.2284.73526-.1985 1.1691-.7126 2.26174-1.4868 3.15991-.7742.89816-1.7792 1.56727-2.9062 1.9359-.5592.2176-1.10733.46728-1.65998.70338-1.09151.46351-2.18337.92901-3.27561 1.39611z"/><path d="m17.7874 28.1947c-.5287-.1328-.9225-.2174-1.3054-.3262-4.8868-1.4957-9.77299-2.9964-14.65833-4.503-.2416-.0669-.47893-.1493-.71048-.2454-.908384-.4058-1.267359-1.0201-1.0323754-1.7404.0601144-.1788.1553124-.3438.2796744-.4856.124362-.1417.275484-.2571.444876-.34s.353575-.1322.541815-.1434c.18825-.0112.37683.0153.55484.0776.39059.0918.77622.2043 1.15535.3357 4.40921 1.36 8.82613 2.6966 13.22013 4.1045.4438.1564.9146.2207 1.384.1891.4695-.0316.9278-.1584 1.3466-.3729 3.7238-1.7408 7.4727-3.4348 11.2204-5.1256.4488-.2136.9281-.3557 1.4207-.4218.2797-.0452.5659.0224.7958.1881.2298.1656.3846.4152.4302.6948.0478.4746-.0762.951-.3492 1.342-.3125.3245-.6992.5673-1.127.7087-4.1042 1.8721-8.2132 3.7359-12.3269 5.5899-.4493.2013-.9289.3455-1.2847.4739z"/><path d="m17.7642 23.1546c-.458-.1175-.8007-.1963-1.1346-.2975-4.9318-1.5174-9.86366-3.0378-14.79542-4.5603-.3855-.1094-.75818-.2588-1.111795-.4473-.280753-.1242-.503122-.3519-.620967-.6354-.1178456-.2835-.1221872-.6016-.0122177-.8882.0734167-.2979.2572977-.5563.5144627-.7236s.568317-.2311.870367-.1774c.49467.0707.98225.1855 1.4568.3421 4.50277 1.3633 9.00877 2.72 13.49847 4.1247.398.1391.8198.1967 1.2406.17.4208-.0268.832-.1379 1.2093-.3262 3.6792-1.7115 7.3804-3.3799 11.0759-5.0576.4033-.2017.8247-.3652 1.2587-.4877.3133-.1042.6537-.0901.9575.0393.3037.1295.5497.3648.6916.663.1507.2957.179.6388.0789.9552-.1002.3164-.3207.5813-.6141.7364-.336.2177-.6919.4029-1.0629.5535-4.0129 1.833-8.0279 3.6605-12.0451 5.4826-.4994.2252-1.0247.3788-1.4555.5344z"/><path d="m5.88184 11.2678c1.09151-.4679 2.18371-.9334 3.27667-1.3983.55265-.23719 1.10219-.48361 1.66029-.70339 1.127-.36892 2.1317-1.03862 2.9059-1.93696.7742-.89833 1.2882-1.9907 1.4868-3.15991.0635-.24856.1397-.49454.2284-.73526l13.3006 3.26404c.334 2.6047-.1402 3.58358-2.2844 4.59328-2.674 1.2577-5.37 2.4709-8.0713 3.6678-.3938.1907-.8387.2484-1.2684.1657-3.7402-1.1109-7.46621-2.2756-11.19658-3.4234z"/></g></svg>