<svg fill="none" height="32" viewBox="0 0 30 32" width="30" xmlns="http://www.w3.org/2000/svg"><path d="m27.8927 7.77745c-.2531-2.47457-.6563-4.40128-1.2943-5.15859-2.6301-3.11385-21.05392-3.341726-23.14574 0-.5117.81872-.87057 2.73861-1.11141 5.16269-.7771.09142-1.382266.74571-1.382266 1.54669v3.03126c0 .6741.427096 1.2424 1.023396 1.4642-.14123 4.7745-.02661 9.7557.18489 12.233 0 1.9123 1.2847 1.5951 1.2847 1.5951h1.2042v2.0645c0 .8187.84396 1.4812 1.88373 1.4812 1.04113 0 1.88509-.6625 1.88509-1.4812v-2.0645h14.00961v2.0645c0 .8187.8433 1.4812 1.8844 1.4812 1.0398 0 1.8837-.6625 1.8837-1.4812v-2.0645h.3957s1.5119.2074 1.6088-.6932c0-2.4705.1556-7.9456.0273-13.1138.6338-.1985 1.0964-.7825 1.0964-1.4853v-3.03126c.0007-.82008-.6338-1.48529-1.4382-1.55079zm-19.94052-4.71444h14.14672v2.14026h-14.14672zm.20195 22.15109c-1.11072 0-2.01063-.9006-2.01063-2.0114 0-1.11.89991-2.0099 2.01063-2.0099 1.11073 0 2.01127.8999 2.01127 2.0099 0 1.1108-.89986 2.0114-2.01127 2.0114zm13.86907 0c-1.1101 0-2.012-.9006-2.012-2.0114 0-1.11.9013-2.0099 2.012-2.0099s2.0106.8999 2.0106 2.0099c.0007 1.1108-.8999 2.0114-2.0106 2.0114zm2.5564-8.8012h-19.10813v-10.02249h19.10813z" fill="#212121"/></svg>