<svg fill="none" height="45" viewBox="0 0 45 45" width="45" xmlns="http://www.w3.org/2000/svg"><g fill="#17799c"><rect fill-opacity=".08" height="45" rx="5" width="45"/><path d="m30.0329 18.3549h-8.0879l-1.6089-1.9121c-.0541-.0651-.1352-.1016-.2197-.0989h-6.5254c-.9962.0072-1.8.8169-1.8 1.8132v11.7605c.0012.9997.8113 1.8098 1.811 1.811h16.4309c.9997-.0012 1.8098-.8113 1.811-1.811v-9.7517c-.0012-.9997-.8113-1.8098-1.811-1.811z"/><path d="m32.4094 16.0111h-8.0902l-1.6088-1.9121c-.0541-.065-.1352-.1015-.2198-.0989h-6.5231c-.904.0015-1.6684.6693-1.7912 1.5649h5.9495c.312-.0008.6082.1369.8088.3758l1.3736 1.633h7.7254c1.4288.0024 2.5866 1.1602 2.589 2.589v9.2045c.9059-.113 1.5861-.8826 1.5868-1.7956v-9.7518c-.0023-.9945-.8055-1.8015-1.8-1.8088z"/></g></svg>